<svg width="14" height="15" viewBox="0 0 14 15" fill="none" xmlns="http://www.w3.org/2000/svg">
<path d="M1.55566 4.11144H12.4443C12.6152 4.11144 12.7367 4.16985 12.7979 4.22082C12.8181 4.23772 12.828 4.25054 12.833 4.25793V13.296C12.8283 13.3032 12.8193 13.3172 12.7979 13.3351C12.7367 13.386 12.6152 13.4444 12.4443 13.4444H1.55566C1.38482 13.4444 1.26331 13.386 1.20215 13.3351C1.18072 13.3172 1.17168 13.3032 1.16699 13.296V4.25793C1.17201 4.25054 1.18192 4.23772 1.20215 4.22082C1.26331 4.16985 1.38482 4.11144 1.55566 4.11144Z" stroke="#2B3722" stroke-width="2.33333" stroke-linecap="round" stroke-linejoin="round"/>
<path d="M10.1113 1.38889V3.72223" stroke="#2B3722" stroke-width="2.33333" stroke-linecap="round" stroke-linejoin="round"/>
<path d="M3.88867 1.38889V3.72223" stroke="#2B3722" stroke-width="2.33333" stroke-linecap="round" stroke-linejoin="round"/>
<path d="M2 7.99997L12 7.99997" stroke="#2B3722" stroke-width="2.33333" stroke-linecap="round" stroke-linejoin="round"/>
</svg>
