<svg width="1440" height="923" viewBox="0 0 1440 923" fill="none" xmlns="http://www.w3.org/2000/svg">
<g clip-path="url(#clip0_831_134)">
<path d="M1455.89 -8.86011H-15.8901V931.87H1455.89V-8.86011Z" fill="url(#paint0_radial_831_134)"/>
<g opacity="0.11">
<path d="M1101.5 143.92C1131.45 210.95 1135.61 205.54 1169.52 182.5C1220.31 147.99 1287.39 117.99 1317.94 62.08C1340.08 21.56 1343.47 -39.94 1371.92 -80.27C1203.76 -94.03 1331.62 38.46 1270.79 80.58C1212.68 120.81 1054.56 38.91 1101.5 143.93V143.92Z" fill="#2B3722"/>
<path d="M1260.77 149.04C1236.34 180.93 1213.28 235.64 1216.17 276.37C1261.64 272.99 1323.65 280.61 1343.81 228.24C1349.69 212.96 1319.72 170.53 1328.86 160.16C1338.03 149.75 1435.64 150.47 1464.32 115.35C1492.09 81.34 1492.04 3.53995 1443.11 -11.8C1402.99 63.7 1312.1 82.04 1260.78 149.05L1260.77 149.04Z" fill="#2B3722"/>
<path d="M814.81 208.05C823.95 225.49 824.97 223.97 833.66 217.24C846.68 207.15 864.13 198 871.37 182.53C876.62 171.31 876.49 154.8 883.43 143.53C838.19 142.66 874.63 175.98 859.06 188.27C844.18 200.01 800.49 180.74 814.81 208.06V208.05Z" fill="#2B3722"/>
<path d="M857.52 206.76C851.52 215.7 846.26 230.73 847.72 241.58C859.83 239.91 876.56 240.92 881.08 226.56C882.4 222.37 873.67 211.52 875.94 208.59C878.22 205.65 904.36 204.21 911.44 194.33C918.3 184.76 916.99 163.94 903.63 160.65C894.16 181.53 870.14 187.96 857.52 206.75V206.76Z" fill="#2B3722"/>
<path d="M653.94 142.54C626.18 159.95 625.98 156.91 619.14 139.94C608.89 114.52 591.47 86.74 594.04 58.42C595.9 37.89 609.93 14.26 609.4 -7.77002C675.16 28.91 594.84 46.26 606.92 76.99C618.46 106.34 697.43 115.27 653.94 142.54Z" fill="#2B3722"/>
<path d="M593.62 104.86C594.75 122.75 589.71 148.76 578.51 163.14C562.49 150.59 537.61 138 543.15 113.58C544.77 106.45 566.42 98.17 565.61 92.06C564.8 85.92 528.43 61.94 526.53 41.79C524.69 22.28 544.04 -6.54996 565.99 -0.0799578C562.1 37.88 591.24 67.26 593.61 104.85L593.62 104.86Z" fill="#2B3722"/>
<path d="M1069.99 518.53C1051.83 499.27 1054.21 498.64 1066.58 490.54C1085.11 478.41 1104.38 460.24 1127.23 457.82C1143.79 456.06 1164.72 463.46 1182.09 459.58C1163.37 517.46 1136.99 456.54 1114.54 470.96C1093.1 484.73 1098.45 548.71 1070 518.53H1069.99Z" fill="#2B3722"/>
<path d="M1090.36 464.81C1076.36 468.52 1054.95 468.62 1041.8 462.01C1049.22 447.34 1055.28 425.65 1075.51 426.19C1081.41 426.35 1091.38 442.2 1096.1 440.6C1100.84 438.99 1114.12 406.4 1129.79 401.72C1144.96 397.19 1170.85 407.98 1169.17 426.4C1138.48 429.29 1119.78 457.01 1090.37 464.8L1090.36 464.81Z" fill="#2B3722"/>
<path d="M396.14 444.4C395.35 465.04 393.61 464.13 381.8 462.13C364.1 459.13 342.45 459.16 327.93 448.34C317.4 440.5 309.69 425.11 297.46 418.04C341.92 395.14 321.58 443.85 342.87 447.65C363.2 451.28 397.39 412.06 396.15 444.4H396.14Z" fill="#2B3722"/>
<path d="M353.16 464.05C363.36 469.42 375.7 480.79 379.41 491.57C366.61 495.94 350.49 505.04 339.2 493.92C335.91 490.68 339.42 476.34 335.77 474.74C332.11 473.13 305.51 484.55 293.79 478.85C282.44 473.32 273.87 453.36 285.55 443.79C304.85 458.53 331.73 452.77 353.16 464.05Z" fill="#2B3722"/>
<path d="M234.97 322.31C209.15 374.61 206.01 370.19 179.79 350.86C140.52 321.91 88.1799 296.06 65.6299 250.74C49.2899 217.89 48.4699 168.97 27.1099 136.08C161.03 130.28 55.4799 231.56 102.49 266.85C147.39 300.56 275.42 240.36 234.96 322.3L234.97 322.31Z" fill="#2B3722"/>
<path d="M108.37 321.52C126.79 347.58 143.43 391.72 139.89 423.96C103.9 419.89 54.43 424.05 40.03 381.86C35.83 369.55 60.91 336.78 53.98 328.27C47.02 319.72 -30.49 317.33 -52.19 288.56C-73.2 260.71 -70.79 198.95 -31.47 188.26C-1.91998 249.42 69.68 266.75 108.38 321.51L108.37 321.52Z" fill="#2B3722"/>
<path d="M-18.5101 906.95C-54.2101 866.95 -49.3201 865.45 -23.5901 847.47C14.9499 820.53 55.4299 780.66 102.11 774.16C135.95 769.45 178.09 783.99 213.72 774.7C171.73 899.22 122.07 770.86 75.3899 802.9C30.7999 833.51 37.4199 969.62 -18.5101 906.95Z" fill="#2B3722"/>
<path d="M26.5601 791.2C-2.19991 799.93 -45.7999 801.39 -72.1499 788.07C-56.0499 756.36 -42.2599 709.74 -1.1099 709.73C10.9001 709.73 30.1401 742.95 39.8601 739.26C49.6101 735.55 78.8401 665.28 111.06 654.39C142.26 643.84 194.26 665.35 189.62 704.72C126.92 712.68 86.9901 772.87 26.5601 791.21V791.2Z" fill="#2B3722"/>
<path d="M1218.05 629.13C1173.09 668.3 1178.27 670.63 1204.16 694.06C1242.94 729.15 1282.05 778.79 1332.66 792.47C1369.34 802.38 1417.88 792.2 1455.9 807.42C1426.9 664.17 1354.23 798.89 1307.18 757.03C1262.24 717.04 1288.5 567.76 1218.06 629.14L1218.05 629.13Z" fill="#2B3722"/>
<path d="M1251.65 763.14C1221.13 749.5 1173.22 741.82 1142.29 752.85C1155.64 790.08 1164.36 843.45 1209.77 849.2C1223.02 850.88 1248.88 816.89 1259.09 822.32C1269.34 827.77 1291.8 909.39 1325.84 925.89C1358.8 941.87 1419.17 925.39 1419.54 881.3C1351.47 863.78 1315.79 791.8 1251.66 763.14H1251.65Z" fill="#2B3722"/>
<path d="M639.22 803.35C686.23 783.36 686.03 788.2 693.98 816.73C705.89 859.47 728.74 907.86 719.82 951.75C713.35 983.56 687.05 1017.03 684.11 1051.84C586.1 976.55 716.47 970.68 702.57 919.08C689.29 869.79 565.57 834.67 639.23 803.35H639.22Z" fill="#2B3722"/>
<path d="M728.43 878.76C729.71 850.29 742.16 810.69 762.38 791.05C785.63 815.08 822.94 841.53 809.97 878.5C806.18 889.29 770.42 896.54 770.65 906.39C770.88 916.27 824.45 963.73 824.02 995.95C823.6 1027.15 787.97 1067.37 754.25 1051.32C766.92 992.6 725.74 938.58 728.42 878.77L728.43 878.76Z" fill="#2B3722"/>
<path d="M434.56 725.76C452.35 723.82 451.83 725.46 451.85 736.04C451.88 751.9 455.1 770.82 447.97 784.9C442.8 795.1 430.76 803.8 426.51 815.4C400.36 779.45 445.06 791.02 445.18 771.93C445.29 753.7 406.68 728.8 434.56 725.76Z" fill="#2B3722"/>
<path d="M457.71 760.84C460.81 751.24 468.73 739 477.42 734.39C483.05 745.03 493.21 757.96 485.35 769.25C483.06 772.54 470.27 771.3 469.43 774.69C468.59 778.09 482.29 799.9 479.12 810.87C476.06 821.49 460.23 831.53 450.31 822.53C460.09 803.78 451.2 781.01 457.71 760.84Z" fill="#2B3722"/>
</g>
</g>
<defs>
<radialGradient id="paint0_radial_831_134" cx="0" cy="0" r="1" gradientUnits="userSpaceOnUse" gradientTransform="translate(720 461.5) scale(617.57 617.57)">
<stop stop-color="white"/>
<stop offset="1" stop-color="#FFF1BF"/>
</radialGradient>
<clipPath id="clip0_831_134">
<rect width="1440" height="923" fill="white"/>
</clipPath>
</defs>
</svg>
