<svg width="1440" height="701" viewBox="0 0 1440 701" fill="none" xmlns="http://www.w3.org/2000/svg">
<g clip-path="url(#clip0_363_387)">
<rect width="1440" height="701" fill="url(#paint0_radial_363_387)"/>
<path d="M190.281 480.284C195.797 488.559 193.561 499.74 185.286 505.257C177.011 510.773 165.83 508.537 160.313 500.262C154.796 491.987 157.032 480.806 165.308 475.289C173.583 469.772 184.764 472.008 190.281 480.284Z" fill="#5E4496"/>
<path d="M221.911 523.805C218.13 528.87 213.549 533.311 208.337 536.938" stroke="#5E4496" stroke-width="0.516938" stroke-miterlimit="10"/>
<path d="M233.172 495.673C232.401 502.139 230.572 508.305 227.85 513.987" stroke="#5E4496" stroke-width="0.516938" stroke-miterlimit="10"/>
<path d="M229 465.804C231.349 471.382 232.86 477.414 233.386 483.751" stroke="#5E4496" stroke-width="0.516938" stroke-miterlimit="10"/>
<path d="M210.092 441.587C215.065 445.324 219.433 449.839 223.011 454.959" stroke="#5E4496" stroke-width="0.516938" stroke-miterlimit="10"/>
<path d="M181.642 430.191C187.973 430.931 194.023 432.68 199.608 435.286" stroke="#5E4496" stroke-width="0.516938" stroke-miterlimit="10"/>
<path d="M149.737 435.366C155.621 432.601 162.056 430.772 168.858 430.093" stroke="#5E4496" stroke-width="0.516938" stroke-miterlimit="10"/>
<path d="M126.474 455.013C130.071 449.851 134.481 445.287 139.528 441.507" stroke="#5E4496" stroke-width="0.516938" stroke-miterlimit="10"/>
<path d="M116.081 484.253C116.545 477.891 118.038 471.786 120.387 466.11" stroke="#5E4496" stroke-width="0.516938" stroke-miterlimit="10"/>
<path d="M121.648 513.975C119.024 508.482 117.219 502.506 116.412 496.187" stroke="#5E4496" stroke-width="0.516938" stroke-miterlimit="10"/>
<path d="M141.325 537.042C136.193 533.494 131.642 529.145 127.862 524.166" stroke="#5E4496" stroke-width="0.516938" stroke-miterlimit="10"/>
<path d="M169.432 547.22C163.004 546.645 156.844 545.024 151.149 542.523" stroke="#5E4496" stroke-width="0.516938" stroke-miterlimit="10"/>
<path d="M198.758 542.357C193.185 544.847 187.136 546.505 180.762 547.153" stroke="#5E4496" stroke-width="0.516938" stroke-miterlimit="10"/>
<path d="M125.031 467.474C121.159 468.556 117.146 466.269 116.063 462.36C114.987 458.451 117.25 454.402 121.122 453.319C124.994 452.236 129.007 454.524 130.09 458.433C131.166 462.342 128.903 466.391 125.031 467.474ZM127.233 457.809C125.82 455.485 122.817 454.757 120.523 456.182C118.229 457.613 117.519 460.653 118.932 462.984C120.345 465.308 123.349 466.036 125.643 464.611C127.936 463.18 128.646 460.14 127.233 457.809Z" fill="#5E4496"/>
<path d="M120.522 495.306C117.708 498.181 113.09 498.199 110.203 495.349C107.315 492.498 107.26 487.862 110.074 484.987C112.888 482.112 117.506 482.093 120.393 484.944C123.281 487.794 123.336 492.431 120.522 495.306ZM117.604 485.837C115.219 484.528 112.252 485.396 110.979 487.776C109.707 490.155 110.606 493.153 112.992 494.462C115.378 495.771 118.344 494.902 119.617 492.523C120.889 490.143 119.99 487.146 117.604 485.837Z" fill="#5E4496"/>
<path d="M130.504 521.676C129.501 525.566 125.507 527.891 121.58 526.863C117.659 525.836 115.292 521.847 116.295 517.951C117.298 514.06 121.292 511.736 125.219 512.764C129.14 513.791 131.508 517.78 130.504 521.676ZM123.25 514.923C120.528 514.978 118.393 517.211 118.478 519.908C118.564 522.606 120.84 524.753 123.562 524.698C126.284 524.643 128.419 522.41 128.333 519.712C128.247 517.015 125.972 514.868 123.25 514.923Z" fill="#5E4496"/>
<path d="M147.167 548.492C143.252 549.557 139.215 547.281 138.138 543.403C137.068 539.525 139.368 535.525 143.283 534.454C147.198 533.384 151.235 535.665 152.311 539.543C153.382 543.422 151.082 547.422 147.167 548.492ZM149.449 538.932C148.03 536.632 144.983 535.91 142.653 537.317C140.322 538.724 139.582 541.721 141.007 544.021C142.433 546.321 145.473 547.043 147.803 545.636C150.134 544.229 150.874 541.232 149.449 538.932Z" fill="#5E4496"/>
<path d="M180.137 554.469C177.281 557.344 172.638 557.387 169.775 554.567C166.912 551.741 166.906 547.123 169.769 544.248C172.626 541.373 177.268 541.33 180.131 544.15C182.994 546.976 183 551.594 180.137 554.469ZM177.342 545.043C174.962 543.758 171.965 544.652 170.65 547.037C169.329 549.417 170.191 552.389 172.571 553.668C174.95 554.946 177.947 554.059 179.262 551.674C180.584 549.294 179.721 546.321 177.342 545.043Z" fill="#5E4496"/>
<path d="M211.689 543.189C210.649 547.11 206.648 549.459 202.758 548.444C198.868 547.428 196.562 543.422 197.601 539.507C198.641 535.592 202.642 533.237 206.532 534.252C210.423 535.268 212.729 539.274 211.689 543.189ZM204.563 536.418C201.865 536.491 199.712 538.761 199.755 541.483C199.797 544.205 202.024 546.352 204.728 546.272C207.425 546.199 209.578 543.929 209.536 541.207C209.493 538.485 207.266 536.338 204.563 536.418Z" fill="#5E4496"/>
<path d="M228.284 526.686C224.406 527.744 220.406 525.432 219.354 521.511C218.301 517.596 220.589 513.559 224.467 512.501C228.345 511.442 232.346 513.755 233.398 517.676C234.45 521.59 232.162 525.628 228.284 526.686ZM230.548 517.033C229.153 514.697 226.149 513.95 223.849 515.363C221.55 516.776 220.816 519.816 222.21 522.153C223.605 524.49 226.608 525.236 228.908 523.823C231.208 522.41 231.942 519.37 230.548 517.033Z" fill="#5E4496"/>
<path d="M239.545 495.086C236.713 497.942 232.095 497.93 229.226 495.061C226.357 492.192 226.332 487.556 229.165 484.699C231.997 481.842 236.615 481.855 239.484 484.723C242.353 487.592 242.377 492.229 239.545 495.086ZM236.688 485.598C234.309 484.271 231.336 485.121 230.051 487.494C228.761 489.868 229.642 492.871 232.021 494.199C234.401 495.526 237.374 494.676 238.658 492.302C239.949 489.929 239.068 486.925 236.688 485.598Z" fill="#5E4496"/>
<path d="M233.538 462.085C232.511 465.969 228.498 468.269 224.583 467.211C220.668 466.159 218.326 462.152 219.359 458.262C220.387 454.378 224.4 452.078 228.314 453.136C232.229 454.188 234.572 458.194 233.538 462.085ZM226.326 455.289C223.604 455.326 221.451 457.546 221.519 460.244C221.586 462.947 223.849 465.107 226.571 465.07C229.293 465.033 231.446 462.813 231.379 460.115C231.312 457.412 229.049 455.252 226.326 455.289Z" fill="#5E4496"/>
<path d="M206.66 445.398C202.739 446.438 198.714 444.132 197.668 440.253C196.622 436.369 198.953 432.381 202.868 431.341C206.788 430.301 210.813 432.607 211.859 436.485C212.905 440.37 210.575 444.358 206.66 445.398ZM209.003 435.855C207.596 433.549 204.562 432.803 202.219 434.198C199.876 435.586 199.118 438.584 200.525 440.89C201.932 443.196 204.966 443.942 207.308 442.547C209.651 441.159 210.41 438.161 209.003 435.855Z" fill="#5E4496"/>
<path d="M180.241 435.44C177.366 438.296 172.724 438.308 169.879 435.47C167.035 432.632 167.059 428.007 169.94 425.151C172.815 422.294 177.458 422.282 180.303 425.12C183.147 427.965 183.123 432.583 180.241 435.44ZM177.507 426.001C175.14 424.704 172.136 425.573 170.797 427.946C169.463 430.32 170.301 433.292 172.669 434.589C175.036 435.886 178.039 435.017 179.379 432.644C180.712 430.271 179.874 427.298 177.507 426.001Z" fill="#5E4496"/>
<path d="M149.43 443.25C146.555 446.107 141.913 446.119 139.068 443.281C136.224 440.437 136.248 435.818 139.129 432.962C142.004 430.105 146.647 430.093 149.492 432.931C152.336 435.776 152.311 440.394 149.43 443.25ZM146.696 433.806C144.329 432.509 141.325 433.378 139.986 435.751C138.652 438.124 139.49 441.097 141.858 442.394C144.225 443.691 147.228 442.822 148.568 440.449C149.901 438.076 149.063 435.103 146.696 433.806Z" fill="#5E4496"/>
<path d="M145.925 513.632C143.301 510.507 141.184 506.977 139.68 503.172" stroke="#5E4496" stroke-width="0.516938" stroke-miterlimit="10"/>
<path d="M161.714 524.765C157.903 523.352 154.428 521.364 151.364 518.924" stroke="#5E4496" stroke-width="0.516938" stroke-miterlimit="10"/>
<path d="M180.785 526.704C176.883 527.31 172.827 527.316 168.741 526.631" stroke="#5E4496" stroke-width="0.516938" stroke-miterlimit="10"/>
<path d="M198.678 518.813C195.443 521.401 191.797 523.456 187.888 524.875" stroke="#5E4496" stroke-width="0.516938" stroke-miterlimit="10"/>
<path d="M210.074 503.576C208.532 507.35 206.422 510.782 203.865 513.785" stroke="#5E4496" stroke-width="0.516938" stroke-miterlimit="10"/>
<path d="M212.564 484.13C213.096 488.051 213.01 492.119 212.24 496.211" stroke="#5E4496" stroke-width="0.516938" stroke-miterlimit="10"/>
<path d="M204.948 465.969C207.401 469.138 209.346 472.686 210.698 476.472" stroke="#5E4496" stroke-width="0.516938" stroke-miterlimit="10"/>
<path d="M188.946 453.931C192.831 455.466 196.36 457.607 199.443 460.213" stroke="#5E4496" stroke-width="0.516938" stroke-miterlimit="10"/>
<path d="M168.333 451.839C172.535 451.092 176.933 451.05 181.362 451.808" stroke="#5E4496" stroke-width="0.516938" stroke-miterlimit="10"/>
<path d="M150.447 460.25C153.542 457.632 157.041 455.521 160.809 454.004" stroke="#5E4496" stroke-width="0.516938" stroke-miterlimit="10"/>
<path d="M139.215 476.466C140.573 472.643 142.506 469.144 144.898 466.049" stroke="#5E4496" stroke-width="0.516938" stroke-miterlimit="10"/>
<path d="M137.576 495.746C136.909 491.954 136.817 488.008 137.374 484.02" stroke="#5E4496" stroke-width="0.516938" stroke-miterlimit="10"/>
<path d="M147.571 467.657C144.977 467.682 142.867 465.578 142.855 462.966C142.842 460.348 144.934 458.213 147.528 458.188C150.121 458.164 152.232 460.268 152.244 462.88C152.256 465.498 150.164 467.633 147.571 467.657ZM150.568 462.011C150.079 460.323 148.335 459.363 146.665 459.87C144.995 460.378 144.041 462.146 144.524 463.834C145.014 465.522 146.757 466.483 148.427 465.975C150.097 465.467 151.051 463.7 150.568 462.011Z" fill="#5E4496"/>
<path d="M140.072 484.222C137.839 485.537 134.958 484.766 133.643 482.509C132.328 480.252 133.074 477.353 135.307 476.037C137.546 474.722 140.421 475.493 141.736 477.75C143.051 480.007 142.305 482.907 140.072 484.222ZM139.852 477.83C138.585 476.612 136.597 476.649 135.399 477.921C134.206 479.188 134.261 481.206 135.527 482.424C136.793 483.641 138.781 483.604 139.98 482.332C141.173 481.066 141.118 479.047 139.852 477.83Z" fill="#5E4496"/>
<path d="M141.84 502.316C140.555 504.567 137.68 505.344 135.411 504.041C133.142 502.738 132.34 499.857 133.625 497.606C134.909 495.355 137.784 494.578 140.054 495.881C142.323 497.184 143.125 500.065 141.84 502.316ZM138.463 496.89C136.763 496.468 135.05 497.496 134.653 499.19C134.249 500.885 135.307 502.603 137.008 503.032C138.708 503.454 140.421 502.426 140.818 500.732C141.222 499.037 140.164 497.318 138.463 496.89Z" fill="#5E4496"/>
<path d="M147.693 521.817C145.075 521.817 142.946 519.725 142.934 517.131C142.922 514.538 145.026 512.433 147.644 512.427C150.262 512.421 152.391 514.519 152.403 517.113C152.415 519.706 150.311 521.811 147.693 521.817ZM150.721 516.25C150.226 514.58 148.452 513.62 146.763 514.097C145.075 514.58 144.109 516.324 144.604 517.994C145.1 519.664 146.873 520.624 148.562 520.147C150.25 519.664 151.217 517.92 150.721 516.25Z" fill="#5E4496"/>
<path d="M167.206 531.096C164.943 532.405 162.049 531.646 160.74 529.408C159.431 527.169 160.208 524.294 162.477 522.985C164.747 521.676 167.634 522.434 168.943 524.673C170.252 526.912 169.475 529.793 167.206 531.096ZM167.053 524.759C165.787 523.56 163.774 523.609 162.551 524.869C161.328 526.129 161.364 528.123 162.624 529.322C163.891 530.521 165.903 530.472 167.126 529.212C168.35 527.952 168.313 525.958 167.053 524.759Z" fill="#5E4496"/>
<path d="M188.744 529.396C187.435 531.659 184.548 532.448 182.303 531.158C180.052 529.867 179.293 526.986 180.602 524.722C181.911 522.459 184.798 521.67 187.043 522.961C189.294 524.251 190.053 527.133 188.744 529.396ZM185.453 523.982C183.758 523.573 182.04 524.625 181.605 526.325C181.177 528.026 182.199 529.738 183.893 530.148C185.587 530.558 187.306 529.506 187.741 527.805C188.169 526.105 187.147 524.392 185.453 523.982Z" fill="#5E4496"/>
<path d="M201.858 521.921C199.265 521.921 197.167 519.81 197.173 517.192C197.173 514.574 199.283 512.452 201.877 512.445C204.47 512.445 206.568 514.556 206.562 517.174C206.562 519.792 204.452 521.915 201.858 521.921ZM204.892 516.293C204.415 514.605 202.678 513.632 201.002 514.122C199.332 514.611 198.36 516.385 198.837 518.073C199.314 519.761 201.051 520.734 202.727 520.245C204.397 519.755 205.37 517.981 204.892 516.293Z" fill="#5E4496"/>
<path d="M214.197 504.151C211.952 505.448 209.077 504.665 207.78 502.395C206.477 500.126 207.242 497.233 209.487 495.936C211.732 494.639 214.607 495.422 215.903 497.691C217.2 499.961 216.442 502.854 214.197 504.151ZM214.019 497.765C212.765 496.535 210.771 496.566 209.566 497.826C208.361 499.086 208.404 501.105 209.664 502.328C210.918 503.558 212.912 503.527 214.117 502.267C215.322 501.007 215.279 498.988 214.019 497.765Z" fill="#5E4496"/>
<path d="M216.02 482.595C214.723 484.84 211.842 485.592 209.578 484.277C207.321 482.962 206.538 480.075 207.835 477.83C209.132 475.585 212.013 474.832 214.276 476.148C216.533 477.463 217.316 480.35 216.02 482.595ZM212.68 477.151C210.979 476.717 209.266 477.732 208.851 479.426C208.435 481.121 209.481 482.846 211.181 483.28C212.882 483.714 214.594 482.699 215.01 481.004C215.426 479.31 214.38 477.585 212.68 477.151Z" fill="#5E4496"/>
<path d="M202.103 467.682C199.485 467.669 197.369 465.553 197.375 462.966C197.381 460.378 199.504 458.28 202.116 458.292C204.734 458.304 206.85 460.421 206.844 463.008C206.844 465.602 204.715 467.694 202.103 467.682ZM205.174 462.134C204.691 460.464 202.923 459.485 201.229 459.956C199.54 460.427 198.562 462.164 199.045 463.834C199.528 465.51 201.296 466.483 202.99 466.012C204.685 465.541 205.657 463.804 205.174 462.134Z" fill="#5E4496"/>
<path d="M187.337 457.026C185.062 458.317 182.175 457.546 180.884 455.295C179.593 453.044 180.388 450.175 182.664 448.879C184.939 447.588 187.827 448.359 189.117 450.61C190.408 452.861 189.613 455.729 187.337 457.026ZM187.233 450.689C185.979 449.484 183.961 449.521 182.731 450.769C181.502 452.023 181.52 454.017 182.78 455.222C184.034 456.427 186.053 456.39 187.282 455.142C188.512 453.888 188.493 451.894 187.233 450.689Z" fill="#5E4496"/>
<path d="M166.846 456.69C164.57 457.98 161.683 457.21 160.392 454.959C159.101 452.707 159.897 449.839 162.172 448.542C164.448 447.251 167.335 448.022 168.626 450.273C169.916 452.524 169.121 455.393 166.846 456.69ZM166.735 450.352C165.481 449.147 163.463 449.184 162.233 450.432C161.004 451.686 161.022 453.68 162.282 454.885C163.536 456.09 165.555 456.053 166.784 454.806C168.014 453.552 167.996 451.557 166.735 450.352Z" fill="#5E4496"/>
<path d="M339.602 196.479C372.094 196.479 398.434 222.819 398.434 255.311C398.434 287.804 372.094 314.144 339.602 314.144C307.109 314.144 280.769 287.804 280.769 255.311C280.769 222.819 307.109 196.479 339.602 196.479Z" stroke="#F06F37" stroke-width="1.55081" stroke-miterlimit="10"/>
<path d="M401.022 219.093C371.673 240.441 353.304 252.498 381.894 244.056C354.123 255.819 373.753 254.608 410.693 254.846C373.747 258.639 352.937 259.673 380.989 266.897C352.001 262.682 368.333 271.191 401.022 290.6C366.602 274.158 349.493 264.964 369.3 285.04C347.431 266.897 356.766 281.975 375.606 316.016C354.019 283.584 344.654 267.906 350.71 295.072C341.963 268.604 341.877 286.514 339.847 325.693C338.556 286.514 338.984 268.763 329.044 295.114C336.256 268.065 326.089 284.153 304.093 316.022C323.282 282.507 333.222 267.252 310.387 285.119C331.069 265.239 312.804 274.733 278.677 290.606C310.999 271.65 328.249 262.903 298.624 266.94C327.258 259.734 305.237 258.651 269 254.853C305.231 254.437 325.986 255.654 297.713 244.013C326.848 252.155 307.586 239.86 278.671 219.093C309.702 236.245 328.273 248.155 308.577 224.298C330.836 245.543 319.544 225.467 304.087 193.677C323.245 223.301 334.445 243.188 328.108 212.78C338.122 242.178 337.822 219.399 339.84 184C342.416 219.393 342.66 242.405 351.628 212.817C346.288 243.408 356.705 223.925 375.6 193.671C360.332 226.054 349.628 246.032 371.092 224.378C352.099 248.558 369.624 236.948 401.016 219.087L401.022 219.093ZM339.602 237.303C329.656 237.303 321.594 245.365 321.594 255.311C321.594 258.296 322.334 261.104 323.618 263.581C323.545 263.202 323.502 262.817 323.502 262.419C323.502 259.086 326.206 256.382 329.539 256.382C332.873 256.382 335.577 259.086 335.577 262.419C335.577 265.753 332.873 268.457 329.539 268.457C328.402 268.457 327.356 268.126 326.45 267.582C329.735 271.105 334.409 273.32 339.608 273.32C349.554 273.32 357.616 265.258 357.616 255.311C357.616 245.365 349.554 237.303 339.608 237.303H339.602Z" fill="#F06F37"/>
<mask id="mask0_363_387" style="mask-type:luminance" maskUnits="userSpaceOnUse" x="611" y="7" width="218" height="218">
<path d="M720 225C780.199 225 829 176.199 829 116C829 55.801 780.199 7 720 7C659.801 7 611 55.801 611 116C611 176.199 659.801 225 720 225Z" fill="white"/>
</mask>
<g mask="url(#mask0_363_387)">
<path d="M642.369 108.808C642.506 107.268 642.683 105.736 642.91 104.221C643.455 100.542 644.264 96.9501 645.309 93.4613" stroke="black" stroke-width="0.428617" stroke-miterlimit="10"/>
<path d="M649.562 148.737C646.135 141.578 643.786 133.803 642.72 125.628" stroke="black" stroke-width="0.428617" stroke-miterlimit="10"/>
<path d="M674.496 178.328C668.414 174.01 662.985 168.828 658.39 162.961" stroke="black" stroke-width="0.428617" stroke-miterlimit="10"/>
<path d="M703.509 190.925C698.641 189.934 693.938 188.481 689.45 186.615" stroke="black" stroke-width="0.428617" stroke-miterlimit="10"/>
<path d="M735.925 189.394C730.07 191.053 724.311 191.953 718.939 192.061C712.507 192.189 706.858 191.173 702.234 189.868" stroke="black" stroke-width="0.857234" stroke-linejoin="bevel"/>
<path d="M645.307 93.4649C654.816 61.8053 684.184 38.7378 718.94 38.7378C753.696 38.7378 783.196 61.9085 792.635 93.6754" stroke="black" stroke-width="0.857234" stroke-linejoin="bevel"/>
<mask id="mask1_363_387" style="mask-type:luminance" maskUnits="userSpaceOnUse" x="604" y="9" width="115" height="209">
<path d="M718.763 9.06445C680.728 14.2915 642.69 19.5185 604.655 24.7456C642.69 89.0184 680.728 153.295 718.763 217.568V9.06445Z" fill="white"/>
</mask>
<g mask="url(#mask1_363_387)">
<path d="M719.367 47.7551C719.738 54.163 720.114 59.6089 720.572 64.0226C721.608 74.0803 722.876 77.6476 725.415 77.6476C726.769 77.6476 728.173 76.5493 730.168 72.3627C729.792 76.3511 730.258 77.8086 730.907 78.6178C731.352 79.1752 731.984 79.4807 732.682 79.4807C734.457 79.4807 736.947 77.6889 743.33 68.9399C745.692 65.703 748.38 61.8095 751.431 57.2844C748.941 61.8591 746.823 65.8599 745.118 69.2992C740.287 79.0266 739.899 81.9663 740.836 83.56C741.27 84.2949 742.025 84.6995 742.963 84.6995C743.986 84.6995 745.522 84.2867 748.768 82.1727C746.241 85.4964 745.873 87.1231 746.348 88.2544C746.621 88.9026 747.302 89.6747 749.003 89.6747C752.851 89.6747 762.413 85.5047 776.72 78.7293C771.294 81.9869 766.707 84.8151 763.02 87.2718C755.126 92.5277 752.426 95.3353 753.053 97.6268C753.648 99.8026 756.786 100.096 759.779 100.096C760.299 100.096 760.857 100.083 761.451 100.063C756.732 101.9 755.609 103.304 755.72 104.794C755.898 107.135 759.379 108.485 769.023 109.951C774.647 110.806 782.091 111.627 790.712 112.511C766.426 112.668 757.612 113.287 756.848 117.086C756.505 118.791 757.694 120.674 763.342 123.77C761.53 123.44 760.072 123.279 758.962 123.279H758.953C758.177 123.279 755.853 123.287 755.275 125.063C754.697 126.85 756.071 129.352 764.717 136.272C769.147 139.819 775.035 144.171 781.856 149.133C766.633 140.434 756.472 134.926 752.252 134.922C750.613 134.922 749.895 135.694 749.581 136.342C748.925 137.693 749.292 139.868 752.43 144.79C748.768 141.784 747.112 141.219 746.034 141.219C745.204 141.219 744.515 141.586 744.094 142.251C743.161 143.729 743.384 146.73 747.512 156.561C749.775 161.941 752.921 168.72 756.6 176.491C752.108 169.249 748.161 162.99 744.899 158.275C739.123 149.93 736.712 148.217 734.874 148.217C734.135 148.217 733.483 148.526 732.992 149.109C732.158 150.104 731.526 151.995 731.972 157.672C729.664 152.098 728.058 150.694 726.48 150.694C722.335 150.694 721.22 160.595 719.263 188.712C718.735 178.596 718.231 169.872 717.513 163.502C716.472 154.282 715.13 150.855 712.554 150.851C710.973 150.851 709.251 152.292 706.683 157.948C707.315 152.325 706.749 150.45 705.952 149.468C705.486 148.894 704.829 148.576 704.103 148.576C702.29 148.576 699.854 150.298 693.859 158.692C690.436 163.489 686.291 169.843 681.572 177.184C685.498 169.175 688.859 162.205 691.237 156.71C695.341 147.222 695.56 144.274 694.627 142.775C694.193 142.077 693.471 141.693 692.596 141.693C691.464 141.693 689.734 142.255 685.882 145.256C689.164 140.393 689.581 138.233 688.946 136.887C688.64 136.235 687.926 135.463 686.278 135.463C681.951 135.463 671.39 141.078 655.54 149.901C662.823 144.691 669.103 140.133 673.772 136.437C682.257 129.716 683.603 127.247 683.025 125.438C682.43 123.58 679.92 123.58 679.094 123.58C677.942 123.58 676.456 123.737 674.619 124.047C680.457 120.946 681.695 119.055 681.357 117.329C680.89 114.922 677.336 113.799 668.244 113.192C662.563 112.812 655.007 112.68 646.258 112.602C655.453 111.656 663.388 110.781 669.334 109.869C678.908 108.395 682.36 107.045 682.53 104.704C682.641 103.188 681.472 101.764 676.551 99.9059C677.108 99.9224 677.633 99.9348 678.132 99.9348C681.344 99.9348 684.714 99.6292 685.321 97.3749C686.254 93.9233 679.511 89.204 660.486 77.9696C675.601 84.9555 685.68 89.2866 689.656 89.2866C691.365 89.2866 692.034 88.5145 692.294 87.8663C692.691 86.8837 692.682 85.5335 689.652 81.8053C693.095 83.9316 694.722 84.3445 695.799 84.3445C697.149 84.3445 697.781 83.593 698.041 83.1471C698.954 81.5699 698.574 78.6013 693.768 69.2248C691.91 65.5998 689.569 61.3471 686.799 56.4421C690.056 61.0994 692.971 65.1828 695.457 68.4858C702.174 77.4122 704.635 79.2041 706.427 79.2041C707.121 79.2041 707.736 78.8986 708.157 78.3453C708.834 77.4659 709.148 75.8722 708.652 72.2389C710.865 76.4502 712.356 77.5526 713.756 77.5526C717.471 77.5526 718.52 70.0176 719.375 47.7675M719.086 18.3623C717.913 53.8781 717.798 76.2975 713.751 76.2975C711.794 76.2975 708.917 71.0456 704.557 59.4933C707.979 72.338 708.491 77.949 706.419 77.949C702.616 77.949 690.139 59.0969 670.998 31.3721C689.363 63.4528 701.431 83.0934 695.795 83.0934C693.512 83.0934 688.322 79.8647 679.466 72.9366C690.634 83.6715 693.359 88.0356 689.648 88.0356C684.119 88.0356 664.288 78.3329 636.811 65.5585C673.314 86.9662 695.523 98.692 678.124 98.692C674.8 98.692 670.032 98.2626 663.644 97.3956C702.154 107.086 672.538 108.543 623.806 113.655C672.538 114.216 700.452 112.577 662.426 128.233C670.75 125.909 676.134 124.823 679.086 124.823C690.023 124.823 667.443 139.757 636.816 161.751C661.745 147.973 680.7 136.706 686.274 136.71C690.032 136.71 687.711 141.83 677.042 154.749C685.622 146.561 690.494 142.936 692.591 142.94C697.818 142.94 685.833 165.43 670.998 195.937C687.691 170.132 699.887 149.819 704.098 149.819C706.386 149.819 706.311 155.83 703.31 170.24C707.628 157.556 710.523 152.094 712.55 152.094C716.84 152.094 717.248 176.606 719.094 208.943C721.447 176.594 722.352 151.937 726.476 151.941C728.421 151.941 731.08 157.428 734.944 170.186C732.397 155.583 732.517 149.464 734.866 149.464C739.139 149.464 750.791 169.686 767.182 195.937C752.591 164.988 741.096 142.465 746.026 142.465C748.033 142.465 752.764 146.206 761.117 154.637C750.749 141.441 748.47 136.169 752.244 136.169C757.768 136.169 776.274 147.478 801.364 161.751C770.531 139.328 748.71 124.526 758.953 124.526C761.827 124.526 767.219 125.69 775.638 128.176C738.285 112.354 764.684 113.985 814.374 113.659C764.684 108.556 736.691 107.164 774.424 97.4492C767.888 98.3989 763.066 98.8695 759.771 98.8695C743.421 98.8695 764.775 87.2965 801.364 65.5667C773.792 78.7376 754.482 88.4485 748.995 88.4485C745.271 88.4485 747.921 83.9687 758.697 73.0481C750.13 80.1537 745.122 83.4733 742.954 83.4733C737.678 83.4733 749.218 63.8326 767.178 31.3845C748.466 59.5015 736.58 78.2504 732.678 78.2504C730.527 78.2504 730.799 72.5444 733.698 59.5552C729.862 71.1571 727.265 76.4172 725.415 76.4172C721.584 76.4172 720.931 53.8946 719.09 18.3706L719.086 18.3623Z" fill="black"/>
</g>
<path d="M718.936 140.959C732.936 140.959 744.286 129.609 744.286 115.608C744.286 101.607 732.936 90.2572 718.936 90.2572" stroke="black" stroke-width="0.857234" stroke-miterlimit="10"/>
<mask id="mask2_363_387" style="mask-type:luminance" maskUnits="userSpaceOnUse" x="717" y="49" width="138" height="189">
<path d="M818.26 49.1134C830.419 111.892 842.583 174.666 854.742 237.444C808.863 232.196 762.984 226.944 717.105 221.697C750.825 164.17 784.54 106.64 818.26 49.1134Z" fill="white"/>
</mask>
<g mask="url(#mask2_363_387)">
<path d="M816.159 146.111C815.965 119.976 808.979 93.8326 790.569 73.8039C770.739 52.8172 741.362 42.6976 714.736 51.5827C696.193 57.6603 681.392 74.1961 677.494 94.5882C676.028 102.652 677.415 110.253 680.223 117.862C683.98 125.95 691.045 136.904 701.012 136.479C700.553 133.63 697.23 133.139 695.343 131.227C680.71 115.488 682.258 90.8145 696.577 75.2242C722.345 48.3003 766.453 56.1203 788.608 85.6617C812.179 117.586 809.12 158.865 790.441 191.049C809.124 157.92 813.145 113.795 786.246 82.8046C772.559 67.0698 753.158 56.0542 732.737 57.3754C718.493 58.2507 704.686 66.2523 695.132 78.0689C684.62 91.3058 680.71 113.597 695.368 125.063C689.269 111.264 691.726 94.6666 701.28 82.8459C715.128 66.3019 738.398 64.5224 756.87 72.2143C771.552 78.4611 782.411 89.9061 789.459 104.183C808.711 145.104 786.634 192.457 750.446 215.058C769.971 202.341 785.73 183.91 792.968 161.165C802.621 129.885 794.735 94.2455 766.824 75.5916C744.591 60.7652 713.728 62.9782 696.998 85.2035C691.738 92.7715 689.777 104.629 695.433 112.726C696.474 95.1703 710.789 80.0507 728.365 77.2927C757.345 72.6932 780.953 96.5494 786.036 124.105C795.264 175.892 747.584 217.894 699.641 218.122C727.18 216.363 754.294 205.112 771.973 181.941C792.043 155.463 794.603 119.402 773.373 93.6592C762.051 79.836 742.613 74.9888 724.558 79.1713C713.625 81.9624 702.667 89.9763 701.66 101.838C712.663 84.8071 736.899 79.708 754.401 91.1902C780.891 108.886 784.508 144.505 768.236 170.529C742.869 211.697 688.737 215.69 650.401 193.663C681.643 210.434 721.978 213.014 752.002 188.96C774.88 170.566 784.529 139.761 772.799 113.118C766.701 98.8491 753.943 87.8665 738.286 86.3595C729.269 85.8393 719.294 87.21 712.613 94.2992C711.66 95.2447 713.559 95.2529 713.555 95.7277C727.832 88.6799 745.375 92.0944 756.709 104.018C770.404 117.854 771.725 138.271 765.462 155.802C755.355 183.279 725.842 199.269 697.37 197.701C665.099 196.111 637.209 174.133 621.685 146.524C634.385 168.898 654.228 187.036 679.823 194.761C711.577 204.418 747.712 192.259 763.521 163.861C772.625 146.821 771.787 125.455 759.529 108.779C752.46 98.7748 739.219 88.7377 726.371 95.319C748.199 96.3801 762.324 118.762 760.318 140.112C758.823 153.869 751.643 165.698 740.681 174.662C717.799 193.53 686.953 192.424 662.35 176.635C633.014 157.973 620.843 124.683 621.008 92.4082C621.371 114.245 625.537 135.149 638.729 154.204C658.047 182.308 691.676 196.718 722.58 186.433C741.123 180.356 755.924 163.82 759.822 143.428C761.288 135.364 759.9 127.763 757.093 120.154C753.336 112.065 746.271 101.112 736.304 101.537C736.763 104.386 740.086 104.877 741.973 106.789C756.606 122.528 755.057 147.201 740.739 162.792C714.971 189.715 670.863 181.896 648.708 152.354C625.137 120.43 628.196 79.1507 646.875 46.9668C628.192 80.0961 624.171 124.22 651.07 155.211C664.757 170.946 684.158 181.962 704.579 180.64C718.823 179.765 732.63 171.764 742.184 159.947C752.696 146.71 756.606 124.419 741.948 112.953C748.047 126.751 745.59 143.349 736.036 155.17C722.188 171.714 698.918 173.493 680.446 165.802C665.764 159.555 654.905 148.11 647.857 133.832C628.605 92.9119 650.682 45.5588 686.87 22.9578C667.345 35.6745 651.586 54.1054 644.348 76.8509C634.695 108.131 642.581 143.77 670.492 162.424C692.725 177.251 723.588 175.038 740.318 152.812C745.578 145.244 747.539 133.386 741.882 125.29C740.842 142.845 726.527 157.965 708.951 160.723C679.971 165.323 656.363 141.466 651.28 113.911C642.052 62.1235 689.732 20.1214 737.675 19.8943C710.136 21.6532 683.022 32.9041 665.343 56.0749C645.273 82.5528 642.713 118.614 663.943 144.357C675.265 158.18 694.703 163.027 712.758 158.845C723.691 156.053 734.649 148.039 735.656 136.177C724.653 153.209 700.417 158.308 682.915 146.826C656.425 129.13 652.808 93.5106 669.08 67.4868C694.447 26.3187 748.579 22.3261 786.915 44.3532C755.673 27.5821 715.338 25.0016 685.314 49.0559C662.436 67.4497 652.787 98.2545 664.517 124.898C670.615 139.167 683.373 150.149 699.03 151.656C708.047 152.177 718.022 150.806 724.702 143.717C725.656 142.771 723.757 142.763 723.761 142.288C709.484 149.336 691.941 145.921 680.607 133.997C666.912 120.162 665.591 99.745 671.854 82.2142C681.961 54.7371 711.474 38.7463 739.946 40.3153C772.217 41.9049 800.107 63.8824 815.631 91.4916C802.931 69.1177 783.088 50.9799 757.493 43.255C725.739 33.5977 689.604 45.757 673.795 74.1548C664.691 91.1943 665.529 112.561 677.787 129.237C684.856 139.241 698.097 149.278 710.945 142.697C687.692 141.627 673.576 117.825 677.486 95.0589C683.84 59.0187 722.853 41.653 754.607 50.8354C782.097 58.5686 802.39 81.9334 810.635 108.655C814.165 119.687 815.99 132.42 816.151 146.115L816.159 146.111Z" fill="black" stroke="black" stroke-width="0.214309" stroke-miterlimit="10"/>
</g>
<path d="M604.72 24.7783C604.72 24.7783 715.636 212.461 718.935 218.039C718.935 216.354 719.376 -2.11658 719.376 -2.11658" stroke="black" stroke-width="0.642926" stroke-linecap="round" stroke-linejoin="round"/>
<path d="M606.562 27.908C606.648 28.0566 608.651 31.4587 608.737 31.6074C620.393 51.4132 632.057 71.2107 643.737 91C668.65 133.217 693.621 175.397 718.646 217.543" stroke="black" stroke-width="0.642926" stroke-linecap="round" stroke-linejoin="round"/>
<path d="M718.872 218.245L833.161 24.861" stroke="black" stroke-width="0.642926" stroke-linecap="round" stroke-linejoin="round"/>
<path d="M732.827 94.9806C733.794 96.116 734.301 97.5693 734.186 99.0598C734.107 100.084 733.868 101.401 732.968 102.028C732.571 102.305 732.084 102.33 731.622 102.417C731.184 102.499 730.78 102.639 730.416 102.9C729.789 103.35 729.396 104.031 729.074 104.72C728.752 105.41 728.472 106.194 728.009 106.838C727.596 107.416 727.084 107.689 726.382 107.763C725.276 107.883 724.107 107.829 722.997 107.78C721.886 107.73 720.775 107.569 719.685 107.313C719.103 107.177 718.856 108.073 719.438 108.209C721.581 108.713 723.818 108.837 726.015 108.721C726.758 108.684 727.51 108.564 728.104 108.085C728.773 107.549 729.169 106.756 729.516 105.988C729.863 105.22 730.148 104.374 730.759 103.804C731.506 103.106 732.646 103.37 733.472 102.792C734.615 101.995 734.978 100.484 735.094 99.1713C735.251 97.3835 734.628 95.6701 733.472 94.3117C733.083 93.8575 732.427 94.514 732.815 94.9682L732.827 94.9806Z" fill="black"/>
<path d="M739.092 101.157C739.649 102.957 740.281 105.1 739.798 106.995C739.686 107.428 739.5 107.849 739.215 108.176C738.538 108.944 737.535 109.067 736.586 109.257C735.438 109.489 734.277 109.926 733.448 110.785C732.692 111.565 732.345 112.61 731.912 113.58C731.437 114.658 730.789 115.562 729.715 116.103C728.642 116.644 727.535 116.594 726.412 116.384C725.289 116.173 724.203 116.082 723.089 116.318C721.796 116.59 720.62 117.247 719.579 118.043C719.108 118.403 719.571 119.208 720.05 118.844C721.032 118.093 722.114 117.474 723.336 117.214C724.381 116.991 725.396 117.143 726.429 117.329C728.757 117.754 731.102 116.986 732.316 114.852C732.878 113.865 733.146 112.717 733.811 111.792C734.583 110.715 735.884 110.339 737.118 110.1C738.121 109.906 739.112 109.65 739.835 108.873C740.19 108.494 740.442 108.035 740.607 107.544C741.313 105.442 740.611 102.936 739.988 100.917C739.81 100.347 738.914 100.591 739.092 101.165V101.157Z" fill="black"/>
<path d="M742.925 110.418C743.004 112.598 741.836 114.712 739.911 115.761C738.958 116.277 738.103 116.698 737.438 117.581C736.869 118.337 736.493 119.208 736.097 120.063C735.7 120.917 735.308 121.739 734.652 122.379C733.904 123.11 732.892 123.374 731.889 123.56C730.886 123.746 729.804 123.87 728.83 124.291C727.855 124.712 727.178 125.5 726.497 126.334C724.916 128.267 722.41 129.138 719.994 128.358C719.425 128.172 719.181 129.072 719.747 129.253C721.84 129.931 724.214 129.514 725.956 128.176C726.898 127.453 727.451 126.38 728.363 125.637C729.276 124.893 730.436 124.749 731.526 124.563C732.616 124.377 733.71 124.187 734.631 123.576C735.448 123.04 736.022 122.239 736.472 121.388C736.922 120.538 737.29 119.571 737.793 118.713C738.041 118.292 738.322 117.903 738.681 117.569C739.148 117.14 739.738 116.904 740.287 116.611C742.529 115.422 743.933 112.953 743.842 110.422C743.821 109.828 742.892 109.823 742.913 110.422L742.925 110.418Z" fill="black"/>
<path d="M719.348 91.0371C720.723 90.6077 722.213 90.7357 723.443 91.5078C724.612 92.2386 725.433 93.5598 725.603 94.9264C725.772 96.293 725.116 97.7257 723.898 98.4772C722.68 99.2286 721.334 99.2658 720.062 98.8199C719.496 98.6217 719.253 99.5176 719.814 99.7158C722.225 100.566 725.161 99.6126 726.205 97.1725C727.25 94.7324 725.838 91.6647 723.518 90.4839C722.147 89.7861 720.561 89.687 719.1 90.1453C718.53 90.3228 718.774 91.2188 719.348 91.0412V91.0371Z" fill="black"/>
<path d="M742.236 122.841C741.402 123.622 741.357 124.757 740.82 125.703C740.407 126.429 739.631 126.76 738.896 127.082C737.36 127.755 735.807 128.366 734.247 128.977C732.773 129.555 731.691 130.57 730.82 131.871C729.812 133.382 728.454 134.497 726.782 135.211C724.321 136.26 721.592 135.979 719.523 134.237C719.069 133.853 718.409 134.509 718.867 134.893C720.737 136.466 723.12 137.119 725.523 136.586C727.347 136.186 729.222 135.162 730.51 133.799C731.167 133.106 731.6 132.251 732.207 131.52C732.773 130.831 733.516 130.31 734.321 129.943C734.56 129.836 735.077 129.658 735.432 129.522C736.447 129.134 737.442 128.704 738.441 128.279C739.441 127.854 740.514 127.515 741.228 126.722C742.062 125.793 741.997 124.344 742.901 123.498C743.338 123.089 742.682 122.433 742.244 122.841H742.236Z" fill="black"/>
<path d="M698.802 98.114C699.851 97.6185 701.007 97.3171 702.241 97.3171C706.701 97.3171 710.317 100.934 710.317 105.393C710.317 109.852 706.701 113.469 702.241 113.469C697.782 113.469 694.166 109.852 694.166 105.393C694.166 105.372 694.17 105.356 694.17 105.335C694.083 105.533 693.988 105.723 693.905 105.926C692.659 109.01 691.973 112.379 691.973 115.909C691.973 130.636 703.914 142.573 718.637 142.573V89.2412C710.751 89.2412 703.678 92.6722 698.798 98.1099L698.802 98.114Z" fill="black"/>
</g>
<path d="M733.377 78.9857C734.347 78.9857 735.28 78.131 735.235 77.1277C735.19 76.1244 734.418 75.2698 733.377 75.2698C732.407 75.2698 731.474 76.1244 731.519 77.1277C731.565 78.131 732.337 78.9857 733.377 78.9857Z" fill="black"/>
<path d="M755.294 101.132C756.264 101.132 757.197 100.277 757.152 99.2741C757.106 98.2708 756.334 97.4161 755.294 97.4161C754.324 97.4161 753.391 98.2708 753.436 99.2741C753.481 100.277 754.253 101.132 755.294 101.132Z" fill="black"/>
<path d="M755.294 129.278C756.264 129.278 757.197 128.423 757.152 127.42C757.106 126.417 756.334 125.562 755.294 125.562C754.324 125.562 753.391 126.417 753.436 127.42C753.481 128.423 754.253 129.278 755.294 129.278Z" fill="black"/>
<path d="M733.153 151.883C734.124 151.883 735.057 151.028 735.011 150.025C734.966 149.022 734.194 148.167 733.153 148.167C732.183 148.167 731.25 149.022 731.295 150.025C731.341 151.028 732.113 151.883 733.153 151.883Z" fill="black"/>
<path d="M644.79 107.383C639.505 106.227 634.295 109.617 633.151 114.951C632.008 120.286 635.364 125.542 640.649 126.698C645.934 127.854 651.145 124.464 652.288 119.13C653.432 113.795 650.075 108.539 644.79 107.383ZM648.498 120.191C646.78 123.424 642.804 124.637 639.617 122.899C636.425 121.161 635.232 117.127 636.946 113.894C638.663 110.662 642.639 109.448 645.827 111.186C649.018 112.924 650.211 116.958 648.498 120.191Z" fill="black"/>
<path d="M656.095 146.14C650.81 144.984 645.6 148.374 644.456 153.708C643.312 159.042 646.669 164.298 651.954 165.454C657.239 166.611 662.449 163.221 663.593 157.886C664.737 152.552 661.38 147.296 656.095 146.14ZM659.799 158.943C658.081 162.176 654.105 163.39 650.918 161.652C647.726 159.914 646.533 155.88 648.246 152.647C649.964 149.414 653.94 148.2 657.127 149.938C660.319 151.677 661.512 155.711 659.799 158.943Z" fill="black"/>
<path d="M683.547 173.592C678.262 172.436 673.052 175.826 671.908 181.16C670.764 186.495 674.121 191.751 679.406 192.907C684.691 194.063 689.901 190.673 691.045 185.339C692.189 180.004 688.832 174.748 683.547 173.592ZM687.251 186.396C685.533 189.628 681.557 190.842 678.369 189.104C675.178 187.366 673.985 183.332 675.698 180.099C677.416 176.866 681.392 175.653 684.579 177.391C687.771 179.129 688.964 183.163 687.251 186.396Z" fill="black"/>
<path d="M1103.83 196C1136.33 196 1162.67 222.34 1162.67 254.833C1162.67 287.325 1136.33 313.666 1103.83 313.666C1071.34 313.666 1045 287.325 1045 254.833C1045 222.34 1071.34 196 1103.83 196Z" stroke="#C43934" stroke-width="1.55081" stroke-miterlimit="10"/>
<path d="M1135.77 252.262C1137.02 269.93 1123.72 285.271 1106.05 286.528C1088.38 287.786 1073.04 274.482 1071.79 256.814C1070.53 239.147 1083.83 223.805 1101.5 222.548C1119.17 221.291 1134.51 234.594 1135.77 252.262Z" stroke="#C43934" stroke-width="1.55081" stroke-miterlimit="10"/>
<path d="M1121.32 280.756C1122.51 279.361 1123.2 277.557 1123.1 275.716C1123.03 274.541 1122.81 273.251 1122.11 272.278C1121.41 271.305 1120.5 271.33 1119.46 271.073C1118.61 270.871 1117.93 270.382 1117.41 269.691C1116.34 268.259 1116.1 266.247 1114.75 265.017C1114.15 264.461 1113.34 264.363 1112.55 264.326C1111.37 264.271 1110.16 264.277 1108.98 264.344C1106.33 264.485 1103.77 265.195 1101.15 265.525C1098.53 265.855 1096.09 265.708 1093.8 264.558C1092.61 263.971 1091.58 263.054 1090.33 262.607C1088.94 262.112 1087.56 262.503 1086.35 263.249C1084.44 264.43 1083.23 266.345 1082.27 268.327C1081.13 270.688 1080.42 273.251 1080.08 275.85C1080 276.425 1079.08 276.438 1079.16 275.85C1079.49 273.373 1080.11 270.963 1081.11 268.669C1081.95 266.736 1083.02 264.766 1084.63 263.372C1086.37 261.867 1088.68 260.913 1090.91 261.855C1092.25 262.424 1093.37 263.396 1094.71 263.971C1096.05 264.546 1097.56 264.779 1099.05 264.76C1101.95 264.718 1104.76 263.873 1107.63 263.543C1109.02 263.384 1110.42 263.384 1111.82 263.396C1112.7 263.402 1113.63 263.415 1114.46 263.763C1116.23 264.51 1116.77 266.62 1117.56 268.186C1118.06 269.183 1118.67 269.978 1119.82 270.229C1120.86 270.455 1121.77 270.541 1122.53 271.367C1123.55 272.48 1123.88 274.101 1123.99 275.569C1124.14 277.722 1123.35 279.79 1121.96 281.423C1121.57 281.876 1120.93 281.221 1121.31 280.775L1121.32 280.756Z" fill="#C43934"/>
<path d="M1129.27 272.884C1130.1 270.211 1131.79 264.724 1128.31 263.078C1127.28 262.589 1126.08 262.558 1124.99 262.234C1123.83 261.892 1122.68 261.28 1121.9 260.35C1120.34 258.515 1120.21 255.866 1118.21 254.362C1117.11 253.536 1115.76 253.187 1114.4 253.273C1113.28 253.346 1112.21 253.689 1111.09 253.732C1109.8 253.781 1108.6 253.499 1107.42 252.979C1106.13 252.41 1105.04 251.603 1103.58 251.634C1102.34 251.658 1101.1 251.952 1099.86 251.78C1098.41 251.585 1097.01 250.961 1095.67 250.398C1092.89 249.236 1090.02 248.061 1086.97 247.969C1085.26 247.914 1083.52 248.19 1081.98 248.96C1080.85 249.523 1079.88 250.325 1078.92 251.138C1076.75 252.955 1074.71 254.918 1072.75 256.955C1072.34 257.383 1071.69 256.735 1072.1 256.307C1073.98 254.356 1075.94 252.472 1078 250.716C1079.92 249.083 1081.88 247.651 1084.43 247.223C1087.4 246.722 1090.39 247.382 1093.18 248.41C1094.68 248.96 1096.12 249.639 1097.61 250.196C1098.34 250.465 1099.1 250.74 1099.87 250.863C1100.64 250.985 1101.37 250.906 1102.11 250.832C1103.41 250.704 1104.65 250.6 1105.86 251.181C1107.14 251.799 1108.36 252.545 1109.78 252.759C1111.2 252.973 1112.43 252.606 1113.77 252.423C1115 252.251 1116.25 252.368 1117.4 252.845C1118.55 253.322 1119.5 254.105 1120.19 255.114C1120.88 256.123 1121.27 257.39 1121.82 258.515C1122.5 259.885 1123.57 260.797 1125.03 261.28C1126.17 261.659 1127.39 261.696 1128.5 262.155C1132.75 263.898 1131.18 269.868 1130.17 273.129C1130 273.691 1129.11 273.453 1129.29 272.884H1129.27Z" fill="#C43934"/>
<path d="M1134.14 261.139C1134.22 258.748 1133.15 256.405 1131.26 254.925C1130.31 254.178 1129.13 253.836 1128.19 253.077C1127.47 252.496 1126.92 251.725 1126.47 250.918C1125.52 249.193 1124.97 247.089 1123.44 245.749C1121.69 244.208 1119.11 244.428 1117 243.767C1115.94 243.437 1115.02 242.886 1114.26 242.067C1113.38 241.113 1112.69 240.024 1111.6 239.277C1109.68 237.962 1107.26 237.822 1105.04 238.274C1103.81 238.525 1102.62 238.874 1101.36 239.021C1100.03 239.173 1098.68 239.167 1097.36 239.002C1094.83 238.684 1092.42 237.754 1090.34 236.292C1089.19 235.485 1088.2 234.286 1086.7 234.249C1085.63 234.225 1084.52 234.463 1083.46 234.622C1081.82 234.873 1080.18 235.161 1078.55 235.467C1077.98 235.577 1077.73 234.69 1078.31 234.58C1079.76 234.304 1081.22 234.048 1082.69 233.815C1084.6 233.515 1086.99 232.824 1088.75 233.919C1089.86 234.604 1090.78 235.54 1091.91 236.201C1093.16 236.929 1094.5 237.467 1095.91 237.803C1098.77 238.488 1101.53 238.158 1104.35 237.485C1106.49 236.978 1108.79 236.922 1110.84 237.803C1111.9 238.262 1112.83 238.959 1113.6 239.822C1114.49 240.819 1115.19 241.957 1116.43 242.556C1118.55 243.578 1121.08 243.253 1123.16 244.416C1124.97 245.431 1125.8 247.376 1126.64 249.175C1127.14 250.245 1127.68 251.358 1128.56 252.166C1129.58 253.108 1130.99 253.481 1132.06 254.374C1134.04 256.02 1135.16 258.576 1135.07 261.133C1135.05 261.721 1134.14 261.727 1134.15 261.133L1134.14 261.139Z" fill="#C43934"/>
<path d="M1104.15 285.778C1107.33 286.757 1110.72 285.252 1111.89 282.078C1112.47 280.512 1112.38 278.768 1111.37 277.386C1110.45 276.114 1108.94 275.496 1107.41 275.355C1105.76 275.202 1104.17 275.667 1102.53 275.637C1100.89 275.606 1099.33 274.896 1097.77 274.315C1096.91 273.997 1095.97 273.679 1095.04 273.887C1094.11 274.095 1093.52 274.841 1093.13 275.655C1092.4 277.141 1092.35 278.872 1092.75 280.457C1093.22 282.273 1094.2 283.943 1095.79 284.983C1097.11 285.846 1098.66 286.219 1100.22 286.194C1100.82 286.188 1100.82 287.106 1100.22 287.112C1098.64 287.13 1097.04 286.782 1095.67 285.986C1094.03 285.038 1092.93 283.583 1092.23 281.839C1091.54 280.096 1091.35 278.175 1091.87 276.395C1092.38 274.615 1093.49 273.043 1095.41 272.921C1097.43 272.792 1099.24 274.107 1101.16 274.554C1103.31 275.049 1105.45 274.224 1107.62 274.468C1109.2 274.646 1110.76 275.257 1111.81 276.493C1113.03 277.906 1113.42 279.766 1113 281.564C1112.05 285.644 1107.84 287.883 1103.9 286.672C1103.34 286.5 1103.57 285.613 1104.14 285.785L1104.15 285.778Z" fill="#C43934"/>
<path d="M1133.22 245.327C1131.95 244.116 1132.13 242.048 1130.78 240.929C1130.2 240.446 1129.46 240.158 1128.78 239.859C1127.72 239.4 1126.66 238.947 1125.6 238.507C1123.49 237.644 1121.33 237.075 1119.78 235.271C1118.67 233.974 1117.95 232.482 1116.58 231.399C1115.46 230.518 1114.16 229.796 1112.82 229.337C1110.82 228.665 1108.59 228.567 1106.67 229.521C1105.09 230.31 1103.66 231.527 1101.83 231.711C1099.49 231.949 1096.82 230.824 1094.93 229.521C1093.05 228.218 1090.56 225.312 1087.89 226.585C1087.35 226.836 1086.89 226.046 1087.42 225.79C1089.46 224.823 1091.55 225.759 1093.21 227.025C1094.16 227.747 1095.04 228.542 1096.06 229.154C1097.08 229.766 1098.29 230.261 1099.5 230.549C1100.63 230.812 1101.71 230.934 1102.82 230.536C1103.75 230.2 1104.59 229.625 1105.44 229.136C1107.22 228.114 1109.08 227.704 1111.12 227.992C1114.32 228.438 1117.44 230.341 1119.27 232.995C1120.27 234.451 1121.22 235.638 1122.85 236.439C1123.54 236.776 1124.29 236.996 1125 237.277C1126.03 237.681 1127.05 238.121 1128.06 238.556C1129 238.959 1130 239.314 1130.87 239.865C1131.55 240.299 1132.07 240.874 1132.41 241.614C1132.88 242.636 1133.02 243.865 1133.86 244.666C1134.29 245.076 1133.64 245.725 1133.21 245.315L1133.22 245.327Z" fill="#C43934"/>
<path d="M1120.92 294.415C1123.28 294.415 1123.29 298.086 1120.92 298.086C1118.56 298.086 1118.56 294.415 1120.92 294.415Z" fill="#C43934"/>
<path d="M1145.74 266.938C1148.1 266.938 1148.11 270.608 1145.74 270.608C1143.37 270.608 1143.37 266.938 1145.74 266.938Z" fill="#C43934"/>
<path d="M1144.54 235.069C1146.9 235.069 1146.91 238.739 1144.54 238.739C1142.17 238.739 1142.17 235.069 1144.54 235.069Z" fill="#C43934"/>
<path d="M1120.67 211.874C1123.03 211.874 1123.03 215.544 1120.67 215.544C1118.3 215.544 1118.3 211.874 1120.67 211.874Z" fill="#C43934"/>
<path d="M1089.12 211.488C1091.48 211.488 1091.49 215.158 1089.12 215.158C1086.75 215.158 1086.75 211.488 1089.12 211.488Z" fill="#C43934"/>
<path d="M1062.21 235.497C1064.57 235.497 1064.58 239.167 1062.21 239.167C1059.85 239.167 1059.85 235.497 1062.21 235.497Z" fill="#C43934"/>
<path d="M1061.83 267.244C1064.19 267.244 1064.2 270.914 1061.83 270.914C1059.46 270.914 1059.46 267.244 1061.83 267.244Z" fill="#C43934"/>
<path d="M1089.37 294.936C1091.73 294.936 1091.73 298.606 1089.37 298.606C1087 298.606 1087 294.936 1089.37 294.936Z" fill="#C43934"/>
<path d="M1267.22 429.797C1301.12 429.797 1328.61 457.284 1328.61 491.191C1328.61 525.098 1301.12 552.585 1267.22 552.585C1233.31 552.585 1205.82 525.098 1205.82 491.191C1205.82 457.284 1233.31 429.797 1267.22 429.797Z" stroke="#18113A" stroke-width="1.55081" stroke-miterlimit="10"/>
<path d="M1331.43 473.708C1331.21 490.886 1326.54 508.044 1314.37 521.142C1301.27 534.866 1281.93 541.416 1264.46 535.492C1252.29 531.439 1242.62 520.517 1240.13 507.106C1239.19 501.801 1240.13 496.809 1242 491.818C1244.49 486.513 1249.17 479.338 1255.72 479.651C1255.41 481.522 1253.22 481.834 1251.98 483.085C1242.31 493.382 1243.25 509.601 1252.6 519.891C1269.45 537.669 1298.46 532.683 1313.12 513.342C1328.71 492.443 1326.84 465.302 1314.68 444.09C1326.84 465.927 1329.34 494.939 1311.55 515.212C1302.51 525.509 1289.72 532.683 1276.31 531.745C1266.95 531.119 1257.9 525.821 1251.66 518.021C1244.8 509.289 1242.3 494.626 1251.97 487.139C1247.92 496.184 1249.48 507.106 1255.71 514.9C1264.76 525.815 1280.05 527.066 1292.21 522.074C1301.88 518.021 1309.06 510.533 1313.74 501.176C1326.53 474.347 1312.18 443.158 1288.47 428.183C1301.26 436.603 1311.55 448.769 1316.23 463.744C1322.47 484.33 1317.17 507.725 1298.76 519.891C1284.1 529.562 1263.83 528.004 1252.9 513.342C1249.47 508.35 1248.23 500.55 1251.97 495.252C1252.59 506.793 1261.95 516.776 1273.49 518.647C1292.52 521.768 1308.11 506.167 1311.55 488.077C1317.78 454.074 1286.6 426.313 1255.09 426C1273.18 427.245 1290.96 434.732 1302.5 450.02C1315.6 467.491 1317.16 491.199 1303.13 508.038C1295.64 517.083 1282.85 520.204 1271 517.395C1263.83 515.525 1256.65 510.221 1256.03 502.42C1263.2 513.648 1279.11 517.083 1290.65 509.595C1308.12 498.054 1310.62 474.66 1300.01 457.501C1283.47 430.36 1247.91 427.557 1222.65 441.907C1243.23 430.992 1269.75 429.428 1289.4 445.341C1304.38 457.508 1310.62 477.781 1302.82 495.252C1298.76 504.61 1290.34 511.785 1280.05 512.723C1274.12 513.036 1267.57 512.097 1263.2 507.418C1262.57 506.793 1263.83 506.793 1263.83 506.48C1273.18 511.159 1284.72 508.976 1292.21 501.176C1301.26 492.13 1302.2 478.713 1298.14 467.172C1291.59 449.082 1272.25 438.473 1253.53 439.411C1232.32 440.35 1213.92 454.699 1203.62 472.789C1212.04 458.127 1225.14 446.273 1241.99 441.281C1262.89 435.045 1286.6 443.152 1296.89 461.867C1302.82 473.096 1302.2 487.132 1294.08 498.054C1289.4 504.603 1280.67 511.153 1272.25 506.786C1286.6 506.161 1295.95 491.499 1294.71 477.462C1293.77 468.417 1289.09 460.616 1281.92 454.693C1266.94 442.213 1246.67 442.839 1230.45 453.135C1211.11 465.302 1203 487.139 1203 508.35C1203.31 494.001 1206.12 480.277 1214.85 467.798C1227.65 449.395 1249.79 440.037 1270.07 446.899C1282.24 450.952 1291.91 461.874 1294.4 475.285C1295.34 480.59 1294.4 485.581 1292.53 490.573C1290.04 495.877 1285.36 503.052 1278.81 502.739C1279.12 500.869 1281.3 500.556 1282.55 499.305C1292.22 489.009 1291.28 472.789 1281.92 462.499C1265.08 444.722 1236.07 449.707 1221.41 469.049C1205.82 489.947 1207.69 517.089 1219.85 538.301C1207.69 516.463 1205.19 487.452 1222.97 467.178C1232.02 456.882 1244.81 449.707 1258.22 450.646C1267.58 451.271 1276.62 456.569 1282.87 464.37C1289.73 473.102 1292.23 487.764 1282.55 495.252C1286.61 486.207 1285.05 475.285 1278.81 467.491C1269.77 456.576 1254.48 455.325 1242.31 460.316C1232.64 464.37 1225.47 471.857 1220.79 481.215C1208 508.044 1222.35 539.233 1246.06 554.208C1233.26 545.788 1222.97 533.622 1218.29 518.647C1212.06 498.061 1217.36 474.666 1235.77 462.499C1250.43 452.829 1270.7 454.386 1281.62 469.049C1285.06 474.04 1286.3 481.841 1282.56 487.139C1281.94 475.598 1272.58 465.614 1261.04 463.744C1242.01 460.623 1226.41 476.223 1222.98 494.314C1216.74 528.317 1247.93 556.078 1279.44 556.391C1261.35 555.146 1243.57 547.658 1232.02 532.371C1218.93 514.9 1217.36 491.192 1231.4 474.353C1238.89 465.308 1251.67 462.187 1263.53 464.995C1270.7 466.866 1277.88 472.17 1278.5 479.97C1271.33 468.742 1255.42 465.308 1243.88 472.796C1226.41 484.337 1223.91 507.731 1234.52 524.889C1251.05 552.031 1286.61 554.833 1311.88 540.484C1291.29 551.399 1264.78 552.963 1245.12 537.049C1230.15 524.883 1223.91 504.61 1231.71 487.139C1235.77 477.781 1244.19 470.606 1254.48 469.668C1260.4 469.355 1266.96 470.293 1271.33 474.972C1271.95 475.598 1270.7 475.598 1270.7 475.911C1261.34 471.232 1249.8 473.415 1242.31 481.215C1233.27 490.26 1232.33 503.678 1236.39 515.219C1242.94 533.309 1262.28 543.918 1281 542.98C1302.21 542.041 1320.61 527.692 1330.91 509.601C1322.49 524.264 1309.38 536.118 1292.54 541.109C1271.64 547.346 1247.93 539.239 1237.64 520.523C1231.71 509.295 1232.33 495.258 1240.44 484.337C1245.12 477.787 1253.86 471.238 1262.28 475.604C1246.99 476.23 1237.64 491.824 1240.13 506.799C1244.18 530.507 1269.76 542.048 1290.67 536.124C1308.76 531.132 1322.18 515.851 1327.68 498.316C1330.04 491.077 1331.28 482.715 1331.44 473.715L1331.43 473.708Z" stroke="#18113A" stroke-width="1.03388" stroke-miterlimit="10"/>
<path d="M1265.85 510.661L1261.35 508.248L1256.29 502.809L1256.93 506.262L1258 509.837L1254.82 505.216L1252.58 499.349L1251.99 495.251L1249.77 498.934L1250.29 492.372L1251.99 487.138L1249 490.138L1246.9 493.879L1247.21 490.394L1251.07 484.113L1253.58 481.974L1255.73 479.651L1252.59 480.091L1248.31 481.84L1253.09 478.029L1258.63 476.051L1261.93 475.616L1259.24 474.48H1254.55L1257.64 473.612L1265.85 474.136L1270.7 475.91L1271.33 474.972L1266.35 471.461L1269.17 471.589L1274.84 475.565L1278.5 479.963L1277.65 476.21L1274.17 470.931L1279.41 476.625L1281.99 483.155L1282.55 487.138L1284.16 483.883L1284.73 482.625L1284.07 490.796L1282.55 495.251L1285.75 491.951L1287.8 488.096L1286.68 493.394L1282.55 499.305L1279.38 501.552L1278.81 502.739L1284.3 501.181L1280.58 504.679L1273.8 506.665L1273.84 507.482L1277.51 508.701L1270.32 508.592L1264.21 506.658L1263.21 507.418L1265.85 510.661Z" fill="#18113A"/>
<path d="M1305 701C1305 650.59 1298.62 601.669 1286.63 555M135 701C135 648.787 141.84 598.171 154.674 550M1238.84 430.5C1214.21 383.361 1183.35 339.997 1147.35 301.5M1052 219.27C984.698 172.798 907.18 140.067 823.5 125.127M628.5 123.114C542.721 136.588 463.129 168.702 394 215.182M293.119 301C258.066 338.394 227.869 380.396 203.536 426" stroke="#333333" stroke-width="2"/>
</g>
<defs>
<radialGradient id="paint0_radial_363_387" cx="0" cy="0" r="1" gradientUnits="userSpaceOnUse" gradientTransform="translate(720 350.5) rotate(90) scale(350.5 720)">
<stop stop-color="white"/>
<stop offset="1" stop-color="#FFF1BF"/>
</radialGradient>
<clipPath id="clip0_363_387">
<rect width="1440" height="701" fill="white"/>
</clipPath>
</defs>
</svg>
