<svg width="1440" height="701" viewBox="0 0 1440 701" fill="none" xmlns="http://www.w3.org/2000/svg">
<g clip-path="url(#clip0_956_47)">
<rect width="1440" height="701" fill="url(#paint0_radial_956_47)"/>
<path d="M160.887 500.292C166.325 508.448 177.344 510.652 185.5 505.215C193.657 499.777 195.861 488.757 190.424 480.601C184.986 472.444 173.966 470.24 165.809 475.678C157.653 481.115 155.449 492.135 160.887 500.292Z" fill="#8A3B8E" stroke="#8A3B8E" stroke-width="0.516938"/>
<path d="M222.269 523.978C218.489 529.043 213.907 533.484 208.696 537.111Z" fill="#8A3B8E"/>
<path d="M222.269 523.978C218.489 529.043 213.907 533.484 208.696 537.111" stroke="#8A3B8E" stroke-width="0.516938" stroke-miterlimit="10"/>
<path d="M233.53 495.846C232.759 502.312 230.931 508.478 228.208 514.16Z" fill="#8A3B8E"/>
<path d="M233.53 495.846C232.759 502.312 230.931 508.478 228.208 514.16" stroke="#8A3B8E" stroke-width="0.516938" stroke-miterlimit="10"/>
<path d="M229.358 465.977C231.707 471.556 233.218 477.587 233.744 483.924Z" fill="#8A3B8E"/>
<path d="M229.358 465.977C231.707 471.556 233.218 477.587 233.744 483.924" stroke="#8A3B8E" stroke-width="0.516938" stroke-miterlimit="10"/>
<path d="M210.451 441.76C215.424 445.497 219.791 450.012 223.37 455.132Z" fill="#8A3B8E"/>
<path d="M210.451 441.76C215.424 445.497 219.791 450.012 223.37 455.132" stroke="#8A3B8E" stroke-width="0.516938" stroke-miterlimit="10"/>
<path d="M182 430.364C188.332 431.104 194.381 432.854 199.966 435.459Z" fill="#8A3B8E"/>
<path d="M182 430.364C188.332 431.104 194.381 432.854 199.966 435.459" stroke="#8A3B8E" stroke-width="0.516938" stroke-miterlimit="10"/>
<path d="M150.095 435.539C155.98 432.774 162.415 430.945 169.217 430.266Z" fill="#8A3B8E"/>
<path d="M150.095 435.539C155.98 432.774 162.415 430.945 169.217 430.266" stroke="#8A3B8E" stroke-width="0.516938" stroke-miterlimit="10"/>
<path d="M126.833 455.187C130.429 450.024 134.84 445.461 139.886 441.68Z" fill="#8A3B8E"/>
<path d="M126.833 455.187C130.429 450.024 134.84 445.461 139.886 441.68" stroke="#8A3B8E" stroke-width="0.516938" stroke-miterlimit="10"/>
<path d="M116.439 484.426C116.904 478.064 118.396 471.959 120.745 466.283Z" fill="#8A3B8E"/>
<path d="M116.439 484.426C116.904 478.064 118.396 471.959 120.745 466.283" stroke="#8A3B8E" stroke-width="0.516938" stroke-miterlimit="10"/>
<path d="M122.006 514.148C119.382 508.655 117.577 502.679 116.77 496.36Z" fill="#8A3B8E"/>
<path d="M122.006 514.148C119.382 508.655 117.577 502.679 116.77 496.36" stroke="#8A3B8E" stroke-width="0.516938" stroke-miterlimit="10"/>
<path d="M141.684 537.215C136.552 533.667 132 529.318 128.22 524.339Z" fill="#8A3B8E"/>
<path d="M141.684 537.215C136.552 533.667 132 529.318 128.22 524.339" stroke="#8A3B8E" stroke-width="0.516938" stroke-miterlimit="10"/>
<path d="M169.791 547.394C163.362 546.819 157.202 545.198 151.507 542.696Z" fill="#8A3B8E"/>
<path d="M169.791 547.394C163.362 546.819 157.202 545.198 151.507 542.696" stroke="#8A3B8E" stroke-width="0.516938" stroke-miterlimit="10"/>
<path d="M199.116 542.53C193.544 545.02 187.494 546.678 181.12 547.326Z" fill="#8A3B8E"/>
<path d="M199.116 542.53C193.544 545.02 187.494 546.678 181.12 547.326" stroke="#8A3B8E" stroke-width="0.516938" stroke-miterlimit="10"/>
<path d="M116.671 462.464C117.717 466.237 121.588 468.442 125.32 467.398C129.052 466.354 131.238 462.449 130.199 458.675C129.154 454.902 125.283 452.698 121.55 453.742C117.934 454.753 115.769 458.45 116.583 462.111L116.671 462.464ZM126.137 465.003C123.795 466.458 120.754 465.783 119.214 463.516L119.07 463.292C117.631 460.918 118.284 457.842 120.523 456.282L120.745 456.136V456.135C123.087 454.68 126.129 455.356 127.668 457.624L127.812 457.848C129.251 460.221 128.597 463.297 126.359 464.857L126.138 465.003H126.137Z" fill="#8A3B8E" stroke="#8A3B8E" stroke-width="0.516938"/>
<path d="M110.742 495.338C113.529 498.089 117.983 498.069 120.695 495.298C123.408 492.526 123.357 488.053 120.57 485.301C117.783 482.549 113.329 482.57 110.617 485.341C107.904 488.113 107.955 492.586 110.742 495.338ZM120.203 492.817C118.862 495.326 115.736 496.239 113.226 494.861C110.717 493.485 109.771 490.333 111.11 487.827C112.452 485.319 115.577 484.406 118.087 485.783C120.595 487.16 121.543 490.312 120.203 492.817Z" fill="#8A3B8E" stroke="#8A3B8E" stroke-width="0.516938"/>
<path d="M122.004 526.786C125.676 527.747 129.405 525.671 130.514 522.132L130.612 521.784C131.549 518.145 129.437 514.419 125.862 513.288L125.513 513.187C121.841 512.226 118.112 514.301 117.003 517.841L116.903 518.188C115.967 521.828 118.079 525.553 121.653 526.685L122.004 526.786ZM123.926 525.129C121.064 525.187 118.669 522.93 118.578 520.09C118.488 517.247 120.739 514.896 123.603 514.838C126.464 514.78 128.859 517.036 128.949 519.877C129.039 522.72 126.79 525.071 123.926 525.129Z" fill="#8A3B8E" stroke="#8A3B8E" stroke-width="0.516938"/>
<path d="M138.746 543.508C139.784 547.247 143.679 549.443 147.458 548.416V548.417C151.237 547.383 153.452 543.524 152.421 539.786C151.383 536.046 147.488 533.843 143.709 534.877C140.048 535.878 137.855 539.531 138.659 543.157L138.746 543.508ZM148.295 546.03C145.845 547.509 142.647 546.751 141.146 544.33C139.644 541.906 140.426 538.748 142.878 537.268C145.328 535.79 148.533 536.547 150.027 538.969L150.026 538.97C151.528 541.395 150.746 544.55 148.295 546.03Z" fill="#8A3B8E" stroke="#8A3B8E" stroke-width="0.516938"/>
<path d="M170.314 554.556C172.988 557.189 177.276 557.235 180.049 554.712L180.312 554.46C182.989 551.772 183.065 547.508 180.559 544.768L180.308 544.507C177.634 541.874 173.347 541.828 170.574 544.351L170.311 544.604C167.548 547.378 167.555 551.831 170.314 554.556ZM179.847 551.973C178.463 554.481 175.311 555.414 172.807 554.068C170.377 552.763 169.45 549.783 170.658 547.321L170.782 547.085C172.165 544.577 175.318 543.636 177.823 544.988L177.822 544.989C180.252 546.295 181.179 549.274 179.971 551.735L179.847 551.973Z" fill="#8A3B8E" stroke="#8A3B8E" stroke-width="0.516938"/>
<path d="M203.182 548.367C206.816 549.315 210.552 547.219 211.695 543.646L211.797 543.296C212.801 539.517 210.575 535.654 206.826 534.676C203.075 533.697 199.213 535.968 198.209 539.747C197.206 543.525 199.433 547.388 203.182 548.367ZM205.093 546.704C202.244 546.787 199.9 544.524 199.855 541.66C199.811 538.888 201.933 536.56 204.649 536.346L204.914 536.333C207.763 536.249 210.108 538.513 210.153 541.377C210.196 544.148 208.074 546.477 205.358 546.69L205.093 546.704Z" fill="#8A3B8E" stroke="#8A3B8E" stroke-width="0.516938"/>
<path d="M219.962 521.617C220.978 525.401 224.836 527.629 228.574 526.609C232.196 525.621 234.383 521.936 233.593 518.271L233.507 517.916V517.915C232.491 514.131 228.632 511.903 224.894 512.923C221.272 513.911 219.086 517.596 219.876 521.262L219.962 521.617ZM229.402 524.216C226.978 525.705 223.814 524.918 222.347 522.459C220.881 520.003 221.65 516.805 224.072 515.316C226.496 513.827 229.66 514.615 231.128 517.074C232.594 519.53 231.824 522.728 229.402 524.216Z" fill="#8A3B8E" stroke="#8A3B8E" stroke-width="0.516938"/>
<path d="M229.767 495.052C232.536 497.82 236.991 497.83 239.72 495.077C242.451 492.323 242.429 487.848 239.66 485.079C236.891 482.31 232.436 482.3 229.707 485.053C226.976 487.808 226.998 492.282 229.767 495.052ZM239.244 492.598C237.889 495.1 234.757 495.994 232.253 494.597C229.752 493.202 228.824 490.045 230.182 487.546V487.545C231.536 485.043 234.669 484.149 237.172 485.546C239.596 486.898 240.544 489.904 239.365 492.363L239.244 492.598Z" fill="#8A3B8E" stroke="#8A3B8E" stroke-width="0.516938"/>
<path d="M225.009 467.135C228.669 468.124 232.415 466.071 233.546 462.538L233.647 462.192V462.191C234.612 458.558 232.523 454.816 228.956 453.662L228.606 453.559H228.605C224.945 452.569 221.2 454.622 220.069 458.154L219.968 458.501L219.884 458.854C219.138 462.374 221.207 465.915 224.659 467.031L225.009 467.135ZM226.933 465.502C224.161 465.539 221.838 463.41 221.632 460.688L221.619 460.423C221.548 457.58 223.818 455.243 226.681 455.204C229.454 455.167 231.775 457.295 231.982 460.017L231.996 460.282C232.067 463.125 229.797 465.463 226.933 465.502Z" fill="#8A3B8E" stroke="#8A3B8E" stroke-width="0.516938"/>
<path d="M198.276 440.36C199.253 443.981 202.927 446.184 206.597 445.406L206.952 445.322C210.612 444.349 212.835 440.708 212.054 437.077L211.968 436.726C210.991 433.104 207.317 430.901 203.647 431.679L203.292 431.764C199.632 432.736 197.41 436.378 198.191 440.008L198.276 440.36ZM207.799 442.943C205.336 444.409 202.143 443.626 200.662 441.198C199.226 438.843 199.933 435.806 202.22 434.29L202.445 434.149C204.909 432.682 208.101 433.466 209.582 435.894C211.019 438.249 210.311 441.285 208.024 442.801L207.799 442.943Z" fill="#8A3B8E" stroke="#8A3B8E" stroke-width="0.516938"/>
<path d="M170.42 435.46C173.077 438.111 177.364 438.185 180.152 435.679L180.418 435.429C183.112 432.759 183.216 428.495 180.728 425.738L180.479 425.476C177.822 422.825 173.535 422.752 170.746 425.257L170.481 425.508H170.48C167.7 428.265 167.679 432.724 170.42 435.46ZM179.825 433.174C178.357 435.494 175.318 436.312 172.903 434.989C170.486 433.665 169.583 430.683 170.805 428.228L170.93 427.993V427.992C172.338 425.497 175.496 424.582 177.989 425.947C180.406 427.271 181.309 430.253 180.088 432.708L179.963 432.944L179.825 433.174Z" fill="#8A3B8E" stroke="#8A3B8E" stroke-width="0.516938"/>
<path d="M139.609 443.271C142.265 445.922 146.553 445.996 149.341 443.49L149.607 443.24C152.301 440.57 152.405 436.306 149.917 433.549L149.667 433.287C147.011 430.636 142.724 430.563 139.935 433.068L139.67 433.319H139.669C136.889 436.075 136.868 440.529 139.609 443.271ZM149.014 440.979C147.546 443.299 144.507 444.117 142.092 442.794C139.675 441.47 138.772 438.489 139.994 436.033L140.119 435.797C141.527 433.302 144.685 432.387 147.178 433.752C149.595 435.076 150.498 438.058 149.277 440.513L149.152 440.748V440.749L149.014 440.979Z" fill="#8A3B8E" stroke="#8A3B8E" stroke-width="0.516938"/>
<path d="M146.283 513.805C143.659 510.68 141.543 507.15 140.038 503.345Z" fill="#8A3B8E"/>
<path d="M146.283 513.805C143.659 510.68 141.543 507.15 140.038 503.345" stroke="#8A3B8E" stroke-width="0.516938" stroke-miterlimit="10"/>
<path d="M162.072 524.938C158.261 523.525 154.787 521.537 151.722 519.097Z" fill="#8A3B8E"/>
<path d="M162.072 524.938C158.261 523.525 154.787 521.537 151.722 519.097" stroke="#8A3B8E" stroke-width="0.516938" stroke-miterlimit="10"/>
<path d="M181.144 526.877C177.241 527.483 173.186 527.489 169.1 526.804Z" fill="#8A3B8E"/>
<path d="M181.144 526.877C177.241 527.483 173.186 527.489 169.1 526.804" stroke="#8A3B8E" stroke-width="0.516938" stroke-miterlimit="10"/>
<path d="M199.037 518.986C195.801 521.574 192.155 523.629 188.247 525.048Z" fill="#8A3B8E"/>
<path d="M199.037 518.986C195.801 521.574 192.155 523.629 188.247 525.048" stroke="#8A3B8E" stroke-width="0.516938" stroke-miterlimit="10"/>
<path d="M210.432 503.749C208.891 507.523 206.78 510.955 204.223 513.958Z" fill="#8A3B8E"/>
<path d="M210.432 503.749C208.891 507.523 206.78 510.955 204.223 513.958" stroke="#8A3B8E" stroke-width="0.516938" stroke-miterlimit="10"/>
<path d="M212.922 484.303C213.454 488.224 213.369 492.292 212.598 496.384Z" fill="#8A3B8E"/>
<path d="M212.922 484.303C213.454 488.224 213.369 492.292 212.598 496.384" stroke="#8A3B8E" stroke-width="0.516938" stroke-miterlimit="10"/>
<path d="M205.306 466.142C207.759 469.311 209.704 472.859 211.056 476.645Z" fill="#8A3B8E"/>
<path d="M205.306 466.142C207.759 469.311 209.704 472.859 211.056 476.645" stroke="#8A3B8E" stroke-width="0.516938" stroke-miterlimit="10"/>
<path d="M189.305 454.104C193.189 455.639 196.718 457.78 199.801 460.386Z" fill="#8A3B8E"/>
<path d="M189.305 454.104C193.189 455.639 196.718 457.78 199.801 460.386" stroke="#8A3B8E" stroke-width="0.516938" stroke-miterlimit="10"/>
<path d="M168.691 452.012C172.893 451.266 177.291 451.223 181.72 451.981Z" fill="#8A3B8E"/>
<path d="M168.691 452.012C172.893 451.266 177.291 451.223 181.72 451.981" stroke="#8A3B8E" stroke-width="0.516938" stroke-miterlimit="10"/>
<path d="M150.805 460.423C153.9 457.805 157.399 455.694 161.167 454.177Z" fill="#8A3B8E"/>
<path d="M150.805 460.423C153.9 457.805 157.399 455.694 161.167 454.177" stroke="#8A3B8E" stroke-width="0.516938" stroke-miterlimit="10"/>
<path d="M139.574 476.639C140.932 472.816 142.865 469.317 145.256 466.222Z" fill="#8A3B8E"/>
<path d="M139.574 476.639C140.932 472.816 142.865 469.317 145.256 466.222" stroke="#8A3B8E" stroke-width="0.516938" stroke-miterlimit="10"/>
<path d="M137.934 495.919C137.267 492.127 137.175 488.181 137.732 484.193Z" fill="#8A3B8E"/>
<path d="M137.934 495.919C137.267 492.127 137.175 488.181 137.732 484.193" stroke="#8A3B8E" stroke-width="0.516938" stroke-miterlimit="10"/>
<path d="M147.927 467.572C150.3 467.549 152.231 465.656 152.339 463.285L152.344 463.054C152.332 460.583 150.337 458.597 147.889 458.62C145.516 458.642 143.584 460.536 143.477 462.907L143.472 463.137C143.483 465.608 145.479 467.595 147.927 467.572ZM148.86 466.395C147.107 466.928 145.281 465.967 144.688 464.248L144.635 464.08V464.079C144.113 462.256 145.142 460.346 146.948 459.796C148.702 459.263 150.528 460.225 151.121 461.944L151.175 462.113V462.114C151.696 463.936 150.667 465.846 148.86 466.395Z" fill="#8A3B8E" stroke="#8A3B8E" stroke-width="0.516938"/>
<path d="M134.225 482.552C135.469 484.687 138.192 485.413 140.299 484.172C142.408 482.93 143.115 480.189 141.871 478.054C140.665 475.985 138.078 475.239 135.996 476.323L135.796 476.434C133.688 477.676 132.981 480.416 134.225 482.552ZM140.403 482.808C139.094 484.062 137.032 484.057 135.707 482.783C134.382 481.51 134.283 479.423 135.452 478.048L135.569 477.917C136.868 476.539 139.021 476.501 140.389 477.816C141.714 479.09 141.813 481.177 140.644 482.552L140.527 482.682V482.683L140.403 482.808Z" fill="#8A3B8E" stroke="#8A3B8E" stroke-width="0.516938"/>
<path d="M135.898 503.99C138.045 505.222 140.761 504.486 141.974 502.361C143.187 500.236 142.432 497.511 140.284 496.278C138.137 495.045 135.421 495.781 134.208 497.907C132.995 500.032 133.75 502.756 135.898 503.99ZM141.428 500.964C141.01 502.744 139.256 503.841 137.476 503.494L137.304 503.456H137.303C135.525 503.008 134.395 501.252 134.723 499.475L134.759 499.303C135.177 497.524 136.932 496.427 138.711 496.774L138.884 496.812L138.885 496.813C140.663 497.261 141.793 499.015 141.464 500.792L141.428 500.964Z" fill="#8A3B8E" stroke="#8A3B8E" stroke-width="0.516938"/>
<path d="M148.051 521.731C150.528 521.725 152.515 519.735 152.503 517.287C152.492 514.838 150.481 512.853 148.003 512.859C145.526 512.865 143.54 514.855 143.551 517.303C143.563 519.675 145.449 521.607 147.821 521.725L148.051 521.731ZM148.82 520.613C147.051 521.019 145.234 519.992 144.714 518.24C144.194 516.487 145.163 514.662 146.882 514.075L147.05 514.022L147.051 514.021C148.873 513.506 150.791 514.542 151.328 516.35C151.848 518.103 150.879 519.928 149.16 520.515L148.992 520.568L148.991 520.569L148.82 520.613Z" fill="#8A3B8E" stroke="#8A3B8E" stroke-width="0.516938"/>
<path d="M161.322 529.451C162.52 531.499 165.124 532.237 167.232 531.156L167.435 531.045L167.436 531.044C169.582 529.812 170.314 527.09 169.078 524.977C167.842 522.862 165.113 522.144 162.965 523.382C160.818 524.621 160.087 527.338 161.322 529.451ZM167.67 529.565C166.39 530.883 164.31 530.975 162.936 529.8L162.805 529.683V529.682C161.44 528.383 161.401 526.224 162.724 524.862C164.003 523.544 166.084 523.452 167.458 524.626L167.589 524.745H167.59C168.955 526.044 168.992 528.203 167.67 529.565Z" fill="#8A3B8E" stroke="#8A3B8E" stroke-width="0.516938"/>
<path d="M182.79 531.106C184.909 532.325 187.639 531.581 188.878 529.439C190.078 527.364 189.441 524.746 187.468 523.477L187.273 523.358H187.272C185.153 522.14 182.423 522.883 181.185 525.025C179.985 527.099 180.622 529.719 182.595 530.988L182.79 531.106ZM188.302 528.212C187.765 529.947 185.968 531.003 184.19 530.573C182.412 530.142 181.319 528.387 181.674 526.607L181.713 526.435V526.434C182.181 524.599 184.037 523.46 185.872 523.904C187.651 524.334 188.743 526.09 188.389 527.87L188.35 528.042V528.042L188.302 528.212Z" fill="#8A3B8E" stroke="#8A3B8E" stroke-width="0.516938"/>
<path d="M203.158 520.666C201.342 521.196 199.462 520.141 198.946 518.316C198.447 516.551 199.416 514.697 201.12 514.101L201.288 514.047C203.104 513.517 204.984 514.571 205.5 516.396C205.999 518.162 205.03 520.017 203.325 520.612L203.158 520.666ZM197.79 517.366C197.784 519.842 199.767 521.834 202.216 521.835C204.666 521.829 206.662 519.824 206.662 517.347L206.657 517.115C206.544 514.747 204.608 512.878 202.235 512.878C199.786 512.884 197.79 514.889 197.79 517.365V517.366Z" fill="#8A3B8E" stroke="#8A3B8E" stroke-width="0.516938"/>
<path d="M208.363 502.44C209.59 504.586 212.306 505.325 214.426 504.1C216.545 502.876 217.265 500.141 216.037 497.993C214.811 495.847 212.094 495.108 209.975 496.333C207.921 497.519 207.176 500.123 208.253 502.237L208.362 502.44H208.363ZM214.662 502.619C213.357 503.983 211.199 504.015 209.843 502.687C208.482 501.366 208.434 499.185 209.738 497.821C211.043 496.456 213.202 496.424 214.559 497.753L214.558 497.754C215.918 499.076 215.966 501.255 214.662 502.619Z" fill="#8A3B8E" stroke="#8A3B8E" stroke-width="0.516938"/>
<path d="M210.066 484.226C212.208 485.471 214.93 484.757 216.154 482.638C217.34 480.585 216.685 477.958 214.7 476.665L214.505 476.545C212.363 475.3 209.641 476.014 208.417 478.133C207.193 480.252 207.93 482.983 210.065 484.227L210.066 484.226ZM215.62 481.239C215.169 483.075 213.313 484.173 211.476 483.704C209.64 483.235 208.508 481.372 208.958 479.538C209.409 477.702 211.265 476.604 213.103 477.073C214.938 477.542 216.07 479.405 215.62 481.239Z" fill="#8A3B8E" stroke="#8A3B8E" stroke-width="0.516938"/>
<path d="M202.463 467.596C204.934 467.608 206.944 465.629 206.944 463.181L206.938 462.954C206.824 460.615 204.873 458.735 202.473 458.724L202.242 458.729C199.879 458.837 197.998 460.773 197.992 463.139C197.987 465.506 199.862 467.459 202.232 467.589L202.463 467.596ZM203.418 466.434C201.59 466.942 199.679 465.894 199.155 464.08C198.648 462.326 199.628 460.507 201.349 459.932L201.518 459.88C203.346 459.372 205.258 460.427 205.781 462.235C206.305 464.044 205.249 465.925 203.418 466.434Z" fill="#8A3B8E" stroke="#8A3B8E" stroke-width="0.516938"/>
<path d="M181.467 455.339C182.685 457.464 185.414 458.197 187.567 456.976V456.975C189.721 455.748 190.469 453.037 189.251 450.912C188.032 448.786 185.303 448.055 183.149 449.277H183.148C180.997 450.504 180.249 453.215 181.467 455.339ZM187.824 455.497C186.538 456.802 184.452 456.882 183.089 455.7L182.959 455.582C181.636 454.316 181.579 452.25 182.784 450.89L182.905 450.761V450.76C184.233 449.413 186.412 449.372 187.77 450.676L187.771 450.675C189.094 451.941 189.151 454.007 187.945 455.367L187.825 455.497H187.824Z" fill="#8A3B8E" stroke="#8A3B8E" stroke-width="0.516938"/>
<path d="M160.975 455.004C162.194 457.128 164.922 457.86 167.076 456.639V456.638C169.229 455.411 169.978 452.7 168.759 450.575C167.541 448.45 164.812 447.718 162.658 448.94H162.657C160.505 450.168 159.757 452.879 160.975 455.004ZM167.327 455.16C166.041 456.465 163.955 456.545 162.591 455.363L162.461 455.245C161.138 453.979 161.081 451.913 162.287 450.553L162.407 450.425L162.408 450.424C163.735 449.077 165.915 449.036 167.272 450.34L167.273 450.339C168.596 451.604 168.653 453.67 167.448 455.03L167.328 455.16H167.327Z" fill="#8A3B8E" stroke="#8A3B8E" stroke-width="0.516938"/>
<path d="M340.091 313.368C307.599 313.368 281.258 287.027 281.258 254.535C281.258 222.042 307.599 195.702 340.091 195.702C372.584 195.702 398.924 222.042 398.924 254.535C398.924 287.027 372.584 313.368 340.091 313.368Z" stroke="#ED5F2E" stroke-width="1.55081" stroke-miterlimit="10"/>
<path d="M278.671 290.753C308.02 269.405 326.389 257.349 297.798 265.79C325.569 254.027 305.94 255.238 269 255C305.946 251.207 326.756 250.174 298.704 242.949C327.692 247.164 311.36 238.655 278.671 219.246C313.091 235.689 330.2 244.882 310.393 224.807C332.261 242.949 322.927 227.871 304.087 193.83C325.673 226.262 335.038 241.94 328.983 214.775C337.73 241.243 337.816 223.332 339.846 184.153C341.137 223.332 340.709 241.084 350.649 214.732C343.437 241.781 353.603 225.694 375.6 193.824C356.411 227.339 346.471 242.595 369.306 224.727C348.624 244.607 366.889 235.114 401.016 219.24C368.694 238.197 351.444 246.944 381.068 242.907C352.435 250.112 374.456 251.195 410.693 254.994C374.462 255.41 353.707 254.192 381.98 265.833C352.845 257.691 372.107 269.986 401.022 290.753C369.991 273.601 351.42 261.692 371.116 285.548C348.857 264.304 360.149 284.38 375.606 316.169C356.448 286.545 345.248 266.659 351.585 297.066C341.571 267.668 341.871 290.448 339.852 325.846C337.277 290.454 337.033 267.442 328.065 297.029C333.405 266.439 322.988 285.921 304.093 316.175C319.361 283.792 330.065 263.814 308.601 285.468C327.594 261.288 310.069 272.898 278.677 290.759L278.671 290.753ZM340.091 272.543C350.037 272.543 358.099 264.481 358.099 254.535C358.099 251.55 357.359 248.742 356.075 246.265C356.148 246.644 356.191 247.029 356.191 247.427C356.191 250.761 353.487 253.464 350.153 253.464C346.82 253.464 344.116 250.761 344.116 247.427C344.116 244.093 346.82 241.39 350.153 241.39C351.291 241.39 352.337 241.72 353.242 242.264C349.958 238.741 345.284 236.527 340.085 236.527C330.139 236.527 322.077 244.589 322.077 254.535C322.077 264.481 330.139 272.543 340.085 272.543L340.091 272.543Z" fill="#ED5F2E"/>
<mask id="mask0_956_47" style="mask-type:luminance" maskUnits="userSpaceOnUse" x="610" y="7" width="219" height="218">
<path d="M719.693 225C779.892 225 828.693 176.199 828.693 116C828.693 55.801 779.892 7 719.693 7C659.494 7 610.693 55.801 610.693 116C610.693 176.199 659.494 225 719.693 225Z" fill="white"/>
</mask>
<g mask="url(#mask0_956_47)">
<path d="M642.062 108.808C642.199 107.268 642.376 105.736 642.603 104.221C643.148 100.542 643.957 96.95 645.002 93.4612" stroke="black" stroke-width="0.428617" stroke-miterlimit="10"/>
<path d="M649.255 148.737C645.828 141.578 643.479 133.803 642.413 125.628" stroke="black" stroke-width="0.428617" stroke-miterlimit="10"/>
<path d="M674.189 178.328C668.107 174.009 662.678 168.828 658.083 162.961" stroke="black" stroke-width="0.428617" stroke-miterlimit="10"/>
<path d="M703.202 190.925C698.334 189.934 693.631 188.481 689.143 186.615" stroke="black" stroke-width="0.428617" stroke-miterlimit="10"/>
<path d="M735.618 189.393C729.763 191.053 724.004 191.953 718.632 192.06C712.199 192.188 706.551 191.173 701.927 189.868" stroke="black" stroke-width="0.857234" stroke-linejoin="bevel"/>
<path d="M645 93.4646C654.509 61.8051 683.877 38.7375 718.633 38.7375C753.389 38.7375 782.889 61.9083 792.328 93.6752" stroke="black" stroke-width="0.857234" stroke-linejoin="bevel"/>
<mask id="mask1_956_47" style="mask-type:luminance" maskUnits="userSpaceOnUse" x="604" y="9" width="115" height="209">
<path d="M718.456 9.06421C680.421 14.2913 642.383 19.5183 604.348 24.7453C642.383 89.0182 680.421 153.295 718.456 217.568V9.06421Z" fill="white"/>
</mask>
<g mask="url(#mask1_956_47)">
<path d="M719.059 47.7549C719.431 54.1628 719.807 59.6086 720.265 64.0223C721.301 74.08 722.569 77.6473 725.108 77.6473C726.462 77.6473 727.866 76.5491 729.86 72.3625C729.485 76.3509 729.951 77.8083 730.599 78.6176C731.045 79.175 731.677 79.4805 732.375 79.4805C734.15 79.4805 736.64 77.6886 743.023 68.9397C745.385 65.7027 748.072 61.8093 751.124 57.2841C748.634 61.8588 746.516 65.8596 744.811 69.2989C739.98 79.0263 739.592 81.966 740.529 83.5597C740.963 84.2947 741.718 84.6993 742.655 84.6993C743.679 84.6993 745.215 84.2864 748.46 82.1725C745.934 85.4962 745.566 87.1229 746.041 88.2542C746.314 88.9024 746.995 89.6745 748.696 89.6745C752.544 89.6745 762.106 85.5044 776.412 78.7291C770.987 81.9867 766.4 84.8149 762.713 87.2715C754.819 92.5275 752.119 95.3351 752.746 97.6265C753.341 99.8024 756.479 100.096 759.472 100.096C759.992 100.096 760.55 100.083 761.144 100.063C756.425 101.9 755.302 103.304 755.413 104.794C755.591 107.135 759.071 108.485 768.716 109.951C774.34 110.806 781.784 111.627 790.405 112.511C766.119 112.668 757.304 113.287 756.541 117.086C756.198 118.791 757.387 120.673 763.035 123.77C761.223 123.44 759.765 123.279 758.654 123.279H758.646C757.87 123.279 755.546 123.287 754.968 125.062C754.39 126.85 755.764 129.352 764.41 136.272C768.84 139.819 774.728 144.17 781.549 149.133C766.326 140.434 756.165 134.926 751.945 134.922C750.306 134.922 749.588 135.694 749.274 136.342C748.617 137.692 748.985 139.868 752.123 144.79C748.461 141.784 746.805 141.218 745.727 141.218C744.897 141.218 744.208 141.586 743.787 142.25C742.854 143.729 743.077 146.73 747.205 156.561C749.468 161.941 752.614 168.72 756.293 176.49C751.801 169.249 747.854 162.989 744.592 158.274C738.816 149.93 736.404 148.217 734.567 148.217C733.828 148.217 733.176 148.526 732.684 149.108C731.85 150.103 731.219 151.994 731.665 157.671C729.357 152.098 727.75 150.694 726.173 150.694C722.028 150.694 720.913 160.595 718.956 188.712C718.428 178.596 717.924 169.872 717.206 163.501C716.165 154.282 714.823 150.855 712.247 150.851C710.666 150.851 708.944 152.292 706.376 157.948C707.008 152.325 706.442 150.45 705.645 149.468C705.179 148.894 704.522 148.576 703.795 148.576C701.983 148.576 699.547 150.297 693.552 158.691C690.129 163.489 685.984 169.843 681.264 177.184C685.191 169.174 688.552 162.205 690.93 156.709C695.034 147.222 695.253 144.274 694.32 142.775C693.886 142.077 693.164 141.693 692.288 141.693C691.157 141.693 689.427 142.255 685.575 145.256C688.857 140.393 689.274 138.233 688.638 136.887C688.333 136.235 687.619 135.463 685.971 135.463C681.644 135.463 671.083 141.078 655.233 149.901C662.516 144.691 668.795 140.132 673.465 136.437C681.95 129.715 683.296 127.246 682.718 125.438C682.123 123.58 679.613 123.58 678.787 123.58C677.635 123.58 676.149 123.737 674.312 124.047C680.15 120.946 681.388 119.055 681.05 117.329C680.583 114.922 677.028 113.799 667.937 113.192C662.256 112.812 654.7 112.68 645.951 112.602C655.146 111.656 663.081 110.781 669.027 109.868C678.601 108.394 682.053 107.044 682.222 104.703C682.334 103.188 681.165 101.764 676.244 99.9056C676.801 99.9221 677.326 99.9345 677.825 99.9345C681.037 99.9345 684.407 99.629 685.013 97.3747C685.947 93.923 679.204 89.2038 660.179 77.9694C675.294 84.9553 685.373 89.2864 689.349 89.2864C691.058 89.2864 691.727 88.5143 691.987 87.8661C692.383 86.8834 692.375 85.5333 689.345 81.805C692.788 83.9313 694.415 84.3442 695.492 84.3442C696.842 84.3442 697.474 83.5928 697.734 83.1469C698.647 81.5697 698.267 78.6011 693.461 69.2246C691.603 65.5995 689.262 61.3469 686.492 56.4419C689.749 61.0991 692.664 65.1825 695.15 68.4855C701.867 77.412 704.328 79.2039 706.12 79.2039C706.813 79.2039 707.429 78.8983 707.85 78.3451C708.527 77.4657 708.841 75.8719 708.345 72.2386C710.558 76.45 712.049 77.5524 713.448 77.5524C717.164 77.5524 718.213 70.0173 719.068 47.7673M718.779 18.3621C717.606 53.8779 717.49 76.2972 713.444 76.2972C711.487 76.2972 708.609 71.0454 704.249 59.493C707.672 72.3377 708.184 77.9487 706.112 77.9487C702.309 77.9487 689.832 59.0967 670.691 31.3719C689.056 63.4525 701.124 83.0932 695.488 83.0932C693.205 83.0932 688.015 79.8645 679.159 72.9364C690.327 83.6712 693.052 88.0353 689.34 88.0353C683.812 88.0353 663.981 78.3327 636.504 65.5582C673.007 86.966 695.216 98.6917 677.817 98.6917C674.493 98.6917 669.725 98.2624 663.337 97.3953C701.847 107.086 672.231 108.543 623.499 113.654C672.231 114.216 700.145 112.577 662.119 128.233C670.443 125.909 675.827 124.823 678.779 124.823C689.716 124.823 667.136 139.757 636.508 161.751C661.438 147.973 680.393 136.706 685.967 136.71C689.724 136.71 687.404 141.829 676.735 154.748C685.315 146.561 690.187 142.936 692.284 142.94C697.511 142.94 685.525 165.429 670.691 195.937C687.383 170.132 699.58 149.819 703.791 149.819C706.079 149.819 706.004 155.83 703.002 170.24C707.321 157.556 710.216 152.094 712.243 152.094C716.533 152.094 716.941 176.606 718.787 208.943C721.14 176.594 722.045 151.937 726.169 151.941C728.114 151.941 730.773 157.428 734.637 170.186C732.09 155.582 732.21 149.463 734.559 149.463C738.832 149.463 750.484 169.686 766.875 195.937C752.284 164.988 740.789 142.465 745.719 142.465C747.726 142.465 752.457 146.206 760.81 154.637C750.442 141.441 748.163 136.169 751.937 136.169C757.461 136.169 775.967 147.478 801.057 161.751C770.223 139.327 748.403 124.526 758.646 124.526C761.52 124.526 766.912 125.69 775.331 128.175C737.978 112.354 764.377 113.985 814.067 113.659C764.377 108.555 736.384 107.164 774.117 97.449C767.581 98.3986 762.758 98.8693 759.464 98.8693C743.114 98.8693 764.468 87.2963 801.057 65.5665C773.485 78.7373 754.175 88.4482 748.688 88.4482C744.964 88.4482 747.614 83.9685 758.39 73.0479C749.823 80.1535 744.815 83.473 742.647 83.473C737.371 83.473 748.91 63.8324 766.871 31.3843C748.159 59.5013 736.272 78.2501 732.371 78.2501C730.22 78.2501 730.492 72.5441 733.39 59.555C729.555 71.1569 726.958 76.4169 725.108 76.4169C721.277 76.4169 720.624 53.8944 718.783 18.3703L718.779 18.3621Z" fill="black"/>
</g>
<path d="M718.628 140.959C732.629 140.959 743.979 129.609 743.979 115.608C743.979 101.607 732.629 90.2571 718.628 90.2571" stroke="black" stroke-width="0.857234" stroke-miterlimit="10"/>
<mask id="mask2_956_47" style="mask-type:luminance" maskUnits="userSpaceOnUse" x="716" y="49" width="139" height="189">
<path d="M817.953 49.1133C830.112 111.891 842.276 174.666 854.435 237.444C808.556 232.196 762.677 226.944 716.798 221.697C750.517 164.17 784.233 106.64 817.953 49.1133Z" fill="white"/>
</mask>
<g mask="url(#mask2_956_47)">
<path d="M815.852 146.111C815.658 119.976 808.672 93.8324 790.262 73.8036C770.431 52.817 741.055 42.6973 714.428 51.5825C695.886 57.6601 681.084 74.1959 677.187 94.588C675.721 102.651 677.108 110.253 679.916 117.862C683.673 125.95 690.738 136.904 700.704 136.479C700.246 133.63 696.922 133.138 695.036 131.227C680.403 115.488 681.951 90.8142 696.27 75.2239C722.038 48.3001 766.146 56.12 788.301 85.6615C811.872 117.585 808.813 158.865 790.134 191.049C808.817 157.919 812.838 113.795 785.939 82.8044C772.252 67.0696 752.851 56.054 732.43 57.3752C718.186 58.2505 704.379 66.2521 694.825 78.0687C684.313 91.3056 680.403 113.597 695.06 125.063C688.962 111.264 691.419 94.6664 700.973 82.8457C714.821 66.3016 738.091 64.5221 756.563 72.2141C771.245 78.4609 782.104 89.9059 789.151 104.183C808.404 145.104 786.327 192.457 750.138 215.058C769.663 202.341 785.423 183.91 792.661 161.165C802.314 129.885 794.428 94.2453 766.517 75.5914C744.284 60.7649 713.421 62.9779 696.691 85.2032C691.431 92.7713 689.47 104.629 695.126 112.726C696.167 95.1701 710.481 80.0505 728.058 77.2925C757.038 72.693 780.646 96.5491 785.729 124.105C794.956 175.892 747.277 217.894 699.334 218.121C726.873 216.362 753.986 205.111 771.666 181.941C791.736 155.463 794.296 119.402 773.065 93.659C761.744 79.8358 742.306 74.9886 724.251 79.171C713.318 81.9621 702.36 89.9761 701.353 101.838C712.356 84.8069 736.592 79.7078 754.094 91.19C780.584 108.886 784.201 144.505 767.929 170.529C742.562 211.697 688.429 215.689 650.094 193.662C681.336 210.433 721.67 213.014 751.695 188.96C774.573 170.566 784.222 139.761 772.492 113.118C766.393 98.8488 753.635 87.8663 737.979 86.3593C728.962 85.839 718.987 87.2098 712.306 94.2989C711.353 95.2444 713.252 95.2527 713.248 95.7275C727.525 88.6796 745.068 92.0942 756.402 104.018C770.097 117.854 771.418 138.271 765.155 155.801C755.048 183.278 725.535 199.269 697.063 197.7C664.792 196.111 636.902 174.133 621.378 146.524C634.078 168.898 653.921 187.036 679.516 194.761C711.27 204.418 747.405 192.259 763.214 163.861C772.318 146.821 771.48 125.455 759.222 108.779C752.153 98.7745 738.912 88.7375 726.063 95.3187C747.892 96.3798 762.017 118.762 760.01 140.112C758.516 153.869 751.336 165.698 740.374 174.662C717.492 193.53 686.646 192.424 662.042 176.635C632.707 157.973 620.536 124.683 620.701 92.4079C621.064 114.245 625.23 135.149 638.422 154.204C657.74 182.308 691.369 196.718 722.273 186.433C740.815 180.355 755.617 163.819 759.515 143.427C760.981 135.364 759.593 127.763 756.786 120.153C753.029 112.065 745.964 101.111 735.997 101.537C736.456 104.386 739.779 104.877 741.666 106.789C756.299 122.527 754.75 147.201 740.432 162.791C714.664 189.715 670.556 181.895 648.401 152.354C624.83 120.43 627.889 79.1504 646.568 46.9665C627.885 80.0959 623.864 124.22 650.763 155.211C664.45 170.946 683.851 181.961 704.272 180.64C718.516 179.765 732.323 171.763 741.877 159.947C752.389 146.71 756.298 124.418 741.641 112.953C747.74 126.751 745.283 143.349 735.729 155.17C721.881 171.714 698.611 173.493 680.139 165.801C665.457 159.554 654.598 148.109 647.55 133.832C628.298 92.9117 650.374 45.5586 686.563 22.9576C667.038 35.6743 651.279 54.1052 644.041 76.8507C634.388 108.13 642.274 143.77 670.184 162.424C692.418 177.25 723.281 175.037 740.011 152.812C745.271 145.244 747.232 133.386 741.575 125.29C740.535 142.845 726.22 157.965 708.644 160.723C679.664 165.322 656.056 141.466 650.973 113.911C641.745 62.1233 689.424 20.1211 737.368 19.894C709.829 21.6529 682.715 32.9038 665.036 56.0746C644.966 82.5525 642.406 118.613 663.636 144.356C674.957 158.18 694.396 163.027 712.451 158.844C723.384 156.053 734.342 148.039 735.349 136.177C724.346 153.208 700.11 158.308 682.608 146.825C656.118 129.129 652.501 93.5103 668.772 67.4866C694.14 26.3184 748.272 22.3259 786.608 44.353C755.365 27.5818 715.031 25.0014 685.007 49.0557C662.129 67.4494 652.48 98.2543 664.21 124.897C670.308 139.166 683.066 150.149 698.723 151.656C707.74 152.176 717.715 150.806 724.395 143.716C725.349 142.771 723.45 142.763 723.454 142.288C709.177 149.336 691.633 145.921 680.3 133.997C666.605 120.162 665.283 99.7448 671.547 82.214C681.654 54.7369 711.167 38.7461 739.639 40.315C771.909 41.9046 799.799 63.8822 815.324 91.4914C802.623 69.1175 782.781 50.9797 757.186 43.2547C725.432 33.5975 689.297 45.7568 673.487 74.1546C664.383 91.1941 665.222 112.561 677.48 129.237C684.548 139.241 697.79 149.278 710.638 142.697C687.385 141.627 673.269 117.825 677.179 95.0586C683.533 59.0184 722.546 41.6528 754.3 50.8352C781.79 58.5684 802.083 81.9332 810.328 108.655C813.858 119.687 815.683 132.42 815.844 146.115L815.852 146.111Z" fill="black" stroke="black" stroke-width="0.214309" stroke-miterlimit="10"/>
</g>
<path d="M604.413 24.7782C604.413 24.7782 715.328 212.461 718.627 218.039C718.627 216.354 719.069 -2.1167 719.069 -2.1167" stroke="black" stroke-width="0.642926" stroke-linecap="round" stroke-linejoin="round"/>
<path d="M606.254 27.9077C606.341 28.0564 608.344 31.4585 608.43 31.6071C620.086 51.4129 631.75 71.2104 643.43 90.9997C668.343 133.217 693.314 175.396 718.339 217.543" stroke="black" stroke-width="0.642926" stroke-linecap="round" stroke-linejoin="round"/>
<path d="M718.565 218.245L832.854 24.8608" stroke="black" stroke-width="0.642926" stroke-linecap="round" stroke-linejoin="round"/>
<path d="M732.52 94.9803C733.486 96.1157 733.994 97.5691 733.879 99.0596C733.8 100.083 733.561 101.401 732.661 102.028C732.264 102.305 731.777 102.33 731.315 102.416C730.877 102.499 730.472 102.639 730.109 102.899C729.482 103.349 729.089 104.031 728.767 104.72C728.445 105.41 728.164 106.194 727.702 106.838C727.289 107.416 726.777 107.689 726.075 107.763C724.969 107.883 723.8 107.829 722.69 107.78C721.579 107.73 720.468 107.569 719.378 107.313C718.796 107.177 718.548 108.073 719.131 108.209C721.273 108.713 723.511 108.837 725.708 108.721C726.451 108.684 727.202 108.564 727.797 108.085C728.466 107.548 728.862 106.756 729.209 105.988C729.556 105.22 729.841 104.373 730.452 103.804C731.199 103.106 732.339 103.37 733.164 102.792C734.308 101.995 734.671 100.484 734.787 99.171C734.944 97.3833 734.32 95.6698 733.164 94.3114C732.776 93.8573 732.12 94.5138 732.508 94.9679L732.52 94.9803Z" fill="black"/>
<path d="M738.784 101.156C739.342 102.957 739.974 105.099 739.491 106.995C739.379 107.428 739.193 107.849 738.908 108.175C738.231 108.943 737.228 109.067 736.278 109.257C735.131 109.488 733.97 109.926 733.14 110.785C732.385 111.565 732.038 112.61 731.604 113.58C731.13 114.658 730.482 115.562 729.408 116.103C728.335 116.644 727.228 116.594 726.105 116.383C724.982 116.173 723.896 116.082 722.781 116.317C721.489 116.59 720.312 117.246 719.272 118.043C718.801 118.402 719.264 119.208 719.742 118.844C720.725 118.093 721.807 117.473 723.029 117.213C724.074 116.99 725.089 117.143 726.122 117.329C728.45 117.754 730.795 116.986 732.009 114.852C732.571 113.865 732.839 112.717 733.504 111.792C734.276 110.715 735.577 110.339 736.811 110.099C737.814 109.905 738.805 109.649 739.528 108.873C739.883 108.493 740.135 108.035 740.3 107.544C741.006 105.442 740.304 102.936 739.68 100.917C739.503 100.347 738.607 100.591 738.784 101.165V101.156Z" fill="black"/>
<path d="M742.618 110.418C742.697 112.598 741.528 114.712 739.604 115.76C738.651 116.276 737.796 116.698 737.131 117.581C736.562 118.337 736.186 119.208 735.789 120.063C735.393 120.917 735.001 121.739 734.344 122.379C733.597 123.11 732.585 123.374 731.582 123.56C730.579 123.745 729.497 123.869 728.523 124.29C727.548 124.712 726.871 125.5 726.19 126.334C724.609 128.266 722.103 129.138 719.687 128.357C719.117 128.171 718.874 129.072 719.439 129.253C721.533 129.93 723.907 129.513 725.649 128.176C726.591 127.453 727.144 126.38 728.056 125.636C728.969 124.893 730.129 124.749 731.219 124.563C732.309 124.377 733.403 124.187 734.324 123.576C735.141 123.039 735.715 122.238 736.165 121.388C736.615 120.537 736.983 119.571 737.486 118.712C737.734 118.291 738.015 117.903 738.374 117.569C738.841 117.139 739.431 116.904 739.98 116.611C742.222 115.422 743.626 112.953 743.535 110.422C743.514 109.827 742.585 109.823 742.606 110.422L742.618 110.418Z" fill="black"/>
<path d="M719.041 91.0369C720.415 90.6075 721.906 90.7355 723.136 91.5075C724.305 92.2383 725.126 93.5595 725.296 94.9262C725.465 96.2928 724.808 97.7255 723.59 98.4769C722.372 99.2284 721.026 99.2655 719.755 98.8196C719.189 98.6214 718.945 99.5174 719.507 99.7156C721.918 100.566 724.854 99.6123 725.898 97.1722C726.943 94.7321 725.531 91.6644 723.21 90.4836C721.84 89.7858 720.254 89.6867 718.793 90.145C718.223 90.3226 718.467 91.2185 719.041 91.041V91.0369Z" fill="black"/>
<path d="M741.929 122.841C741.095 123.622 741.049 124.757 740.513 125.703C740.1 126.429 739.323 126.759 738.589 127.082C737.053 127.755 735.5 128.366 733.939 128.977C732.465 129.555 731.384 130.57 730.513 131.871C729.505 133.382 728.147 134.497 726.475 135.211C724.014 136.26 721.285 135.979 719.216 134.237C718.762 133.853 718.101 134.509 718.56 134.893C720.43 136.466 722.812 137.119 725.215 136.586C727.04 136.185 728.915 135.162 730.203 133.799C730.859 133.105 731.293 132.251 731.9 131.52C732.465 130.83 733.209 130.31 734.014 129.943C734.253 129.835 734.769 129.658 735.124 129.522C736.14 129.134 737.135 128.704 738.134 128.279C739.134 127.854 740.207 127.515 740.921 126.722C741.755 125.793 741.689 124.344 742.594 123.498C743.031 123.089 742.375 122.433 741.937 122.841H741.929Z" fill="black"/>
<path d="M698.495 98.114C699.544 97.6185 700.7 97.3171 701.934 97.3171C706.393 97.3171 710.01 100.934 710.01 105.393C710.01 109.852 706.393 113.469 701.934 113.469C697.475 113.469 693.858 109.852 693.858 105.393C693.858 105.372 693.863 105.356 693.863 105.335C693.776 105.533 693.681 105.723 693.598 105.926C692.351 109.01 691.666 112.379 691.666 115.909C691.666 130.636 703.607 142.573 718.33 142.573V89.2412C710.444 89.2412 703.371 92.6722 698.491 98.1099L698.495 98.114Z" fill="black"/>
</g>
<path d="M733.07 78.9857C734.04 78.9857 734.973 78.131 734.928 77.1277C734.883 76.1244 734.11 75.2698 733.07 75.2698C732.1 75.2698 731.167 76.1244 731.212 77.1277C731.257 78.131 732.03 78.9857 733.07 78.9857Z" fill="black"/>
<path d="M754.987 101.132C755.957 101.132 756.89 100.278 756.845 99.2742C756.799 98.2709 756.027 97.4163 754.987 97.4163C754.016 97.4163 753.083 98.2709 753.129 99.2742C753.174 100.278 753.946 101.132 754.987 101.132Z" fill="black"/>
<path d="M754.987 129.278C755.957 129.278 756.89 128.423 756.845 127.42C756.799 126.417 756.027 125.562 754.987 125.562C754.016 125.562 753.083 126.417 753.129 127.42C753.174 128.423 753.946 129.278 754.987 129.278Z" fill="black"/>
<path d="M732.846 151.883C733.816 151.883 734.749 151.028 734.704 150.025C734.659 149.022 733.887 148.167 732.846 148.167C731.876 148.167 730.943 149.022 730.988 150.025C731.034 151.028 731.806 151.883 732.846 151.883Z" fill="black"/>
<path d="M644.483 107.383C639.198 106.227 633.988 109.617 632.844 114.951C631.7 120.286 635.057 125.542 640.342 126.698C645.627 127.854 650.837 124.464 651.981 119.13C653.125 113.795 649.768 108.539 644.483 107.383ZM648.191 120.191C646.473 123.424 642.497 124.638 639.31 122.899C636.118 121.161 634.925 117.127 636.639 113.894C638.356 110.662 642.332 109.448 645.52 111.186C648.711 112.924 649.904 116.958 648.191 120.191Z" fill="black"/>
<path d="M655.788 146.14C650.503 144.984 645.293 148.374 644.149 153.708C643.005 159.042 646.362 164.298 651.647 165.454C656.932 166.611 662.142 163.221 663.286 157.886C664.43 152.552 661.073 147.296 655.788 146.14ZM659.491 158.943C657.774 162.176 653.798 163.39 650.611 161.652C647.419 159.914 646.226 155.88 647.939 152.647C649.657 149.414 653.633 148.2 656.82 149.938C660.012 151.677 661.205 155.711 659.491 158.943Z" fill="black"/>
<path d="M683.24 173.592C677.955 172.436 672.744 175.826 671.601 181.16C670.457 186.495 673.814 191.751 679.099 192.907C684.384 194.063 689.594 190.673 690.738 185.339C691.881 180.004 688.525 174.748 683.24 173.592ZM686.943 186.396C685.226 189.629 681.25 190.842 678.062 189.104C674.871 187.366 673.678 183.332 675.391 180.099C677.109 176.867 681.085 175.653 684.272 177.391C687.464 179.129 688.657 183.163 686.943 186.396Z" fill="black"/>
<path d="M1103.53 313.833C1071.03 313.833 1044.69 287.493 1044.69 255C1044.69 222.508 1071.03 196.167 1103.53 196.167C1136.02 196.167 1162.36 222.508 1162.36 255C1162.36 287.493 1136.02 313.833 1103.53 313.833Z" stroke="#C91E1D" stroke-width="1.55081" stroke-miterlimit="10"/>
<path d="M1071.59 257.571C1070.33 239.903 1083.64 224.562 1101.31 223.304C1118.97 222.047 1134.32 235.351 1135.57 253.019C1136.83 270.686 1123.53 286.028 1105.86 287.285C1088.19 288.542 1072.85 275.239 1071.59 257.571Z" stroke="#C91E1D" stroke-width="1.55081" stroke-miterlimit="10"/>
<path d="M1085.71 228.516C1085.69 228.515 1085.66 228.518 1085.63 228.543L1085.6 228.578C1084.33 230.067 1083.58 231.92 1083.61 233.857L1083.63 234.246C1083.72 235.61 1084.02 237.053 1084.85 238.089L1085.02 238.292C1085.54 238.855 1086.12 239.038 1086.84 239.193L1087.6 239.351L1087.6 239.352C1088.7 239.594 1089.34 240.299 1089.83 241.156L1090.03 241.531C1090.23 241.93 1090.42 242.364 1090.6 242.79C1090.79 243.219 1090.99 243.643 1091.21 244.04C1091.62 244.784 1092.13 245.408 1092.85 245.764L1093 245.832C1093.58 246.076 1094.22 246.145 1094.88 246.167L1095.54 246.178C1096.77 246.189 1097.98 246.191 1099.18 246.085L1099.7 246.033C1101.12 245.869 1102.53 245.578 1103.96 245.319C1105.21 245.093 1106.47 244.893 1107.75 244.832L1108.31 244.814C1109.82 244.795 1111.37 245.032 1112.75 245.625C1113.45 245.921 1114.08 246.319 1114.69 246.704C1115.23 247.043 1115.75 247.371 1116.31 247.632L1116.55 247.74C1118.52 248.57 1120.58 247.846 1122.23 246.536L1122.56 246.266C1124.12 244.91 1125.17 242.985 1126.01 241.061L1126.01 241.061C1126.88 239.076 1127.45 237.001 1127.8 234.867L1127.94 233.949L1127.94 233.948C1127.95 233.873 1127.93 233.85 1127.92 233.841C1127.9 233.825 1127.86 233.805 1127.8 233.805C1127.68 233.806 1127.58 233.869 1127.54 233.972L1127.53 234.018C1127.21 236.477 1126.56 238.906 1125.53 241.168L1125.32 241.619L1125.32 241.62C1124.41 243.489 1123.28 245.337 1121.51 246.566L1121.14 246.803C1119.97 247.524 1118.61 247.947 1117.22 247.558L1116.94 247.469L1116.94 247.469C1116.29 247.236 1115.69 246.881 1115.13 246.521C1114.7 246.248 1114.29 245.974 1113.87 245.734L1113.45 245.506L1113.45 245.505C1111.35 244.456 1109.13 244.261 1106.73 244.509L1106.24 244.565C1104.94 244.729 1103.66 244.987 1102.35 245.224C1101.05 245.461 1099.73 245.674 1098.4 245.746L1098.4 245.747C1097.5 245.797 1096.59 245.814 1095.69 245.795L1094.8 245.765C1094 245.728 1093.11 245.632 1092.43 245.006L1092.43 245.005C1091.72 244.35 1091.3 243.495 1090.94 242.658C1090.61 241.912 1090.33 241.188 1089.92 240.56L1089.74 240.297C1089.31 239.729 1088.78 239.313 1088.13 239.093L1087.84 239.011L1087.84 239.011C1087.59 238.949 1087.34 238.903 1087.1 238.853C1086.85 238.804 1086.6 238.75 1086.37 238.671C1085.94 238.53 1085.54 238.309 1085.19 237.895L1085.04 237.706C1084.39 236.8 1084.14 235.651 1084.04 234.583L1084.01 234.132L1084.01 234.131C1083.9 232.224 1084.61 230.365 1085.82 228.928L1085.83 228.915L1085.84 228.903L1085.85 228.891L1085.88 228.854C1085.93 228.764 1085.91 228.659 1085.83 228.579C1085.78 228.534 1085.74 228.517 1085.71 228.516Z" fill="#C91E1D" stroke="#C91E1D" stroke-width="0.516938"/>
<path d="M1077.53 236.66C1077.5 236.673 1077.47 236.694 1077.45 236.734L1077.43 236.78L1077.43 236.78C1076.93 238.41 1076.3 240.684 1076.31 242.759C1076.32 244.763 1076.93 246.512 1078.78 247.36L1078.96 247.439L1078.96 247.439C1079.49 247.658 1080.05 247.777 1080.63 247.891C1081.07 247.976 1081.52 248.057 1081.97 248.176L1082.41 248.307C1083.84 248.78 1084.91 249.652 1085.63 250.94L1085.77 251.203L1085.77 251.203C1086.05 251.773 1086.29 252.387 1086.54 252.96C1086.79 253.54 1087.05 254.09 1087.38 254.573C1088.05 255.542 1088.96 256.292 1090.06 256.75C1091.02 257.15 1092.07 257.286 1093.1 257.203L1093.55 257.154L1093.55 257.154C1094.76 256.988 1095.99 256.644 1097.35 256.784L1097.62 256.818C1098.72 256.984 1099.72 257.463 1100.67 257.946L1101.61 258.419C1102.6 258.896 1103.62 258.886 1104.74 258.789L1105.22 258.744C1105.86 258.68 1106.53 258.608 1107.23 258.677L1107.53 258.715C1108.13 258.81 1108.72 258.994 1109.28 259.193L1109.84 259.394L1109.84 259.394C1110.59 259.675 1111.33 259.986 1112.06 260.294C1112.61 260.525 1113.16 260.755 1113.72 260.97L1114.27 261.18C1116.87 262.137 1119.61 262.763 1122.34 262.433L1122.89 262.355C1125.36 261.939 1127.28 260.549 1129.19 258.92L1129.19 258.92C1131.24 257.171 1133.19 255.293 1135.07 253.346L1135.07 253.346C1135.12 253.293 1135.13 253.245 1135.13 253.206C1135.12 253.16 1135.1 253.107 1135.06 253.063C1135.01 253.02 1134.96 252.998 1134.92 252.996C1134.9 252.994 1134.87 252.999 1134.83 253.024L1134.79 253.056L1134.79 253.056C1132.83 255.098 1130.78 257.069 1128.61 258.893L1128.61 258.892C1127.65 259.705 1126.65 260.526 1125.49 261.104L1125.49 261.103C1124 261.848 1122.35 262.141 1120.71 262.129L1120.38 262.122C1117.66 262.04 1115.09 261.115 1112.64 260.108L1111.59 259.674C1110.33 259.142 1109.04 258.575 1107.73 258.349L1107.46 258.308L1107.46 258.308C1106.87 258.227 1106.27 258.256 1105.66 258.31C1105.21 258.351 1104.73 258.407 1104.26 258.437L1103.78 258.458C1103 258.474 1102.32 258.265 1101.69 257.988C1101.37 257.85 1101.06 257.693 1100.76 257.539C1100.45 257.383 1100.15 257.228 1099.84 257.09L1099.84 257.091C1098.83 256.647 1097.81 256.383 1096.74 256.356L1096.27 256.359C1095.74 256.38 1095.21 256.473 1094.66 256.573C1094.25 256.648 1093.83 256.727 1093.41 256.778L1092.98 256.818L1092.98 256.818C1091.65 256.902 1090.33 256.588 1089.22 255.835L1089 255.677C1087.94 254.882 1087.38 253.789 1086.9 252.705C1086.45 251.674 1086.06 250.665 1085.4 249.817L1085.27 249.65L1085.27 249.649C1084.62 248.88 1083.69 248.333 1082.71 247.984L1082.29 247.846L1082.29 247.846C1081.77 247.689 1081.22 247.604 1080.64 247.492C1080.14 247.396 1079.63 247.281 1079.14 247.08L1078.94 246.988C1077.05 246.096 1076.6 244.168 1076.69 242.224C1076.78 240.431 1077.33 238.536 1077.74 237.208L1077.73 237.208L1077.83 236.875C1077.85 236.803 1077.83 236.761 1077.81 236.734C1077.79 236.701 1077.75 236.668 1077.69 236.652C1077.63 236.636 1077.57 236.64 1077.53 236.66Z" fill="#C91E1D" stroke="#C91E1D" stroke-width="0.516938"/>
<path d="M1072.76 248.516C1072.7 248.516 1072.64 248.536 1072.61 248.566C1072.58 248.586 1072.56 248.615 1072.55 248.658L1072.54 248.708C1072.47 251.032 1073.42 253.357 1075.11 254.951L1075.46 255.26C1075.97 255.685 1076.57 255.989 1077.19 256.315C1077.72 256.597 1078.28 256.895 1078.77 257.298L1078.98 257.477C1079.67 258.112 1080.15 258.924 1080.56 259.739L1080.95 260.549C1081.75 262.259 1082.5 263.994 1084.01 265L1084.33 265.191C1085.32 265.748 1086.43 265.952 1087.59 266.145C1088.67 266.323 1089.79 266.491 1090.83 266.948L1091.04 267.044C1091.7 267.364 1092.21 267.824 1092.67 268.32C1092.89 268.568 1093.11 268.828 1093.32 269.084C1093.42 269.213 1093.53 269.341 1093.63 269.467L1093.95 269.839C1094.6 270.571 1095.37 271.178 1096.25 271.615L1096.62 271.792C1098.48 272.59 1100.56 272.599 1102.55 272.185L1102.95 272.097C1105.61 271.462 1108.24 271.123 1110.97 271.659L1111.51 271.778C1112.77 272.078 1113.97 272.535 1115.1 273.141L1115.58 273.409C1116.16 273.75 1116.69 274.159 1117.2 274.561C1117.58 274.864 1117.96 275.163 1118.35 275.434L1118.75 275.694C1119.56 276.2 1120.53 276.303 1121.56 276.231C1122.35 276.177 1123.13 276.027 1123.88 275.891L1124.63 275.763C1125.72 275.589 1126.82 275.401 1127.91 275.202L1129 274.999C1129.08 274.985 1129.1 274.956 1129.11 274.936C1129.12 274.907 1129.13 274.858 1129.11 274.797C1129.08 274.686 1129 274.616 1128.9 274.616L1128.86 274.62L1128.85 274.62C1127.63 274.85 1126.4 275.069 1125.17 275.271L1123.93 275.466C1123.03 275.602 1122.04 275.808 1121.07 275.84L1120.65 275.842L1120.65 275.842C1119.83 275.822 1119.16 275.482 1118.56 275.062C1118.26 274.854 1117.97 274.621 1117.7 274.396C1117.56 274.282 1117.42 274.17 1117.28 274.062L1116.87 273.752L1116.86 273.752C1114.95 272.404 1112.74 271.516 1110.43 271.152L1109.97 271.087C1108.83 270.945 1107.67 270.922 1106.52 271.02L1106.03 271.069C1104.79 271.215 1103.63 271.554 1102.37 271.811L1102.37 271.812C1100.25 272.243 1097.92 272.152 1095.99 271.011L1095.61 270.769C1095.04 270.377 1094.58 269.899 1094.15 269.408C1093.83 269.031 1093.54 268.662 1093.23 268.301L1092.91 267.941C1092.27 267.256 1091.52 266.766 1090.66 266.441L1090.28 266.312C1089.77 266.153 1089.23 266.045 1088.67 265.949C1088.11 265.855 1087.52 265.769 1086.95 265.658C1085.81 265.436 1084.67 265.095 1083.74 264.277L1083.74 264.276C1082.94 263.573 1082.41 262.677 1081.96 261.758C1081.73 261.299 1081.52 260.826 1081.31 260.369C1081.16 260.024 1081 259.687 1080.83 259.361L1080.66 259.04C1080.28 258.347 1079.82 257.695 1079.26 257.173L1079.01 256.957L1079.01 256.956C1078.56 256.596 1078.05 256.333 1077.52 256.058C1077.06 255.82 1076.57 255.573 1076.13 255.253L1075.94 255.111C1074.08 253.655 1073 251.395 1072.96 249.052L1072.93 249.062L1072.95 248.691C1072.95 248.616 1072.92 248.581 1072.9 248.561C1072.87 248.535 1072.82 248.515 1072.76 248.516Z" fill="#C91E1D" stroke="#C91E1D" stroke-width="0.516938"/>
<path d="M1107.14 222.979L1107.14 222.979C1107.06 222.98 1107.02 223.007 1107 223.036C1106.97 223.069 1106.95 223.122 1106.95 223.184C1106.95 223.246 1106.97 223.297 1107 223.329C1107.02 223.355 1107.06 223.381 1107.13 223.38C1108.64 223.357 1110.14 223.692 1111.45 224.471L1111.71 224.633L1111.71 224.633C1113.26 225.649 1114.25 227.236 1114.76 228.964L1114.85 229.312C1115.24 230.84 1115.23 232.514 1114.6 233.998L1114.46 234.292C1114.08 235.077 1113.5 235.86 1112.56 236.147L1112.37 236.198C1111.49 236.396 1110.6 236.153 1109.83 235.878L1109.5 235.76L1109.5 235.759C1108.01 235.205 1106.6 234.569 1105.12 234.467L1104.82 234.455C1104.03 234.44 1103.24 234.545 1102.42 234.639C1101.71 234.721 1100.98 234.794 1100.24 234.757L1099.92 234.735C1098.35 234.59 1096.76 233.95 1095.77 232.599L1095.78 232.598C1094.77 231.224 1094.64 229.524 1095.12 227.974L1095.22 227.667L1095.22 227.666L1095.34 227.36C1096.65 224.306 1099.98 222.87 1103.13 223.764L1103.14 223.756L1103.29 223.8C1103.36 223.822 1103.4 223.808 1103.43 223.791C1103.46 223.769 1103.5 223.726 1103.51 223.666C1103.53 223.606 1103.52 223.546 1103.5 223.503C1103.49 223.476 1103.47 223.448 1103.43 223.427L1103.38 223.409L1103.38 223.409C1099.7 222.275 1095.77 224.27 1094.7 227.964L1094.61 228.328C1094.23 229.944 1094.54 231.605 1095.53 232.915L1095.74 233.171C1096.68 234.269 1098.04 234.859 1099.48 235.071L1099.77 235.108C1100.82 235.226 1101.86 235.086 1102.95 234.971C1103.89 234.871 1104.86 234.791 1105.84 234.946L1106.26 235.027C1107.24 235.256 1108.21 235.711 1109.13 236.071C1110.01 236.414 1110.87 236.68 1111.76 236.662L1111.93 236.654C1113.57 236.549 1114.61 235.282 1115.14 233.689L1115.24 233.366C1115.71 231.757 1115.58 230.021 1115 228.41L1114.88 228.089C1114.25 226.495 1113.27 225.161 1111.85 224.248L1111.56 224.07C1110.32 223.35 1108.88 223.005 1107.43 222.98L1107.14 222.979Z" fill="#C91E1D" stroke="#C91E1D" stroke-width="0.516938"/>
<path d="M1073.82 264.646C1073.78 264.65 1073.73 264.674 1073.68 264.718C1073.64 264.761 1073.62 264.811 1073.62 264.851C1073.61 264.884 1073.62 264.928 1073.68 264.979C1074.14 265.421 1074.4 265.973 1074.61 266.52C1074.82 267.089 1074.95 267.609 1075.18 268.11C1075.46 268.717 1075.87 269.205 1076.39 269.591L1076.63 269.75C1077.26 270.151 1077.96 270.445 1078.68 270.74L1079.4 271.04C1080.16 271.366 1080.92 271.694 1081.69 272.008L1082.45 272.315L1082.46 272.315C1083.05 272.55 1083.73 272.761 1084.36 273.039L1084.62 273.162C1086.11 273.89 1087.04 274.926 1087.92 276.154L1088.3 276.691C1090.03 279.204 1092.96 281.031 1095.98 281.54L1096.27 281.586C1098.25 281.865 1100.06 281.469 1101.79 280.473L1101.79 280.473C1102.52 280.058 1103.27 279.547 1104.1 279.194L1104.45 279.053C1105.48 278.683 1106.49 278.741 1107.49 278.94L1107.91 279.033L1107.92 279.033C1109 279.29 1110.08 279.709 1111.03 280.228L1111.43 280.458C1112.21 280.924 1112.92 281.501 1113.61 282.057L1114.31 282.602C1115.95 283.855 1117.93 284.71 1119.83 283.81L1119.82 283.81C1119.89 283.778 1119.91 283.743 1119.91 283.72C1119.92 283.689 1119.91 283.641 1119.88 283.587C1119.82 283.475 1119.7 283.427 1119.58 283.482L1119.58 283.481C1118.13 284.173 1116.74 283.714 1115.52 282.967C1114.91 282.592 1114.32 282.137 1113.78 281.701C1113.37 281.37 1112.99 281.053 1112.63 280.781L1112.28 280.525C1110.48 279.278 1107.97 278.218 1105.76 278.362L1105.55 278.38L1105.55 278.38C1104.69 278.466 1103.91 278.798 1103.14 279.218C1102.75 279.428 1102.38 279.656 1101.99 279.885C1101.7 280.057 1101.4 280.227 1101.1 280.387L1100.8 280.544C1098.93 281.475 1096.78 281.437 1094.84 280.862L1094.46 280.741L1094.46 280.74C1093.25 280.33 1092.09 279.715 1091.05 278.967L1090.62 278.637C1089.91 278.074 1089.37 277.408 1088.87 276.731C1088.43 276.132 1088.04 275.538 1087.58 274.971L1087.38 274.73C1086.64 273.865 1085.75 273.29 1084.77 272.824C1084.02 272.47 1083.25 272.187 1082.46 271.882L1081.66 271.565L1081.66 271.565C1081.13 271.345 1080.6 271.121 1080.07 270.895L1078.48 270.212L1078.48 270.212C1077.89 269.956 1077.22 269.692 1076.65 269.286L1076.41 269.102C1075.67 268.49 1075.36 267.624 1075.08 266.825C1074.8 266.008 1074.54 265.258 1073.97 264.705C1073.91 264.653 1073.86 264.643 1073.82 264.646Z" fill="#C91E1D" stroke="#C91E1D" stroke-width="0.516938"/>
<path d="M1086.43 212.006C1085.92 212.006 1085.54 212.204 1085.3 212.49C1085.05 212.78 1084.92 213.176 1084.92 213.582C1084.92 213.988 1085.05 214.385 1085.3 214.676C1085.55 214.961 1085.92 215.159 1086.43 215.159C1086.95 215.159 1087.33 214.96 1087.57 214.675C1087.82 214.384 1087.95 213.988 1087.95 213.582C1087.95 213.176 1087.82 212.78 1087.57 212.49C1087.33 212.204 1086.95 212.006 1086.43 212.006Z" fill="#C91E1D" stroke="#C91E1D" stroke-width="0.516938"/>
<path d="M1061.62 239.483C1061.1 239.483 1060.73 239.681 1060.48 239.967C1060.23 240.257 1060.1 240.653 1060.1 241.059C1060.1 241.465 1060.24 241.862 1060.49 242.153C1060.73 242.438 1061.1 242.636 1061.62 242.636C1062.14 242.636 1062.51 242.437 1062.75 242.152C1063 241.861 1063.14 241.465 1063.14 241.059C1063.14 240.654 1063 240.257 1062.75 239.967C1062.51 239.681 1062.14 239.483 1061.62 239.483Z" fill="#C91E1D" stroke="#C91E1D" stroke-width="0.516938"/>
<path d="M1062.82 271.353C1062.3 271.353 1061.93 271.551 1061.68 271.836C1061.43 272.127 1061.3 272.523 1061.3 272.929C1061.3 273.335 1061.43 273.732 1061.68 274.022C1061.93 274.308 1062.3 274.506 1062.82 274.506C1063.34 274.506 1063.71 274.307 1063.95 274.021C1064.2 273.731 1064.33 273.335 1064.33 272.929C1064.33 272.523 1064.2 272.127 1063.95 271.836C1063.71 271.551 1063.34 271.353 1062.82 271.353Z" fill="#C91E1D" stroke="#C91E1D" stroke-width="0.516938"/>
<path d="M1086.69 294.548C1086.17 294.548 1085.8 294.746 1085.56 295.031C1085.31 295.322 1085.18 295.718 1085.18 296.124C1085.18 296.53 1085.31 296.927 1085.56 297.218C1085.81 297.503 1086.18 297.701 1086.69 297.701C1087.21 297.701 1087.58 297.502 1087.83 297.217C1088.08 296.926 1088.21 296.53 1088.21 296.124C1088.21 295.718 1088.08 295.322 1087.83 295.031C1087.58 294.746 1087.21 294.548 1086.69 294.548Z" fill="#C91E1D" stroke="#C91E1D" stroke-width="0.516938"/>
<path d="M1118.24 294.933C1117.72 294.933 1117.35 295.131 1117.1 295.417C1116.85 295.707 1116.72 296.104 1116.72 296.51C1116.72 296.916 1116.85 297.312 1117.1 297.603C1117.35 297.889 1117.72 298.087 1118.24 298.087C1118.76 298.087 1119.13 297.888 1119.37 297.602C1119.62 297.312 1119.75 296.915 1119.75 296.51C1119.75 296.104 1119.62 295.707 1119.37 295.417C1119.13 295.131 1118.76 294.933 1118.24 294.933Z" fill="#C91E1D" stroke="#C91E1D" stroke-width="0.516938"/>
<path d="M1145.14 270.924C1144.63 270.924 1144.25 271.122 1144.01 271.408C1143.76 271.698 1143.63 272.095 1143.63 272.5C1143.63 272.907 1143.76 273.303 1144.01 273.594C1144.26 273.88 1144.63 274.078 1145.14 274.078C1145.66 274.078 1146.04 273.879 1146.28 273.593C1146.53 273.303 1146.66 272.906 1146.66 272.5C1146.66 272.095 1146.53 271.698 1146.28 271.408C1146.04 271.122 1145.66 270.924 1145.14 270.924Z" fill="#C91E1D" stroke="#C91E1D" stroke-width="0.516938"/>
<path d="M1145.53 239.177C1145.01 239.177 1144.64 239.376 1144.4 239.661C1144.15 239.952 1144.02 240.348 1144.02 240.754C1144.02 241.16 1144.15 241.557 1144.4 241.847C1144.64 242.133 1145.01 242.331 1145.53 242.331C1146.05 242.331 1146.42 242.132 1146.67 241.846C1146.92 241.556 1147.05 241.159 1147.05 240.754C1147.05 240.348 1146.92 239.952 1146.67 239.661C1146.42 239.376 1146.05 239.178 1145.53 239.177Z" fill="#C91E1D" stroke="#C91E1D" stroke-width="0.516938"/>
<path d="M1117.99 211.486C1117.47 211.486 1117.1 211.684 1116.86 211.969C1116.61 212.26 1116.48 212.656 1116.48 213.062C1116.48 213.468 1116.61 213.865 1116.86 214.156C1117.1 214.441 1117.48 214.639 1117.99 214.639C1118.51 214.639 1118.88 214.44 1119.13 214.155C1119.38 213.864 1119.51 213.468 1119.51 213.062C1119.51 212.656 1119.38 212.26 1119.13 211.969C1118.88 211.684 1118.51 211.486 1117.99 211.486Z" fill="#C91E1D" stroke="#C91E1D" stroke-width="0.516938"/>
<path d="M1267.23 429.602C1301.14 429.602 1328.62 457.089 1328.62 490.996C1328.62 524.903 1301.14 552.39 1267.23 552.39C1233.32 552.39 1205.83 524.903 1205.83 490.996C1205.83 457.089 1233.32 429.602 1267.23 429.602Z" stroke="#2C53A1" stroke-width="1.55081" stroke-miterlimit="10"/>
<path d="M1331.44 473.513C1331.23 490.69 1326.55 507.849 1314.38 520.947C1301.28 534.671 1281.94 541.22 1264.47 535.297C1252.3 531.243 1242.63 520.321 1240.14 506.91C1239.2 501.606 1240.14 496.614 1242.01 491.622C1244.5 486.318 1249.18 479.143 1255.73 479.456C1255.42 481.326 1253.23 481.639 1251.99 482.89C1242.32 493.186 1243.26 509.406 1252.62 519.696C1269.46 537.473 1298.47 532.488 1313.13 513.147C1328.72 492.248 1326.85 465.106 1314.69 443.895C1326.85 465.732 1329.35 494.744 1311.56 515.017C1302.52 525.313 1289.73 532.488 1276.32 531.55C1266.96 530.924 1257.91 525.626 1251.67 517.826C1244.81 509.093 1242.31 494.431 1251.98 486.943C1247.93 495.988 1249.49 506.91 1255.72 514.704C1264.77 525.62 1280.06 526.871 1292.22 521.879C1301.89 517.826 1309.07 510.338 1313.75 500.98C1326.54 474.151 1312.19 442.963 1288.48 427.988C1301.27 436.407 1311.56 448.574 1316.24 463.549C1322.48 484.135 1317.18 507.529 1298.77 519.696C1284.11 529.366 1263.84 527.809 1252.92 513.147C1249.48 508.155 1248.24 500.355 1251.98 495.056C1252.6 506.597 1261.96 516.581 1273.5 518.451C1292.53 521.573 1308.12 505.972 1311.56 487.882C1317.79 453.878 1286.61 426.117 1255.1 425.805C1273.19 427.049 1290.97 434.537 1302.51 449.825C1315.61 467.296 1317.18 491.003 1303.14 507.842C1295.65 516.887 1282.87 520.009 1271.01 517.2C1263.84 515.33 1256.66 510.025 1256.04 502.225C1263.21 513.453 1279.12 516.887 1290.66 509.4C1308.13 497.859 1310.63 474.464 1300.02 457.306C1283.48 430.164 1247.92 427.362 1222.66 441.712C1243.24 430.796 1269.76 429.232 1289.41 445.146C1304.39 457.312 1310.63 477.585 1302.83 495.056C1298.77 504.414 1290.35 511.589 1280.06 512.527C1274.13 512.84 1267.58 511.902 1263.21 507.223C1262.59 506.597 1263.84 506.597 1263.84 506.285C1273.19 510.964 1284.74 508.78 1292.22 500.98C1301.27 491.935 1302.21 478.517 1298.15 466.977C1291.6 448.886 1272.26 438.277 1253.54 439.216C1232.33 440.154 1213.93 454.504 1203.63 472.594C1212.05 457.931 1225.15 446.078 1242 441.086C1262.9 434.85 1286.61 442.956 1296.9 461.672C1302.83 472.9 1302.21 486.937 1294.09 497.859C1289.41 504.408 1280.68 510.957 1272.26 506.591C1286.61 505.965 1295.96 491.303 1294.72 477.266C1293.78 468.221 1289.1 460.421 1281.93 454.497C1266.95 442.018 1246.68 442.644 1230.46 452.94C1211.12 465.106 1203.01 486.943 1203.01 508.155C1203.32 493.805 1206.13 480.081 1214.86 467.602C1227.66 449.199 1249.8 439.841 1270.08 446.703C1282.25 450.757 1291.92 461.678 1294.41 475.09C1295.35 480.394 1294.41 485.386 1292.54 490.378C1290.05 495.682 1285.37 502.857 1278.82 502.544C1279.13 500.674 1281.31 500.361 1282.56 499.11C1292.23 488.814 1291.29 472.594 1281.93 462.304C1265.09 444.527 1236.08 449.512 1221.42 468.853C1205.83 489.752 1207.7 516.894 1219.86 538.105C1207.7 516.268 1205.2 487.256 1222.98 466.983C1232.03 456.687 1244.82 449.512 1258.23 450.45C1267.59 451.076 1276.64 456.374 1282.88 464.174C1289.74 472.907 1292.24 487.569 1282.57 495.056C1286.62 486.011 1285.06 475.09 1278.82 467.296C1269.78 456.38 1254.49 455.129 1242.33 460.121C1232.65 464.174 1225.48 471.662 1220.8 481.02C1208.01 507.849 1222.36 539.037 1246.07 554.012C1233.27 545.593 1222.98 533.426 1218.31 518.451C1212.07 497.865 1217.37 474.47 1235.78 462.304C1250.44 452.633 1270.71 454.191 1281.63 468.853C1285.07 473.845 1286.31 481.645 1282.57 486.943C1281.95 475.402 1272.59 465.419 1261.05 463.549C1242.02 460.427 1226.42 476.028 1222.99 494.118C1216.75 528.122 1247.94 555.883 1279.45 556.195C1261.36 554.951 1243.58 547.463 1232.04 532.175C1218.94 514.704 1217.37 490.997 1231.41 474.158C1238.9 465.113 1251.68 461.991 1263.54 464.8C1270.71 466.67 1277.89 471.975 1278.51 479.775C1271.34 468.547 1255.43 465.113 1243.89 472.6C1226.42 484.141 1223.92 507.536 1234.53 524.694C1251.06 551.836 1286.63 554.638 1311.89 540.288C1291.3 551.204 1264.79 552.768 1245.13 536.854C1230.16 524.688 1223.92 504.414 1231.72 486.943C1235.78 477.586 1244.2 470.411 1254.49 469.472C1260.42 469.16 1266.97 470.098 1271.34 474.777C1271.96 475.402 1270.71 475.402 1270.71 475.715C1261.35 471.036 1249.81 473.219 1242.33 481.02C1233.28 490.065 1232.34 503.482 1236.4 515.023C1242.95 533.113 1262.29 543.722 1281.01 542.784C1302.22 541.846 1320.62 527.496 1330.92 509.406C1322.5 524.068 1309.39 535.922 1292.55 540.914C1271.65 547.15 1247.94 539.044 1237.65 520.328C1231.72 509.1 1232.34 495.063 1240.46 484.141C1245.13 477.592 1253.87 471.043 1262.29 475.409C1247 476.034 1237.65 491.629 1240.14 506.604C1244.2 530.311 1269.77 541.852 1290.68 535.928C1308.77 530.937 1322.19 515.655 1327.7 498.12C1330.05 490.882 1331.3 482.52 1331.45 473.519L1331.44 473.513Z" stroke="#2C53A1" stroke-width="1.03388" stroke-miterlimit="10"/>
<path d="M1265.86 510.465L1261.36 508.052L1256.31 502.614L1256.94 506.067L1258.01 509.642L1254.83 505.02L1252.59 499.154L1252 495.056L1249.78 498.739L1250.3 492.177L1252 486.943L1249.02 489.943L1246.91 493.684L1247.22 490.198L1251.08 483.917L1253.59 481.779L1255.74 479.455L1252.6 479.896L1248.32 481.645L1253.1 477.834L1258.64 475.855L1261.94 475.421L1259.25 474.285H1254.56L1257.65 473.417L1265.86 473.94L1270.71 475.715L1271.34 474.776L1266.36 471.266L1269.18 471.393L1274.85 475.37L1278.51 479.768L1277.66 476.015L1274.18 470.736L1279.43 476.43L1282 482.96L1282.57 486.943L1284.17 483.687L1284.74 482.43L1284.08 490.6L1282.57 495.056L1285.76 491.756L1287.81 487.9L1286.69 493.198L1282.57 499.109L1279.39 501.356L1278.82 502.543L1284.31 500.986L1280.59 504.484L1273.81 506.469L1273.85 507.286L1277.52 508.505L1270.34 508.397L1264.22 506.463L1263.22 507.222L1265.86 510.465Z" fill="#2C53A1"/>
<path d="M1305 701C1305 650.59 1298.62 601.669 1286.63 555M135 701C135 648.787 141.84 598.171 154.674 550M1238.84 430.5C1214.21 383.361 1183.35 339.997 1147.35 301.5M1052 219.27C984.698 172.798 907.18 140.067 823.5 125.127M628.5 123.114C542.721 136.588 463.129 168.702 394 215.182M293.119 301C258.066 338.394 227.869 380.396 203.536 426" stroke="#333333" stroke-width="2"/>
</g>
<defs>
<radialGradient id="paint0_radial_956_47" cx="0" cy="0" r="1" gradientUnits="userSpaceOnUse" gradientTransform="translate(720 350.5) rotate(90) scale(350.5 720)">
<stop stop-color="white"/>
<stop offset="1" stop-color="#FFF1BF"/>
</radialGradient>
<clipPath id="clip0_956_47">
<rect width="1440" height="701" fill="white"/>
</clipPath>
</defs>
</svg>
