<svg width="142" height="142" viewBox="0 0 142 142" fill="none" xmlns="http://www.w3.org/2000/svg">
<path d="M71.0915 129.368C38.599 129.368 12.2587 103.027 12.2587 70.535C12.2587 38.0425 38.599 11.7021 71.0915 11.7021C103.584 11.7021 129.924 38.0425 129.924 70.535C129.924 103.027 103.584 129.368 71.0915 129.368Z" stroke="#ED5F2E" stroke-width="1.55081" stroke-miterlimit="10"/>
<path d="M9.67078 106.753C39.0199 85.4052 57.389 73.3487 28.7984 81.7901C56.5694 70.0272 36.9401 71.2384 -0.000143523 70.9998C36.9462 67.2073 57.7561 66.1735 29.7038 58.9494C58.692 63.164 42.3598 54.6553 9.67079 35.2462C44.0909 51.6886 61.2 60.8824 41.3933 40.8065C63.2614 58.9494 53.9269 43.8712 35.0867 9.83033C56.6734 42.2624 66.0385 57.9401 59.9827 30.7748C68.7299 57.2428 68.8155 39.3324 70.8463 0.153314C72.137 39.3324 71.7088 57.0837 81.6489 30.7319C74.437 57.7811 84.6034 41.6935 106.6 9.82421C87.4111 43.339 77.471 58.5946 100.306 40.727C79.6242 60.6071 97.8894 51.1136 132.016 35.2401C99.6939 54.1965 82.4441 62.9438 112.068 58.9066C83.435 66.1124 105.456 67.1951 141.693 70.9937C105.462 71.4096 84.7073 70.1924 112.98 81.8329C83.8448 73.6913 103.107 85.9863 132.022 106.753C100.991 89.6015 82.4196 77.6918 102.116 101.548C79.8566 80.3037 91.1485 100.38 106.606 132.169C87.4478 102.545 76.2476 82.6587 82.5848 113.066C72.5713 83.668 72.871 106.448 70.8524 141.846C68.2772 106.454 68.0326 83.4417 59.0651 113.029C64.4052 82.4385 53.988 101.921 35.0928 132.175C50.3607 99.7923 61.0653 79.8143 39.601 101.468C58.5941 77.288 41.0691 88.898 9.6769 106.759L9.67078 106.753ZM71.091 88.5432C81.0372 88.5432 89.0994 80.4811 89.0994 70.5349C89.0994 67.5499 88.3592 64.7422 87.0746 62.2648C87.148 62.6441 87.1909 63.0294 87.1909 63.427C87.1909 66.7608 84.4872 69.4645 81.1534 69.4645C77.8197 69.4645 75.116 66.7608 75.116 63.427C75.116 60.0933 77.8197 57.3896 81.1534 57.3896C82.2912 57.3896 83.3371 57.7199 84.2425 58.2643C80.9577 54.741 76.2843 52.5266 71.0849 52.5266C61.1387 52.5266 53.0766 60.5888 53.0766 70.5349C53.0766 80.4811 61.1387 88.5432 71.0849 88.5432L71.091 88.5432Z" fill="#ED5F2E"/>
</svg>
