<?xml version="1.0" encoding="UTF-8"?>
<svg id="Camada_2" data-name="Camada 2" xmlns="http://www.w3.org/2000/svg" viewBox="0 0 213.6 225.74">
  <g id="Camada_1-2" data-name="Camada 1">
    <g>
      <path d="M42.11,220.32c.01-1.3-1.06-1.82-1.06-1.82-5.05-1.28-10.07-4.74-11.82-5.98-4.97-3.41-7.03-8.01-8.09-14.39-1.07-6.39-.81-14.12.27-20.76.6-3.27,1.69-6.44,3.78-8.91,2.07-2.48,7.43-5.14,13.48-6.32.66-.13.97-.78.76-1.13-.15-.24-.43-.59-.71-.59-5.53.01-11.87,2.75-14.68,5.42-2.8,2.65-5.08,7.16-6.14,10.68-1.97,7.03-2.41,14.29-1.04,21.79,1.34,7.42,4.51,14.95,10.84,20.04,3.17,2.53,6.75,4.28,10.23,5.65.2.07.4.15.6.22,3.19,1.17,3.4-2.65,3.57-3.89"/>
      <path d="M34.12,170.61c-.04-.65-.24-1.83-.9-2.15-.45-.21-.81-.32-1.06-.32-.73,0-.97.81-1.18,1.46-.28,1.06-.37,1.99-.45,2.93l-.12,1.14c-.04.37-.04.94-.04,1.59v4.07c-.04,1.26.21,4.8.37,7.44l.17,18.74c.08,1.26.32,2.64.86,3.54.41.41,1.59.61,1.83.04.65-1.42.65-18.94.65-20.36v-.97c.04-1.51.04-3.09.04-4.68,0-1.1,0-2.24-.04-3.37-.04-1.71-.04-3.17-.04-4.51,0-1.55,0-2.97-.08-4.51v-.04h0ZM36.23,169.47l.08.32c.21,1.14.25,4.51.29,7v.69c0,.37.04.78.04,1.14.04.94.08,2.28.04,3.3v3.95c0,3.29-.21,23.41-1.59,25.4-.37.61-1.01.9-1.75.9-.44,0-.93-.08-1.34-.21-1.22-.32-1.79-.81-2.57-1.79-1.06-1.42-1.18-3.13-1.3-4.88,0-.24-.04-16.78-.04-17.02-.24-3.09-.32-6.31-.32-9.36,0-1.3,0-2.64.04-3.94.08-2.85.44-4.72,1.34-7,.69-1.59,2.07-1.7,3.34-1.79,3.09,0,3.42,1.58,3.74,3.29"/>
      <path d="M38.76,169.72c0-1.1,0-2.04-.37-3.09.12-.53,1.91-1.02,2.4-.69.32.32.45,1.87.49,2.73v40.55c0,.37,0,.73-.04,1.14.69.04,1.01-.04,1.46-.08l6.7-.12c.08,0,.24-.04.37-.04.65-.04,1.67-.12,2.07,0,.98.28.57,2.4.21,2.4h-1.3c-.81,0-6.66-.04-7.47,0h-1.42c-1.67,0-3.05-.17-3.13-.61-.04-1.1-.08-2.52-.08-3.58,0-.86.04-1.67.04-2.52,0-1.06.04-14.97.04-16.03,0-1.55.04-3.01.04-4.43.04-1.51.04-3.01.04-4.72v-2.48c0-1.01-.04-6.45-.04-7.88v-.53h0Z"/>
      <path d="M43.84,169.72c0-1.1,0-2.04-.37-3.09.12-.53,1.91-1.02,2.4-.69.32.32.45,1.87.49,2.73v36.25c0,.37,0,.73-.04,1.14.69.04,1.01-.04,1.46-.08l1.63-.12c.08,0,.24-.04.37-.04.65-.04,1.67-.12,2.07,0,.98.28.57,2.4.21,2.4h-1.3c-.81,0-1.59-.04-2.4,0h-1.42c-1.67,0-3.05-.17-3.13-.61-.04-1.1-.08-2.52-.08-3.59,0-.85.04-1.67.04-2.52,0-1.06.04-14.97.04-16.03,0-1.55.04-3.01.04-4.43.04-1.51.04-3.01.04-4.72v-2.48c0-1.01-.04-2.15-.04-3.58v-.53h0Z"/>
      <path d="M52.35,178.3c1.02-.04,2.4-.21,3.17-.28.12-.04.37-.04.49-.04.37-.08.57-.28.57-.53,0-1.02-.04-1.87-.04-2.73-.04-2.52-.04-4.47-.32-6.91-.04-.41-.53-.57-1.1-.57-.61,0-1.3.2-1.59.45-.57.57-.69,2.32-.86,4.8-.04.94-.12,1.91-.21,3.01l-.12,2.81h0ZM52.15,185.34v18.54c0,.32-.37.45-.86.45-.53,0-1.26-.21-1.38-.28-.24-.21-.32-.45-.32-.77.04-.81.04-1.1,0-1.22v-17.04l.04-4.35c0-1.14.04-2.15.08-3.34,0-.2.04-.61.04-.81,0-.37.04-.86.04-1.39.04-3.37.08-9.36,3.42-10.41.24-.08,2.6-.17,2.89-.17,2.97.12,3.25,5.33,3.25,9.31v2.44l-.04,9.03.08,27.12v.94c0,.37.04.85.04,1.3,0,.65-.81.9-1.7.9-.73,0-1.02-.08-1.06-.86-.08-1.22-.08-23.41-.12-33.06,0-.85-.17-1.3-.61-1.26-.37,0-.65.04-.86.08-.41.08-.97.2-2.4.2-.28,0-.37.65-.41,1.1l-.12,3.54h0Z"/>
      <path d="M65.3,192.8c-.25-.19-.28-.57-.05-.79,13.49-13.29,1.85-44.05-17.91-33.78-1.08.56-.87,2.1.18,1.75,7.79-2.6,11.89-2.47,17.03,5.01,4.35,6.33,6.61,21.05-2.68,26.66-.73.44-.8,1.46-.16,2.02,14.37,12.49,1.33,29.38-11.54,27.21-1.95-.33-2.15,2.18-2.2,3.43-.05,1.34,2.41,2.1,9.62.58,11.85-2.51,19.61-23.02,7.72-32.1"/>
      <path d="M161.87,29.35c-.34,6.54-.34,18.11-.34,25.15v4.19c0,1.85-.17,37.93-.17,40.95-.17,5.36-.34,11.57-.17,15.76.17,7.04,1.17,31.52,1.68,40.58.34,5.2,1.34,13.24,4.36,15.26v-.17c2.18,1.01,6.54,1.68,7.54-.84,2.85-6.37,2.85-11.74,3.02-17.94v-2.68c.17-6.37.17-12.74.17-19.28,0-4.52,0-9.39-.17-14.09-.34-10.9-.67-60.06-.67-73.14,0-5.2,0-9.56.17-13.41.5-2.01,10.06-2.85,10.23-.67v78.33c0,1.51.17,3.19.17,4.7.17,3.86.34,9.39.17,13.58v17.94c0,13.58-1.01,28.5-7.21,35.88-1.85,2.01-5.2,2.85-8.55,2.85-1.85,0-4.02-.17-5.53-.5-11.9-2.51-13.75-15.93-14.59-29.84-1-14.25-1.17-29.34-1.17-43.77v-44.8c0-4.87,0-9.39-.17-13.75-.17-2.85-.17-6.88-.17-10.06,0-3.52,0-6.87.34-10.73.17-2.35,10.73-1.68,11.07.5"/>
      <path d="M90.63,86.17c4.22-.17,9.96-.84,13.17-1.17.51-.17,1.52-.17,2.02-.17,1.52-.34,2.37-1.17,2.37-2.18,0-4.19-.17-7.7-.17-11.23-.17-10.39-.17-18.43-1.35-28.48-.17-1.68-2.19-2.35-4.56-2.35-2.53,0-5.4.84-6.58,1.84-2.37,2.35-2.87,9.55-3.55,19.77-.17,3.85-.51,7.88-.84,12.4l-.51,11.56h0ZM89.78,115.16v69.48c0,1.34-1.52,1.84-3.55,1.84-2.19,0-5.23-.84-5.74-1.17-1.01-.84-1.35-1.84-1.35-3.18.17-3.35.17-4.52,0-5.03v-63.29l.17-17.93c0-4.69.17-8.88.34-13.74,0-.84.17-2.51.17-3.35,0-1.51.17-3.52.17-5.7.17-13.9.34-38.54,14.19-42.89,1.01-.34,10.81-.67,11.99-.67,12.33.5,13.51,21.95,13.51,38.37v10.05l-.17,37.19.34,5.08v3.85c0,1.51.17,3.52.17,5.36,0,2.68-3.38,3.69-7.09,3.69-3.04,0-4.22-.34-4.39-3.52-.34-5.03-.34,10.16-.51-29.54,0-3.52-.68-5.36-2.54-5.19-1.52,0-2.7.17-3.55.34-1.69.34-4.05.84-9.96.84-1.18,0-1.52,2.68-1.69,4.52l-.51,14.58h0Z"/>
      <path d="M131.11,33.26c-1.02-2.7-1.19-3.04,3.05-5.58,9.33-5.92,9.16,10.65,8.99,16.56v1.19c0,4.9-.34,45.74-.51,53.18-.17,7.61-.34,15.04-.34,19.95s.17,9.63.34,14.37c.17,4.9.34,9.8.34,14.37s-.17,9.8-.68,14.2c-1.36,10.48-9.16,23.84-21.2,21.81-12.21-2.87-12.55-20.62-12.55-30.26,0-1.18-.17-2.37-.17-3.55-.17-2.19-.17-5.58.17-7.44.34-3.55.34-3.72,4.24-4.06,3.73-.34,5.08.17,5.93,3.38.51,2.19.34,5.41.17,8.11-.17,1.35-.17,2.7-.17,3.89v8.96c.34,2.87,2.54,11.66,5.77,11.83,7.46.34,7.13-16.74,7.13-21.81v-39.9c0-6.42.17-45.06.51-49.96.34-5.92.68-12.51.51-19.95,0-5.07-.85-7.77-1.53-9.3"/>
      <path d="M206.19.17c2.35-1.17,7.88,4.7,7.38,6.87-.67,2.18-5.2,5.53-8.55,8.05l-2.35,2.01h.17c-3.19,2.85-5.53,3.52-8.72-.84v-.17c-1.68-2.01-2.01-1.68-.5-3.52v-.17c.5-.84,2.68-3.19,3.86-4.36,1.17-1.01,2.85-2.18,3.86-3.52l4.36-4.53.5.17h0Z"/>
      <path d="M198.9,28c-4.19,2.51-4.02,2.85-3.02,5.53.67,1.51,1.51,4.19,1.51,9.22.17,7.38-.17,13.92-.5,19.79-.34,4.86-.5,43.46-.5,49.83l.81,39.57v28.56c.17,2.18,9.73,1.34,10.23-.67.17-3.86.17-8.22.17-13.41,0-10.67-.22-23.22-.49-33.41l.18-.35c-.17-4.7-.34-9.56-.34-14.25s.17-12.24.34-19.79c.17-7.38.5-48.15.5-53.01v-1.17c.17-5.87.34-22.3-8.89-16.43"/>
      <path d="M75.5,139.12c0-3.65-2.4-6.71-5.59-7.18-3.1-.45-6.35-.9-9.7-1.22-22.97-2.23-57.5,34-42.13-38.99,8.52-40.44,32.55-50.67,49.48-45.7,4.01,1.17,7.93-2.12,7.93-6.81v-.05c0-2.98-1.65-5.66-4.13-6.67-8.34-3.39-18.26-3.93-25.82-.37C-8.52,57.57-.54,133.17,1.82,138.8c8.68,20.66,34.04,10.44,34.04,10.44,13.48-2.9,24.52-3.73,32.63-2.93,3.76.37,7-2.93,7-7.2"/>
    </g>
  </g>
</svg>