<svg width="400" height="129" viewBox="0 0 400 129" fill="none" xmlns="http://www.w3.org/2000/svg">
<path d="M34.7427 41.9951C37.0722 45.4893 36.1279 50.2103 32.6337 52.5398C29.1395 54.8693 24.4185 53.9251 22.089 50.4308C19.7595 46.9366 20.7037 42.2156 24.1979 39.8861C27.6922 37.5566 32.4132 38.5008 34.7427 41.9951Z" fill="#5E4496"/>
<path d="M48.0982 60.3717C46.502 62.5103 44.5674 64.3855 42.3668 65.9171" stroke="#5E4496" stroke-width="0.350433" stroke-miterlimit="10"/>
<path d="M52.8531 48.4932C52.5277 51.2233 51.7554 53.8268 50.6061 56.2263" stroke="#5E4496" stroke-width="0.350433" stroke-miterlimit="10"/>
<path d="M51.0916 35.881C52.0834 38.2366 52.7213 40.7833 52.9435 43.4591" stroke="#5E4496" stroke-width="0.350433" stroke-miterlimit="10"/>
<path d="M43.108 25.6556C45.2079 27.2337 47.052 29.1399 48.563 31.3017" stroke="#5E4496" stroke-width="0.350433" stroke-miterlimit="10"/>
<path d="M31.0951 20.8437C33.7683 21.1562 36.3228 21.8949 38.6809 22.9952" stroke="#5E4496" stroke-width="0.350433" stroke-miterlimit="10"/>
<path d="M17.6232 23.0287C20.1079 21.8613 22.825 21.089 25.6971 20.8023" stroke="#5E4496" stroke-width="0.350433" stroke-miterlimit="10"/>
<path d="M7.80054 31.3249C9.31925 29.145 11.1815 27.2181 13.3123 25.6219" stroke="#5E4496" stroke-width="0.350433" stroke-miterlimit="10"/>
<path d="M3.41211 43.6709C3.60841 40.9848 4.2386 38.4071 5.23042 36.0102" stroke="#5E4496" stroke-width="0.350433" stroke-miterlimit="10"/>
<path d="M5.76257 56.221C4.65453 53.9016 3.89257 51.3782 3.55164 48.7101" stroke="#5E4496" stroke-width="0.350433" stroke-miterlimit="10"/>
<path d="M14.0715 65.961C11.9044 64.4629 9.9828 62.6265 8.3866 60.524" stroke="#5E4496" stroke-width="0.350433" stroke-miterlimit="10"/>
<path d="M25.9396 70.2589C23.2251 70.0161 20.6241 69.3316 18.2195 68.2752" stroke="#5E4496" stroke-width="0.350433" stroke-miterlimit="10"/>
<path d="M38.322 68.2055C35.969 69.2567 33.4146 69.9566 30.7233 70.2304" stroke="#5E4496" stroke-width="0.350433" stroke-miterlimit="10"/>
<path d="M7.19126 36.5862C5.55632 37.0434 3.86196 36.0774 3.40479 34.4269C2.95021 32.7765 3.90587 31.0666 5.54082 30.6095C7.17576 30.1523 8.87009 31.1183 9.32726 32.7687C9.78184 34.4192 8.82621 36.129 7.19126 36.5862ZM8.12109 32.5053C7.52445 31.5238 6.25627 31.2164 5.2877 31.8182C4.31913 32.4226 4.0195 33.7063 4.61614 34.6904C5.21278 35.6719 6.48098 35.9792 7.44955 35.3774C8.41812 34.773 8.71772 33.4894 8.12109 32.5053Z" fill="#5E4496"/>
<path d="M5.28734 48.3381C4.09923 49.5521 2.14918 49.5598 0.930072 48.3562C-0.289035 47.1526 -0.312302 45.1948 0.87581 43.9809C2.06392 42.7669 4.01398 42.7592 5.23308 43.9628C6.45219 45.1664 6.47545 47.1242 5.28734 48.3381ZM4.05532 44.3399C3.048 43.7871 1.7953 44.1539 1.25807 45.1586C0.720834 46.1634 1.10052 47.429 2.10784 47.9817C3.11515 48.5344 4.36782 48.1677 4.90505 47.1629C5.44229 46.1582 5.06263 44.8926 4.05532 44.3399Z" fill="#5E4496"/>
<path d="M9.50249 59.4729C9.0789 61.1156 7.3923 62.097 5.73411 61.6631C4.0785 61.2292 3.07894 59.5452 3.50252 57.8999C3.92611 56.2572 5.61271 55.2757 7.2709 55.7096C8.92651 56.1436 9.92607 57.8276 9.50249 59.4729ZM6.43923 56.6214C5.28986 56.6446 4.38843 57.5874 4.42459 58.7264C4.46075 59.8654 5.42159 60.772 6.57095 60.7488C7.72032 60.7255 8.62172 59.7828 8.58556 58.6438C8.5494 57.5047 7.5886 56.5981 6.43923 56.6214Z" fill="#5E4496"/>
<path d="M16.5381 70.796C14.8851 71.2454 13.1804 70.2846 12.7258 68.6471C12.2738 67.0096 13.245 65.3204 14.898 64.8684C16.551 64.4164 18.2557 65.3798 18.7103 67.0173C19.1623 68.6548 18.1911 70.344 16.5381 70.796ZM17.5015 66.759C16.9023 65.7879 15.616 65.4831 14.632 66.0772C13.6479 66.6712 13.3354 67.9368 13.9372 68.908C14.539 69.8791 15.8227 70.1839 16.8067 69.5898C17.7908 68.9958 18.1033 67.7302 17.5015 66.759Z" fill="#5E4496"/>
<path d="M30.4596 73.3196C29.2534 74.5335 27.293 74.5516 26.0843 73.3609C24.8755 72.1676 24.8729 70.2176 26.0817 69.0036C27.2879 67.7897 29.2483 67.7716 30.457 68.9623C31.6658 70.1556 31.6684 72.1056 30.4596 73.3196ZM29.2792 69.3394C28.2745 68.797 27.0089 69.1741 26.4536 70.1814C25.8957 71.1862 26.2599 72.4414 27.2646 72.9812C28.2694 73.5211 29.5349 73.1465 30.0903 72.1392C30.6482 71.1345 30.284 69.8792 29.2792 69.3394Z" fill="#5E4496"/>
<path d="M43.7821 68.5567C43.343 70.2123 41.6539 71.2041 40.0112 70.7754C38.3685 70.3466 37.3948 68.6549 37.8338 67.0018C38.2729 65.3488 39.9621 64.3544 41.6048 64.7832C43.2475 65.2119 44.2212 66.9037 43.7821 68.5567ZM40.7731 65.6975C39.6341 65.7285 38.7249 66.6867 38.743 67.8361C38.7611 68.9855 39.7012 69.8921 40.8428 69.8585C41.9819 69.8275 42.891 68.8692 42.873 67.7199C42.8549 66.5705 41.9147 65.6639 40.7731 65.6975Z" fill="#5E4496"/>
<path d="M50.7894 61.5882C49.1519 62.035 47.4627 61.0587 47.0184 59.4031C46.5742 57.7501 47.5402 56.0454 49.1777 55.5986C50.8152 55.1517 52.5044 56.128 52.9487 57.7836C53.3929 59.4367 52.4269 61.1413 50.7894 61.5882ZM51.7451 57.5124C51.1562 56.5258 49.888 56.2107 48.9168 56.8073C47.9457 57.404 47.6358 58.6876 48.2246 59.6743C48.8135 60.6609 50.0817 60.976 51.0529 60.3794C52.024 59.7828 52.334 58.4991 51.7451 57.5124Z" fill="#5E4496"/>
<path d="M55.5443 48.2451C54.3484 49.4513 52.3984 49.4462 51.187 48.2348C49.9757 47.0234 49.9653 45.0656 51.1612 43.8595C52.3571 42.6533 54.3071 42.6584 55.5185 43.8698C56.7298 45.0811 56.7402 47.0389 55.5443 48.2451ZM54.3381 44.2391C53.3334 43.6787 52.0781 44.0377 51.5357 45.0398C50.9907 46.042 51.3627 47.3101 52.3674 47.8706C53.3721 48.4311 54.6274 48.0721 55.1698 47.0699C55.7148 46.0678 55.3428 44.7996 54.3381 44.2391Z" fill="#5E4496"/>
<path d="M53.0079 34.3108C52.574 35.9509 50.8797 36.922 49.2266 36.4752C47.5736 36.0309 46.5844 34.3392 47.0209 32.6965C47.4548 31.0564 49.1491 30.0852 50.8022 30.532C52.4552 30.9763 53.4444 32.6681 53.0079 34.3108ZM49.9627 31.4412C48.8134 31.4567 47.9042 32.3943 47.9326 33.5333C47.961 34.6749 48.9167 35.5867 50.0661 35.5712C51.2154 35.5557 52.1246 34.6181 52.0962 33.4791C52.0678 32.3375 51.1121 31.4257 49.9627 31.4412Z" fill="#5E4496"/>
<path d="M41.6587 27.2647C40.0031 27.7038 38.3036 26.7301 37.862 25.0925C37.4203 23.4524 38.4044 21.7684 40.0574 21.3293C41.713 20.8902 43.4125 21.864 43.8542 23.5015C44.2958 25.1416 43.3118 26.8256 41.6587 27.2647ZM42.648 23.2355C42.0539 22.2617 40.7728 21.9466 39.7836 22.5355C38.7944 23.1218 38.4741 24.3874 39.0681 25.3611C39.6622 26.3349 40.9433 26.65 41.9325 26.0611C42.9218 25.4748 43.242 24.2092 42.648 23.2355Z" fill="#5E4496"/>
<path d="M30.5036 23.0598C29.2896 24.266 27.3292 24.2712 26.1282 23.0728C24.9272 21.8743 24.9375 19.9217 26.154 18.7155C27.368 17.5093 29.3284 17.5041 30.5294 18.7026C31.7304 19.9036 31.7201 21.8536 30.5036 23.0598ZM29.349 19.0745C28.3495 18.5269 27.0813 18.8937 26.5156 19.8958C25.9526 20.898 26.3065 22.1533 27.306 22.7008C28.3056 23.2484 29.5738 22.8816 30.1394 21.8795C30.7025 20.8773 30.3486 19.6221 29.349 19.0745Z" fill="#5E4496"/>
<path d="M17.4938 26.358C16.2799 27.5642 14.3195 27.5694 13.1185 26.3709C11.9174 25.1699 11.9278 23.2199 13.1443 22.0137C14.3582 20.8075 16.3186 20.8023 17.5196 22.0008C18.7207 23.2018 18.7103 25.1518 17.4938 26.358ZM16.3393 22.3701C15.3397 21.8225 14.0715 22.1893 13.5059 23.1915C12.9428 24.1936 13.2967 25.4489 14.2962 25.9964C15.2958 26.544 16.564 26.1772 17.1296 25.1751C17.6927 24.1729 17.3388 22.9177 16.3393 22.3701Z" fill="#5E4496"/>
<path d="M16.0138 56.0764C14.9057 54.7566 14.0121 53.2663 13.3767 51.6597" stroke="#5E4496" stroke-width="0.350433" stroke-miterlimit="10"/>
<path d="M22.6804 60.7773C21.0713 60.1806 19.6042 59.3412 18.3102 58.3106" stroke="#5E4496" stroke-width="0.350433" stroke-miterlimit="10"/>
<path d="M30.7333 61.5959C29.0855 61.8516 27.3731 61.8542 25.6477 61.5649" stroke="#5E4496" stroke-width="0.350433" stroke-miterlimit="10"/>
<path d="M38.2884 58.2641C36.9221 59.3566 35.3827 60.2245 33.7323 60.8237" stroke="#5E4496" stroke-width="0.350433" stroke-miterlimit="10"/>
<path d="M43.1001 51.8302C42.4492 53.4238 41.5581 54.8728 40.4785 56.141" stroke="#5E4496" stroke-width="0.350433" stroke-miterlimit="10"/>
<path d="M44.1514 43.6193C44.3761 45.2749 44.34 46.9925 44.0145 48.7204" stroke="#5E4496" stroke-width="0.350433" stroke-miterlimit="10"/>
<path d="M40.9357 35.9509C41.9714 37.2888 42.7927 38.7868 43.3636 40.3856" stroke="#5E4496" stroke-width="0.350433" stroke-miterlimit="10"/>
<path d="M34.1793 30.8678C35.8194 31.5161 37.3097 32.4201 38.6115 33.5204" stroke="#5E4496" stroke-width="0.350433" stroke-miterlimit="10"/>
<path d="M25.475 29.9844C27.2494 29.6693 29.1065 29.6513 30.9765 29.9715" stroke="#5E4496" stroke-width="0.350433" stroke-miterlimit="10"/>
<path d="M17.9227 33.5358C19.2297 32.4304 20.7071 31.5393 22.2981 30.8988" stroke="#5E4496" stroke-width="0.350433" stroke-miterlimit="10"/>
<path d="M13.1805 40.383C13.7539 38.7688 14.5701 37.2914 15.58 35.9844" stroke="#5E4496" stroke-width="0.350433" stroke-miterlimit="10"/>
<path d="M12.4881 48.5241C12.2066 46.9227 12.1679 45.2568 12.4029 43.5727" stroke="#5E4496" stroke-width="0.350433" stroke-miterlimit="10"/>
<path d="M16.7084 36.6637C15.6133 36.674 14.7222 35.7855 14.7171 34.6826C14.7119 33.5772 15.5952 32.6758 16.6903 32.6654C17.7855 32.6551 18.6766 33.5436 18.6817 34.6465C18.6869 35.7519 17.8036 36.6534 16.7084 36.6637ZM17.974 34.2797C17.7674 33.5668 17.0313 33.1613 16.3262 33.3757C15.6211 33.5901 15.2181 34.3365 15.4222 35.0494C15.6288 35.7623 16.3649 36.1678 17.07 35.9534C17.7752 35.739 18.1781 34.9926 17.974 34.2797Z" fill="#5E4496"/>
<path d="M13.5422 43.658C12.5995 44.2133 11.383 43.8879 10.8276 42.9348C10.2723 41.9818 10.5874 40.7575 11.5302 40.2022C12.4755 39.6469 13.6894 39.9723 14.2447 40.9254C14.8001 41.8784 14.485 43.1027 13.5422 43.658ZM13.4492 40.959C12.9146 40.445 12.0752 40.4605 11.5689 40.9977C11.0653 41.5324 11.0885 42.3847 11.6231 42.8987C12.1578 43.4127 12.9972 43.3972 13.5035 42.8599C14.0071 42.3253 13.9839 41.4729 13.4492 40.959Z" fill="#5E4496"/>
<path d="M14.2888 51.2981C13.7464 52.2486 12.5324 52.5767 11.5742 52.0265C10.616 51.4764 10.2776 50.2598 10.82 49.3093C11.3624 48.3589 12.5763 48.0308 13.5346 48.581C14.4928 49.1311 14.8312 50.3476 14.2888 51.2981ZM12.863 49.0071C12.145 48.8289 11.4218 49.2629 11.2539 49.9783C11.0835 50.6938 11.5303 51.4195 12.2483 51.6003C12.9663 51.7786 13.6895 51.3446 13.8574 50.6292C14.0279 49.9137 13.5811 49.1879 12.863 49.0071Z" fill="#5E4496"/>
<path d="M16.7602 59.5322C15.6548 59.5322 14.7559 58.6489 14.7508 57.5538C14.7456 56.4586 15.6341 55.5701 16.7396 55.5675C17.845 55.565 18.7439 56.4509 18.749 57.546C18.7542 58.6411 17.8657 59.5296 16.7602 59.5322ZM18.0388 57.1818C17.8295 56.4767 17.0805 56.0712 16.3676 56.2727C15.6548 56.4767 15.2467 57.2128 15.4559 57.9179C15.6651 58.6231 16.4141 59.0286 17.127 58.8271C17.8399 58.6231 18.248 57.8869 18.0388 57.1818Z" fill="#5E4496"/>
<path d="M24.9995 63.4504C24.0439 64.0031 22.8222 63.6828 22.2694 62.7375C21.7167 61.7922 22.0447 60.5782 23.003 60.0255C23.9612 59.4728 25.1803 59.793 25.733 60.7384C26.2858 61.6837 25.9577 62.9002 24.9995 63.4504ZM24.9349 60.7745C24.4003 60.2683 23.5505 60.289 23.034 60.821C22.5174 61.3531 22.5329 62.1951 23.065 62.7013C23.5996 63.2076 24.4494 63.1869 24.9659 62.6548C25.4825 62.1228 25.467 61.2808 24.9349 60.7745Z" fill="#5E4496"/>
<path d="M34.0936 62.7324C33.5409 63.6881 32.3218 64.0213 31.3739 63.4763C30.4234 62.9313 30.1031 61.7148 30.6559 60.7591C31.2086 59.8035 32.4277 59.4703 33.3756 60.0153C34.3261 60.5602 34.6463 61.7768 34.0936 62.7324ZM32.704 60.4466C31.9886 60.2736 31.2628 60.7178 31.0794 61.4358C30.8986 62.1539 31.33 62.8771 32.0454 63.0501C32.7609 63.2232 33.4866 62.7789 33.67 62.0609C33.8508 61.3429 33.4195 60.6197 32.704 60.4466Z" fill="#5E4496"/>
<path d="M39.6313 59.5761C38.5362 59.5761 37.6503 58.685 37.6528 57.5795C37.6528 56.4741 38.5439 55.5778 39.6391 55.5752C40.7342 55.5752 41.6201 56.4663 41.6175 57.5718C41.6175 58.6772 40.7264 59.5735 39.6313 59.5761ZM40.9124 57.1999C40.7109 56.487 39.9774 56.0763 39.2697 56.2829C38.5646 56.4896 38.1539 57.2386 38.3554 57.9515C38.5568 58.6643 39.2904 59.075 39.9981 58.8684C40.7032 58.6617 41.1139 57.9127 40.9124 57.1999Z" fill="#5E4496"/>
<path d="M44.841 52.073C43.8931 52.6205 42.6792 52.2899 42.1316 51.3317C41.5815 50.3735 41.9043 49.1518 42.8523 48.6042C43.8002 48.0566 45.0141 48.3872 45.5617 49.3455C46.1092 50.3037 45.7889 51.5254 44.841 52.073ZM44.7662 49.3765C44.2367 48.8573 43.3947 48.8702 42.8858 49.4023C42.377 49.9344 42.3951 50.7867 42.9272 51.3033C43.4566 51.8224 44.2987 51.8095 44.8075 51.2775C45.3163 50.7454 45.2982 49.893 44.7662 49.3765Z" fill="#5E4496"/>
<path d="M45.6109 42.9711C45.0633 43.919 43.8468 44.2367 42.8911 43.6813C41.9381 43.126 41.6075 41.9069 42.155 40.959C42.7026 40.0111 43.9191 39.6934 44.8747 40.2487C45.8278 40.804 46.1584 42.0232 45.6109 42.9711ZM44.2006 40.6723C43.4826 40.4889 42.7594 40.9177 42.5838 41.6331C42.4081 42.3486 42.8498 43.077 43.5678 43.2603C44.2859 43.4437 45.0091 43.015 45.1847 42.2995C45.3603 41.5841 44.9187 40.8557 44.2006 40.6723Z" fill="#5E4496"/>
<path d="M39.7349 36.674C38.6294 36.6688 37.7357 35.7751 37.7383 34.6826C37.7409 33.59 38.6371 32.7041 39.74 32.7093C40.8455 32.7144 41.7392 33.6081 41.7366 34.7007C41.7366 35.7958 40.8377 36.6791 39.7349 36.674ZM41.0314 34.3313C40.8274 33.6262 40.0809 33.2129 39.3655 33.4118C38.6526 33.6107 38.2394 34.3442 38.4434 35.0493C38.6475 35.757 39.3939 36.1677 40.1094 35.9688C40.8248 35.77 41.2355 35.0364 41.0314 34.3313Z" fill="#5E4496"/>
<path d="M33.4999 32.1748C32.5391 32.7198 31.3199 32.3943 30.775 31.4439C30.23 30.4934 30.5658 29.282 31.5266 28.7344C32.4874 28.1895 33.7065 28.5149 34.2515 29.4654C34.7965 30.4159 34.4607 31.6272 33.4999 32.1748ZM33.456 29.499C32.9265 28.9901 32.0741 29.0056 31.555 29.5325C31.0358 30.062 31.0436 30.904 31.5756 31.4129C32.1051 31.9217 32.9575 31.9062 33.4766 31.3793C33.9958 30.8498 33.988 30.0078 33.456 29.499Z" fill="#5E4496"/>
<path d="M24.8473 32.0326C23.8865 32.5776 22.6674 32.2522 22.1224 31.3017C21.5774 30.3512 21.9132 29.1398 22.874 28.5923C23.8348 28.0473 25.0539 28.3727 25.5989 29.3232C26.1439 30.2737 25.8081 31.4851 24.8473 32.0326ZM24.8008 29.3568C24.2713 28.848 23.419 28.8635 22.8998 29.3904C22.3807 29.9199 22.3884 30.7619 22.9205 31.2707C23.45 31.7795 24.3023 31.764 24.8215 31.2371C25.3406 30.7076 25.3329 29.8656 24.8008 29.3568Z" fill="#5E4496"/>
<path d="M107.811 74.269C121.531 74.269 132.653 85.3911 132.653 99.1109C132.653 112.831 121.531 123.953 107.811 123.953C94.0912 123.953 82.9691 112.831 82.9691 99.1109C82.9691 85.3911 94.0912 74.269 107.811 74.269Z" stroke="#F06F37" stroke-width="1.0513" stroke-miterlimit="10"/>
<path d="M133.746 83.8178C121.353 92.832 113.597 97.9228 125.669 94.3584C113.943 99.3253 122.231 98.8139 137.829 98.9146C122.229 100.516 113.442 100.952 125.287 104.003C113.047 102.223 119.943 105.816 133.746 114.011C119.212 107.069 111.988 103.187 120.351 111.664C111.117 104.003 115.059 110.37 123.014 124.743C113.899 111.049 109.945 104.429 112.502 115.899C108.808 104.723 108.772 112.286 107.915 128.829C107.37 112.286 107.55 104.791 103.353 115.918C106.398 104.496 102.106 111.289 92.8178 124.746C100.92 110.594 105.117 104.153 95.4756 111.697C104.208 103.303 96.4958 107.311 82.0861 114.014C95.7339 106.01 103.018 102.316 90.5088 104.021C102.599 100.978 93.3008 100.521 78 98.9172C93.2982 98.7415 102.062 99.2555 90.1239 94.3404C102.426 97.7781 94.2926 92.5866 82.0835 83.8178C95.1863 91.0601 103.028 96.089 94.7111 86.0158C104.11 94.9861 99.3421 86.5092 92.8152 73.0861C100.905 85.5948 105.634 93.9917 102.958 81.1523C107.186 93.5655 107.06 83.947 107.912 69C108.999 83.9444 109.103 93.6611 112.889 81.1678C110.634 94.0847 115.033 85.8583 123.011 73.0835C116.565 86.7571 112.045 95.1927 121.108 86.0494C113.088 96.2594 120.488 91.3572 133.743 83.8152L133.746 83.8178ZM107.811 91.507C103.612 91.507 100.207 94.9112 100.207 99.1109C100.207 100.371 100.52 101.557 101.062 102.603C101.031 102.443 101.013 102.28 101.013 102.112C101.013 100.705 102.155 99.5629 103.562 99.5629C104.97 99.5629 106.112 100.705 106.112 102.112C106.112 103.52 104.97 104.661 103.562 104.661C103.082 104.661 102.64 104.522 102.258 104.292C103.645 105.78 105.618 106.715 107.814 106.715C112.014 106.715 115.418 103.311 115.418 99.1109C115.418 94.9112 112.014 91.507 107.814 91.507H107.811Z" fill="#F06F37"/>
<mask id="mask0_363_114" style="mask-type:luminance" maskUnits="userSpaceOnUse" x="159" y="0" width="93" height="93">
<path d="M205.674 92.0495C231.092 92.0495 251.698 71.4435 251.698 46.0247C251.698 20.606 231.092 0 205.674 0C180.255 0 159.649 20.606 159.649 46.0247C159.649 71.4435 180.255 92.0495 205.674 92.0495Z" fill="white"/>
</mask>
<g mask="url(#mask0_363_114)">
<path d="M172.895 42.9879C172.952 42.3377 173.027 41.6909 173.123 41.0511C173.353 39.4977 173.695 37.981 174.136 36.5079" stroke="black" stroke-width="0.29056" stroke-miterlimit="10"/>
<path d="M175.932 59.8479C174.485 56.825 173.493 53.5422 173.043 50.0903" stroke="black" stroke-width="0.29056" stroke-miterlimit="10"/>
<path d="M186.46 72.3426C183.892 70.5191 181.599 68.3312 179.659 65.8538" stroke="black" stroke-width="0.29056" stroke-miterlimit="10"/>
<path d="M198.71 77.6616C196.655 77.2432 194.669 76.6295 192.774 75.8415" stroke="black" stroke-width="0.29056" stroke-miterlimit="10"/>
<path d="M212.398 77.0148C209.926 77.7156 207.494 78.0957 205.226 78.141C202.51 78.195 200.125 77.7662 198.172 77.2153" stroke="black" stroke-width="0.58112" stroke-linejoin="bevel"/>
<path d="M174.135 36.5094C178.15 23.1413 190.551 13.4011 205.226 13.4011C219.902 13.4011 232.358 23.1849 236.343 36.5983" stroke="black" stroke-width="0.58112" stroke-linejoin="bevel"/>
<mask id="mask1_363_114" style="mask-type:luminance" maskUnits="userSpaceOnUse" x="156" y="0" width="50" height="89">
<path d="M205.151 0.871735C189.091 3.07883 173.03 5.28592 156.97 7.49302C173.03 34.6319 189.091 61.7726 205.151 88.9115V0.871735Z" fill="white"/>
</mask>
<g mask="url(#mask1_363_114)">
<path d="M205.406 17.2087C205.563 19.9144 205.722 22.2139 205.915 24.0775C206.353 28.3244 206.888 29.8306 207.96 29.8306C208.532 29.8306 209.125 29.3669 209.967 27.5991C209.808 29.2832 210.005 29.8986 210.279 30.2403C210.467 30.4757 210.734 30.6047 211.028 30.6047C211.778 30.6047 212.829 29.8481 215.525 26.1539C216.522 24.7871 217.657 23.1431 218.945 21.2324C217.894 23.164 217 24.8533 216.28 26.3055C214.24 30.4129 214.076 31.6542 214.472 32.3271C214.655 32.6374 214.974 32.8083 215.369 32.8083C215.802 32.8083 216.45 32.6339 217.821 31.7413C216.754 33.1448 216.599 33.8316 216.799 34.3093C216.914 34.583 217.202 34.909 217.92 34.909C219.545 34.909 223.582 33.1482 229.623 30.2874C227.332 31.6629 225.396 32.8571 223.839 33.8944C220.505 36.1137 219.365 37.2992 219.63 38.2667C219.881 39.1855 221.206 39.3093 222.47 39.3093C222.69 39.3093 222.925 39.304 223.176 39.2953C221.184 40.0711 220.709 40.6639 220.756 41.2932C220.831 42.2817 222.301 42.8518 226.374 43.4707C228.748 43.8316 231.891 44.1785 235.531 44.5516C225.277 44.6178 221.555 44.8793 221.232 46.4832C221.088 47.2032 221.59 47.9982 223.975 49.3057C223.209 49.1662 222.594 49.0982 222.125 49.0982H222.121C221.794 49.0982 220.812 49.1017 220.568 49.8514C220.324 50.6063 220.905 51.6627 224.555 54.5846C226.426 56.0822 228.912 57.9197 231.792 60.0152C225.364 56.3419 221.074 54.0163 219.292 54.0145C218.6 54.0145 218.297 54.3405 218.164 54.6142C217.887 55.1843 218.042 56.1031 219.367 58.1812C217.821 56.912 217.122 56.6731 216.666 56.6731C216.316 56.6731 216.025 56.8283 215.847 57.109C215.453 57.7331 215.547 59.0005 217.291 63.1515C218.246 65.4231 219.574 68.2857 221.128 71.5667C219.231 68.5088 217.564 65.8659 216.187 63.875C213.748 60.3516 212.73 59.6282 211.954 59.6282C211.642 59.6282 211.367 59.7589 211.159 60.0047C210.807 60.4249 210.54 61.2233 210.729 63.6204C209.754 61.2669 209.076 60.6742 208.41 60.6742C206.66 60.6742 206.189 64.8547 205.363 76.727C205.139 72.4558 204.927 68.7721 204.623 66.0821C204.184 62.1891 203.617 60.7422 202.53 60.7404C201.862 60.7404 201.135 61.3488 200.051 63.7372C200.317 61.3628 200.078 60.5713 199.742 60.1564C199.545 59.9141 199.268 59.7798 198.961 59.7798C198.196 59.7798 197.167 60.5068 194.636 64.0511C193.19 66.0768 191.44 68.7599 189.447 71.8596C191.105 68.4774 192.524 65.5346 193.529 63.2142C195.262 59.208 195.354 57.9632 194.96 57.3304C194.777 57.0358 194.472 56.8736 194.102 56.8736C193.625 56.8736 192.894 57.1107 191.267 58.3782C192.653 56.3245 192.83 55.4127 192.561 54.8444C192.432 54.5689 192.13 54.2429 191.435 54.2429C189.608 54.2429 185.148 56.6139 178.456 60.3394C181.531 58.1393 184.182 56.2146 186.154 54.6543C189.737 51.8161 190.305 50.7736 190.061 50.01C189.81 49.2255 188.75 49.2255 188.401 49.2255C187.915 49.2255 187.287 49.2918 186.512 49.4225C188.977 48.1132 189.5 47.3148 189.357 46.5861C189.16 45.5697 187.659 45.0955 183.82 44.8392C181.421 44.6788 178.231 44.623 174.536 44.5899C178.419 44.1907 181.77 43.8211 184.28 43.4358C188.323 42.8134 189.78 42.2434 189.852 41.2549C189.899 40.6151 189.406 40.0136 187.327 39.2291C187.563 39.236 187.784 39.2413 187.995 39.2413C189.352 39.2413 190.774 39.1123 191.03 38.1604C191.424 36.703 188.578 34.7103 180.544 29.9666C186.927 32.9164 191.182 34.7452 192.861 34.7452C193.583 34.7452 193.865 34.4191 193.975 34.1454C194.142 33.7305 194.139 33.1604 192.859 31.5862C194.313 32.484 195 32.6583 195.455 32.6583C196.025 32.6583 196.292 32.3411 196.402 32.1528C196.787 31.4868 196.627 30.2333 194.597 26.2742C193.813 24.7435 192.824 22.9478 191.655 20.8767C193.03 22.8432 194.261 24.5674 195.31 25.9621C198.147 29.7313 199.186 30.4879 199.942 30.4879C200.235 30.4879 200.495 30.3589 200.673 30.1252C200.959 29.7539 201.091 29.081 200.882 27.5468C201.817 29.325 202.446 29.7905 203.037 29.7905C204.606 29.7905 205.049 26.6089 205.41 17.2139M205.288 4.7977C204.792 19.7941 204.744 29.2605 203.035 29.2605C202.209 29.2605 200.994 27.043 199.153 22.1651C200.598 27.5887 200.814 29.9579 199.939 29.9579C198.333 29.9579 193.065 21.9977 184.983 10.291C192.737 23.8369 197.833 32.1301 195.453 32.1301C194.489 32.1301 192.298 30.7668 188.558 27.8414C193.274 32.3742 194.425 34.2169 192.857 34.2169C190.523 34.2169 182.15 30.12 170.548 24.7261C185.961 33.7654 195.338 38.7165 187.992 38.7165C186.588 38.7165 184.575 38.5352 181.878 38.1691C198.138 42.2608 185.633 42.8762 165.056 45.0345C185.633 45.2716 197.42 44.5795 181.363 51.1903C184.878 50.2088 187.151 49.7503 188.398 49.7503C193.016 49.7503 183.482 56.056 170.549 65.3429C181.076 59.5253 189.08 54.7677 191.433 54.7694C193.02 54.7694 192.04 56.9312 187.535 62.3861C191.158 58.9291 193.215 57.3984 194.1 57.4001C196.308 57.4001 191.247 66.8962 184.983 79.7779C192.031 68.8819 197.181 60.3046 198.959 60.3046C199.925 60.3046 199.894 62.8429 198.626 68.9272C200.45 63.5716 201.672 61.2652 202.528 61.2652C204.339 61.2652 204.512 71.6155 205.291 85.2695C206.285 71.6103 206.667 61.1989 208.408 61.2007C209.229 61.2007 210.352 63.5176 211.984 68.9046C210.908 62.7383 210.959 60.1546 211.951 60.1546C213.755 60.1546 218.675 68.6936 225.596 79.7779C219.435 66.7097 214.581 57.1996 216.663 57.1996C217.51 57.1996 219.508 58.7791 223.035 62.3391C218.657 56.7673 217.695 54.541 219.289 54.541C221.621 54.541 229.435 59.3161 240.029 65.3429C227.01 55.8747 217.796 49.6247 222.121 49.6247C223.335 49.6247 225.612 50.1164 229.166 51.1659C213.394 44.4853 224.541 45.1739 245.523 45.0362C224.541 42.8814 212.721 42.2939 228.654 38.1918C225.894 38.5928 223.858 38.7915 222.467 38.7915C215.563 38.7915 224.58 33.9049 240.029 24.7295C228.387 30.2909 220.233 34.3913 217.917 34.3913C216.344 34.3913 217.463 32.4997 222.013 27.8885C218.396 30.8888 216.281 32.2905 215.366 32.2905C213.138 32.2905 218.011 23.9973 225.594 10.2963C217.693 22.1685 212.674 30.0852 211.027 30.0852C210.118 30.0852 210.234 27.6758 211.457 22.1912C209.838 27.0901 208.741 29.3111 207.96 29.3111C206.342 29.3111 206.067 19.8011 205.289 4.80118L205.288 4.7977Z" fill="black"/>
</g>
<path d="M205.224 56.5635C211.136 56.5635 215.928 51.771 215.928 45.8592C215.928 39.9475 211.136 35.155 205.224 35.155" stroke="black" stroke-width="0.58112" stroke-miterlimit="10"/>
<mask id="mask2_363_114" style="mask-type:luminance" maskUnits="userSpaceOnUse" x="204" y="17" width="59" height="81">
<path d="M247.163 17.7822C252.298 44.29 257.434 70.7961 262.568 97.3039C243.195 95.0881 223.823 92.8705 204.451 90.6547C218.689 66.3645 232.925 42.0725 247.163 17.7822Z" fill="white"/>
</mask>
<g mask="url(#mask2_363_114)">
<path d="M246.276 58.7392C246.195 47.7037 243.245 36.6648 235.471 28.2077C227.098 19.3462 214.694 15.0733 203.451 18.825C195.621 21.3912 189.371 28.3734 187.726 36.9838C187.107 40.3886 187.693 43.5981 188.878 46.8111C190.464 50.2264 193.447 54.8515 197.656 54.672C197.462 53.469 196.059 53.2616 195.262 52.4544C189.084 45.8087 189.737 35.3904 195.783 28.8075C206.664 17.439 225.288 20.7409 234.643 33.2147C244.596 46.6943 243.304 64.1245 235.417 77.714C243.306 63.7252 245.004 45.0939 233.646 32.0083C227.867 25.3643 219.674 20.713 211.052 21.2709C205.037 21.6405 199.207 25.0191 195.173 30.0086C190.735 35.5978 189.084 45.0103 195.273 49.8516C192.698 44.0253 193.735 37.0169 197.769 32.0257C203.616 25.0401 213.442 24.2887 221.242 27.5365C227.441 30.1743 232.026 35.0068 235.002 41.0354C243.131 58.3138 233.81 78.3084 218.529 87.8516C226.773 82.4821 233.428 74.6997 236.484 65.0955C240.56 51.8878 237.23 36.8391 225.445 28.9626C216.057 22.7022 203.025 23.6366 195.961 33.0212C193.74 36.2167 192.912 41.2237 195.301 44.6424C195.74 37.2296 201.784 30.8454 209.206 29.6809C221.442 27.7388 231.411 37.8119 233.557 49.4471C237.453 71.3141 217.321 89.0493 197.077 89.1452C208.705 88.4025 220.154 83.6519 227.619 73.8681C236.093 62.6879 237.174 47.4614 228.21 36.5916C223.43 30.7548 215.222 28.7081 207.598 30.4741C202.982 31.6526 198.355 35.0365 197.93 40.0452C202.576 32.8538 212.809 30.7007 220.199 35.549C231.385 43.0211 232.912 58.0611 226.041 69.0495C215.33 86.4325 192.473 88.1183 176.286 78.8175C189.478 85.899 206.509 86.9886 219.186 76.8318C228.846 69.0652 232.921 56.0579 227.968 44.808C225.393 38.783 220.006 34.1456 213.395 33.5093C209.587 33.2896 205.375 33.8684 202.555 36.8618C202.152 37.261 202.954 37.2645 202.952 37.465C208.981 34.4891 216.388 35.9308 221.174 40.9657C226.956 46.8077 227.514 55.4286 224.87 62.8309C220.602 74.433 208.14 81.185 196.118 80.5225C182.492 79.8513 170.716 70.5714 164.161 58.9136C169.523 68.3608 177.902 76.0194 188.709 79.2812C202.117 83.359 217.375 78.2248 224.05 66.2339C227.894 59.0391 227.541 50.0172 222.364 42.9757C219.38 38.7516 213.789 34.5135 208.364 37.2924C217.581 37.7404 223.545 47.1912 222.697 56.2061C222.066 62.015 219.035 67.0097 214.406 70.7946C204.744 78.7617 191.72 78.2945 181.331 71.6279C168.944 63.7479 163.805 49.6912 163.875 36.0633C164.028 45.284 165.787 54.1106 171.357 62.1562C179.514 74.0233 193.714 80.1076 206.763 75.7649C214.593 73.1987 220.843 66.2165 222.488 57.606C223.107 54.2013 222.521 50.9917 221.336 47.7787C219.749 44.3635 216.767 39.7383 212.558 39.9179C212.752 41.1208 214.155 41.3283 214.952 42.1354C221.13 48.7811 220.476 59.1995 214.43 65.7824C203.55 77.1509 184.926 73.8489 175.571 61.3752C165.618 47.8955 166.91 30.4654 174.797 16.8759C166.908 30.8646 165.21 49.4959 176.568 62.5816C182.347 69.2255 190.539 73.8768 199.162 73.3189C205.177 72.9494 211.007 69.5707 215.041 64.5812C219.479 58.992 221.13 49.5796 214.941 44.7383C217.516 50.5646 216.479 57.5729 212.445 62.5642C206.598 69.5498 196.772 70.3012 188.972 67.0533C182.773 64.4156 178.188 59.583 175.212 53.5545C167.082 36.276 176.404 16.2814 191.685 6.73825C183.44 12.1078 176.786 19.8902 173.73 29.4943C169.654 42.702 172.984 57.7507 184.769 65.6272C194.157 71.8876 207.189 70.9532 214.253 61.5687C216.474 58.3731 217.302 53.3662 214.913 49.9474C214.474 57.3602 208.43 63.7444 201.008 64.909C188.772 66.8511 178.803 56.7779 176.657 45.1427C172.761 23.2758 192.893 5.54056 213.137 5.44467C201.509 6.18734 190.06 10.938 182.595 20.7217C174.12 31.9019 173.04 47.1284 182.004 57.9983C186.784 63.8351 194.992 65.8818 202.616 64.1158C207.232 62.9372 211.859 59.5534 212.284 54.5447C207.638 61.7361 197.405 63.8891 190.015 59.0408C178.829 51.5688 177.302 36.5288 184.173 25.5404C194.884 8.15734 217.741 6.47151 233.928 15.7723C220.736 8.69081 203.705 7.60121 191.028 17.758C181.368 25.5247 177.293 38.5319 182.246 49.7818C184.821 55.8069 190.208 60.4442 196.819 61.0806C200.627 61.3002 204.838 60.7214 207.659 57.7281C208.062 57.3288 207.26 57.3254 207.262 57.1249C201.233 60.1008 193.826 58.659 189.04 53.6242C183.257 47.7822 182.7 39.1613 185.344 31.759C189.612 20.1569 202.073 13.4049 214.096 14.0673C227.722 14.7385 239.498 24.0184 246.053 35.6763C240.691 26.229 232.312 18.5704 221.505 15.3086C208.097 11.2309 192.839 16.3651 186.164 28.3559C182.319 35.5508 182.673 44.5727 187.849 51.6141C190.834 55.8383 196.425 60.0764 201.85 57.2975C192.032 56.8459 186.071 46.7955 187.722 37.1826C190.405 21.9648 206.878 14.6322 220.286 18.5094C231.894 21.7747 240.462 31.6404 243.944 42.9234C245.434 47.5817 246.205 52.9582 246.273 58.741L246.276 58.7392Z" fill="black" stroke="black" stroke-width="0.14528" stroke-miterlimit="10"/>
</g>
<path d="M156.997 7.50683C156.997 7.50683 203.831 86.7548 205.224 89.1101C205.224 88.3988 205.41 -3.84943 205.41 -3.84943" stroke="black" stroke-width="0.43584" stroke-linecap="round" stroke-linejoin="round"/>
<path d="M157.775 8.82831C157.811 8.89107 158.657 10.3276 158.693 10.3904C163.615 18.7533 168.54 27.1127 173.472 35.4686C183.991 53.2945 194.535 71.1046 205.102 88.9009" stroke="black" stroke-width="0.43584" stroke-linecap="round" stroke-linejoin="round"/>
<path d="M205.197 89.1973L253.455 7.54172" stroke="black" stroke-width="0.43584" stroke-linecap="round" stroke-linejoin="round"/>
<path d="M211.09 37.1494C211.498 37.6288 211.712 38.2425 211.664 38.8718C211.631 39.3042 211.529 39.8603 211.149 40.1253C210.982 40.2421 210.776 40.2526 210.581 40.2892C210.396 40.324 210.225 40.3833 210.072 40.4931C209.807 40.6832 209.641 40.9708 209.505 41.262C209.369 41.5531 209.251 41.8843 209.056 42.1563C208.881 42.4004 208.665 42.5154 208.369 42.5468C207.901 42.5974 207.408 42.5747 206.939 42.5538C206.47 42.5329 206.001 42.4649 205.541 42.3568C205.295 42.2993 205.19 42.6776 205.436 42.7351C206.341 42.9478 207.286 43.0001 208.214 42.9513C208.527 42.9356 208.845 42.885 209.096 42.6828C209.378 42.4562 209.545 42.1214 209.692 41.7972C209.838 41.4729 209.959 41.1155 210.217 40.8749C210.532 40.5803 211.013 40.6919 211.362 40.4478C211.845 40.1113 211.998 39.4733 212.047 38.9189C212.113 38.164 211.85 37.4405 211.362 36.867C211.198 36.6752 210.921 36.9524 211.085 37.1441L211.09 37.1494Z" fill="black"/>
<path d="M213.735 39.7573C213.97 40.5174 214.237 41.4222 214.033 42.2224C213.986 42.4054 213.908 42.5833 213.787 42.721C213.501 43.0452 213.078 43.0975 212.677 43.1777C212.192 43.2754 211.702 43.4602 211.352 43.8228C211.033 44.1523 210.886 44.5934 210.703 45.003C210.503 45.4581 210.229 45.8399 209.776 46.0682C209.323 46.2966 208.855 46.2757 208.381 46.1868C207.907 46.0979 207.449 46.0595 206.978 46.1589C206.432 46.2739 205.935 46.5511 205.496 46.8876C205.297 47.0393 205.492 47.3792 205.695 47.2258C206.11 46.9085 206.566 46.647 207.082 46.5372C207.523 46.4431 207.952 46.5076 208.388 46.586C209.371 46.7656 210.362 46.4413 210.874 45.54C211.111 45.1233 211.225 44.6387 211.505 44.2482C211.831 43.7931 212.38 43.6345 212.902 43.5334C213.325 43.4514 213.744 43.3434 214.049 43.0156C214.199 42.8552 214.305 42.6617 214.375 42.4542C214.673 41.5669 214.377 40.5087 214.113 39.6562C214.038 39.4156 213.66 39.5184 213.735 39.7608V39.7573Z" fill="black"/>
<path d="M215.354 43.6678C215.387 44.5883 214.894 45.4809 214.081 45.9237C213.678 46.1416 213.318 46.3194 213.037 46.6925C212.796 47.0115 212.638 47.3794 212.47 47.7402C212.303 48.1011 212.137 48.4481 211.86 48.7183C211.545 49.0268 211.117 49.1384 210.694 49.2169C210.27 49.2953 209.813 49.3476 209.402 49.5254C208.991 49.7033 208.705 50.0363 208.417 50.3884C207.749 51.2043 206.691 51.5722 205.671 51.2427C205.431 51.1642 205.328 51.5443 205.567 51.621C206.45 51.9069 207.453 51.7308 208.189 51.1659C208.586 50.8609 208.82 50.4076 209.205 50.0938C209.59 49.78 210.08 49.719 210.54 49.6405C211.001 49.5621 211.463 49.4819 211.851 49.2238C212.197 48.9972 212.439 48.659 212.629 48.2999C212.819 47.9407 212.974 47.5328 213.187 47.1702C213.291 46.9923 213.41 46.8285 213.562 46.6873C213.759 46.5059 214.008 46.4066 214.24 46.2828C215.186 45.7807 215.779 44.7382 215.741 43.6695C215.732 43.4185 215.34 43.4167 215.349 43.6695L215.354 43.6678Z" fill="black"/>
<path d="M205.398 35.4843C205.979 35.303 206.608 35.3571 207.128 35.6831C207.621 35.9917 207.968 36.5495 208.039 37.1266C208.111 37.7036 207.834 38.3086 207.319 38.6259C206.805 38.9432 206.237 38.9589 205.7 38.7706C205.461 38.6869 205.358 39.0652 205.595 39.1489C206.613 39.508 207.853 39.1053 208.294 38.075C208.735 37.0446 208.139 35.7493 207.159 35.2507C206.58 34.9561 205.911 34.9143 205.294 35.1078C205.053 35.1827 205.156 35.561 205.398 35.4861V35.4843Z" fill="black"/>
<path d="M215.063 48.9135C214.71 49.243 214.691 49.7225 214.465 50.1217C214.29 50.4285 213.963 50.568 213.652 50.704C213.004 50.9881 212.348 51.2462 211.689 51.5042C211.067 51.7483 210.61 52.1771 210.242 52.7263C209.817 53.3643 209.243 53.8351 208.537 54.1367C207.498 54.5795 206.346 54.4609 205.472 53.7252C205.281 53.5631 205.002 53.8403 205.195 54.0024C205.985 54.6666 206.991 54.9421 208.005 54.7172C208.776 54.5481 209.568 54.1157 210.111 53.5404C210.389 53.2475 210.572 52.8867 210.828 52.5781C211.067 52.287 211.381 52.0673 211.721 51.9121C211.822 51.8668 212.04 51.7918 212.19 51.7343C212.618 51.5704 213.039 51.3891 213.46 51.2096C213.882 51.03 214.336 50.887 214.637 50.5523C214.989 50.1601 214.962 49.5481 215.343 49.1907C215.528 49.0182 215.251 48.741 215.066 48.9135H215.063Z" fill="black"/>
<path d="M196.723 38.4725C197.166 38.2633 197.654 38.136 198.175 38.136C200.058 38.136 201.585 39.6632 201.585 41.546C201.585 43.4288 200.058 44.956 198.175 44.956C196.292 44.956 194.765 43.4288 194.765 41.546C194.765 41.5373 194.767 41.5303 194.767 41.5216C194.73 41.6053 194.69 41.6855 194.655 41.7709C194.129 43.0732 193.839 44.4958 193.839 45.9864C193.839 52.2049 198.881 57.245 205.098 57.245V34.726C201.768 34.726 198.782 36.1747 196.721 38.4707L196.723 38.4725Z" fill="black"/>
</g>
<path d="M211.322 30.3956C211.732 30.3956 212.126 30.0347 212.107 29.6111C212.087 29.1874 211.761 28.8266 211.322 28.8266C210.912 28.8266 210.518 29.1874 210.538 29.6111C210.557 30.0347 210.883 30.3956 211.322 30.3956Z" fill="black"/>
<path d="M220.576 39.7469C220.986 39.7469 221.38 39.386 221.361 38.9623C221.342 38.5387 221.016 38.1778 220.576 38.1778C220.167 38.1778 219.773 38.5387 219.792 38.9623C219.811 39.386 220.137 39.7469 220.576 39.7469Z" fill="black"/>
<path d="M220.576 51.6312C220.986 51.6312 221.38 51.2704 221.361 50.8467C221.342 50.4231 221.016 50.0622 220.576 50.0622C220.167 50.0622 219.773 50.4231 219.792 50.8467C219.811 51.2704 220.137 51.6312 220.576 51.6312Z" fill="black"/>
<path d="M211.228 61.1762C211.637 61.1762 212.031 60.8153 212.012 60.3917C211.993 59.968 211.667 59.6072 211.228 59.6072C210.818 59.6072 210.424 59.968 210.443 60.3917C210.462 60.8153 210.788 61.1762 211.228 61.1762Z" fill="black"/>
<path d="M173.917 42.3863C171.685 41.8982 169.485 43.3295 169.002 45.5819C168.519 47.8343 169.937 50.0536 172.168 50.5418C174.4 51.0299 176.6 49.5986 177.083 47.3462C177.566 45.0938 176.148 42.8745 173.917 42.3863ZM175.482 47.7942C174.757 49.1593 173.078 49.6718 171.732 48.9379C170.385 48.2039 169.881 46.5007 170.604 45.1356C171.329 43.7706 173.008 43.258 174.354 43.992C175.702 44.7259 176.206 46.4292 175.482 47.7942Z" fill="black"/>
<path d="M178.69 58.7512C176.459 58.263 174.258 59.6943 173.775 61.9468C173.293 64.1992 174.71 66.4185 176.941 66.9066C179.173 67.3948 181.373 65.9635 181.856 63.711C182.339 61.4586 180.922 59.2393 178.69 58.7512ZM180.254 64.1573C179.529 65.5224 177.85 66.0349 176.504 65.301C175.156 64.567 174.652 62.8638 175.376 61.4987C176.101 60.1337 177.78 59.6211 179.126 60.3551C180.473 61.089 180.977 62.7923 180.254 64.1573Z" fill="black"/>
<path d="M190.282 70.3428C188.05 69.8546 185.85 71.2859 185.367 73.5384C184.884 75.7908 186.301 78.0101 188.533 78.4982C190.764 78.9864 192.965 77.5551 193.447 75.3026C193.93 73.0502 192.513 70.8309 190.282 70.3428ZM191.845 75.7489C191.12 77.114 189.441 77.6265 188.095 76.8926C186.748 76.1586 186.244 74.4554 186.967 73.0903C187.693 71.7253 189.371 71.2127 190.717 71.9467C192.065 72.6806 192.569 74.3839 191.845 75.7489Z" fill="black"/>
<path d="M297.842 70C311.562 70 322.684 81.1221 322.684 94.8419C322.684 108.562 311.562 119.684 297.842 119.684C284.122 119.684 273 108.562 273 94.8419C273 81.1221 284.122 70 297.842 70Z" stroke="#C43934" stroke-width="1.0513" stroke-miterlimit="10"/>
<path d="M311.326 93.7563C311.856 101.216 306.239 107.694 298.779 108.225C291.319 108.756 284.841 103.139 284.31 95.6786C283.779 88.2185 289.397 81.7406 296.857 81.2097C304.317 80.6789 310.795 86.2962 311.326 93.7563Z" stroke="#C43934" stroke-width="1.0513" stroke-miterlimit="10"/>
<path d="M305.226 105.788C305.727 105.199 306.019 104.437 305.975 103.66C305.947 103.164 305.854 102.619 305.56 102.208C305.265 101.797 304.878 101.808 304.439 101.699C304.082 101.614 303.795 101.407 303.576 101.116C303.124 100.511 303.021 99.6614 302.452 99.1422C302.197 98.9072 301.858 98.8659 301.523 98.8504C301.024 98.8271 300.513 98.8297 300.014 98.8581C298.898 98.9175 297.814 99.2172 296.708 99.3566C295.603 99.4961 294.575 99.4341 293.604 98.9485C293.105 98.7006 292.669 98.3132 292.142 98.1246C291.555 97.9154 290.972 98.0807 290.46 98.3958C289.652 98.8943 289.143 99.7027 288.737 100.54C288.257 101.537 287.957 102.619 287.813 103.716C287.779 103.959 287.392 103.964 287.425 103.716C287.565 102.67 287.826 101.653 288.247 100.684C288.603 99.868 289.055 99.0364 289.734 98.4475C290.468 97.8121 291.442 97.4092 292.384 97.8069C292.95 98.0471 293.423 98.4578 293.988 98.7006C294.554 98.9434 295.195 99.0415 295.822 99.0338C297.046 99.0157 298.235 98.6593 299.446 98.5198C300.032 98.4526 300.624 98.4526 301.213 98.4578C301.585 98.4604 301.98 98.4655 302.328 98.6128C303.075 98.9279 303.305 99.819 303.638 100.48C303.85 100.901 304.108 101.237 304.591 101.343C305.03 101.438 305.415 101.475 305.735 101.823C306.169 102.293 306.309 102.978 306.352 103.598C306.417 104.507 306.081 105.38 305.495 106.069C305.332 106.261 305.061 105.984 305.221 105.796L305.226 105.788Z" fill="#C43934"/>
<path d="M308.584 102.464C308.932 101.335 309.648 99.0183 308.178 98.3235C307.742 98.1169 307.236 98.104 306.776 97.9671C306.288 97.8225 305.799 97.5642 305.469 97.1716C304.813 96.3967 304.759 95.2784 303.911 94.643C303.446 94.2943 302.878 94.1471 302.302 94.1832C301.832 94.2142 301.38 94.3589 300.908 94.3769C300.363 94.3976 299.854 94.2788 299.355 94.0592C298.813 93.819 298.353 93.4781 297.736 93.491C297.212 93.5014 296.69 93.6253 296.165 93.553C295.553 93.4704 294.959 93.2069 294.394 92.9693C293.221 92.4785 292.01 91.9826 290.721 91.9439C289.998 91.9206 289.267 92.0369 288.616 92.3623C288.138 92.5999 287.727 92.9383 287.322 93.2818C286.407 94.0489 285.545 94.878 284.718 95.7381C284.545 95.9189 284.271 95.6451 284.444 95.4643C285.237 94.6404 286.064 93.8449 286.934 93.1036C287.745 92.414 288.572 91.8096 289.649 91.6288C290.904 91.417 292.165 91.6959 293.342 92.1299C293.975 92.3623 294.585 92.649 295.215 92.8841C295.522 92.9977 295.843 93.1139 296.168 93.1656C296.493 93.2172 296.803 93.1837 297.116 93.1527C297.663 93.0984 298.188 93.0545 298.699 93.2999C299.236 93.5608 299.753 93.8759 300.352 93.9663C300.951 94.0567 301.473 93.9017 302.039 93.8242C302.555 93.7519 303.085 93.801 303.57 94.0024C304.056 94.2039 304.456 94.5345 304.748 94.9607C305.04 95.3868 305.203 95.9215 305.438 96.3967C305.725 96.9753 306.177 97.3601 306.791 97.5642C307.272 97.7243 307.788 97.7398 308.256 97.9335C310.051 98.6696 309.387 101.191 308.963 102.567C308.891 102.805 308.517 102.704 308.589 102.464H308.584Z" fill="#C43934"/>
<path d="M310.637 97.5048C310.671 96.4949 310.221 95.5057 309.423 94.8806C309.023 94.5655 308.522 94.4209 308.127 94.1006C307.822 93.8552 307.59 93.5298 307.401 93.1889C306.998 92.4605 306.766 91.572 306.123 91.0064C305.384 90.3555 304.291 90.4485 303.4 90.1695C302.953 90.03 302.566 89.7976 302.246 89.4515C301.874 89.0486 301.582 88.5888 301.122 88.2737C300.311 87.7184 299.291 87.659 298.353 87.8501C297.832 87.956 297.328 88.1032 296.798 88.1652C296.235 88.2298 295.667 88.2272 295.107 88.1575C294.043 88.0232 293.025 87.6306 292.147 87.0133C291.658 86.6723 291.243 86.1661 290.607 86.1506C290.155 86.1403 289.685 86.241 289.241 86.3081C288.549 86.414 287.857 86.5354 287.167 86.6646C286.924 86.7111 286.818 86.3366 287.064 86.2901C287.678 86.1738 288.296 86.0654 288.916 85.9672C289.721 85.8407 290.729 85.5488 291.473 86.0111C291.94 86.3004 292.33 86.6956 292.808 86.9745C293.335 87.2819 293.9 87.5092 294.494 87.6512C295.706 87.9405 296.868 87.801 298.061 87.5169C298.963 87.3026 299.937 87.2793 300.799 87.6512C301.249 87.8449 301.641 88.1394 301.967 88.5036C302.341 88.9246 302.636 89.405 303.163 89.6581C304.056 90.0894 305.123 89.9526 306.001 90.4433C306.768 90.872 307.117 91.6934 307.473 92.4528C307.685 92.9048 307.91 93.3748 308.282 93.7158C308.713 94.1135 309.307 94.2711 309.762 94.6482C310.596 95.343 311.069 96.4226 311.033 97.5022C311.025 97.7502 310.637 97.7528 310.645 97.5022L310.637 97.5048Z" fill="#C43934"/>
<path d="M297.976 107.909C299.319 108.322 300.75 107.686 301.246 106.346C301.489 105.685 301.452 104.949 301.026 104.365C300.636 103.828 299.998 103.567 299.353 103.507C298.658 103.443 297.984 103.639 297.291 103.626C296.599 103.613 295.941 103.314 295.282 103.068C294.918 102.934 294.523 102.8 294.13 102.887C293.737 102.975 293.489 103.29 293.322 103.634C293.014 104.262 292.994 104.993 293.164 105.661C293.36 106.429 293.776 107.134 294.445 107.573C295.003 107.937 295.657 108.095 296.318 108.084C296.568 108.082 296.568 108.469 296.318 108.472C295.649 108.479 294.975 108.332 294.394 107.996C293.701 107.596 293.236 106.981 292.944 106.245C292.653 105.509 292.573 104.698 292.79 103.946C293.006 103.195 293.477 102.531 294.285 102.479C295.14 102.425 295.904 102.98 296.713 103.169C297.619 103.378 298.526 103.03 299.44 103.133C300.109 103.208 300.765 103.466 301.212 103.988C301.724 104.584 301.889 105.37 301.713 106.129C301.313 107.852 299.533 108.797 297.87 108.286C297.632 108.213 297.733 107.839 297.973 107.911L297.976 107.909Z" fill="#C43934"/>
<path d="M310.252 90.8282C309.715 90.3167 309.79 89.4437 309.222 88.9711C308.977 88.767 308.664 88.6456 308.375 88.5191C307.928 88.3254 307.481 88.1342 307.032 87.9483C306.143 87.5841 305.229 87.3439 304.575 86.5819C304.108 86.0344 303.803 85.4042 303.224 84.947C302.752 84.5751 302.204 84.2703 301.636 84.0766C300.794 83.7925 299.851 83.7511 299.04 84.1541C298.371 84.4873 297.767 85.0012 296.997 85.0787C296.008 85.1795 294.879 84.7042 294.084 84.1541C293.288 83.6039 292.237 82.3771 291.108 82.9143C290.884 83.0202 290.687 82.687 290.912 82.5785C291.772 82.1704 292.655 82.5656 293.355 83.1003C293.756 83.405 294.128 83.7408 294.559 83.9991C294.99 84.2574 295.502 84.4666 296.013 84.588C296.488 84.699 296.946 84.7507 297.413 84.5828C297.808 84.4408 298.16 84.198 298.519 83.9913C299.27 83.56 300.058 83.387 300.921 83.5083C302.269 83.6969 303.589 84.5002 304.361 85.6211C304.782 86.2358 305.182 86.7369 305.872 87.0753C306.161 87.2173 306.479 87.3103 306.779 87.4291C307.215 87.5996 307.644 87.7856 308.073 87.9689C308.47 88.1394 308.891 88.2892 309.258 88.5217C309.547 88.705 309.764 88.9478 309.909 89.2604C310.108 89.6917 310.165 90.2109 310.521 90.5492C310.702 90.7223 310.428 90.996 310.247 90.823L310.252 90.8282Z" fill="#C43934"/>
<path d="M305.058 111.556C306.055 111.556 306.058 113.105 305.058 113.105C304.059 113.105 304.059 111.556 305.058 111.556Z" fill="#C43934"/>
<path d="M315.537 99.9534C316.534 99.9534 316.536 101.503 315.537 101.503C314.537 101.503 314.537 99.9534 315.537 99.9534Z" fill="#C43934"/>
<path d="M315.031 86.4967C316.028 86.4967 316.03 88.0464 315.031 88.0464C314.031 88.0464 314.031 86.4967 315.031 86.4967Z" fill="#C43934"/>
<path d="M304.95 76.7026C305.947 76.7026 305.949 78.2523 304.95 78.2523C303.95 78.2523 303.95 76.7026 304.95 76.7026Z" fill="#C43934"/>
<path d="M291.63 76.5398C292.627 76.5398 292.629 78.0895 291.63 78.0895C290.63 78.0895 290.63 76.5398 291.63 76.5398Z" fill="#C43934"/>
<path d="M280.268 86.6775C281.265 86.6775 281.268 88.2272 280.268 88.2272C279.269 88.2272 279.269 86.6775 280.268 86.6775Z" fill="#C43934"/>
<path d="M280.106 100.082C281.102 100.082 281.105 101.632 280.106 101.632C279.106 101.632 279.106 100.082 280.106 100.082Z" fill="#C43934"/>
<path d="M291.733 111.775C292.73 111.775 292.733 113.325 291.733 113.325C290.734 113.325 290.734 111.775 291.733 111.775Z" fill="#C43934"/>
<path d="M371.883 20.0996C386.2 20.0996 397.807 31.7059 397.807 46.023C397.807 60.3401 386.2 71.9464 371.883 71.9464C357.566 71.9464 345.96 60.3401 345.96 46.023C345.96 31.7059 357.566 20.0996 371.883 20.0996Z" stroke="#18113A" stroke-width="1.0513" stroke-miterlimit="10"/>
<path d="M398.997 38.6409C398.906 45.894 396.93 53.139 391.793 58.6697C386.262 64.4646 378.095 67.23 370.718 64.7288C365.581 63.0172 361.498 58.4056 360.444 52.7428C360.048 50.503 360.444 48.3952 361.233 46.2875C362.287 44.0477 364.263 41.0182 367.028 41.1503C366.896 41.94 365.974 42.0721 365.449 42.6003C361.365 46.9479 361.762 53.7966 365.713 58.1414C372.826 65.6478 385.076 63.5428 391.264 55.3761C397.849 46.5517 397.059 35.0912 391.922 26.1348C397.059 35.3554 398.113 47.6055 390.604 56.1658C386.785 60.5133 381.383 63.5428 375.721 63.1466C371.769 62.8825 367.95 60.6454 365.314 57.3517C362.417 53.6645 361.363 47.4734 365.446 44.3119C363.735 48.1311 364.392 52.7428 367.026 56.0337C370.845 60.6427 377.3 61.171 382.437 59.0632C386.521 57.3517 389.55 54.1901 391.526 50.2388C396.927 38.9105 390.868 25.7412 380.858 19.4181C386.259 22.9732 390.604 28.1104 392.58 34.4336C395.213 43.1259 392.976 53.0042 385.203 58.1414C379.012 62.2248 370.451 61.5672 365.84 55.3761C364.39 53.2683 363.864 49.9747 365.443 47.7376C365.708 52.6107 369.659 56.8261 374.532 57.6159C382.567 58.9339 389.151 52.3465 390.601 44.7081C393.235 30.3502 380.065 18.6283 366.761 18.4963C374.4 19.0219 381.909 22.1834 386.782 28.6387C392.313 36.0157 392.973 46.0261 387.046 53.1363C383.885 56.9555 378.486 58.2735 373.481 57.0876C370.451 56.2979 367.422 54.0581 367.158 50.7644C370.187 55.5054 376.904 56.9555 381.777 53.7939C389.154 48.9208 390.208 39.0425 385.728 31.7976C378.747 20.3372 363.732 19.1539 353.064 25.213C361.756 20.604 372.953 19.9437 381.251 26.663C387.575 31.8003 390.208 40.3605 386.914 47.7376C385.203 51.6889 381.645 54.7184 377.3 55.1146C374.796 55.2467 372.031 54.8505 370.187 52.8748C369.923 52.6107 370.451 52.6107 370.451 52.4786C374.403 54.4543 379.276 53.5325 382.437 50.2388C386.257 46.4196 386.653 40.7541 384.939 35.881C382.173 28.2425 374.006 23.7629 366.104 24.1591C357.147 24.5553 349.377 30.6143 345.029 38.2528C348.584 32.0617 354.118 27.0565 361.231 24.9488C370.055 22.3155 380.065 25.7385 384.413 33.6412C386.914 38.3822 386.653 44.3092 383.227 48.9208C381.251 51.6862 377.564 54.4516 374.006 52.608C380.065 52.3438 384.017 46.1527 383.491 40.2258C383.095 36.4065 381.119 33.1129 378.09 30.6116C371.767 25.3423 363.206 25.6065 356.358 29.954C348.191 35.0912 344.768 44.3119 344.768 53.2683C344.9 47.2093 346.086 41.4144 349.773 36.1451C355.174 28.3745 364.524 24.4232 373.087 27.3207C378.225 29.0322 382.308 33.6439 383.362 39.3067C383.758 41.5465 383.362 43.6542 382.572 45.7619C381.518 48.0017 379.543 51.0312 376.777 50.8992C376.909 50.1094 377.831 49.9774 378.357 49.4491C382.44 45.1016 382.044 38.2528 378.093 33.908C370.98 26.4016 358.729 28.5066 352.541 36.6734C345.956 45.4978 346.746 56.9582 351.883 65.9147C346.746 56.6941 345.692 44.4439 353.201 35.8837C357.021 31.5361 362.422 28.5066 368.085 28.9028C372.036 29.167 375.855 31.4041 378.491 34.6977C381.389 38.3849 382.443 44.576 378.359 47.7376C380.071 43.9183 379.413 39.3067 376.78 36.0157C372.961 31.4068 366.505 30.8785 361.368 32.9862C357.285 34.6977 354.255 37.8593 352.28 41.8106C346.878 53.139 352.937 66.3082 362.948 72.6314C357.546 69.0763 353.201 63.939 351.226 57.6159C348.592 48.9235 350.83 39.0452 358.603 33.908C364.794 29.8246 373.354 30.4823 377.966 36.6734C379.416 38.7811 379.942 42.0748 378.362 44.3119C378.098 39.4388 374.147 35.2233 369.273 34.4336C361.239 33.1156 354.654 39.7029 353.204 47.3414C350.571 61.6992 363.74 73.4211 377.044 73.5532C369.406 73.0276 361.896 69.866 357.023 63.4108C351.493 56.0337 350.832 46.0234 356.759 38.9132C359.921 35.0939 365.32 33.7759 370.325 34.9619C373.354 35.7516 376.384 37.9914 376.648 41.285C373.618 36.544 366.902 35.0939 362.029 38.2555C354.651 43.1286 353.598 53.0069 358.077 60.2519C365.058 71.7123 380.074 72.8955 390.742 66.8365C382.049 71.4454 370.853 72.1058 362.554 65.3864C356.231 60.2492 353.598 51.6889 356.891 44.3119C358.603 40.3605 362.161 37.331 366.505 36.9348C369.007 36.8028 371.775 37.199 373.618 39.1746C373.882 39.4388 373.354 39.4388 373.354 39.5708C369.403 37.5952 364.53 38.517 361.368 41.8106C357.549 45.6299 357.153 51.2954 358.867 56.1685C361.632 63.807 369.799 68.2866 377.702 67.8903C386.658 67.4941 394.429 61.4351 398.776 53.7966C395.221 59.9877 389.688 64.9929 382.575 67.1006C373.75 69.7339 363.74 66.3109 359.393 58.4083C356.889 53.6672 357.153 47.7403 360.578 43.1286C362.554 40.3632 366.241 37.5979 369.799 39.4414C363.344 39.7056 359.392 46.2902 360.446 52.6134C362.158 62.6237 372.958 67.4968 381.785 64.9956C389.424 62.8879 395.089 56.4353 397.415 49.0313C398.41 45.9749 398.935 42.444 399 38.6436L398.997 38.6409Z" stroke="#18113A" stroke-width="0.700866" stroke-miterlimit="10"/>
<path d="M371.306 54.2439L369.406 53.225L367.271 50.9287L367.538 52.3868L367.991 53.8962L366.648 51.9448L365.702 49.4678L365.452 47.7374L364.516 49.2926L364.737 46.5218L365.452 44.3117L364.193 45.5785L363.303 47.1579L363.436 45.6863L365.064 43.0341L366.125 42.1312L367.031 41.1501L365.705 41.3361L363.899 42.0746L365.918 40.4655L368.257 39.63L369.651 39.4467L368.516 38.9669H366.535L367.84 38.6003L371.306 38.8214L373.354 39.5707L373.618 39.1744L371.516 37.692L372.707 37.7459L375.103 39.4251L376.648 41.2822L376.287 39.6973L374.818 37.4683L377.033 39.8725L378.12 42.6298L378.359 44.3117L379.039 42.9371L379.276 42.4061L378.998 45.8561L378.359 47.7374L379.71 46.3439L380.572 44.716L380.101 46.9531L378.359 49.4489L377.02 50.3977L376.777 50.899L379.095 50.2413L377.524 51.7184L374.661 52.5566L374.678 52.9016L376.23 53.4164L373.195 53.3706L370.613 52.5539L370.193 52.8747L371.306 54.2439Z" fill="#18113A"/>
</svg>
