<?xml version="1.0" encoding="UTF-8"?>
<svg id="Camada_2" data-name="Camada 2" xmlns="http://www.w3.org/2000/svg" viewBox="0 0 182.88 50.58">
  <defs>
    <style>
      .cls-1 {
        fill: #fff;
      }

      .cls-2 {
        fill: none;
        stroke: #fff;
        stroke-miterlimit: 10;
        stroke-width: .57px;
      }
    </style>
  </defs>
  <g id="Camada_7" data-name="Camada 7">
    <g>
      <g>
        <rect class="cls-2" x=".29" y=".29" width="182.31" height="36.04"/>
        <path class="cls-1" d="M33.45,36.33c-.32,0-.32-.29-.32-.29-.51-5.82-.68-11.66-.55-17.49.11-4.98.4-9.94.4-14.92,0-.05-.04-.09-.08-.09h-2.56s-.08-.04-.08-.08v-.81s.04-.08.08-.08h2.56s.08-.04.08-.08V.37s.04-.08.08-.08h.75s.08.04.08.08v2.11s.04.08.08.08h2.56s.08.04.08.08v.81s-.04.08-.08.08h-2.56s-.09.04-.09.09c0,4.98.29,9.95.4,14.92.13,5.84-.04,11.68-.55,17.49,0,0,0,.29-.32.29"/>
        <path class="cls-1" d="M37.71,6.41c-.59,2.59-1.17,5.26-1.18,7.92-.02,3.33.88,6.22,2.47,9.13,0,0,0,.01.01.02l5.35,11.41c.08.18.01.39-.16.49-.17.1-.39.04-.5-.13l-6.59-10.53s0,0,0,0c-1.05-1.51-1.77-3.15-2.14-4.95-.92-4.48.52-9.37,2.02-13.56.07-.19.27-.29.46-.23.19.05.31.25.26.44"/>
        <path class="cls-1" d="M23.89,8.01c-.08-.17-.02-.38.15-.48.16-.1.38-.06.49.09,4.27,5.62,5.09,11.07-1.14,15.58-1.27.92-2.57,1.8-3.89,2.65-1.43.93-2.88,1.84-4.33,2.73-1.59.98-3.2,1.94-4.81,2.89-.17.1-.4.05-.51-.12-.11-.17-.07-.39.09-.51l12.24-8.91c1.61-1.17,3.14-2.64,3.71-4.62.38-1.33.27-2.71-.04-4.04-.41-1.79-1.19-3.6-1.96-5.27"/>
        <path class="cls-1" d="M26.18,7.03c-.06-.19.03-.38.21-.46.18-.07.38,0,.47.18,1,2.02,1.96,4.19,2.52,6.38.46,1.81.64,3.68.23,5.52-.52,2.31-1.88,4.14-3.64,5.67-1.64,1.44-3.3,2.85-4.99,4.24-1.39,1.14-2.79,2.25-4.21,3.35-.76.58-1.51,1.16-2.28,1.74-.16.12-.38.1-.51-.05-.13-.15-.11-.37.02-.51l10.76-10.53c1.29-1.26,2.51-2.7,3.05-4.46.45-1.46.37-3,.12-4.49-.17-.99-.41-1.98-.67-2.94-.33-1.22-.71-2.43-1.1-3.63"/>
        <path class="cls-1" d="M29.25,6.41c-.04-.19.07-.39.26-.44.19-.06.39.05.46.23,1.51,4.2,2.94,9.09,2.02,13.56-.37,1.8-1.09,3.44-2.14,4.95,0,0,0,0,0,0l-6.59,10.53c-.11.17-.32.23-.5.13-.17-.09-.24-.31-.16-.49l5.35-11.41s0-.01.01-.02c1.59-2.91,2.49-5.8,2.47-9.13-.02-2.66-.6-5.33-1.18-7.92"/>
        <path class="cls-1" d="M43.07,8.01c-.77,1.67-1.55,3.48-1.96,5.27-.31,1.33-.42,2.71-.04,4.04.56,1.98,2.09,3.44,3.71,4.62l12.24,8.91c.16.12.2.34.09.51-.11.17-.33.22-.5.12-1.61-.95-3.21-1.92-4.81-2.89-1.46-.89-2.9-1.8-4.34-2.73-1.31-.85-2.62-1.73-3.88-2.65-6.23-4.51-5.41-9.96-1.14-15.58.12-.15.33-.19.49-.09.16.1.23.31.15.48"/>
        <path class="cls-1" d="M40.78,7.03c-.39,1.2-.77,2.41-1.1,3.63-.27.97-.51,1.95-.67,2.94-.25,1.49-.32,3.02.12,4.49.54,1.76,1.75,3.2,3.05,4.46l10.76,10.53c.14.14.15.36.02.51-.13.15-.35.17-.5.05-.76-.58-1.52-1.15-2.28-1.74-1.42-1.1-2.82-2.21-4.21-3.35-1.69-1.38-3.35-2.8-4.99-4.24-1.76-1.53-3.12-3.37-3.64-5.67-.41-1.84-.23-3.71.23-5.52.55-2.2,1.51-4.36,2.52-6.38.09-.17.29-.25.47-.18.18.08.27.27.21.46"/>
        <path class="cls-1" d="M79.8,29.22c-.92.46-3,.96-5.71.96-7.69,0-11.66-4.79-11.66-11.13,0-7.59,5.42-11.82,12.15-11.82,2.61,0,4.59.53,5.48.99l-1.02,4c-1.02-.43-2.44-.83-4.23-.83-4,0-7.1,2.41-7.1,7.36,0,4.46,2.64,7.26,7.13,7.26,1.52,0,3.2-.33,4.19-.73l.76,3.93Z"/>
        <path class="cls-1" d="M91.62,29.85l-.3-1.62h-.1c-1.06,1.29-2.71,1.98-4.62,1.98-3.27,0-5.22-2.38-5.22-4.95,0-4.19,3.76-6.21,9.48-6.17v-.23c0-.86-.46-2.08-2.94-2.08-1.65,0-3.4.56-4.46,1.22l-.92-3.24c1.12-.63,3.33-1.42,6.27-1.42,5.38,0,7.1,3.17,7.1,6.97v5.61c0,1.55.07,3.04.23,3.93h-4.52ZM91.03,22.22c-2.64-.03-4.69.59-4.69,2.54,0,1.29.86,1.92,1.98,1.92,1.25,0,2.28-.83,2.61-1.85.07-.26.1-.56.1-.86v-1.75Z"/>
        <path class="cls-1" d="M105.06,9.08v4.62h3.6v3.7h-3.6v5.84c0,1.95.46,2.84,1.98,2.84.63,0,1.12-.07,1.49-.13l.03,3.8c-.66.26-1.85.43-3.27.43-1.62,0-2.97-.56-3.76-1.39-.92-.96-1.39-2.51-1.39-4.79v-6.6h-2.15v-3.7h2.15v-3.5l4.92-1.12Z"/>
        <path class="cls-1" d="M127.18,21.59c0,5.91-4.19,8.62-8.52,8.62-4.72,0-8.35-3.1-8.35-8.32s3.43-8.55,8.62-8.55,8.25,3.4,8.25,8.26M115.49,21.76c0,2.77,1.16,4.85,3.3,4.85,1.95,0,3.2-1.95,3.2-4.85,0-2.41-.92-4.85-3.2-4.85-2.41,0-3.3,2.48-3.3,4.85M124.01,6.67l-4.03,5.02h-3.47l2.84-5.02h4.66Z"/>
        <rect class="cls-1" x="130.12" y="6.4" width="5.02" height="23.44"/>
        <path class="cls-1" d="M144.22,9.21c0,1.39-1.06,2.51-2.71,2.51s-2.64-1.12-2.61-2.51c-.03-1.45,1.02-2.54,2.64-2.54s2.64,1.09,2.67,2.54M139.04,13.7h5.02v16.15h-5.02V13.7Z"/>
        <path class="cls-1" d="M160.04,29.45c-.89.4-2.58.73-4.49.73-5.22,0-8.55-3.17-8.55-8.26,0-4.72,3.24-8.59,9.25-8.59,1.32,0,2.77.23,3.83.63l-.79,3.73c-.59-.26-1.49-.5-2.81-.5-2.64,0-4.36,1.88-4.33,4.52,0,2.97,1.98,4.52,4.42,4.52,1.19,0,2.11-.2,2.87-.5l.59,3.7Z"/>
        <path class="cls-1" d="M171.95,29.85l-.3-1.62h-.1c-1.06,1.29-2.71,1.98-4.62,1.98-3.27,0-5.22-2.38-5.22-4.95,0-4.19,3.76-6.21,9.48-6.17v-.23c0-.86-.46-2.08-2.94-2.08-1.65,0-3.4.56-4.46,1.22l-.92-3.24c1.12-.63,3.33-1.42,6.27-1.42,5.38,0,7.1,3.17,7.1,6.97v5.61c0,1.55.07,3.04.23,3.93h-4.52ZM171.36,22.22c-2.64-.03-4.69.59-4.69,2.54,0,1.29.86,1.92,1.98,1.92,1.25,0,2.28-.83,2.61-1.85.07-.26.1-.56.1-.86v-1.75Z"/>
      </g>
      <g>
        <path class="cls-1" d="M2.26,41.75v5c0,1.5.57,2.26,1.57,2.26s1.6-.72,1.6-2.26v-5h1.96v4.87c0,2.68-1.35,3.96-3.62,3.96s-3.48-1.21-3.48-3.98v-4.85h1.97Z"/>
        <path class="cls-1" d="M8.93,46.15c0-.79-.03-1.46-.05-2.01h1.7l.09.86h.04c.26-.4.9-1.01,1.95-1.01,1.29,0,2.26.85,2.26,2.71v3.74h-1.96v-3.49c0-.81-.28-1.37-.99-1.37-.54,0-.86.37-.99.74-.05.12-.08.31-.08.49v3.64h-1.96v-4.29Z"/>
        <path class="cls-1" d="M18.4,42.38c0,.54-.41.98-1.06.98s-1.03-.44-1.02-.98c-.01-.57.4-.99,1.03-.99s1.03.43,1.04.99ZM16.38,50.44v-6.31h1.96v6.31h-1.96Z"/>
        <path class="cls-1" d="M21.26,44.14l.85,2.93c.15.53.27,1.03.36,1.53h.04c.1-.52.21-.99.35-1.53l.81-2.93h2.06l-2.35,6.31h-1.96l-2.3-6.31h2.13Z"/>
        <path class="cls-1" d="M27.85,47.92c.06.81.86,1.2,1.78,1.2.67,0,1.21-.09,1.74-.26l.26,1.33c-.64.26-1.43.39-2.28.39-2.14,0-3.37-1.24-3.37-3.21,0-1.6.99-3.37,3.19-3.37,2.04,0,2.81,1.59,2.81,3.15,0,.34-.04.63-.06.77h-4.06ZM30.16,46.57c0-.48-.21-1.28-1.11-1.28-.83,0-1.16.75-1.21,1.28h2.32Z"/>
        <path class="cls-1" d="M33.05,46.21c0-.93-.03-1.53-.05-2.08h1.69l.06,1.16h.05c.32-.92,1.1-1.3,1.7-1.3.18,0,.27,0,.41.03v1.84c-.14-.03-.31-.05-.53-.05-.72,0-1.21.39-1.34.99-.03.13-.04.28-.04.44v3.2h-1.96v-4.23Z"/>
        <path class="cls-1" d="M37.83,48.73c.36.22,1.11.48,1.69.48s.84-.21.84-.53-.19-.48-.93-.72c-1.3-.44-1.81-1.15-1.79-1.9,0-1.17,1.01-2.06,2.57-2.06.74,0,1.39.17,1.78.36l-.35,1.35c-.28-.15-.83-.36-1.37-.36-.48,0-.75.19-.75.52,0,.3.25.45,1.02.72,1.2.41,1.7,1.02,1.72,1.95,0,1.17-.93,2.04-2.73,2.04-.83,0-1.56-.18-2.04-.44l.35-1.41Z"/>
        <path class="cls-1" d="M45.36,42.38c0,.54-.41.98-1.06.98s-1.03-.44-1.02-.98c-.01-.57.4-.99,1.03-.99s1.03.43,1.04.99ZM43.34,50.44v-6.31h1.96v6.31h-1.96Z"/>
        <path class="cls-1" d="M52.88,41.29v7.27c0,.71.03,1.46.05,1.88h-1.74l-.09-.93h-.03c-.4.71-1.16,1.07-1.97,1.07-1.5,0-2.7-1.28-2.7-3.24-.01-2.13,1.32-3.35,2.82-3.35.77,0,1.38.27,1.66.71h.03v-3.42h1.96ZM50.92,46.81c0-.1-.01-.25-.03-.35-.12-.53-.54-.97-1.15-.97-.89,0-1.35.8-1.35,1.79,0,1.07.53,1.74,1.34,1.74.57,0,1.02-.39,1.13-.94.04-.14.05-.28.05-.45v-.83Z"/>
        <path class="cls-1" d="M57.93,50.44l-.12-.63h-.04c-.41.5-1.06.77-1.81.77-1.28,0-2.04-.93-2.04-1.93,0-1.64,1.47-2.42,3.7-2.41v-.09c0-.34-.18-.81-1.15-.81-.64,0-1.33.22-1.74.48l-.36-1.26c.44-.25,1.3-.55,2.45-.55,2.1,0,2.77,1.24,2.77,2.72v2.19c0,.61.03,1.19.09,1.53h-1.77ZM57.7,47.46c-1.03-.01-1.83.23-1.83.99,0,.5.34.75.77.75.49,0,.89-.32,1.02-.72.03-.1.04-.22.04-.34v-.68Z"/>
        <path class="cls-1" d="M67.16,41.29v7.27c0,.71.03,1.46.05,1.88h-1.74l-.09-.93h-.03c-.4.71-1.16,1.07-1.97,1.07-1.5,0-2.7-1.28-2.7-3.24-.01-2.13,1.32-3.35,2.82-3.35.77,0,1.38.27,1.66.71h.03v-3.42h1.96ZM65.2,46.81c0-.1-.01-.25-.03-.35-.12-.53-.54-.97-1.15-.97-.89,0-1.35.8-1.35,1.79,0,1.07.53,1.74,1.34,1.74.57,0,1.02-.39,1.13-.94.04-.14.05-.28.05-.45v-.83Z"/>
        <path class="cls-1" d="M70.14,47.92c.06.81.86,1.2,1.78,1.2.67,0,1.21-.09,1.74-.26l.26,1.33c-.64.26-1.43.39-2.28.39-2.14,0-3.37-1.24-3.37-3.21,0-1.6.99-3.37,3.19-3.37,2.04,0,2.81,1.59,2.81,3.15,0,.34-.04.63-.06.77h-4.06ZM72.45,46.57c0-.48-.21-1.28-1.11-1.28-.83,0-1.16.75-1.21,1.28h2.32Z"/>
        <path class="cls-1" d="M84.29,50.2c-.36.18-1.17.37-2.23.37-3,0-4.55-1.87-4.55-4.35,0-2.97,2.11-4.62,4.75-4.62,1.02,0,1.79.21,2.14.39l-.4,1.56c-.4-.17-.95-.32-1.65-.32-1.56,0-2.77.94-2.77,2.88,0,1.74,1.03,2.84,2.79,2.84.59,0,1.25-.13,1.64-.28l.3,1.53Z"/>
        <path class="cls-1" d="M88.86,50.44l-.12-.63h-.04c-.41.5-1.06.77-1.81.77-1.28,0-2.04-.93-2.04-1.93,0-1.64,1.47-2.42,3.7-2.41v-.09c0-.34-.18-.81-1.15-.81-.64,0-1.33.22-1.74.48l-.36-1.26c.44-.25,1.3-.55,2.45-.55,2.1,0,2.77,1.24,2.77,2.72v2.19c0,.61.03,1.19.09,1.53h-1.77ZM88.63,47.46c-1.03-.01-1.83.23-1.83.99,0,.5.34.75.77.75.49,0,.89-.32,1.02-.72.03-.1.04-.22.04-.34v-.68Z"/>
        <path class="cls-1" d="M94.07,42.33v1.81h1.41v1.44h-1.41v2.28c0,.76.18,1.11.77,1.11.25,0,.44-.03.58-.05v1.48c-.25.1-.71.17-1.26.17-.63,0-1.16-.22-1.47-.54-.36-.37-.54-.98-.54-1.87v-2.58h-.84v-1.44h.84v-1.37l1.92-.44Z"/>
        <path class="cls-1" d="M102.67,47.22c0,2.31-1.64,3.37-3.33,3.37-1.84,0-3.26-1.21-3.26-3.25s1.34-3.34,3.37-3.34,3.22,1.33,3.22,3.22ZM98.11,47.28c0,1.08.45,1.9,1.29,1.9.76,0,1.25-.76,1.25-1.9,0-.94-.36-1.9-1.25-1.9-.94,0-1.29.97-1.29,1.9ZM101.43,41.39l-1.57,1.96h-1.35l1.11-1.96h1.82Z"/>
        <path class="cls-1" d="M103.78,41.29h1.96v9.16h-1.96v-9.16Z"/>
        <path class="cls-1" d="M109.25,42.38c0,.54-.41.98-1.06.98s-1.03-.44-1.02-.98c-.01-.57.4-.99,1.03-.99s1.03.43,1.04.99ZM107.22,50.44v-6.31h1.96v6.31h-1.96Z"/>
        <path class="cls-1" d="M115.38,50.29c-.35.15-1.01.28-1.75.28-2.04,0-3.34-1.24-3.34-3.22,0-1.84,1.26-3.35,3.61-3.35.52,0,1.08.09,1.5.25l-.31,1.46c-.23-.1-.58-.19-1.1-.19-1.03,0-1.7.74-1.69,1.77,0,1.16.77,1.77,1.73,1.77.46,0,.83-.08,1.12-.19l.23,1.44Z"/>
        <path class="cls-1" d="M120,50.44l-.12-.63h-.04c-.41.5-1.06.77-1.81.77-1.28,0-2.04-.93-2.04-1.93,0-1.64,1.47-2.42,3.7-2.41v-.09c0-.34-.18-.81-1.15-.81-.64,0-1.33.22-1.74.48l-.36-1.26c.44-.25,1.3-.55,2.45-.55,2.1,0,2.77,1.24,2.77,2.72v2.19c0,.61.03,1.19.09,1.53h-1.77ZM119.77,47.46c-1.03-.01-1.83.23-1.83.99,0,.5.34.75.77.75.49,0,.89-.32,1.02-.72.03-.1.04-.22.04-.34v-.68Z"/>
        <path class="cls-1" d="M131.73,41.29v7.27c0,.71.03,1.46.05,1.88h-1.74l-.09-.93h-.03c-.4.71-1.16,1.07-1.97,1.07-1.5,0-2.7-1.28-2.7-3.24-.01-2.13,1.32-3.35,2.82-3.35.77,0,1.38.27,1.66.71h.03v-3.42h1.96ZM129.77,46.81c0-.1-.01-.25-.03-.35-.12-.53-.54-.97-1.15-.97-.89,0-1.35.8-1.35,1.79,0,1.07.53,1.74,1.34,1.74.57,0,1.02-.39,1.13-.94.04-.14.05-.28.05-.45v-.83Z"/>
        <path class="cls-1" d="M134.71,47.92c.06.81.86,1.2,1.78,1.2.67,0,1.21-.09,1.74-.26l.26,1.33c-.64.26-1.43.39-2.28.39-2.14,0-3.37-1.24-3.37-3.21,0-1.6.99-3.37,3.19-3.37,2.04,0,2.81,1.59,2.81,3.15,0,.34-.04.63-.06.77h-4.06ZM137.02,46.57c0-.48-.21-1.28-1.11-1.28-.83,0-1.16.75-1.21,1.28h2.32Z"/>
        <path class="cls-1" d="M142.47,41.87c.52-.1,1.56-.18,2.54-.18,1.2,0,1.93.12,2.57.49.61.32,1.04.92,1.04,1.7s-.45,1.5-1.43,1.86v.03c.99.27,1.73,1.02,1.73,2.14,0,.79-.36,1.41-.9,1.84-.63.5-1.69.79-3.42.79-.97,0-1.69-.06-2.13-.13v-8.54ZM144.42,45.19h.64c1.03,0,1.59-.43,1.59-1.07s-.5-1.01-1.39-1.01c-.43,0-.67.03-.84.05v2.02ZM144.42,49.05c.19.03.43.03.76.03.89,0,1.68-.34,1.68-1.25s-.79-1.23-1.77-1.23h-.67v2.45Z"/>
        <path class="cls-1" d="M150.09,46.21c0-.93-.03-1.53-.05-2.08h1.69l.06,1.16h.05c.32-.92,1.1-1.3,1.7-1.3.18,0,.27,0,.41.03v1.84c-.14-.03-.31-.05-.53-.05-.72,0-1.21.39-1.34.99-.03.13-.04.28-.04.44v3.2h-1.96v-4.23Z"/>
        <path class="cls-1" d="M158.33,50.44l-.12-.63h-.04c-.41.5-1.06.77-1.81.77-1.28,0-2.04-.93-2.04-1.93,0-1.64,1.47-2.42,3.7-2.41v-.09c0-.34-.18-.81-1.15-.81-.64,0-1.33.22-1.74.48l-.36-1.26c.44-.25,1.3-.55,2.45-.55,2.1,0,2.77,1.24,2.77,2.72v2.19c0,.61.03,1.19.09,1.53h-1.77ZM158.1,47.46c-1.03-.01-1.83.23-1.83.99,0,.5.34.75.77.75.49,0,.89-.32,1.02-.72.03-.1.04-.22.04-.34v-.68Z"/>
        <path class="cls-1" d="M161.44,48.73c.36.22,1.11.48,1.69.48s.84-.21.84-.53-.19-.48-.93-.72c-1.3-.44-1.81-1.15-1.79-1.9,0-1.17,1.01-2.06,2.57-2.06.74,0,1.39.17,1.78.36l-.35,1.35c-.28-.15-.83-.36-1.37-.36-.48,0-.75.19-.75.52,0,.3.25.45,1.02.72,1.2.41,1.7,1.02,1.72,1.95,0,1.17-.93,2.04-2.73,2.04-.83,0-1.56-.18-2.04-.44l.35-1.41Z"/>
        <path class="cls-1" d="M166.94,50.44v-6.31h1.96v6.31h-1.96ZM170.01,41.39l-1.57,1.96h-1.35l1.11-1.96h1.82Z"/>
        <path class="cls-1" d="M170.37,41.29h1.96v9.16h-1.96v-9.16Z"/>
        <path class="cls-1" d="M175.84,42.38c0,.54-.41.98-1.06.98s-1.03-.44-1.02-.98c-.01-.57.4-.99,1.03-.99s1.03.43,1.04.99ZM173.81,50.44v-6.31h1.96v6.31h-1.96Z"/>
        <path class="cls-1" d="M180.83,50.44l-.12-.63h-.04c-.41.5-1.06.77-1.81.77-1.28,0-2.04-.93-2.04-1.93,0-1.64,1.47-2.42,3.7-2.41v-.09c0-.34-.18-.81-1.15-.81-.64,0-1.33.22-1.74.48l-.36-1.26c.44-.25,1.3-.55,2.45-.55,2.1,0,2.77,1.24,2.77,2.72v2.19c0,.61.03,1.19.09,1.53h-1.77ZM180.6,47.46c-1.03-.01-1.83.23-1.83.99,0,.5.34.75.77.75.49,0,.89-.32,1.02-.72.03-.1.04-.22.04-.34v-.68Z"/>
      </g>
    </g>
  </g>
</svg>