<?xml version="1.0" encoding="UTF-8"?>
<svg id="Camada_2" data-name="Camada 2" xmlns="http://www.w3.org/2000/svg" viewBox="0 0 168.49 160.85">
  <g id="Camada_1-2" data-name="Camada 1">
    <path d="M168.49,36.42l-10.52-19.62c-4.75,4.15-10.56,8.6-17.46,12.76-2.03,1.22-4.02,2.34-5.97,3.37C122.75,12.2,101.77,0,72.81,0,26.26,0,0,32.23,0,80.87s26.26,79.97,72.81,79.97,72.81-32.23,72.81-80.57c0-9.17-.93-17.75-2.77-25.63,2.49-1.22,5.06-2.62,7.69-4.23,7.45-4.56,13.4-9.56,17.94-13.99ZM72.81,19.99c19.69,0,32.88,9.74,39.58,27.42-9.89,5.12-25.39,10.08-47.02,8.49-15.65-1.14-26.18-3.91-33.26-6.93,6.56-18.56,20.06-28.77,40.7-28.98ZM72.81,140.85c-30.14,0-45.36-21.49-45.36-59.98,0-3.12.1-6.13.29-9.02,7.91,3.84,20.84,7.58,41.27,7.58,22.79,0,38.42-5.18,48.07-10.05.33,3.65.49,7.48.49,11.49,0,38.49-14.62,59.98-44.77,59.98Z"/>
  </g>
</svg>