<svg width="219" height="218" viewBox="0 0 219 218" fill="none" xmlns="http://www.w3.org/2000/svg">
<mask id="mask0_789_592" style="mask-type:luminance" maskUnits="userSpaceOnUse" x="0" y="0" width="219" height="218">
<path d="M109.693 218C169.892 218 218.693 169.199 218.693 109C218.693 48.801 169.892 0 109.693 0C49.494 0 0.692993 48.801 0.692993 109C0.692993 169.199 49.494 218 109.693 218Z" fill="white"/>
</mask>
<g mask="url(#mask0_789_592)">
<path d="M32.0623 101.808C32.1985 100.268 32.3759 98.7361 32.6029 97.2208C33.1479 93.5421 33.9572 89.95 35.0018 86.4612" stroke="black" stroke-width="0.428617" stroke-miterlimit="10"/>
<path d="M39.255 141.737C35.8281 134.578 33.4787 126.803 32.4135 118.628" stroke="black" stroke-width="0.428617" stroke-miterlimit="10"/>
<path d="M64.1887 171.328C58.107 167.009 52.6777 161.828 48.0824 155.961" stroke="black" stroke-width="0.428617" stroke-miterlimit="10"/>
<path d="M93.2018 183.925C88.3339 182.934 83.6313 181.481 79.1433 179.615" stroke="black" stroke-width="0.428617" stroke-miterlimit="10"/>
<path d="M125.618 182.393C119.763 184.053 114.004 184.953 108.632 185.06C102.2 185.188 96.5514 184.173 91.9271 182.868" stroke="black" stroke-width="0.857234" stroke-linejoin="bevel"/>
<path d="M35 86.4646C44.5086 54.8051 73.8768 31.7375 108.633 31.7375C143.389 31.7375 172.889 54.9083 182.328 86.6752" stroke="black" stroke-width="0.857234" stroke-linejoin="bevel"/>
<mask id="mask1_789_592" style="mask-type:luminance" maskUnits="userSpaceOnUse" x="-6" y="2" width="115" height="209">
<path d="M108.456 2.06421C70.4212 7.29125 32.3827 12.5183 -5.65173 17.7453C32.3827 82.0182 70.4212 146.295 108.456 210.568V2.06421Z" fill="white"/>
</mask>
<g mask="url(#mask1_789_592)">
<path d="M109.06 40.7549C109.431 47.1628 109.807 52.6086 110.265 57.0223C111.302 67.08 112.569 70.6473 115.108 70.6473C116.463 70.6473 117.866 69.5491 119.861 65.3625C119.485 69.3509 119.951 70.8083 120.6 71.6176C121.046 72.175 121.677 72.4805 122.375 72.4805C124.15 72.4805 126.64 70.6886 133.023 61.9397C135.385 58.7027 138.073 54.8093 141.124 50.2841C138.634 54.8588 136.516 58.8596 134.811 62.2989C129.98 72.0263 129.592 74.966 130.529 76.5597C130.963 77.2947 131.718 77.6993 132.656 77.6993C133.68 77.6993 135.215 77.2864 138.461 75.1725C135.934 78.4962 135.567 80.1229 136.041 81.2542C136.314 81.9024 136.995 82.6745 138.696 82.6745C142.544 82.6745 152.106 78.5044 166.413 71.7291C160.987 74.9867 156.4 77.8149 152.713 80.2715C144.819 85.5275 142.119 88.3351 142.746 90.6265C143.341 92.8024 146.479 93.0956 149.472 93.0956C149.992 93.0956 150.55 93.0832 151.144 93.0625C146.425 94.8998 145.302 96.3036 145.414 97.7941C145.591 100.135 149.072 101.485 158.717 102.951C164.34 103.806 171.784 104.627 180.405 105.511C156.119 105.668 147.305 106.287 146.541 110.086C146.198 111.791 147.387 113.673 153.035 116.77C151.223 116.44 149.765 116.279 148.655 116.279H148.646C147.87 116.279 145.546 116.287 144.968 118.062C144.39 119.85 145.764 122.352 154.41 129.272C158.84 132.819 164.728 137.17 171.549 142.133C156.326 133.434 146.165 127.926 141.945 127.922C140.306 127.922 139.588 128.694 139.274 129.342C138.618 130.692 138.985 132.868 142.123 137.79C138.461 134.784 136.805 134.218 135.727 134.218C134.898 134.218 134.208 134.586 133.787 135.25C132.854 136.729 133.077 139.73 137.206 149.561C139.468 154.941 142.614 161.72 146.293 169.49C141.801 162.249 137.854 155.989 134.592 151.274C128.816 142.93 126.405 141.217 124.567 141.217C123.828 141.217 123.176 141.526 122.685 142.108C121.851 143.103 121.219 144.994 121.665 150.671C119.357 145.098 117.751 143.694 116.174 143.694C112.028 143.694 110.913 153.595 108.956 181.712C108.428 171.596 107.924 162.872 107.206 156.501C106.165 147.282 104.824 143.855 102.247 143.851C100.666 143.851 98.9442 145.292 96.3761 150.948C97.0078 145.325 96.4422 143.45 95.6453 142.468C95.1788 141.894 94.5223 141.576 93.7956 141.576C91.9831 141.576 89.5471 143.297 83.5521 151.691C80.1293 156.489 75.9839 162.843 71.2647 170.184C75.1912 162.174 78.5521 155.205 80.9303 149.709C85.0343 140.222 85.2531 137.274 84.32 135.775C83.8865 135.077 83.164 134.693 82.2887 134.693C81.1574 134.693 79.4273 135.255 75.5751 138.256C78.8575 133.393 79.2745 131.233 78.6387 129.887C78.3331 129.235 77.6189 128.463 75.9715 128.463C71.6445 128.463 61.0832 134.078 45.2328 142.901C52.516 137.691 58.7957 133.132 63.4654 129.437C71.95 122.715 73.2961 120.246 72.7181 118.438C72.1235 116.58 69.6132 116.58 68.7874 116.58C67.6355 116.58 66.1492 116.737 64.3119 117.047C70.15 113.946 71.3886 112.055 71.05 110.329C70.5835 107.922 67.0287 106.799 57.9371 106.192C52.2559 105.812 44.7002 105.68 35.9513 105.602C45.1461 104.656 53.0815 103.781 59.0269 102.868C68.6016 101.394 72.0534 100.044 72.2227 97.7033C72.3342 96.188 71.1656 94.7636 66.244 92.9056C66.8014 92.9221 67.3258 92.9345 67.8254 92.9345C71.0376 92.9345 74.4067 92.629 75.0137 90.3747C75.9468 86.923 69.2045 82.2038 50.1791 70.9694C65.2946 77.9553 75.3729 82.2864 79.3489 82.2864C81.0582 82.2864 81.7271 81.5143 81.9873 80.8661C82.3836 79.8834 82.3754 78.5333 79.3449 74.805C82.7883 76.9313 84.4149 77.3442 85.4925 77.3442C86.8426 77.3442 87.4744 76.5928 87.7345 76.1469C88.647 74.5697 88.2671 71.6011 83.4612 62.2246C81.6032 58.5995 79.2622 54.3469 76.4918 49.4419C79.7494 54.0991 82.6642 58.1825 85.1498 61.4855C91.8673 70.412 94.3282 72.2039 96.1201 72.2039C96.8137 72.2039 97.4289 71.8983 97.85 71.3451C98.5272 70.4657 98.8408 68.8719 98.3454 65.2386C100.558 69.45 102.049 70.5524 103.449 70.5524C107.165 70.5524 108.213 63.0173 109.068 40.7673M108.779 11.3621C107.606 46.8779 107.491 69.2972 103.444 69.2972C101.487 69.2972 98.6096 64.0454 94.2496 52.493C97.6724 65.3377 98.1845 70.9487 96.1118 70.9487C92.3092 70.9487 79.832 52.0967 60.6909 24.3719C79.0558 56.4525 91.1243 76.0932 85.4885 76.0932C83.2052 76.0932 78.0152 72.8645 69.159 65.9364C80.3274 76.6712 83.0524 81.0353 79.3406 81.0353C73.8122 81.0353 53.9815 71.3327 26.5045 58.5582C63.0071 79.966 85.2158 91.6917 67.8171 91.6917C64.4935 91.6917 59.7248 91.2624 53.3375 90.3953C91.8467 100.086 62.2309 101.543 13.4988 106.654C62.2309 107.216 90.1456 105.577 52.1195 121.233C60.4431 118.909 65.8271 117.823 68.7792 117.823C79.7163 117.823 57.136 132.757 26.5087 154.751C51.4383 140.973 70.3936 129.706 75.9675 129.71C79.7247 129.71 77.4043 134.829 66.7355 147.748C75.3152 139.561 80.187 135.936 82.2844 135.94C87.5115 135.94 75.5257 158.429 60.6909 188.937C77.3836 163.132 89.58 142.819 93.7914 142.819C96.0788 142.819 96.0044 148.83 93.0027 163.24C97.3214 150.556 100.216 145.094 102.243 145.094C106.533 145.094 106.942 169.606 108.787 201.943C111.14 169.594 112.045 144.937 116.17 144.941C118.114 144.941 120.773 150.428 124.638 163.186C122.09 148.582 122.21 142.463 124.559 142.463C128.832 142.463 140.484 162.686 156.875 188.937C142.284 157.988 130.789 135.465 135.719 135.465C137.726 135.465 142.457 139.206 150.81 147.637C140.443 134.441 138.163 129.169 141.937 129.169C147.461 129.169 165.967 140.478 191.057 154.751C160.224 132.327 138.403 117.526 148.646 117.526C151.52 117.526 156.912 118.69 165.331 121.175C127.978 105.354 154.377 106.985 204.067 106.659C154.377 101.555 126.384 100.164 164.117 90.449C157.581 91.3986 152.759 91.8693 149.464 91.8693C133.114 91.8693 154.468 80.2963 191.057 58.5665C163.485 71.7373 144.175 81.4482 138.688 81.4482C134.964 81.4482 137.614 76.9685 148.391 66.0479C139.823 73.1535 134.815 76.473 132.647 76.473C127.371 76.473 138.911 56.8324 156.871 24.3843C138.159 52.5013 126.273 71.2501 122.371 71.2501C120.22 71.2501 120.492 65.5441 123.391 52.555C119.555 64.1569 116.958 69.4169 115.108 69.4169C111.277 69.4169 110.624 46.8944 108.783 11.3703L108.779 11.3621Z" fill="black"/>
</g>
<path d="M108.629 133.959C122.629 133.959 133.979 122.609 133.979 108.608C133.979 94.6071 122.629 83.2571 108.629 83.2571" stroke="black" stroke-width="0.857234" stroke-miterlimit="10"/>
<mask id="mask2_789_592" style="mask-type:luminance" maskUnits="userSpaceOnUse" x="106" y="42" width="139" height="189">
<path d="M207.953 42.1133C220.112 104.891 232.276 167.666 244.435 230.444C198.556 225.196 152.677 219.944 106.798 214.697C140.517 157.17 174.233 99.6397 207.953 42.1133Z" fill="white"/>
</mask>
<g mask="url(#mask2_789_592)">
<path d="M205.852 139.111C205.658 112.976 198.672 86.8324 180.262 66.8036C160.431 45.817 131.055 35.6973 104.428 44.5825C85.886 50.6601 71.0844 67.1959 67.1869 87.588C65.7211 95.6515 67.1083 103.253 69.9159 110.862C73.6731 118.95 80.7375 129.904 90.7044 129.479C90.2461 126.63 86.9224 126.138 85.0356 124.227C70.4032 108.488 71.9514 83.8142 86.27 68.2239C112.038 41.3001 156.146 49.12 178.301 78.6615C201.872 110.585 198.813 151.865 180.134 184.049C198.817 150.919 202.838 106.795 175.939 75.8044C162.252 60.0696 142.851 49.054 122.43 50.3752C108.186 51.2505 94.3789 59.2521 84.8249 71.0687C74.313 84.3056 70.4032 106.597 85.0604 118.063C78.9622 104.264 81.4187 87.6664 90.9727 75.8457C104.821 59.3016 128.091 57.5221 146.563 65.2141C161.245 71.4609 172.104 82.9059 179.151 97.1833C198.404 138.104 176.327 185.457 140.138 208.058C159.663 195.341 175.423 176.91 182.661 154.165C192.314 122.885 184.428 87.2453 156.517 68.5914C134.284 53.7649 103.421 55.9779 86.6911 78.2032C81.4311 85.7713 79.4699 97.6292 85.1263 105.726C86.1668 88.1701 100.481 73.0505 118.058 70.2925C147.038 65.693 170.646 89.5491 175.729 117.105C184.956 168.892 137.277 210.894 89.3337 211.121C116.873 209.362 143.986 198.111 161.666 174.941C181.736 148.463 184.296 112.402 163.065 86.659C151.744 72.8358 132.306 67.9886 114.251 72.171C103.318 74.9621 92.36 82.9761 91.3526 94.8381C102.356 77.8069 126.592 72.7078 144.094 84.19C170.584 101.886 174.201 137.505 157.929 163.529C132.562 204.697 78.4295 208.689 40.0937 186.662C71.3362 203.433 111.67 206.014 141.695 181.96C164.573 163.566 174.222 132.761 162.492 106.118C156.393 91.8488 143.635 80.8663 127.979 79.3593C118.962 78.839 108.987 80.2098 102.306 87.2989C101.353 88.2444 103.252 88.2527 103.248 88.7275C117.525 81.6796 135.068 85.0942 146.402 97.0181C160.097 110.854 161.418 131.271 155.155 148.801C145.048 176.278 115.535 192.269 87.0629 190.7C54.7923 189.111 26.9023 167.133 11.3781 139.524C24.0782 161.898 43.9212 180.036 69.5155 187.761C101.27 197.418 137.405 185.259 153.214 156.861C162.318 139.821 161.48 118.455 149.222 101.779C142.153 91.7745 128.912 81.7375 116.063 88.3187C137.892 89.3798 152.017 111.762 150.01 133.112C148.516 146.869 141.336 158.698 130.374 167.662C107.492 186.53 76.6458 185.424 52.0424 169.635C22.7073 150.973 10.5357 117.683 10.7009 85.4079C11.0642 107.245 15.2301 128.149 28.4216 147.204C47.7402 175.308 81.3691 189.718 112.273 179.433C130.815 173.355 145.617 156.819 149.515 136.427C150.981 128.364 149.593 120.763 146.786 113.153C143.029 105.065 135.964 94.1114 125.997 94.5367C126.456 97.3856 129.779 97.8769 131.666 99.7885C146.299 115.527 144.75 140.201 130.432 155.791C104.664 182.715 60.5559 174.895 38.4009 145.354C14.8296 113.43 17.8891 72.1504 36.5677 39.9665C17.8849 73.0959 13.8636 117.22 40.7626 148.211C54.4495 163.946 73.8508 174.961 94.2717 173.64C108.516 172.765 122.323 164.763 131.877 152.947C142.389 139.71 146.298 117.418 131.641 105.953C137.74 119.751 135.283 136.349 125.729 148.17C111.881 164.714 88.6111 166.493 70.1389 158.801C55.4569 152.554 44.5981 141.109 37.5503 126.832C18.2978 85.9117 40.3745 38.5586 76.5633 15.9576C57.0383 28.6743 41.2786 47.1052 34.0408 69.8507C24.3877 101.13 32.2738 136.77 60.1844 155.424C82.418 170.25 113.281 168.037 130.011 145.812C135.271 138.244 137.232 126.386 131.575 118.29C130.535 135.845 116.22 150.965 98.6441 153.723C69.6641 158.322 46.0556 134.466 40.9731 106.911C31.7452 55.1233 79.4245 13.1211 127.368 12.894C99.8289 14.6529 72.7152 25.9038 55.0358 49.0746C34.9657 75.5525 32.406 111.613 53.6362 137.356C64.9574 151.18 84.3957 156.027 102.451 151.844C113.384 149.053 124.342 141.039 125.349 129.177C114.346 146.208 90.1098 151.308 72.6079 139.825C46.1176 122.129 42.5009 86.5103 58.7724 60.4866C84.1397 19.3184 138.272 15.3259 176.608 37.353C145.365 20.5818 105.031 18.0014 75.0068 42.0557C52.1291 60.4494 42.4801 91.2543 54.21 117.897C60.3082 132.166 73.0663 143.149 88.7227 144.656C97.7399 145.176 107.715 143.806 114.395 136.716C115.349 135.771 113.45 135.763 113.454 135.288C99.1767 142.336 81.6335 138.921 70.3 126.997C56.6048 113.162 55.2835 92.7448 61.5469 75.214C71.6541 47.7369 101.167 31.7461 129.639 33.315C161.909 34.9046 189.799 56.8822 205.324 84.4914C192.623 62.1175 172.781 43.9797 147.186 36.2547C115.432 26.5975 79.2966 38.7568 63.4875 67.1546C54.3835 84.1941 55.2216 105.561 67.48 122.237C74.5485 132.241 87.7895 142.278 100.638 135.697C77.385 134.627 63.2686 110.825 67.1786 88.0586C73.5328 52.0184 112.546 34.6528 144.3 43.8352C171.79 51.5684 192.083 74.9332 200.328 101.655C203.858 112.687 205.683 125.42 205.844 139.115L205.852 139.111Z" fill="black" stroke="black" stroke-width="0.214309" stroke-miterlimit="10"/>
</g>
<path d="M-5.58752 17.7782C-5.58752 17.7782 105.328 205.461 108.627 211.039C108.627 209.354 109.069 -9.1167 109.069 -9.1167" stroke="black" stroke-width="0.642926" stroke-linecap="round" stroke-linejoin="round"/>
<path d="M-3.74573 20.9077C-3.65902 21.0564 -1.65655 24.4585 -1.56985 24.6071C10.0857 44.4129 21.7496 64.2104 33.4299 83.9997C58.343 126.217 83.314 168.396 108.339 210.543" stroke="black" stroke-width="0.642926" stroke-linecap="round" stroke-linejoin="round"/>
<path d="M108.565 211.245L222.854 17.8608" stroke="black" stroke-width="0.642926" stroke-linecap="round" stroke-linejoin="round"/>
<path d="M122.52 87.9803C123.486 89.1157 123.994 90.5691 123.879 92.0596C123.8 93.0835 123.561 94.4006 122.661 95.0282C122.264 95.3048 121.777 95.3296 121.315 95.4163C120.877 95.4988 120.472 95.6392 120.109 95.8993C119.482 96.3494 119.089 97.0306 118.767 97.7201C118.445 98.4096 118.164 99.1941 117.702 99.8382C117.289 100.416 116.777 100.689 116.075 100.763C114.969 100.883 113.8 100.829 112.69 100.78C111.579 100.73 110.468 100.569 109.378 100.313C108.796 100.177 108.548 101.073 109.131 101.209C111.273 101.713 113.511 101.837 115.708 101.721C116.451 101.684 117.202 101.564 117.797 101.085C118.466 100.548 118.862 99.7556 119.209 98.9877C119.556 98.2197 119.841 97.3733 120.452 96.8035C121.199 96.1058 122.339 96.37 123.164 95.792C124.308 94.9951 124.671 93.484 124.787 92.171C124.944 90.3833 124.32 88.6698 123.164 87.3114C122.776 86.8573 122.12 87.5138 122.508 87.9679L122.52 87.9803Z" fill="black"/>
<path d="M128.784 94.1565C129.342 95.9566 129.973 98.0995 129.49 99.9946C129.379 100.428 129.193 100.849 128.908 101.175C128.231 101.943 127.228 102.067 126.278 102.257C125.13 102.488 123.97 102.926 123.14 103.785C122.385 104.565 122.038 105.61 121.604 106.58C121.13 107.658 120.481 108.562 119.408 109.103C118.334 109.644 117.228 109.594 116.105 109.383C114.982 109.173 113.896 109.082 112.781 109.317C111.489 109.59 110.312 110.246 109.272 111.043C108.801 111.402 109.263 112.208 109.742 111.844C110.725 111.093 111.807 110.473 113.029 110.213C114.073 109.99 115.089 110.143 116.121 110.329C118.45 110.754 120.795 109.986 122.009 107.852C122.57 106.865 122.839 105.717 123.504 104.792C124.276 103.715 125.576 103.339 126.811 103.099C127.814 102.905 128.805 102.649 129.527 101.873C129.883 101.493 130.134 101.035 130.3 100.544C131.006 98.4422 130.304 95.936 129.68 93.917C129.503 93.3472 128.607 93.5908 128.784 94.1647V94.1565Z" fill="black"/>
<path d="M132.618 103.418C132.697 105.598 131.528 107.712 129.604 108.76C128.65 109.276 127.796 109.698 127.131 110.581C126.561 111.337 126.186 112.208 125.789 113.063C125.393 113.917 125.001 114.739 124.344 115.379C123.597 116.11 122.585 116.374 121.582 116.56C120.579 116.745 119.497 116.869 118.523 117.29C117.548 117.712 116.871 118.5 116.19 119.334C114.609 121.266 112.102 122.138 109.687 121.357C109.117 121.171 108.874 122.072 109.439 122.253C111.533 122.93 113.907 122.513 115.649 121.176C116.59 120.453 117.143 119.38 118.056 118.636C118.968 117.893 120.129 117.749 121.219 117.563C122.309 117.377 123.403 117.187 124.324 116.576C125.141 116.039 125.715 115.238 126.165 114.388C126.615 113.537 126.983 112.571 127.486 111.712C127.734 111.291 128.015 110.903 128.374 110.569C128.84 110.139 129.431 109.904 129.98 109.611C132.222 108.422 133.626 105.953 133.535 103.422C133.514 102.827 132.585 102.823 132.606 103.422L132.618 103.418Z" fill="black"/>
<path d="M109.041 84.0369C110.416 83.6075 111.906 83.7355 113.136 84.5075C114.305 85.2383 115.126 86.5595 115.296 87.9262C115.465 89.2928 114.809 90.7255 113.591 91.4769C112.373 92.2284 111.027 92.2655 109.755 91.8196C109.189 91.6214 108.946 92.5174 109.507 92.7156C111.918 93.5661 114.854 92.6123 115.898 90.1722C116.943 87.7321 115.531 84.6644 113.211 83.4836C111.84 82.7858 110.254 82.6867 108.793 83.145C108.223 83.3226 108.467 84.2185 109.041 84.041V84.0369Z" fill="black"/>
<path d="M131.929 115.841C131.095 116.622 131.049 117.757 130.513 118.703C130.1 119.429 129.323 119.759 128.588 120.082C127.053 120.755 125.5 121.366 123.939 121.977C122.465 122.555 121.384 123.57 120.513 124.871C119.505 126.382 118.147 127.497 116.475 128.211C114.014 129.26 111.285 128.979 109.216 127.237C108.762 126.853 108.101 127.509 108.56 127.893C110.43 129.466 112.812 130.119 115.215 129.586C117.04 129.185 118.915 128.162 120.203 126.799C120.859 126.105 121.293 125.251 121.9 124.52C122.465 123.83 123.209 123.31 124.014 122.943C124.253 122.835 124.769 122.658 125.124 122.522C126.14 122.134 127.135 121.704 128.134 121.279C129.133 120.854 130.207 120.515 130.921 119.722C131.755 118.793 131.689 117.344 132.593 116.498C133.031 116.089 132.374 115.433 131.937 115.841H131.929Z" fill="black"/>
<path d="M88.495 91.114C89.5438 90.6185 90.6999 90.3171 91.9344 90.3171C96.3935 90.3171 100.01 93.9339 100.01 98.393C100.01 102.852 96.3935 106.469 91.9344 106.469C87.4753 106.469 83.8584 102.852 83.8584 98.393C83.8584 98.3724 83.8627 98.3559 83.8627 98.3352C83.776 98.5334 83.6809 98.7233 83.5984 98.9256C82.3515 102.01 81.666 105.379 81.666 108.909C81.666 123.636 93.6065 135.573 108.33 135.573V82.2412C100.444 82.2412 93.3712 85.6722 88.491 91.1099L88.495 91.114Z" fill="black"/>
</g>
<path d="M123.07 71.9857C124.04 71.9857 124.973 71.131 124.928 70.1277C124.883 69.1244 124.111 68.2698 123.07 68.2698C122.1 68.2698 121.167 69.1244 121.212 70.1277C121.258 71.131 122.03 71.9857 123.07 71.9857Z" fill="black"/>
<path d="M144.987 94.1322C145.957 94.1322 146.89 93.2775 146.845 92.2742C146.8 91.2709 146.027 90.4163 144.987 90.4163C144.017 90.4163 143.084 91.2709 143.129 92.2742C143.174 93.2775 143.947 94.1322 144.987 94.1322Z" fill="black"/>
<path d="M144.987 122.278C145.957 122.278 146.89 121.423 146.845 120.42C146.8 119.417 146.027 118.562 144.987 118.562C144.017 118.562 143.084 119.417 143.129 120.42C143.174 121.423 143.947 122.278 144.987 122.278Z" fill="black"/>
<path d="M122.846 144.883C123.817 144.883 124.75 144.028 124.704 143.025C124.659 142.022 123.887 141.167 122.846 141.167C121.876 141.167 120.943 142.022 120.988 143.025C121.034 144.028 121.806 144.883 122.846 144.883Z" fill="black"/>
<path d="M34.4834 100.383C29.1986 99.2273 23.9881 102.617 22.8444 107.951C21.7007 113.286 25.0575 118.542 30.3424 119.698C35.6272 120.854 40.8377 117.464 41.9814 112.13C43.1251 106.795 39.7683 101.539 34.4834 100.383ZM38.1911 113.191C36.4735 116.424 32.4976 117.638 29.3102 115.899C26.1186 114.161 24.9253 110.127 26.6387 106.894C28.3563 103.662 32.3324 102.448 35.5199 104.186C38.7114 105.924 39.9045 109.958 38.1911 113.191Z" fill="black"/>
<path d="M45.7881 139.14C40.5032 137.984 35.2925 141.374 34.1489 146.708C33.0052 152.042 36.362 157.298 41.6468 158.454C46.9316 159.611 52.1422 156.221 53.2858 150.886C54.4295 145.552 51.0729 140.296 45.7881 139.14ZM49.4915 151.943C47.7739 155.176 43.798 156.39 40.6106 154.652C37.419 152.914 36.2257 148.88 37.9392 145.647C39.6567 142.414 43.6329 141.2 46.8203 142.938C50.0118 144.677 51.2049 148.711 49.4915 151.943Z" fill="black"/>
<path d="M73.24 166.592C67.9552 165.436 62.7447 168.826 61.601 174.16C60.4573 179.495 63.8141 184.751 69.0989 185.907C74.3838 187.063 79.5943 183.673 80.738 178.339C81.8817 173.004 78.5249 167.748 73.24 166.592ZM76.9436 179.396C75.2261 182.629 71.2499 183.842 68.0625 182.104C64.871 180.366 63.6779 176.332 65.3913 173.099C67.1089 169.867 71.0848 168.653 74.2722 170.391C77.4638 172.129 78.6571 176.163 76.9436 179.396Z" fill="black"/>
</svg>
