<?xml version="1.0" encoding="UTF-8"?>
<svg id="Camada_2" data-name="Camada 2" xmlns="http://www.w3.org/2000/svg" viewBox="0 0 356.16 153.91">
  <g id="Camada_1-2" data-name="Camada 1">
    <g>
      <path d="M300.84,87.75c-.5-.12-.35.1-.49.27-3.54,4.5-6.13,6.99-11.77,8.9-16.52,5.58-34.65-3.53-39.78-20.14-7.69-24.9,11.9-48.9,38.06-42.3,6.59,1.66,9.17,4.09,13.38,9.01.19.22.21.44.6.35V4.72c0-.3.85-1.75,1.1-2.09,3.41-4.67,10.6-2.3,10.85,3.36l-.03,86.74c-.77,4.62-6.42,6.76-9.99,3.63-.58-.51-1.94-2.5-1.94-3.18v-5.44ZM300.83,65.98c0-11.47-9.3-20.77-20.78-20.77s-20.78,9.3-20.78,20.77,9.3,20.77,20.78,20.77,20.78-9.3,20.78-20.77Z"/>
      <path d="M188.65,44.48l2.24-2.99c21.88-19.27,52.21-1.88,50.88,26.55-1.24,26.37-30.2,40.02-50.56,23.23l-2.55-3.31v34.64c0,1.2-1.47,3.44-2.45,4.16-4.14,3.04-9.63-.02-9.71-5l.03-82.05c.57-4.87,6.04-7.3,9.89-4.17.91.74,2.24,2.77,2.24,3.94v5.01ZM229.88,66.05c0-11.44-9.28-20.71-20.72-20.71s-20.72,9.27-20.72,20.71,9.28,20.71,20.72,20.71,20.72-9.27,20.72-20.71Z"/>
      <path d="M151.54,43.84v-3.73c0-7.21,10.84-8.06,12.11-1.01v53.82c-1.3,7.05-12.11,6.11-12.11-1.01v-4.16l-2.76,3.53c-9.81,9.14-25.39,9.31-36.46,2.32-18.47-11.66-19.3-41.28-1.7-54.1,12.05-8.78,31.82-8.52,40.93,4.35ZM151.72,65.98c0-11.49-9.32-20.8-20.81-20.8s-20.81,9.31-20.81,20.8,9.32,20.8,20.81,20.8,20.81-9.31,20.81-20.8Z"/>
      <path d="M44.41,77.37c-1.59-1.73-3.96,1.37-5.41,2.24-13.22,7.92-28.81-6.34-22.15-20.21,4.56-9.49,19.44-11.89,25.59-3.18,3.47,4.92-1.88,11.48-7.49,8.77-1.88-.91-2.19-2.53-4.85-2.15-1.63.23-2.91,1.88-2.9,3.5.01,1.92,2.97,3.48,1.18,5.44-1.98,2.17-4.25-1.12-4.84-2.85-2.16-6.28,3.6-12.16,9.91-9.9,1.66.6,3.69,3.29,5.27,1.97,2.59-2.16-3.32-5.17-5.07-5.58-14.78-3.5-19.46,17.58-6.28,21.62,5.73,1.75,7.87-.26,12.05-3.19,6.21-4.36,13.73,3.82,6.88,10.07-13.32,12.16-35.6,3.72-38.44-13.82-3.27-20.22,18.62-34.43,35.75-23.15.97.64,3.65,3.2,4.27,3.4,1.39.45,2.42-.43,2.1-1.88-.21-.96-3.04-3.11-3.94-3.74-11.92-8.38-28.52-5.87-36.93,6.07-17.27,24.55,13.96,56.04,39.21,35.99,1.43-1.14,3.73-4.46,5.64-2.44,1.67,1.77-.45,3.54-1.7,4.67-13.68,12.37-33.78,10.85-45.31-3.52-17.7-22.05.8-54.21,28.83-49.48,5.39.91,13.92,4.72,17.2,9.24,3.53,4.87-.81,11.08-6.51,9.06-1.64-.58-2.67-1.99-4.02-3.02-14.88-11.34-35.35,2.69-29.8,20.62,3.46,11.18,16.39,16.68,26.94,11.46,1.63-.81,6.8-3.86,4.83-6.02Z"/>
      <path d="M336.88,34.88h12.05c.76,0,2.52,1.49,2.97,2.15,1.97,2.82.73,6.58-2.5,7.71-.22.08-1.42.38-1.54.38h-10.98v46.79c0,7.08-10.96,8.14-12.14.83l-.03-67.77c.59-9.9,4.22-19.71,14.25-23.28,3.27-1.16,9.05-2.04,12.43-1.45,5.13.89,6.51,7.65,2.19,10.53-1.98,1.32-3.57.73-5.72.89-12.84.96-10.98,13.8-10.99,23.23Z"/>
      <path d="M81.38,45.12v47.85c0,.19-.67,1.64-.85,1.93-2.85,4.77-10.05,3.46-11.08-1.94.06-19.24-.16-38.56,0-57.74.07-9.58-.82-19.83,5.76-27.71C79.82,1.97,88.82-.87,95.89.24c4.74.74,6.64,6.63,3.09,9.93-2.18,2.02-3.82,1.27-6.4,1.49-5.59.48-9.04,3.02-10.45,8.52-.85,3.31-1.15,10.59-.76,13.97.04.31.03.55.33.74h11.94c.32,0,1.59.81,1.91,1.07,3.01,2.46,2.29,7.29-1.32,8.69-.25.09-1.52.47-1.66.47h-11.2Z"/>
      <path d="M200.86,132.99c.33-.24.73-.25,1.11-.28,2.39-.17,6.2-.23,8.33.86,5.28,2.68,4.84,13.02-1.08,14.7-1.67.47-5.74.69-7.44.42-.39-.06-.72-.2-.95-.54l.03-15.17ZM202.73,146.57h5.65c.09,0,1.4-.79,1.6-.95,2.83-2.32,2.59-8.35-.57-10.31-.27-.17-1.46-.67-1.67-.67h-5.01v11.94Z"/>
      <path d="M113.37,147.21c-4.39,4.16-10.8-.2-8.84-5.96,1.26-3.69,6.08-4.89,8.74-1.93l.53-1.39c1.04-.42,1.6.29,1.71,1.28.31,2.7.33,10.75-.03,13.41-.28,2.08-2.11,1.12-2.11.66v-6.07ZM112.44,140.68c-1.95-2.08-5.76-.99-6.11,1.94-.75,6.13,8.4,5.3,6.9-.49-.11-.41-.49-1.15-.78-1.46Z"/>
      <path d="M244.32,123.13v5.86c0,.82-1.84,1.54-2.12-.23.34-4.3-.51-9.43-.02-13.63.23-1.98,2.31-1.79,2.14.11,4.19-3.79,9.95-.43,9.07,5.13-.69,4.4-6.07,5.94-9.08,2.76ZM246.82,115.72c-1.18.24-2.33,1.67-2.48,2.85-.69,5.27,6.42,5.41,7,1.67.48-3.05-1.4-5.16-4.52-4.52Z"/>
      <path d="M312.36,132.4c.24-.83,2.01-.65,1.9.44-.27,4.68.42,9.87.03,14.49-.17,2.05-2.01,1.78-2.04-.12-2.02,1.88-4.88,2.27-7.15.54-4.75-3.62-1.08-11.73,4.96-9.86,1.09.34,1.35,1.07,2.3,1.43v-6.93ZM308.47,139.6c-4.43.15-4.43,6.63-.68,7.17,5.88.85,5.69-7.34.68-7.17Z"/>
      <path d="M204.65,108.31c.22-.71,2.04-.7,1.9.44-.32,4.7.49,10.09.03,14.71-.09.91-.53,1.54-1.51,1.06-.72-.36-.14-1.59-.74-1.39-.19.07-.14.37-.33.51-4.53,3.47-10.05-1.09-8.37-6.44.95-3.01,4.45-4.39,7.32-3.13l1.71,1.17v-6.93ZM204.62,119.22c0-2.01-1.63-3.63-3.64-3.63s-3.64,1.63-3.64,3.63,1.63,3.63,3.64,3.63,3.64-1.63,3.64-3.63Z"/>
      <path d="M175.64,132.4c.22-.71,2.04-.7,1.9.44-.32,4.7.49,10.09.03,14.71-.19,1.92-2.11,1.41-2.04-.33-1.12.9-2.13,1.64-3.66,1.69-8.11.28-6.97-13.36,1.46-11.01l2.3,1.43v-6.93ZM175.6,143.24c0-2.01-1.63-3.64-3.64-3.64s-3.64,1.63-3.64,3.64,1.63,3.64,3.64,3.64,3.64-1.63,3.64-3.64Z"/>
      <path d="M114.22,108.53c.22-.78,1.72-1.05,1.92,0-.32,2.09.5,14.91-.19,15.79s-2.12-.04-1.73-1.19c-4.51,4.09-10.44.16-9.02-5.72.95-3.95,6.33-5.07,9.03-2.17.31-1.74-.42-5.2,0-6.71ZM114.23,119.2c0-2.01-1.63-3.63-3.64-3.63s-3.64,1.63-3.64,3.63,1.63,3.63,3.64,3.63,3.64-1.63,3.64-3.63Z"/>
      <path d="M232.74,108.68c.68-.2,1.7-.05,2.03.65l5.24,13.74c.29.95-.25,1.83-1.3,1.51-.86-.26-1.25-3.21-1.75-3.81-.4-.49-5.76-.1-6.79-.18-.7.24-1.2,3.52-1.84,3.91-.94.57-2.04-.3-1.57-1.34,1.59-3.82,2.83-7.78,4.39-11.61.3-.73.87-2.67,1.59-2.89ZM236,118.65c-.48-1.81-1.11-3.63-1.76-5.38-.24-.66-.5-1.67-1.01-2.08l-2.35,7.46h5.12Z"/>
      <path d="M71.14,142.74v5.44c0,.67-1.92.67-1.92,0v-14.92s.33-.38.43-.42c.89-.42,6.88-.13,7.97.34,3.22,1.39,3.39,6.97.55,8.81-.43.28-2.01.76-2.44.76h-4.59ZM71.35,140.61h5.01c.25,0,1.18-.92,1.35-1.2.72-1.23.57-3.15-.5-4.13-.12-.11-1.01-.64-1.07-.64h-4.8v5.97Z"/>
      <path d="M155.59,139.33c-.37-1.64,1.82-2.08,2.08-.7-.14,2.74.37,6.03.06,8.7-.23,2.01-2.1,1.67-2.24-.11-2.37,2.81-7.36,1.79-8.68-1.56-2.32-5.88,4.2-10.72,8.78-6.33ZM151.71,139.58c-1.89.15-3.49,1.97-3.35,3.87.35,5.02,8.07,4.31,7.22-1.02-.25-1.59-2.3-2.97-3.87-2.85Z"/>
      <path d="M302.97,115.24c-.04-.6-.06-1.21.58-1.46l.98.17.3.59c-.14,1.49.43,9.06-.14,9.78-.3.38-.9.4-1.3.2-.71-.35-.16-1.63-.74-1.39-2.21,2.82-7.12,1.81-8.54-1.28-2.19-4.78,2.28-10,7.15-7.79.72.33.95,1.05,1.7,1.17ZM298.22,115.72c-1.48.27-2.41,1.59-2.51,3.03-.38,5.21,6.61,5.32,7.05,1.08.3-2.92-1.66-4.64-4.54-4.11Z"/>
      <path d="M153.68,115.24c-.41-1.51,1.55-2.2,1.87-.7.26,1.18.24,7.8.06,9.13-.11.83-.71,1.24-1.5.84-.71-.35-.16-1.63-.74-1.39-3.09,3.47-8.68,1.2-9.06-3.31-.36-4.27,3.69-7.57,7.68-5.76.72.33.95,1.05,1.7,1.17ZM148.93,115.72c-3.91.73-3.2,7.61,1.38,7.15s4.3-8.2-1.38-7.15Z"/>
      <path d="M347.55,139.33c-.47-1.53,1.65-2.14,1.92-.74-.24,1.53.41,9.06-.19,9.82-.67.85-2.08.04-1.73-1.08l-.42-.11c-.07.56-.8.97-1.28,1.17-4.69,1.97-8.8-2.39-7.32-7.1,1.2-3.81,6.29-4.84,9.02-1.96ZM347.54,143.25c0-2.01-1.63-3.64-3.65-3.64s-3.65,1.63-3.65,3.64,1.63,3.64,3.65,3.64,3.65-1.63,3.65-3.64Z"/>
      <path d="M128.29,115.24c-.39-1.44,1.65-2.15,1.92-.74-.24,1.53.41,9.06-.19,9.82-.28.35-.92.42-1.3.2l-.42-1.39c-4.36,4.16-10.69,0-9.02-5.72,1.16-3.99,6.14-5.02,9.02-2.17ZM123.55,115.72c-3.84.79-3.06,7.51,1.38,7.15,4.92-.39,4.41-8.35-1.38-7.15Z"/>
      <path d="M319.18,144.02c.07,2.47,2.49,3.42,4.71,2.89,1.05-.25,1.32-1.39,2.43-1.41,1.8.65-.1,2.27-1.08,2.75-4.15,2.02-8.56-1.03-8.18-5.62.49-5.87,8.82-6.84,10.55-1.38.29.9.59,2.08-.21,2.77h-8.21ZM325.79,142.52c-.12-4.06-6.54-4.01-6.61,0h6.61Z"/>
      <path d="M211.48,119.93c0,2.84,3.67,3.82,5.74,2.44.71-.47,1.23-1.74,2.11-.37.56,1.86-3.37,2.89-4.75,2.83-4.27-.18-6.55-5.08-4.43-8.68,2.06-3.5,7.87-3.44,9.54.36.26.6,1.02,3.41,0,3.41h-8.21ZM218.09,118.44c-.07-4-6.43-4.05-6.61,0h6.61Z"/>
      <path d="M83.51,144.02c.34,2.67,3.58,3.88,5.74,2.44.49-.33,1.61-1.8,2.26-.52.44.86-1.03,1.97-1.74,2.32-3.31,1.61-7.66-.13-8.17-3.93-1.13-8.56,11.32-9,10.65-.66-.04.14-.48.36-.54.36h-8.21ZM90.33,142.52c-.24-3.87-5.83-4.08-6.74-.44l.24.44h6.51Z"/>
      <path d="M292.31,144.02c.26,2.73,3.54,3.85,5.75,2.44.65-.41,1.15-1.64,2.13-.61.86,1.16-1.82,2.56-2.71,2.8-3.14.84-6.69-.87-7.09-4.31-.98-8.52,10.09-8.47,10.67-2.13.04.43.02,1.81-.53,1.81h-8.21ZM292.31,142.52h6.51l.29-.49c-.92-3.68-6.52-3.27-6.79.49Z"/>
      <path d="M282.5,141.88c-.21.21.22,5.11-.05,6.03-.28.98-1.87,1.11-2.04,0l-.06-14.04c.04-.69.5-1.09,1.17-1.17,1.26-.16,6.26-.17,7.43.06,1.3.25.57,1.87.25,1.87h-6.72v5.12h4.8c1.19,0,1.19,2.13,0,2.13h-4.8Z"/>
      <path d="M271.32,143.25c0,3.12-2.53,5.64-5.65,5.64s-5.65-2.53-5.65-5.64,2.53-5.64,5.65-5.64,5.65,2.53,5.65,5.64ZM269.31,143.26c0-2.02-1.63-3.65-3.65-3.65s-3.65,1.63-3.65,3.65,1.63,3.65,3.65,3.65,3.65-1.63,3.65-3.65Z"/>
      <path d="M191.63,143.25c0,3.12-2.53,5.65-5.65,5.65s-5.65-2.53-5.65-5.65,2.53-5.65,5.65-5.65,5.65,2.53,5.65,5.65ZM185.83,139.6c-4.85.19-4.43,7.43.16,7.36s4.76-7.56-.16-7.36Z"/>
      <path d="M285.58,119.2c0,3.12-2.53,5.65-5.65,5.65s-5.65-2.53-5.65-5.65,2.53-5.65,5.65-5.65,5.65,2.53,5.65,5.65ZM283.58,119.22c0-2.02-1.64-3.66-3.66-3.66s-3.66,1.64-3.66,3.66,1.64,3.66,3.66,3.66,3.66-1.64,3.66-3.66Z"/>
      <path d="M266.84,119.2c0,3.11-2.53,5.64-5.64,5.64s-5.64-2.52-5.64-5.64,2.53-5.64,5.64-5.64,5.64,2.52,5.64,5.64ZM264.84,119.22c0-2.02-1.64-3.66-3.66-3.66s-3.66,1.64-3.66,3.66,1.64,3.66,3.66,3.66,3.66-1.64,3.66-3.66Z"/>
      <path d="M169.58,119.2c0,3.11-2.53,5.64-5.64,5.64s-5.64-2.52-5.64-5.64,2.53-5.64,5.64-5.64,5.64,2.52,5.64,5.64ZM167.59,119.22c0-2.02-1.64-3.66-3.66-3.66s-3.66,1.64-3.66,3.66,1.64,3.66,3.66,3.66,3.66-1.64,3.66-3.66Z"/>
      <path d="M71.14,117.8v6.29c0,.67-1.92.67-1.92,0v-14.71c0-.14.69-.69.96-.74.96-.18,6.22-.15,7.23,0,.53.08.9.32,1.1.83.18.26-.3,1.07-.45,1.07h-6.61l-.32.32v4.69l.32.32h5.12c.68,0,.54,1.92-.43,1.92h-5.01Z"/>
      <path d="M136.78,126.8c.38.4.1,1.19,1.21,1.02,1.3-.2.55-2.67-.15-3.04-.5-.26-1.28-.3-1.93-.62-5.73-2.89-2.39-12.51,4.66-10.2.94.31,2.43.93,1.7,2.14-.57.95-2.45-.59-3.59-.56-5.19.11-4.63,7.6.15,7.37,1.06-.05,3.96-2.08,3.55.33-.21,1.22-2.96,1.31-2.98,1.71,2.85,3.22-2.39,6.41-3.68,2.82-.39-1.07.64-1.41,1.07-.95Z"/>
      <path d="M100.36,117.91c-.47-3.34-5.09-2.82-5.53.01-.24,1.58.37,4.99-.16,6.23-.38.9-1.87.71-2-.9-.16-1.92-.24-6.51,0-8.33s2.29-1.4,2.15.33c1.7-2,4.97-2.32,6.61-.1.26.35.85,1.57.85,1.92v7.03c0,.67-1.92.67-1.92,0,0-1.81.24-4.51,0-6.18Z"/>
      <path d="M128.3,147.96c-.22,1.18-2.36.92-1.92-.63l-.42-.11c-.07.7-1.09,1.18-1.71,1.38-2.99.98-5.24-.81-5.54-3.84-.12-1.18-.2-5.12,0-6.17.17-.9,1.35-1.04,1.91-.43v6.18c0,.11.42,1.21.52,1.4,1.26,2.34,5.24.82,5.24-1.83v-5.54c0-.67,1.92-.67,1.92,0v9.59Z"/>
      <path d="M81.8,120.89c.49,2.77,5.07,2.53,5.53-.44.19-1.21-.46-6.33.58-6.67.77-.25,1.26.15,1.36.92.24,1.84.19,6.86,0,8.76-.1,1-.41,1.4-1.51,1.06l-.42-1.39c-1.57,1.86-4.8,2.43-6.51.43-.24-.28-.95-1.57-.95-1.82v-7.46c0-.67,1.92-.67,1.92,0,0,1.79-.28,5.04,0,6.61Z"/>
      <path d="M227.2,144.71c-1.12-1.18-5.09-.36-5.47-3.38-.47-3.75,5.04-4.87,6.81-2.33.71,1.03-.07,2.22-.97,1.61-1-.68-1.83-2.03-3.31-.77-2.32,1.97,2.34,2.53,3.27,2.94,3.5,1.5,2.02,5.98-1.91,6.12-1.79.06-4.79-1.35-3.91-3.51,1.48-.89,1.66,1.17,2.76,1.51.62.19,1.9.2,2.44-.14.61-.38.76-1.56.29-2.06Z"/>
      <path d="M101.37,140.55c-.96.96-1.87-1.26-3.23-1.22-1.08.03-2.04,1.05-1.51,2.12.46.94,3.81.89,4.89,2.15,2.79,3.25-2.39,6.84-5.84,4.55-.69-.45-2.09-2.07-1.24-2.81,1.08-.94,1.69.85,2.18,1.23,1.49,1.17,4.59.09,3.41-1.69-.92-1.37-5.54-.48-5.65-3.97-.1-3.31,4.93-4.35,6.73-2.02.36.47.82,1.1.26,1.65Z"/>
      <path d="M142.22,140.54c-.2-.17-.22-.51-.62-.76-1.18-.76-2.86-.42-3.02,1.11.16,1.93,5.1.92,5.66,3.92.71,3.79-4.04,5.05-6.63,3.22-.64-.45-1.76-1.99-1-2.63,1.36-.82,1.55.89,2.48,1.36,1.22.62,3.4.4,3.27-1.34-.1-1.41-2.99-1.43-4.05-1.93-4.16-1.96-.26-7.81,4.21-5.27,2.25,1.28.87,3.31-.3,2.32Z"/>
      <path d="M256.48,137.84c3.18-.5,3.2,2.2,0,1.7-.29.29.22,7,0,8.2-.24,1.28-1.86,1.34-2.12-.22-.2-1.2.27-7.7-.01-7.98l-1.72-.09c-.73-1.43.49-1.8,1.72-1.61.17-1.5-.78-4.72,1.71-3.95.74.44.31,3.1.42,3.95Z"/>
      <path d="M233.02,134.1c2.7-1.44,1.78,2.16,1.92,3.73,1.37-.21,3.18.13,2,1.67l-2,.03c-.23,2.57.33,5.7-.02,8.2-.04.26-.1.62-.34.77-.87.4-1.44.22-1.57-.75-.32-2.38.28-5.41-.02-7.87l-.32-.32c-2.75.17-2.19-2.24.35-1.73v-3.73Z"/>
      <path d="M353.67,131.9c1-.27,1.28.81,1.35,1.56.29,3.24.36,10.71,0,13.87-.21,1.84-1.95,1.78-2.15.22-.56-4.4.45-9.99,0-14.52-.03-.42.41-1.02.81-1.13Z"/>
      <path d="M239.42,138.37c.14-.5,1.2-.75,1.62-.34l.3,1.94c.86-.94,1.12-1.96,2.55-2.25,1.26-.26,2.95.19,2.16,1.73-1.87.16-3.24-.07-4.07,1.9-.18.42-.64,1.99-.64,2.35v4.48c0,.67-1.92.67-1.92,0v-9.8Z"/>
      <path d="M337.07,139.51c-2.88-.28-4.31.95-4.64,3.78-.12,1.06.34,4.9-.5,5.27s-1.34.07-1.45-.81c-.37-2.82.21-6.59.12-9.5.52-.67,1.44-.64,1.72.2.16.49-.1,1.3.31,1.5.44-2.03,2.94-3.15,4.6-1.7l-.15,1.25Z"/>
      <path d="M248.73,137.87c.31-.1.86-.1,1.14.07.32.29.38.66.43,1.06.31,2.71-.23,5.97,0,8.74-.6,1.52-1.95,1.18-2.13-.42-.21-1.79-.21-6.53,0-8.32.05-.4.15-.99.57-1.13Z"/>
      <path d="M270.28,113.79c.94-.29,1.25.3,1.35,1.13.19,1.69.23,7.11-.02,8.73s-1.93,1.24-2.12-.41c-.2-1.74-.2-6.37,0-8.11.06-.48.28-1.19.79-1.34Z"/>
      <path d="M216.81,138.37c.23-.83,1.92-.54,1.92,0v9.8c0,.67-1.92.67-1.92,0v-9.8Z"/>
      <path d="M131.71,138.37c.23-.83,1.92-.54,1.92,0v9.8c0,.67-1.92.67-1.92,0v-9.8Z"/>
      <path d="M153.22,109.09c.23,2.66-2.05,3.24-3.92,1.67l-.44.2c-.67,1.98-2.29.87-1.12-.9,1.49-2.24,2.77.07,3.48.08.8.01.61-1.88,2-1.05Z"/>
      <path d="M296.52,108.25c.74-.16,1.07-.07,1.55.49.37.43,2.1,3.02,1.49,3.42-.8.29-3.52-2.42-3.74-2.88-.11-.23-.19-.42,0-.64.2-.18.44-.32.7-.37Z"/>
      <circle cx="217.75" cy="133.85" r="1.39"/>
      <circle cx="249.23" cy="133.87" r="1.38"/>
      <circle cx="132.65" cy="133.86" r="1.38"/>
      <circle cx="270.57" cy="109.83" r="1.37"/>
    </g>
  </g>
</svg>