<?xml version="1.0" encoding="UTF-8"?>
<svg id="Camada_2" data-name="Camada 2" xmlns="http://www.w3.org/2000/svg" viewBox="0 0 247.05 149.99">
  <g id="Camada_1-2" data-name="Camada 1">
    <path d="M0,149.99V0h101.5c.18,0,1.73,1.01,2.02,1.28l19.83,25.49L143.17,1.29c.26-.33,1.38-1.29,1.65-1.29h102.23v149.99h-108.29v-18.71c-1.46.25-2.82-.3-4.21-.38-6.98-.42-16.53-.38-23.52,0-.5.03-2.62.15-2.75.62l-.35,18.1-2.21.36H0ZM88.65,20.9h-54.88v104.89h46.62v-52.26l.73-.37,27.26,31.82h30.28c8.94-9.19,16.47-20.12,25.07-29.6.65-.72,1.37-1.51,2.19-2.03l.53,52.1,47.19-.02V21.45l-.55-.55h-55.06c-.18,0-1.73,1.01-2.02,1.28l-32.12,41.26c-.59.02-.92-.55-1.27-.93-10.89-11.93-20.01-27.29-30.86-39.22-.76-.84-1.98-2.19-3.11-2.39Z"/>
  </g>
</svg>