<svg width="130" height="132" viewBox="0 0 130 132" fill="none" xmlns="http://www.w3.org/2000/svg">
<path d="M65.2281 4.60183C99.1352 4.60183 126.622 32.0889 126.622 65.996C126.622 99.903 99.1352 127.39 65.2281 127.39C31.3211 127.39 3.83386 99.903 3.83386 65.996C3.83386 32.0889 31.3211 4.60183 65.2281 4.60183Z" stroke="#2C53A1" stroke-width="1.55081" stroke-miterlimit="10"/>
<path d="M129.442 48.513C129.225 65.6903 124.546 82.8485 112.38 95.947C99.2812 109.671 79.94 116.22 62.469 110.297C50.3025 106.243 40.632 95.3214 38.1361 81.9102C37.1978 76.6057 38.1361 71.614 40.0064 66.6223C42.5022 61.3178 47.1811 54.143 53.7304 54.4558C53.4176 56.3261 51.2344 56.6389 49.9897 57.89C40.3191 68.1862 41.2574 84.406 50.6153 94.6959C67.4607 112.473 96.4726 107.488 111.129 88.1466C126.723 67.2479 124.853 40.1062 112.686 18.8947C124.853 40.7318 127.348 69.7437 109.565 90.0169C100.52 100.313 87.7276 107.488 74.3164 106.55C64.9585 105.924 55.9134 100.626 49.6705 92.8256C42.8085 84.0933 40.3127 69.4309 49.9833 61.9434C45.9299 70.9884 47.4875 81.9102 53.724 89.7041C62.769 100.62 78.0569 101.871 90.2234 96.8789C99.894 92.8256 107.069 85.338 111.748 75.9801C124.54 49.1513 110.19 17.9627 86.4829 2.9876C99.2749 11.4071 109.565 23.5736 114.244 38.5487C120.48 59.1347 115.182 82.5294 96.7726 94.6959C82.1103 104.366 61.837 102.809 50.9152 88.1466C47.4811 83.1549 46.2363 75.3546 49.9769 70.0565C50.6025 81.5974 59.9603 91.5808 71.5012 93.4511C90.5297 96.5725 106.124 80.9718 109.558 62.8817C115.795 28.8781 84.6062 1.11732 53.0984 0.804538C71.1886 2.04927 88.9723 9.53682 100.513 24.8247C113.612 42.2957 115.176 66.0031 101.139 82.8421C93.6513 91.8872 80.8655 95.0086 69.0118 92.2C61.8371 90.3297 54.6623 85.0252 54.0367 77.2249C61.2115 88.453 77.1186 91.8872 88.6595 84.3997C106.13 72.8587 108.626 49.4641 98.0173 32.3059C81.4847 5.16429 45.9236 2.36204 20.6587 16.7116C41.2447 5.79623 67.7608 4.23234 87.4148 20.1458C102.39 32.3123 108.626 52.5855 100.826 70.0565C96.7727 79.4143 88.3467 86.5891 78.0569 87.5275C72.1268 87.8402 65.5777 86.9019 61.2115 82.223C60.586 81.5974 61.8371 81.5974 61.8371 81.2846C71.1949 85.9636 82.7358 83.7805 90.2234 75.9801C99.2685 66.9351 100.207 53.5175 96.1471 41.9765C89.5979 23.8864 70.2567 13.2774 51.5409 14.2157C30.3294 15.1541 11.9263 29.5037 1.63014 47.5938C10.0497 32.9315 23.1546 21.0777 40 16.086C60.8988 9.8496 84.6062 17.9563 94.9024 36.672C100.826 47.9002 100.207 61.937 92.0936 72.8587C87.4147 79.408 78.6824 85.9572 70.2565 81.591C84.6061 80.9655 93.9639 66.3031 92.7192 52.2663C91.7808 43.2213 87.1021 35.4209 79.9273 29.4973C64.9522 17.018 44.6788 17.6436 28.459 27.9398C9.11772 40.1062 1.01099 61.9434 1.01099 83.1549C1.32377 68.8054 4.13244 55.0814 12.8647 42.6021C25.6568 24.1992 47.8003 14.8413 68.0799 21.7033C80.2464 25.7567 89.917 36.6784 92.4128 50.0896C93.3511 55.3941 92.4128 60.3858 90.5426 65.3776C88.0467 70.682 83.3678 77.8568 76.8186 77.544C77.1313 75.6737 79.3145 75.361 80.5592 74.1098C90.2298 63.8137 89.2915 47.5938 79.9337 37.304C63.0882 19.5266 34.0763 24.5119 19.4204 43.8532C3.82606 64.752 5.69639 91.8936 17.8629 113.105C5.69639 91.268 3.20047 62.2561 20.9842 41.9829C30.0293 31.6867 42.8213 24.5119 56.2325 25.4503C65.5904 26.0758 74.6355 31.3739 80.8784 39.1743C87.7404 47.9066 90.2362 62.5689 80.5656 70.0565C84.619 61.0114 83.0614 50.0896 76.8249 42.2957C67.7799 31.3803 52.492 30.1292 40.3255 35.1209C30.6549 39.1743 23.4801 46.6618 18.8012 56.0197C6.00915 82.8485 20.3586 114.037 44.066 129.012C31.274 120.593 20.9842 108.426 16.3052 93.4511C10.0688 72.8651 15.367 49.4705 33.7763 37.304C48.4386 27.6333 68.7118 29.1909 79.6335 43.8532C83.0677 48.8449 84.3126 56.6453 80.572 61.9434C79.9464 50.4024 70.5884 40.419 59.0475 38.5487C40.019 35.4273 24.4248 51.028 20.9906 69.1181C14.7542 103.122 45.9427 130.883 77.4505 131.195C59.3603 129.951 41.5766 122.463 30.0356 107.175C16.9372 89.7042 15.3733 65.9967 29.4101 49.1577C36.8977 40.1126 49.6834 36.9912 61.5371 39.7998C68.7119 41.6701 75.8866 46.9746 76.5122 54.775C69.3374 43.5468 53.4303 40.1126 41.8894 47.6002C24.4184 59.1411 21.9226 82.5358 32.5316 99.694C49.0642 126.836 84.6253 129.638 109.89 115.288C89.3042 126.204 62.7881 127.768 43.1341 111.854C28.159 99.6876 21.9225 79.4143 29.7229 61.9434C33.7762 52.5855 42.2022 45.4107 52.492 44.4724C58.4157 44.1596 64.9712 45.0979 69.3374 49.7769C69.963 50.4024 68.7118 50.4024 68.7118 50.7152C59.354 46.0363 47.8131 48.2194 40.3255 56.0197C31.2804 65.0648 30.3421 78.4824 34.4018 90.0233C40.9511 108.113 60.2923 118.722 79.008 117.784C100.22 116.846 118.623 102.496 128.919 84.406C120.499 99.0684 107.394 110.922 90.5489 115.914C69.6502 122.15 45.9427 114.044 35.6465 95.3278C29.7165 84.0997 30.3422 70.0629 38.4553 59.1411C43.1342 52.5919 51.8665 46.0427 60.2924 50.4088C45.0045 51.0344 35.6465 66.6287 38.1423 81.6038C42.1957 105.311 67.7735 116.852 88.6787 110.928C106.769 105.937 120.186 90.6553 125.695 73.1204C128.051 65.8818 129.295 57.5198 129.448 48.5194L129.442 48.513Z" stroke="#2C53A1" stroke-width="1.03388" stroke-miterlimit="10"/>
<path d="M63.8608 85.4651L59.3607 83.0522L54.3051 77.6137L54.937 81.067L56.0095 84.6416L52.8305 80.0202L50.59 74.154L49.9964 70.0559L47.7814 73.739L48.3049 67.1771L49.9964 61.9428L47.0154 64.9429L44.9089 68.6835L45.2217 65.1982L49.0772 58.9171L51.5922 56.7787L53.737 54.4552L50.5964 54.8957L46.3196 56.6447L51.1007 52.8339L56.6414 50.8551L59.9415 50.421L57.2542 49.2848H52.5625L55.652 48.4167L63.8608 48.9401L68.7121 50.7146L69.3377 49.7763L64.3587 46.2655L67.1802 46.3932L72.8549 50.3699L76.5124 54.768L75.657 51.0147L72.1782 45.7357L77.4252 51.4296L79.9977 57.9596L80.5659 61.9428L82.1745 58.6873L82.7361 57.4298L82.0786 65.6004L80.5659 70.0559L83.7639 66.7558L85.8065 62.9003L84.6894 68.1984L80.5659 74.1093L77.3934 76.3562L76.8188 77.5435L82.3085 75.9859L78.587 79.484L71.8081 81.4692L71.8462 82.2862L75.523 83.5054L68.3355 83.3969L62.2204 81.4628L61.2246 82.2224L63.8608 85.4651Z" fill="#2C53A1"/>
</svg>
