<?xml version="1.0" encoding="UTF-8"?>
<svg id="Camada_2" data-name="Camada 2" xmlns="http://www.w3.org/2000/svg" viewBox="0 0 530.98 146.87">
  <defs>
    <style>
      .cls-1 {
        fill: none;
        stroke: #000;
        stroke-miterlimit: 10;
        stroke-width: 1.67px;
      }
    </style>
  </defs>
  <g id="Camada_1-2" data-name="Camada 1">
    <g>
      <g>
        <rect class="cls-1" x=".83" y=".83" width="529.31" height="104.64"/>
        <path d="M97.12,105.47c-.93,0-.92-.83-.92-.83-1.48-16.88-1.97-33.84-1.59-50.79.32-14.45,1.15-28.87,1.17-43.32,0-.13-.11-.25-.24-.25h-7.44c-.14,0-.25-.11-.25-.24v-2.36c0-.13.11-.24.25-.24h7.44c.13,0,.24-.11.24-.24V1.07c0-.13.11-.24.24-.24h2.19c.14,0,.25.11.25.24v6.11c0,.14.11.24.25.24h7.44c.14,0,.24.11.24.24v2.36c0,.14-.11.24-.24.24h-7.44c-.14,0-.25.11-.25.25.02,14.45.84,28.88,1.17,43.32.38,16.95-.11,33.9-1.59,50.79,0,0,0,.83-.92.83"/>
        <path d="M109.5,18.6c-1.7,7.51-3.4,15.27-3.44,23-.05,9.68,2.56,18.07,7.17,26.52,0,.02.02.04.03.06l15.53,33.13c.24.52.04,1.14-.47,1.42-.51.28-1.14.11-1.44-.38l-19.12-30.58s0,0,0-.01c-3.05-4.38-5.15-9.15-6.22-14.37-2.66-13,1.5-27.2,5.87-39.38.19-.54.77-.84,1.32-.68.56.16.89.72.76,1.29"/>
        <path d="M69.37,23.27c-.23-.51-.05-1.1.43-1.39.47-.29,1.09-.17,1.43.28,12.39,16.33,14.77,32.15-3.32,45.23-3.69,2.67-7.47,5.21-11.28,7.69-4.16,2.71-8.36,5.34-12.59,7.93-4.63,2.84-9.29,5.63-13.96,8.4-.5.3-1.15.15-1.47-.34-.31-.48-.2-1.13.27-1.48l35.53-25.88c4.68-3.41,9.13-7.67,10.76-13.4,1.1-3.87.78-7.87-.11-11.74-1.2-5.21-3.45-10.47-5.69-15.31"/>
        <path d="M76.02,20.41c-.18-.54.1-1.12.62-1.34.52-.21,1.12,0,1.37.51,2.92,5.87,5.7,12.15,7.31,18.53,1.33,5.25,1.85,10.69.66,16.02-1.5,6.7-5.46,12.02-10.56,16.48-4.77,4.17-9.58,8.28-14.48,12.3-4.02,3.31-8.1,6.54-12.22,9.72-2.19,1.69-4.4,3.37-6.61,5.04-.45.35-1.1.28-1.47-.15-.37-.43-.33-1.07.07-1.47l31.25-30.58c3.76-3.67,7.29-7.85,8.85-12.96,1.29-4.25,1.07-8.7.35-13.03-.48-2.88-1.18-5.74-1.96-8.54-.97-3.54-2.07-7.04-3.19-10.53"/>
        <path d="M84.92,18.6c-.13-.56.21-1.13.76-1.29.55-.16,1.13.14,1.33.68,4.37,12.18,8.53,26.38,5.87,39.38-1.07,5.23-3.17,10-6.22,14.37,0,0,0,0,0,.01l-19.12,30.58c-.31.49-.94.66-1.44.38-.5-.27-.71-.9-.47-1.42l15.53-33.13s.02-.04.03-.06c4.61-8.45,7.23-16.84,7.17-26.52-.05-7.73-1.74-15.48-3.44-23"/>
        <path d="M125.05,23.27c-2.24,4.84-4.49,10.09-5.69,15.31-.89,3.87-1.21,7.87-.11,11.74,1.63,5.74,6.08,9.99,10.76,13.4l35.53,25.88c.47.34.59.99.27,1.48-.32.48-.97.64-1.46.34-4.67-2.77-9.33-5.56-13.96-8.4-4.23-2.59-8.43-5.23-12.59-7.93-3.82-2.48-7.6-5.02-11.28-7.69-18.09-13.08-15.71-28.9-3.32-45.23.33-.44.95-.56,1.43-.28.48.29.66.89.43,1.39"/>
        <path d="M118.4,20.41c-1.12,3.49-2.22,7-3.2,10.53-.77,2.81-1.47,5.67-1.95,8.54-.72,4.33-.94,8.78.35,13.03,1.56,5.11,5.09,9.29,8.85,12.96l31.25,30.58c.4.4.44,1.04.07,1.47-.37.43-1.01.49-1.47.15-2.21-1.67-4.41-3.35-6.61-5.04-4.12-3.18-8.2-6.41-12.22-9.72-4.89-4.02-9.71-8.13-14.48-12.3-5.1-4.45-9.05-9.78-10.55-16.48-1.2-5.33-.67-10.77.66-16.02,1.61-6.37,4.39-12.65,7.3-18.53.25-.5.85-.72,1.37-.51.52.22.8.8.62,1.34"/>
        <path d="M231.69,84.84c-2.68,1.34-8.72,2.78-16.59,2.78-22.34,0-33.84-13.9-33.84-32.31,0-22.05,15.72-34.32,35.28-34.32,7.57,0,13.33,1.53,15.91,2.88l-2.97,11.6c-2.97-1.25-7.09-2.4-12.27-2.4-11.6,0-20.61,7-20.61,21.38,0,12.94,7.67,21.09,20.71,21.09,4.41,0,9.3-.96,12.18-2.11l2.21,11.41Z"/>
        <path d="M266.01,86.66l-.86-4.7h-.29c-3.07,3.74-7.86,5.75-13.42,5.75-9.49,0-15.15-6.9-15.15-14.38,0-12.18,10.93-18.02,27.51-17.93v-.67c0-2.49-1.34-6.04-8.53-6.04-4.79,0-9.87,1.63-12.94,3.55l-2.68-9.4c3.26-1.82,9.68-4.12,18.22-4.12,15.63,0,20.61,9.2,20.61,20.23v16.3c0,4.51.19,8.82.67,11.41h-13.13ZM264.29,64.51c-7.67-.1-13.61,1.73-13.61,7.38,0,3.74,2.49,5.56,5.75,5.56,3.64,0,6.61-2.4,7.57-5.37.19-.77.29-1.63.29-2.49v-5.08Z"/>
        <path d="M305.03,26.36v13.42h10.45v10.74h-10.45v16.97c0,5.66,1.34,8.24,5.75,8.24,1.82,0,3.26-.19,4.31-.38l.1,11.02c-1.92.77-5.37,1.25-9.49,1.25-4.7,0-8.63-1.63-10.93-4.03-2.69-2.78-4.03-7.29-4.03-13.9v-19.17h-6.23v-10.74h6.23v-10.16l14.29-3.26Z"/>
        <path d="M369.26,62.69c0,17.16-12.18,25.02-24.73,25.02-13.71,0-24.25-9.01-24.25-24.16s9.97-24.83,25.02-24.83,23.97,9.87,23.97,23.97M335.32,63.17c0,8.05,3.35,14.09,9.59,14.09,5.66,0,9.3-5.66,9.3-14.09,0-7-2.69-14.09-9.3-14.09-7,0-9.59,7.19-9.59,14.09M360.06,19.36l-11.7,14.57h-10.07l8.24-14.57h13.52Z"/>
        <rect x="377.79" y="18.59" width="14.57" height="68.07"/>
        <path d="M418.73,26.74c0,4.03-3.07,7.29-7.86,7.29s-7.67-3.26-7.57-7.29c-.1-4.22,2.97-7.38,7.67-7.38s7.67,3.16,7.77,7.38M403.68,39.78h14.57v46.88h-14.57v-46.88Z"/>
        <path d="M464.65,85.51c-2.59,1.15-7.48,2.11-13.04,2.11-15.15,0-24.83-9.2-24.83-23.97,0-13.71,9.4-24.93,26.84-24.93,3.83,0,8.05.67,11.12,1.82l-2.3,10.83c-1.73-.77-4.31-1.44-8.15-1.44-7.67,0-12.65,5.46-12.56,13.13,0,8.63,5.75,13.13,12.85,13.13,3.45,0,6.14-.58,8.34-1.44l1.73,10.74Z"/>
        <path d="M499.25,86.66l-.86-4.7h-.29c-3.07,3.74-7.86,5.75-13.42,5.75-9.49,0-15.15-6.9-15.15-14.38,0-12.18,10.93-18.02,27.52-17.93v-.67c0-2.49-1.34-6.04-8.53-6.04-4.79,0-9.87,1.63-12.94,3.55l-2.68-9.4c3.26-1.82,9.68-4.12,18.22-4.12,15.63,0,20.61,9.2,20.61,20.23v16.3c0,4.51.19,8.82.67,11.41h-13.13ZM497.53,64.51c-7.67-.1-13.61,1.73-13.61,7.38,0,3.74,2.49,5.56,5.75,5.56,3.64,0,6.62-2.4,7.57-5.37.19-.77.29-1.63.29-2.49v-5.08Z"/>
      </g>
      <g>
        <path d="M6.56,121.22v14.53c0,4.34,1.65,6.55,4.57,6.55s4.64-2.1,4.64-6.55v-14.53h5.69v14.15c0,7.79-3.93,11.49-10.52,11.49s-10.11-3.52-10.11-11.57v-14.08h5.73Z"/>
        <path d="M25.91,133.99c0-2.28-.08-4.23-.15-5.84h4.94l.26,2.51h.11c.75-1.16,2.62-2.92,5.65-2.92,3.74,0,6.55,2.47,6.55,7.86v10.86h-5.69v-10.15c0-2.36-.82-3.97-2.88-3.97-1.57,0-2.51,1.09-2.88,2.13-.15.34-.23.9-.23,1.42v10.56h-5.69v-12.47Z"/>
        <path d="M53.43,123.05c0,1.57-1.2,2.85-3.07,2.85s-3-1.27-2.96-2.85c-.04-1.65,1.16-2.88,3-2.88s2.99,1.24,3.03,2.88ZM47.55,146.46v-18.31h5.69v18.31h-5.69Z"/>
        <path d="M61.74,128.15l2.47,8.5c.45,1.53.79,3,1.05,4.46h.11c.3-1.5.6-2.88,1.01-4.46l2.36-8.5h5.99l-6.82,18.31h-5.69l-6.66-18.31h6.18Z"/>
        <path d="M80.87,139.12c.19,2.36,2.51,3.48,5.17,3.48,1.95,0,3.52-.26,5.05-.75l.75,3.86c-1.87.75-4.16,1.12-6.63,1.12-6.22,0-9.77-3.59-9.77-9.32,0-4.64,2.88-9.77,9.25-9.77,5.92,0,8.16,4.6,8.16,9.14,0,.97-.11,1.83-.19,2.25h-11.79ZM87.57,135.22c0-1.39-.6-3.71-3.22-3.71-2.4,0-3.37,2.17-3.52,3.71h6.74Z"/>
        <path d="M95.95,134.17c0-2.7-.08-4.46-.15-6.03h4.9l.19,3.37h.15c.94-2.66,3.18-3.78,4.94-3.78.52,0,.79,0,1.2.07v5.35c-.41-.07-.9-.15-1.53-.15-2.1,0-3.52,1.12-3.89,2.88-.08.37-.11.82-.11,1.27v9.29h-5.69v-12.28Z"/>
        <path d="M109.84,141.48c1.05.64,3.22,1.39,4.9,1.39s2.43-.6,2.43-1.53-.56-1.39-2.7-2.1c-3.78-1.27-5.24-3.33-5.2-5.5,0-3.41,2.92-5.99,7.45-5.99,2.13,0,4.05.49,5.17,1.05l-1.01,3.93c-.82-.45-2.4-1.05-3.97-1.05-1.39,0-2.17.56-2.17,1.5,0,.86.71,1.31,2.96,2.1,3.48,1.2,4.94,2.96,4.98,5.65,0,3.41-2.7,5.92-7.94,5.92-2.4,0-4.53-.52-5.92-1.27l1.01-4.08Z"/>
        <path d="M131.7,123.05c0,1.57-1.2,2.85-3.07,2.85s-3-1.27-2.96-2.85c-.04-1.65,1.16-2.88,3-2.88s2.99,1.24,3.03,2.88ZM125.82,146.46v-18.31h5.69v18.31h-5.69Z"/>
        <path d="M153.53,119.87v21.12c0,2.06.07,4.23.15,5.47h-5.05l-.26-2.7h-.08c-1.16,2.06-3.37,3.11-5.73,3.11-4.34,0-7.83-3.71-7.83-9.4-.04-6.18,3.82-9.74,8.2-9.74,2.25,0,4.01.79,4.83,2.06h.07v-9.92h5.69ZM147.84,135.9c0-.3-.04-.71-.07-1.01-.34-1.53-1.57-2.81-3.33-2.81-2.58,0-3.93,2.32-3.93,5.2,0,3.11,1.53,5.05,3.9,5.05,1.65,0,2.96-1.12,3.29-2.73.11-.41.15-.82.15-1.31v-2.4Z"/>
        <path d="M168.2,146.46l-.34-1.83h-.11c-1.2,1.46-3.07,2.25-5.24,2.25-3.71,0-5.92-2.7-5.92-5.62,0-4.76,4.27-7.04,10.75-7v-.26c0-.97-.52-2.36-3.33-2.36-1.87,0-3.86.64-5.05,1.39l-1.05-3.67c1.27-.71,3.78-1.61,7.11-1.61,6.1,0,8.05,3.59,8.05,7.9v6.36c0,1.76.08,3.44.26,4.46h-5.13ZM167.53,137.81c-3-.04-5.32.67-5.32,2.88,0,1.46.98,2.17,2.25,2.17,1.42,0,2.58-.94,2.96-2.1.07-.3.11-.64.11-.97v-1.98Z"/>
        <path d="M195,119.87v21.12c0,2.06.07,4.23.15,5.47h-5.05l-.26-2.7h-.08c-1.16,2.06-3.37,3.11-5.73,3.11-4.34,0-7.83-3.71-7.83-9.4-.04-6.18,3.82-9.74,8.2-9.74,2.25,0,4.01.79,4.83,2.06h.07v-9.92h5.69ZM189.31,135.9c0-.3-.04-.71-.07-1.01-.34-1.53-1.57-2.81-3.33-2.81-2.58,0-3.93,2.32-3.93,5.2,0,3.11,1.53,5.05,3.9,5.05,1.65,0,2.96-1.12,3.29-2.73.11-.41.15-.82.15-1.31v-2.4Z"/>
        <path d="M203.65,139.12c.19,2.36,2.51,3.48,5.17,3.48,1.95,0,3.52-.26,5.05-.75l.75,3.86c-1.87.75-4.16,1.12-6.63,1.12-6.22,0-9.77-3.59-9.77-9.32,0-4.64,2.88-9.77,9.25-9.77,5.92,0,8.16,4.6,8.16,9.14,0,.97-.11,1.83-.19,2.25h-11.79ZM210.35,135.22c0-1.39-.6-3.71-3.22-3.71-2.4,0-3.37,2.17-3.52,3.71h6.74Z"/>
        <path d="M244.72,145.74c-1.05.52-3.41,1.09-6.48,1.09-8.72,0-13.22-5.43-13.22-12.62,0-8.61,6.14-13.4,13.78-13.4,2.96,0,5.2.6,6.22,1.12l-1.16,4.53c-1.16-.49-2.77-.94-4.79-.94-4.53,0-8.05,2.73-8.05,8.35,0,5.06,3,8.24,8.09,8.24,1.72,0,3.63-.37,4.75-.82l.86,4.46Z"/>
        <path d="M258,146.46l-.34-1.83h-.11c-1.2,1.46-3.07,2.25-5.24,2.25-3.71,0-5.92-2.7-5.92-5.62,0-4.76,4.27-7.04,10.75-7v-.26c0-.97-.52-2.36-3.33-2.36-1.87,0-3.86.64-5.05,1.39l-1.05-3.67c1.27-.71,3.78-1.61,7.11-1.61,6.1,0,8.05,3.59,8.05,7.9v6.36c0,1.76.08,3.44.26,4.46h-5.13ZM257.33,137.81c-3-.04-5.32.67-5.32,2.88,0,1.46.98,2.17,2.25,2.17,1.42,0,2.58-.94,2.96-2.1.07-.3.11-.64.11-.97v-1.98Z"/>
        <path d="M273.13,122.9v5.24h4.08v4.19h-4.08v6.63c0,2.21.52,3.22,2.25,3.22.71,0,1.27-.07,1.68-.15l.04,4.31c-.75.3-2.1.49-3.71.49-1.83,0-3.37-.64-4.27-1.57-1.05-1.09-1.57-2.85-1.57-5.43v-7.49h-2.43v-4.19h2.43v-3.97l5.58-1.27Z"/>
        <path d="M298.1,137.1c0,6.7-4.75,9.77-9.66,9.77-5.35,0-9.47-3.52-9.47-9.44s3.9-9.7,9.77-9.7,9.36,3.86,9.36,9.36ZM284.84,137.28c0,3.15,1.31,5.5,3.74,5.5,2.21,0,3.63-2.21,3.63-5.5,0-2.73-1.05-5.5-3.63-5.5-2.73,0-3.74,2.81-3.74,5.5ZM294.5,120.17l-4.57,5.69h-3.93l3.22-5.69h5.28Z"/>
        <path d="M301.31,119.87h5.69v26.58h-5.69v-26.58Z"/>
        <path d="M317.19,123.05c0,1.57-1.2,2.85-3.07,2.85s-3-1.27-2.96-2.85c-.04-1.65,1.16-2.88,3-2.88s2.99,1.24,3.03,2.88ZM311.31,146.46v-18.31h5.69v18.31h-5.69Z"/>
        <path d="M335.01,146.01c-1.01.45-2.92.82-5.09.82-5.92,0-9.7-3.59-9.7-9.36,0-5.36,3.67-9.74,10.48-9.74,1.5,0,3.15.26,4.34.71l-.9,4.23c-.67-.3-1.68-.56-3.18-.56-3,0-4.94,2.13-4.9,5.13,0,3.37,2.25,5.13,5.02,5.13,1.35,0,2.4-.22,3.26-.56l.67,4.19Z"/>
        <path d="M348.41,146.46l-.34-1.83h-.11c-1.2,1.46-3.07,2.25-5.24,2.25-3.71,0-5.92-2.7-5.92-5.62,0-4.76,4.27-7.04,10.75-7v-.26c0-.97-.52-2.36-3.33-2.36-1.87,0-3.86.64-5.05,1.39l-1.05-3.67c1.27-.71,3.78-1.61,7.11-1.61,6.1,0,8.05,3.59,8.05,7.9v6.36c0,1.76.08,3.44.26,4.46h-5.13ZM347.73,137.81c-3-.04-5.32.67-5.32,2.88,0,1.46.98,2.17,2.25,2.17,1.42,0,2.58-.94,2.96-2.1.07-.3.11-.64.11-.97v-1.98Z"/>
        <path d="M382.47,119.87v21.12c0,2.06.07,4.23.15,5.47h-5.05l-.26-2.7h-.08c-1.16,2.06-3.37,3.11-5.73,3.11-4.34,0-7.83-3.71-7.83-9.4-.04-6.18,3.82-9.74,8.2-9.74,2.25,0,4.01.79,4.83,2.06h.07v-9.92h5.69ZM376.78,135.9c0-.3-.04-.71-.07-1.01-.34-1.53-1.57-2.81-3.33-2.81-2.58,0-3.93,2.32-3.93,5.2,0,3.11,1.53,5.05,3.9,5.05,1.65,0,2.96-1.12,3.29-2.73.11-.41.15-.82.15-1.31v-2.4Z"/>
        <path d="M391.12,139.12c.19,2.36,2.51,3.48,5.17,3.48,1.95,0,3.52-.26,5.05-.75l.75,3.86c-1.87.75-4.16,1.12-6.63,1.12-6.22,0-9.77-3.59-9.77-9.32,0-4.64,2.88-9.77,9.25-9.77,5.92,0,8.16,4.6,8.16,9.14,0,.97-.11,1.83-.19,2.25h-11.79ZM397.82,135.22c0-1.39-.6-3.71-3.22-3.71-2.4,0-3.37,2.17-3.52,3.71h6.74Z"/>
        <path d="M413.65,121.56c1.5-.3,4.53-.52,7.38-.52,3.48,0,5.62.34,7.45,1.42,1.76.94,3.03,2.66,3.03,4.94s-1.31,4.34-4.16,5.39v.07c2.88.79,5.02,2.96,5.02,6.22,0,2.28-1.05,4.08-2.62,5.35-1.83,1.46-4.9,2.28-9.92,2.28-2.81,0-4.91-.19-6.18-.37v-24.79ZM419.3,131.22h1.87c3,0,4.6-1.24,4.6-3.11s-1.46-2.92-4.04-2.92c-1.24,0-1.95.07-2.43.15v5.88ZM419.3,142.41c.56.07,1.24.07,2.21.07,2.58,0,4.87-.97,4.87-3.63s-2.28-3.56-5.13-3.56h-1.95v7.11Z"/>
        <path d="M435.77,134.17c0-2.7-.08-4.46-.15-6.03h4.9l.19,3.37h.15c.94-2.66,3.18-3.78,4.94-3.78.52,0,.79,0,1.2.07v5.35c-.41-.07-.9-.15-1.53-.15-2.1,0-3.52,1.12-3.89,2.88-.08.37-.11.82-.11,1.27v9.29h-5.69v-12.28Z"/>
        <path d="M459.7,146.46l-.34-1.83h-.11c-1.2,1.46-3.07,2.25-5.24,2.25-3.71,0-5.92-2.7-5.92-5.62,0-4.76,4.27-7.04,10.75-7v-.26c0-.97-.52-2.36-3.33-2.36-1.87,0-3.86.64-5.05,1.39l-1.05-3.67c1.27-.71,3.78-1.61,7.11-1.61,6.1,0,8.05,3.59,8.05,7.9v6.36c0,1.76.08,3.44.26,4.46h-5.13ZM459.02,137.81c-3-.04-5.32.67-5.32,2.88,0,1.46.98,2.17,2.25,2.17,1.42,0,2.58-.94,2.96-2.1.07-.3.11-.64.11-.97v-1.98Z"/>
        <path d="M468.72,141.48c1.05.64,3.22,1.39,4.9,1.39s2.43-.6,2.43-1.53-.56-1.39-2.7-2.1c-3.78-1.27-5.24-3.33-5.2-5.5,0-3.41,2.92-5.99,7.45-5.99,2.13,0,4.04.49,5.17,1.05l-1.01,3.93c-.82-.45-2.4-1.05-3.97-1.05-1.39,0-2.17.56-2.17,1.5,0,.86.71,1.31,2.96,2.1,3.48,1.2,4.94,2.96,4.98,5.65,0,3.41-2.7,5.92-7.94,5.92-2.4,0-4.53-.52-5.92-1.27l1.01-4.08Z"/>
        <path d="M484.7,146.46v-18.31h5.69v18.31h-5.69ZM493.61,120.17l-4.57,5.69h-3.93l3.22-5.69h5.28Z"/>
        <path d="M494.66,119.87h5.69v26.58h-5.69v-26.58Z"/>
        <path d="M510.53,123.05c0,1.57-1.2,2.85-3.07,2.85s-3-1.27-2.96-2.85c-.04-1.65,1.16-2.88,3-2.88s2.99,1.24,3.03,2.88ZM504.65,146.46v-18.31h5.69v18.31h-5.69Z"/>
        <path d="M525.02,146.46l-.34-1.83h-.11c-1.2,1.46-3.07,2.25-5.24,2.25-3.71,0-5.92-2.7-5.92-5.62,0-4.76,4.27-7.04,10.75-7v-.26c0-.97-.52-2.36-3.33-2.36-1.87,0-3.86.64-5.05,1.39l-1.05-3.67c1.27-.71,3.78-1.61,7.11-1.61,6.1,0,8.05,3.59,8.05,7.9v6.36c0,1.76.08,3.44.26,4.46h-5.13ZM524.34,137.81c-3-.04-5.32.67-5.32,2.88,0,1.46.98,2.17,2.25,2.17,1.42,0,2.58-.94,2.96-2.1.07-.3.11-.64.11-.97v-1.98Z"/>
      </g>
    </g>
  </g>
</svg>