<svg width="142" height="142" viewBox="0 0 142 142" fill="none" xmlns="http://www.w3.org/2000/svg">
<path fill-rule="evenodd" clip-rule="evenodd" d="M125.212 116.85C135.685 104.48 142 88.4775 142 71C142 31.7878 110.212 0 71 0C31.7878 0 0 31.7878 0 71C0 88.1824 6.10359 103.939 16.2609 116.221C29.2838 131.967 48.9702 142 71 142C92.7347 142 112.188 132.234 125.212 116.85ZM120.022 110.574C107.173 96.5934 89.7224 88 70.5 88C51.5444 88 34.3116 96.3565 21.5155 109.995C33.0526 124.615 50.9303 134 71 134C90.8035 134 108.473 124.863 120.022 110.574ZM70.5 82C83.4787 82 94 71.4787 94 58.5C94 45.5213 83.4787 35 70.5 35C57.5213 35 47 45.5213 47 58.5C47 71.4787 57.5213 82 70.5 82Z" fill="#4F4F4F"/>
<path d="M120.022 110.574C107.173 96.5934 89.7224 88 70.5 88C51.5444 88 34.3116 96.3565 21.5155 109.995C33.0526 124.615 50.9303 134 71 134C90.8035 134 108.473 124.863 120.022 110.574Z" fill="#C6C6C6"/>
<path d="M94 58.5C94 71.4787 83.4787 82 70.5 82C57.5213 82 47 71.4787 47 58.5C47 45.5213 57.5213 35 70.5 35C83.4787 35 94 45.5213 94 58.5Z" fill="#C6C6C6"/>
</svg>
