<svg width="120" height="120" viewBox="0 0 120 120" fill="none" xmlns="http://www.w3.org/2000/svg">
<path d="M59.8327 118.666C27.3403 118.666 0.999977 92.3253 0.99998 59.8328C0.999982 27.3403 27.3403 0.999992 59.8328 0.999995C92.3252 0.999998 118.666 27.3403 118.666 59.8328C118.666 92.3253 92.3252 118.666 59.8327 118.666Z" stroke="#C91E1D" stroke-width="1.55081" stroke-miterlimit="10"/>
<path d="M28.5921 62.5711C27.3349 44.9033 40.6383 29.5616 58.3061 28.3044C75.9738 27.0473 91.3155 40.3508 92.5726 58.0185C93.8298 75.6863 80.5263 91.0279 62.8586 92.285C45.1908 93.5422 29.8492 80.2388 28.5921 62.5711Z" stroke="#C91E1D" stroke-width="1.55081" stroke-miterlimit="10"/>
<path d="M42.7068 33.5161C42.6901 33.5154 42.6648 33.5179 42.6326 33.5435L42.5974 33.5776C41.3309 35.0674 40.5788 36.9205 40.6111 38.8569L40.6277 39.2456C40.7243 40.6102 41.0171 42.053 41.8484 43.0894L42.0222 43.2915C42.5394 43.8546 43.1228 44.0377 43.8367 44.1929L44.5964 44.3511L44.5974 44.352C45.6988 44.5936 46.3422 45.2992 46.8298 46.1558L47.03 46.5308C47.2311 46.9298 47.4165 47.3641 47.6042 47.7895C47.7936 48.2186 47.9873 48.6427 48.2087 49.0395C48.6242 49.7841 49.1259 50.4082 49.8523 50.7642L50.0007 50.8315C50.5789 51.0756 51.2206 51.1454 51.8806 51.1675L52.5447 51.1782C53.7653 51.1889 54.9797 51.1905 56.1824 51.0854L56.697 51.0327C58.1205 50.8688 59.5277 50.5781 60.9607 50.3188C62.2093 50.093 63.4723 49.8927 64.7546 49.8315L65.3054 49.814C66.819 49.7953 68.3736 50.0322 69.7537 50.6245C70.4451 50.9213 71.0775 51.3194 71.6892 51.7036C72.2294 52.0429 72.7546 52.3712 73.3113 52.6323L73.5515 52.7397C75.5207 53.5704 77.5785 52.8458 79.2322 51.5356L79.5574 51.2661C81.1211 49.9105 82.1732 47.985 83.0134 46.061L83.0125 46.061C83.8753 44.0759 84.4523 42.0006 84.8025 39.8667L84.9392 38.9487L84.9392 38.9478C84.9493 38.8731 84.9267 38.8498 84.9177 38.8413C84.9008 38.8253 84.8616 38.8047 84.7976 38.8052C84.6798 38.806 84.5798 38.8694 84.5447 38.9722L84.5339 39.0181C84.2098 41.4769 83.5593 43.9063 82.531 46.1685L82.321 46.6187L82.3201 46.6196C81.4144 48.4886 80.2751 50.3367 78.5056 51.5659L78.1433 51.8032C76.9736 52.524 75.6114 52.9466 74.2175 52.5581L73.9392 52.4692L73.9382 52.4692C73.2852 52.2355 72.6943 51.8806 72.1306 51.521C71.7023 51.2477 71.2928 50.9741 70.8728 50.7339L70.448 50.5063L70.448 50.5054C68.35 49.4564 66.129 49.2606 63.7263 49.5093L63.2429 49.5649C61.9431 49.7289 60.6574 49.9867 59.3513 50.2241C58.0503 50.4606 56.7343 50.6743 55.3962 50.7456L55.3962 50.7466C54.5042 50.7974 53.5946 50.8139 52.6941 50.7954L51.7966 50.7651C51.0008 50.7284 50.1116 50.6316 49.4314 50.0063L49.4324 50.0054C48.7157 49.3503 48.3 48.4947 47.9363 47.6577C47.612 46.9115 47.331 46.188 46.9226 45.5601L46.739 45.2974C46.3114 44.729 45.7759 44.313 45.1277 44.0933L44.8425 44.0112L44.8406 44.0112C44.5878 43.9488 44.3448 43.9031 44.0964 43.853C43.852 43.8037 43.6049 43.7503 43.366 43.6714C42.939 43.5303 42.5386 43.309 42.1863 42.895L42.0378 42.7056C41.3888 41.8003 41.1372 40.6512 41.0388 39.5835L41.0056 39.1323L41.0056 39.1313C40.898 37.2245 41.6102 35.3646 42.825 33.9282L42.8347 33.9145L42.8425 33.9028L42.8523 33.8911L42.8787 33.854C42.9296 33.7644 42.9079 33.6593 42.8279 33.5786C42.7839 33.5343 42.738 33.5175 42.7068 33.5161Z" fill="#C91E1D" stroke="#C91E1D" stroke-width="0.516938"/>
<path d="M34.5289 41.6599C34.5012 41.6726 34.4739 41.6944 34.4528 41.7341L34.4342 41.78L34.4332 41.78C33.9316 43.4104 33.2994 45.6843 33.3121 47.7585C33.3244 49.7634 33.9342 51.5123 35.778 52.3601L35.9606 52.4392L35.9615 52.4392C36.4886 52.6576 37.0481 52.7774 37.6344 52.8914C38.0685 52.9757 38.5204 53.0573 38.9674 53.1755L39.4127 53.3074C40.837 53.7802 41.9149 54.6517 42.6295 55.9402L42.7672 56.2029L42.7682 56.2029C43.0504 56.7734 43.292 57.3871 43.5397 57.9597C43.7906 58.5397 44.0516 59.0898 44.3824 59.573C45.046 60.5419 45.9555 61.2922 47.0582 61.7498C48.0221 62.1496 49.0662 62.2859 50.1051 62.2029L50.5504 62.154L50.5514 62.154C51.7626 61.9881 52.9874 61.6439 54.3453 61.7839L54.6188 61.8181C55.7213 61.9844 56.7158 62.463 57.6676 62.946L58.6071 63.4187C59.6022 63.8962 60.6234 63.8855 61.7369 63.7888L62.2194 63.7439C62.8612 63.6802 63.5297 63.6075 64.2291 63.6765L64.5309 63.7146C65.1305 63.8098 65.7198 63.9941 66.2828 64.1931L66.8365 64.3943L66.8375 64.3943C67.5895 64.6748 68.3284 64.986 69.0621 65.2937C69.6136 65.525 70.1621 65.755 70.7155 65.9705L71.2711 66.1804C73.8687 67.1374 76.611 67.7632 79.3405 67.4333L79.8864 67.3552C82.3633 66.9394 84.2754 65.5486 86.191 63.9197L86.1901 63.9197C88.2435 62.1709 90.1946 60.2931 92.068 58.3464L92.069 58.3464C92.1201 58.2926 92.1297 58.2447 92.1266 58.2058C92.1228 58.16 92.0988 58.1068 92.0553 58.0632C92.0116 58.0196 91.9616 57.9985 91.9215 57.9958C91.897 57.9943 91.8665 57.999 91.8307 58.0242L91.7936 58.0564L91.7926 58.0564C89.8306 60.0982 87.7812 62.0692 85.6071 63.8933L85.6071 63.8923C84.6482 64.7046 83.6539 65.5259 82.4908 66.1042L82.4908 66.1033C81.0015 66.8479 79.3479 67.1412 77.7096 67.1287L77.3824 67.1218C74.6635 67.04 72.0942 66.115 69.6383 65.1082L68.5924 64.6736C67.326 64.1416 66.0411 63.5748 64.7252 63.3494L64.4615 63.3083L64.4606 63.3083C63.8697 63.2269 63.2742 63.2557 62.6598 63.3103C62.2055 63.3507 61.7323 63.4066 61.2574 63.4373L60.7819 63.4578C59.9995 63.474 59.3229 63.2652 58.6891 62.988C58.3735 62.85 58.0648 62.6934 57.7604 62.5388C57.4541 62.3833 57.1519 62.2284 56.8385 62.0896L56.8375 62.0906C55.8298 61.6468 54.8108 61.3833 53.7379 61.3562L53.275 61.3591C52.7363 61.3797 52.2057 61.4726 51.6578 61.573C51.2511 61.6475 50.8336 61.7273 50.4078 61.7781L49.9791 61.8181L49.9781 61.8181C48.6483 61.9016 47.3275 61.5883 46.2155 60.8347L45.9967 60.6775C44.9362 59.8821 44.3801 58.7889 43.901 57.7048C43.4453 56.6738 43.0627 55.6652 42.402 54.8171L42.2653 54.6501L42.2653 54.6492C41.6177 53.8802 40.6903 53.3326 39.7145 52.9841L39.2946 52.8464L39.2936 52.8464C38.7654 52.6892 38.2153 52.6038 37.6373 52.4919C37.1397 52.3956 36.6291 52.281 36.1422 52.0798L35.9352 51.988C34.0491 51.0961 33.5997 49.1677 33.693 47.2244C33.7791 45.4313 34.3303 43.5363 34.7379 42.2078L34.7252 42.2078L34.8258 41.8748C34.8476 41.8025 34.8326 41.7608 34.8151 41.7341C34.7932 41.7011 34.7502 41.6685 34.6901 41.6521C34.6302 41.6358 34.5717 41.6403 34.5289 41.6599Z" fill="#C91E1D" stroke="#C91E1D" stroke-width="0.516938"/>
<path d="M29.4783 53.2588C29.4164 53.259 29.3605 53.279 29.324 53.3096C29.3003 53.3294 29.2794 53.3577 29.2693 53.4014L29.2625 53.4512C29.1846 55.7751 30.1352 58.0999 31.8308 59.6943L32.1794 60.0029C32.6925 60.4285 33.2863 60.7324 33.907 61.0586C34.4423 61.3399 34.9967 61.6379 35.488 62.041L35.6941 62.2197C36.3873 62.8553 36.8705 63.6676 37.2791 64.4824L37.6677 65.292C38.4702 67.0017 39.2182 68.7367 40.7332 69.7432L41.0466 69.9346C42.042 70.4908 43.1507 70.6952 44.3103 70.8877C45.3844 71.066 46.5074 71.2342 47.5486 71.6914L47.7556 71.7871C48.4208 72.1068 48.933 72.5671 49.3855 73.0635C49.6114 73.3113 49.8246 73.5713 50.0339 73.8271C50.1393 73.9559 50.2433 74.0838 50.3484 74.21L50.6677 74.582C51.3223 75.3145 52.0933 75.9215 52.9636 76.3584L53.3425 76.5352C55.1937 77.3332 57.2821 77.3418 59.2683 76.9277L59.6638 76.8398C62.3291 76.2052 64.9556 75.8664 67.6843 76.4023L68.2312 76.5215C69.4838 76.821 70.6842 77.2781 71.8152 77.8838L72.2957 78.1523C72.8789 78.4928 73.4061 78.9024 73.9158 79.3037C74.3013 79.6073 74.6765 79.906 75.0671 80.1768L75.4646 80.4375C76.2785 80.9434 77.2512 81.0464 78.283 80.9746C79.0639 80.9203 79.8438 80.7702 80.5984 80.6338L81.3435 80.5059C82.4424 80.3319 83.5382 80.1443 84.6306 79.9453L85.7214 79.7422C85.7942 79.7284 85.8167 79.6987 85.8269 79.6787C85.8413 79.6503 85.8489 79.6014 85.8318 79.54C85.8007 79.4288 85.7205 79.3595 85.6189 79.3594L85.574 79.3633L85.573 79.3633C84.3467 79.5929 83.1161 79.8123 81.8845 80.0137L80.6521 80.209C79.7513 80.3452 78.7573 80.5508 77.7859 80.583L77.3718 80.585L77.3708 80.585C76.5464 80.5648 75.8738 80.2248 75.2751 79.8057C74.977 79.5969 74.6917 79.3639 74.4148 79.1387C74.2748 79.0248 74.1366 78.9127 73.9988 78.8047L73.5837 78.4951L73.5828 78.4951C71.6656 77.1475 69.463 76.259 67.1531 75.8955L66.6892 75.8301C65.5457 75.6878 64.3882 75.6652 63.2371 75.7627L62.7449 75.8125C61.5039 75.9578 60.3497 76.2969 59.0847 76.5537L59.0847 76.5547C56.9659 76.9866 54.6394 76.895 52.7097 75.7539L52.3289 75.5117C51.7579 75.1203 51.2963 74.6424 50.8718 74.1514C50.5459 73.7743 50.2546 73.4054 49.9441 73.0439L49.6248 72.6846C48.9902 71.9989 48.239 71.5093 47.3787 71.1846L47.0027 71.0557C46.4923 70.8959 45.9489 70.7882 45.3855 70.6924C44.8284 70.5977 44.2397 70.5121 43.6716 70.4014C42.5297 70.1787 41.3891 69.8377 40.4617 69.0205L40.4626 69.0195C39.6632 68.3162 39.1259 67.4203 38.6736 66.501C38.4477 66.0418 38.2389 65.5694 38.031 65.1123C37.8742 64.7675 37.7168 64.4297 37.5496 64.1045L37.3787 63.7832C36.9957 63.0906 36.5413 62.4382 35.9744 61.916L35.7244 61.7002L35.7234 61.6992C35.2795 61.3395 34.7723 61.0761 34.2371 60.8008C33.7752 60.5632 33.2913 60.3161 32.8445 59.9961L32.656 59.8545C30.7964 58.398 29.7138 56.1379 29.6814 53.7949L29.6521 53.8047L29.6638 53.4346C29.6661 53.3594 29.6409 53.3239 29.6179 53.3037C29.5891 53.2785 29.5401 53.2587 29.4783 53.2588Z" fill="#C91E1D" stroke="#C91E1D" stroke-width="0.516938"/>
<path d="M64.1389 27.979L64.1379 27.979C64.0626 27.9798 64.0228 28.007 63.9983 28.0356C63.9694 28.0695 63.9485 28.1225 63.9485 28.1841C63.9485 28.2456 63.969 28.297 63.9963 28.3286C64.019 28.3547 64.0577 28.3811 64.1331 28.3804C65.6409 28.3571 67.1407 28.6922 68.4514 29.4712L68.7112 29.6333L68.7122 29.6333C70.2601 30.6493 71.2488 32.2357 71.759 33.9644L71.8547 34.312C72.244 35.8395 72.2282 37.5142 71.5979 38.9976L71.4631 39.2915C71.0791 40.0771 70.4966 40.8596 69.5637 41.147L69.3733 41.1978C68.4854 41.3964 67.6038 41.1533 66.8254 40.8784L66.4993 40.7603L66.4983 40.7593C65.0101 40.2049 63.5955 39.5689 62.1204 39.4673L61.8245 39.4546C61.0263 39.4397 60.2377 39.545 59.4202 39.6392C58.7113 39.7208 57.984 39.7936 57.2424 39.7573L56.9241 39.7349C55.3478 39.5898 53.7557 38.9505 52.7747 37.5991L52.7756 37.5981C51.7727 36.224 51.6375 34.5238 52.1174 32.9741L52.2219 32.6665L52.2219 32.6655L52.344 32.3599C53.6479 29.3064 56.9784 27.87 60.1331 28.7642L60.1409 28.7563L60.2893 28.8003C60.3615 28.822 60.4033 28.8081 60.4299 28.7905C60.4629 28.7687 60.4956 28.7256 60.512 28.6655C60.5283 28.6055 60.5228 28.5462 60.5032 28.5034C60.4905 28.4759 60.4692 28.4483 60.4299 28.4272L60.384 28.4087L60.3831 28.4087C56.6972 27.2755 52.7743 29.2701 51.7034 32.9644L51.6086 33.3276C51.2348 34.9444 51.5423 36.6046 52.5325 37.9145L52.7405 38.1714C53.6807 39.2692 55.0436 39.8592 56.4807 40.0708L56.7688 40.1079C57.8166 40.2263 58.8612 40.0864 59.9495 39.9712C60.8909 39.8715 61.8603 39.7911 62.8381 39.9458L63.2581 40.0269C64.2393 40.2557 65.2057 40.7115 66.1272 41.0708C67.0067 41.4138 67.8657 41.6796 68.7551 41.6616L68.9329 41.6538C70.5734 41.549 71.605 40.282 72.1418 38.689L72.2434 38.3657C72.7076 36.7572 72.5774 35.0208 72.0041 33.4097L71.884 33.0894C71.252 31.4953 70.2746 30.1608 68.8538 29.2476L68.5627 29.0698C67.316 28.3496 65.8765 28.0054 64.428 27.98L64.1389 27.979Z" fill="#C91E1D" stroke="#C91E1D" stroke-width="0.516938"/>
<path d="M29.7748 69.2588C29.7291 69.2627 29.6766 69.2867 29.6332 69.3301C29.5895 69.3737 29.5684 69.4238 29.5658 69.4639C29.5637 69.4964 29.5717 69.5402 29.6254 69.5918C30.0906 70.0334 30.3525 70.5855 30.5551 71.1328C30.7654 71.7013 30.901 72.2211 31.1322 72.7227C31.4131 73.3296 31.8152 73.8171 32.3431 74.2031L32.5775 74.3623C33.2114 74.764 33.9109 75.0574 34.6273 75.3525L35.348 75.6523C36.1109 75.9787 36.8701 76.3069 37.6361 76.6201L38.4047 76.9277L38.4056 76.9277C38.9973 77.1623 39.6804 77.3739 40.307 77.6514L40.5717 77.7744C42.0555 78.5024 42.9909 79.5381 43.8734 80.7666L44.2494 81.3037C45.9806 83.8165 48.9071 85.6435 51.9271 86.1523L52.2201 86.1982C54.2019 86.4771 56.0104 86.0811 57.7445 85.0859L57.7435 85.0859C58.4655 84.6704 59.2221 84.16 60.0463 83.8066L60.4037 83.666C61.4344 83.2959 62.4377 83.3539 63.4369 83.5527L63.8646 83.6455L63.8656 83.6455C64.9477 83.9024 66.0297 84.3211 66.9828 84.8408L67.3832 85.0703C68.1611 85.5362 68.8687 86.1134 69.5638 86.6699L70.2572 87.2148C71.8973 88.4676 73.8781 89.3228 75.7758 88.4229L75.7748 88.4229C75.8418 88.3905 75.8569 88.3553 75.8617 88.333C75.8682 88.3019 75.8629 88.2531 75.8314 88.1992C75.7657 88.0872 75.6492 88.0398 75.5326 88.0947L75.5326 88.0937C74.0787 88.7855 72.6886 88.3267 71.4681 87.5791C70.8569 87.2047 70.2746 86.7498 69.7338 86.3135C69.324 85.9829 68.9413 85.6658 68.5814 85.3936L68.2289 85.1377C66.4262 83.891 63.9194 82.8308 61.7142 82.9746L61.5023 82.9922L61.5013 82.9922C60.6402 83.079 59.8619 83.4107 59.0902 83.8301C58.7038 84.0401 58.325 84.2685 57.9369 84.498C57.6475 84.6692 57.3537 84.84 57.0541 85L56.7523 85.1562C54.8772 86.0878 52.732 86.0494 50.7924 85.4746L50.4076 85.3535L50.4066 85.3525C49.2035 84.9424 48.0404 84.3278 47.0043 83.5791L46.5677 83.25C45.855 82.6868 45.3151 82.0203 44.8207 81.3437C44.3828 80.7447 43.9886 80.1509 43.5316 79.584L43.3324 79.3428C42.59 78.4772 41.6956 77.9029 40.7172 77.4365C39.9739 77.0823 39.2043 76.7994 38.4125 76.4941L37.6136 76.1777L37.6127 76.1777C37.0797 75.9572 36.5483 75.7336 36.0179 75.5078L34.4281 74.8242L34.4271 74.8242C33.843 74.5687 33.1693 74.3041 32.597 73.8984L32.3588 73.7148C31.6233 73.1029 31.3125 72.237 31.0326 71.4375C30.7467 70.6208 30.4915 69.871 29.9174 69.3174C29.8629 69.2653 29.814 69.2555 29.7748 69.2588Z" fill="#C91E1D" stroke="#C91E1D" stroke-width="0.516938"/>
<path d="M43.4348 17.0061C42.9162 17.0061 42.545 17.2042 42.3 17.4895C42.0506 17.7801 41.9198 18.1763 41.9202 18.5823C41.9205 18.9883 42.0521 19.3852 42.302 19.676C42.5473 19.9613 42.9181 20.1594 43.4348 20.1594C43.9534 20.1594 44.3251 19.9604 44.5706 19.675C44.8204 19.3843 44.9514 18.9881 44.9514 18.5823C44.9514 18.1765 44.8205 17.7802 44.5706 17.4895C44.3251 17.2041 43.9534 17.0061 43.4348 17.0061Z" fill="#C91E1D" stroke="#C91E1D" stroke-width="0.516938"/>
<path d="M18.6191 44.4832C18.1005 44.4832 17.7293 44.6813 17.4844 44.9666C17.2349 45.2572 17.1042 45.6534 17.1045 46.0593C17.1049 46.4653 17.2365 46.8622 17.4863 47.1531C17.7316 47.4384 18.1025 47.6365 18.6191 47.6365C19.1378 47.6365 19.5095 47.4375 19.7549 47.1521C20.0047 46.8614 20.1357 46.4651 20.1357 46.0593C20.1357 45.6535 20.0048 45.2573 19.7549 44.9666C19.5095 44.6812 19.1378 44.4832 18.6191 44.4832Z" fill="#C91E1D" stroke="#C91E1D" stroke-width="0.516938"/>
<path d="M19.8173 76.3525C19.2986 76.3525 18.9274 76.5507 18.6825 76.8359C18.4331 77.1266 18.3023 77.5228 18.3026 77.9287C18.303 78.3347 18.4346 78.7316 18.6844 79.0225C18.9297 79.3077 19.3006 79.5059 19.8173 79.5059C20.3359 79.5058 20.7076 79.3069 20.953 79.0215C21.2029 78.7308 21.3339 78.3345 21.3339 77.9287C21.3338 77.5229 21.2029 77.1267 20.953 76.8359C20.7076 76.5506 20.3359 76.3526 19.8173 76.3525Z" fill="#C91E1D" stroke="#C91E1D" stroke-width="0.516938"/>
<path d="M43.6927 99.5479C43.1741 99.5479 42.8029 99.746 42.558 100.031C42.3086 100.322 42.1778 100.718 42.1781 101.124C42.1785 101.53 42.3101 101.927 42.5599 102.218C42.8052 102.503 43.1761 102.701 43.6927 102.701C44.2114 102.701 44.5831 102.502 44.8285 102.217C45.0784 101.926 45.2094 101.53 45.2094 101.124C45.2093 100.718 45.0784 100.322 44.8285 100.031C44.5831 99.7459 44.2114 99.5479 43.6927 99.5479Z" fill="#C91E1D" stroke="#C91E1D" stroke-width="0.516938"/>
<path d="M75.2373 99.9333C74.7187 99.9333 74.3475 100.131 74.1025 100.417C73.8531 100.707 73.7223 101.104 73.7227 101.51C73.723 101.916 73.8546 102.312 74.1045 102.603C74.3498 102.889 74.7206 103.087 75.2373 103.087C75.7559 103.087 76.1276 102.888 76.373 102.602C76.6229 102.312 76.7539 101.915 76.7539 101.51C76.7539 101.104 76.623 100.707 76.373 100.417C76.1276 100.131 75.7559 99.9334 75.2373 99.9333Z" fill="#C91E1D" stroke="#C91E1D" stroke-width="0.516938"/>
<path d="M102.145 75.9243C101.626 75.9243 101.255 76.1225 101.01 76.4077C100.761 76.6984 100.63 77.0946 100.63 77.5005C100.631 77.9065 100.762 78.3034 101.012 78.5942C101.257 78.8795 101.628 79.0776 102.145 79.0776C102.664 79.0776 103.035 78.8786 103.281 78.5933C103.531 78.3025 103.662 77.9063 103.662 77.5005C103.662 77.0947 103.531 76.6984 103.281 76.4077C103.035 76.1223 102.664 75.9243 102.145 75.9243Z" fill="#C91E1D" stroke="#C91E1D" stroke-width="0.516938"/>
<path d="M102.531 44.1775C102.012 44.1775 101.641 44.3756 101.396 44.6609C101.146 44.9515 101.016 45.3477 101.016 45.7537C101.016 46.1597 101.148 46.5566 101.398 46.8474C101.643 47.1327 102.014 47.3308 102.531 47.3308C103.049 47.3308 103.421 47.1318 103.666 46.8464C103.916 46.5557 104.047 46.1595 104.047 45.7537C104.047 45.3478 103.916 44.9516 103.666 44.6609C103.421 44.3755 103.049 44.1775 102.531 44.1775Z" fill="#C91E1D" stroke="#C91E1D" stroke-width="0.516938"/>
<path d="M74.9923 16.4858C74.4737 16.4858 74.1025 16.684 73.8575 16.9692C73.6081 17.2599 73.4773 17.6561 73.4777 18.062C73.478 18.468 73.6096 18.8649 73.8595 19.1558C74.1048 19.441 74.4756 19.6392 74.9923 19.6392C75.5109 19.6391 75.8826 19.4402 76.1281 19.1548C76.3779 18.8641 76.5089 18.4678 76.5089 18.062C76.5089 17.6562 76.378 17.26 76.1281 16.9692C75.8826 16.6839 75.5109 16.4859 74.9923 16.4858Z" fill="#C91E1D" stroke="#C91E1D" stroke-width="0.516938"/>
</svg>
