<svg width="135" height="134" viewBox="0 0 135 134" fill="none" xmlns="http://www.w3.org/2000/svg">
<path d="M52.8869 77.2919C58.3246 85.448 69.344 87.6518 77.5004 82.2146C85.6568 76.777 87.8613 65.7571 82.4239 57.6006C76.9862 49.444 65.9657 47.2399 57.8091 52.6776C49.6529 58.1154 47.4493 69.1354 52.8869 77.2919Z" fill="#8A3B8E" stroke="#8A3B8E" stroke-width="0.516938"/>
<path d="M114.269 100.978C110.489 106.043 105.907 110.484 100.696 114.111Z" fill="#8A3B8E"/>
<path d="M114.269 100.978C110.489 106.043 105.907 110.484 100.696 114.111" stroke="#8A3B8E" stroke-width="0.516938" stroke-miterlimit="10"/>
<path d="M125.53 72.8463C124.759 79.3119 122.931 85.4778 120.208 91.1604Z" fill="#8A3B8E"/>
<path d="M125.53 72.8463C124.759 79.3119 122.931 85.4778 120.208 91.1604" stroke="#8A3B8E" stroke-width="0.516938" stroke-miterlimit="10"/>
<path d="M121.358 42.9769C123.707 48.5556 125.218 54.5869 125.744 60.9241Z" fill="#8A3B8E"/>
<path d="M121.358 42.9769C123.707 48.5556 125.218 54.5869 125.744 60.9241" stroke="#8A3B8E" stroke-width="0.516938" stroke-miterlimit="10"/>
<path d="M102.451 18.7599C107.424 22.4974 111.791 27.0117 115.37 32.1316Z" fill="#8A3B8E"/>
<path d="M102.451 18.7599C107.424 22.4974 111.791 27.0117 115.37 32.1316" stroke="#8A3B8E" stroke-width="0.516938" stroke-miterlimit="10"/>
<path d="M74.0005 7.36404C80.3315 8.10419 86.3812 9.85365 91.966 12.4595Z" fill="#8A3B8E"/>
<path d="M74.0005 7.36404C80.3315 8.10419 86.3812 9.85365 91.966 12.4595" stroke="#8A3B8E" stroke-width="0.516938" stroke-miterlimit="10"/>
<path d="M42.0952 12.5388C47.9797 9.77396 54.4147 7.94499 61.2167 7.26601Z" fill="#8A3B8E"/>
<path d="M42.0952 12.5388C47.9797 9.77396 54.4147 7.94499 61.2167 7.26601" stroke="#8A3B8E" stroke-width="0.516938" stroke-miterlimit="10"/>
<path d="M18.8325 32.1865C22.4293 27.0238 26.8396 22.4606 31.8861 18.6803Z" fill="#8A3B8E"/>
<path d="M18.8325 32.1865C22.4293 27.0238 26.8396 22.4606 31.8861 18.6803" stroke="#8A3B8E" stroke-width="0.516938" stroke-miterlimit="10"/>
<path d="M8.43896 61.4255C8.90385 55.0639 10.3963 48.9592 12.7452 43.2827Z" fill="#8A3B8E"/>
<path d="M8.43896 61.4255C8.90385 55.0639 10.3963 48.9592 12.7452 43.2827" stroke="#8A3B8E" stroke-width="0.516938" stroke-miterlimit="10"/>
<path d="M14.0062 91.1479C11.382 85.6549 9.57746 79.6787 8.77002 73.3599Z" fill="#8A3B8E"/>
<path d="M14.0062 91.1479C11.382 85.6549 9.57746 79.6787 8.77002 73.3599" stroke="#8A3B8E" stroke-width="0.516938" stroke-miterlimit="10"/>
<path d="M33.6836 114.215C28.5515 110.667 24.0005 106.318 20.2202 101.339Z" fill="#8A3B8E"/>
<path d="M33.6836 114.215C28.5515 110.667 24.0005 106.318 20.2202 101.339" stroke="#8A3B8E" stroke-width="0.516938" stroke-miterlimit="10"/>
<path d="M61.7909 124.394C55.362 123.819 49.2022 122.198 43.5073 119.696Z" fill="#8A3B8E"/>
<path d="M61.7909 124.394C55.362 123.819 49.2022 122.198 43.5073 119.696" stroke="#8A3B8E" stroke-width="0.516938" stroke-miterlimit="10"/>
<path d="M91.1161 119.53C85.5436 122.02 79.494 123.678 73.1201 124.326Z" fill="#8A3B8E"/>
<path d="M91.1161 119.53C85.5436 122.02 79.494 123.678 73.1201 124.326" stroke="#8A3B8E" stroke-width="0.516938" stroke-miterlimit="10"/>
<path d="M8.67139 39.4644C9.71659 43.2371 13.5876 45.4416 17.3198 44.3979C21.0523 43.3542 23.2378 39.4488 22.1987 35.6753C21.1536 31.9024 17.2826 29.6981 13.5503 30.7417C9.93412 31.7529 7.76913 35.4498 8.58252 39.1108L8.67139 39.4644ZM18.1372 42.0034C15.7955 43.4584 12.754 42.783 11.2144 40.5161L11.0698 40.2915C9.63093 37.9183 10.2843 34.842 12.5229 33.2817L12.7446 33.1362V33.1353C15.0866 31.6802 18.129 32.3562 19.6685 34.6235L19.812 34.8481C21.2509 37.2213 20.5975 40.2966 18.3589 41.8569L18.1382 42.0034H18.1372Z" fill="#8A3B8E" stroke="#8A3B8E" stroke-width="0.516938"/>
<path d="M2.74219 72.3379C5.52905 75.0893 9.9832 75.0689 12.6953 72.2979C15.4083 69.5259 15.3575 65.0526 12.5703 62.3008C9.78345 59.5493 5.3293 59.5697 2.61719 62.3408C-0.0955093 65.1128 -0.0447182 69.5862 2.74219 72.3379ZM12.2031 69.8174C10.862 72.3255 7.7355 73.2386 5.22559 71.8613C2.7174 70.4848 1.77058 67.3328 3.11035 64.8271C4.4515 62.3191 7.57705 61.406 10.0869 62.7832C12.5953 64.1596 13.5428 67.3117 12.2031 69.8174Z" fill="#8A3B8E" stroke="#8A3B8E" stroke-width="0.516938"/>
<path d="M14.0039 103.786C17.6761 104.747 21.4051 102.671 22.5137 99.1318L22.6123 98.7842C23.5491 95.1448 21.4367 91.4192 17.8623 90.2881L17.5127 90.1865C13.8405 89.2256 10.1116 91.3015 9.00293 94.8408L8.90332 95.1885C7.96655 98.8277 10.0792 102.553 13.6533 103.685L14.0039 103.786ZM15.9258 102.129C13.0641 102.187 10.6685 99.9304 10.5781 97.0898C10.4879 94.2466 12.7387 91.896 15.6025 91.8379C18.4643 91.78 20.8589 94.0363 20.9492 96.877C21.0395 99.7201 18.7896 102.071 15.9258 102.129Z" fill="#8A3B8E" stroke="#8A3B8E" stroke-width="0.516938"/>
<path d="M30.7461 120.508C31.7843 124.247 35.6787 126.443 39.458 125.416V125.417C43.2365 124.383 45.4523 120.524 44.4209 116.786C43.3828 113.046 39.4879 110.843 35.709 111.877C32.0482 112.878 29.8545 116.531 30.6592 120.157L30.7461 120.508ZM40.2949 123.03C37.8445 124.509 34.6471 123.751 33.1465 121.33C31.6443 118.906 32.4262 115.748 34.8779 114.268C37.328 112.79 40.5327 113.547 42.0273 115.969L42.0264 115.97C43.5277 118.395 42.7464 121.55 40.2949 123.03Z" fill="#8A3B8E" stroke="#8A3B8E" stroke-width="0.516938"/>
<path d="M62.3145 131.556C64.9882 134.189 69.2763 134.235 72.0488 131.712L72.3125 131.46C74.989 128.772 75.0652 124.508 72.5586 121.768L72.3076 121.507C69.6339 118.874 65.3466 118.828 62.5742 121.351L62.3105 121.604C59.548 124.378 59.5555 128.831 62.3145 131.556ZM71.8467 128.973C70.4633 131.481 67.3115 132.414 64.8066 131.068C62.3772 129.763 61.4498 126.783 62.6582 124.321L62.7822 124.085C64.1652 121.577 67.3175 120.636 69.8232 121.988L69.8223 121.989C72.2515 123.295 73.1789 126.274 71.9707 128.735L71.8467 128.973Z" fill="#8A3B8E" stroke="#8A3B8E" stroke-width="0.516938"/>
<path d="M95.1821 125.367C98.8159 126.315 102.552 124.219 103.695 120.646L103.797 120.296C104.801 116.517 102.575 112.654 98.8257 111.676C95.0749 110.697 91.2133 112.968 90.2095 116.747C89.2061 120.525 91.4328 124.388 95.1821 125.367ZM97.0933 123.704C94.2438 123.787 91.9001 121.524 91.855 118.66C91.8114 115.888 93.9332 113.56 96.6489 113.346L96.9136 113.333C99.7632 113.249 102.108 115.513 102.153 118.377C102.196 121.148 100.074 123.477 97.3579 123.69L97.0933 123.704Z" fill="#8A3B8E" stroke="#8A3B8E" stroke-width="0.516938"/>
<path d="M111.962 98.6172C112.978 102.401 116.836 104.629 120.574 103.609C124.196 102.621 126.383 98.9361 125.593 95.2705L125.507 94.916V94.915C124.491 91.1309 120.632 88.9028 116.894 89.9229C113.272 90.9111 111.086 94.5962 111.876 98.2617L111.962 98.6172ZM121.402 101.216C118.978 102.705 115.814 101.918 114.347 99.459C112.881 97.0026 113.65 93.8046 116.072 92.3164C118.496 90.8272 121.66 91.6152 123.128 94.0742C124.594 96.5305 123.824 99.7277 121.402 101.216Z" fill="#8A3B8E" stroke="#8A3B8E" stroke-width="0.516938"/>
<path d="M121.767 72.0515C124.536 74.8205 128.991 74.8301 131.72 72.0769C134.451 69.3226 134.429 64.8483 131.66 62.0789C128.891 59.3098 124.436 59.3004 121.707 62.0535C118.976 64.8078 118.998 69.2821 121.767 72.0515ZM131.244 69.5984C129.889 72.1003 126.757 72.9938 124.253 71.5974C121.752 70.2022 120.824 67.0448 122.182 64.5457V64.5447C123.536 62.0427 126.669 61.1493 129.172 62.5457C131.596 63.8976 132.544 66.9041 131.365 69.363L131.244 69.5984Z" fill="#8A3B8E" stroke="#8A3B8E" stroke-width="0.516938"/>
<path d="M117.009 44.1348C120.669 45.1242 124.415 43.0712 125.546 39.5381L125.647 39.1924V39.1914C126.612 35.5581 124.523 31.8159 120.956 30.6621L120.606 30.5586H120.605C116.945 29.5693 113.2 31.6216 112.069 35.1543L111.968 35.501L111.884 35.8535C111.138 39.3738 113.207 42.9148 116.659 44.0312L117.009 44.1348ZM118.933 42.502C116.161 42.5393 113.838 40.4101 113.632 37.6885L113.619 37.4229C113.548 34.5796 115.818 32.2427 118.681 32.2041C121.454 32.1667 123.775 34.2951 123.982 37.0166L123.996 37.2822C124.067 40.1254 121.797 42.4632 118.933 42.502Z" fill="#8A3B8E" stroke="#8A3B8E" stroke-width="0.516938"/>
<path d="M90.2764 17.3596C91.2534 20.9813 94.9267 23.1839 98.5967 22.4055L98.9521 22.3215C102.612 21.3492 104.835 17.7078 104.054 14.0774L103.968 13.7258C102.991 10.1042 99.3174 7.90061 95.6475 8.67896L95.292 8.76392C91.6317 9.7363 89.4102 13.3776 90.1914 17.0081L90.2764 17.3596ZM99.7988 19.9426C97.3355 21.4089 94.1435 20.6257 92.6621 18.1975C91.2256 15.8427 91.9329 12.8059 94.2197 11.2903L94.4453 11.1487C96.9086 9.68237 100.101 10.4657 101.582 12.8938C103.019 15.2486 102.311 18.2853 100.024 19.801L99.7988 19.9426Z" fill="#8A3B8E" stroke="#8A3B8E" stroke-width="0.516938"/>
<path d="M62.4199 12.4597C65.0765 15.1106 69.3638 15.1845 72.1523 12.6794L72.418 12.4294C75.1117 9.75863 75.2162 5.4947 72.7275 2.73804L72.4785 2.47632C69.8219 -0.174552 65.5347 -0.248462 62.7461 2.25659L62.4814 2.50757H62.4805C59.7001 5.26462 59.6789 9.72415 62.4199 12.4597ZM71.8252 10.1736C70.3574 12.4939 67.3183 13.3117 64.9033 11.989C62.4861 10.6648 61.5832 7.68344 62.8047 5.22827L62.9297 4.99292V4.99194C64.3378 2.49726 67.4963 1.58171 69.9893 2.94702C72.4064 4.27115 73.3092 7.25264 72.0879 9.70776L71.9629 9.94409L71.8252 10.1736Z" fill="#8A3B8E" stroke="#8A3B8E" stroke-width="0.516938"/>
<path d="M31.6089 20.2708C34.2655 22.9216 38.5527 22.9956 41.3413 20.4905L41.6069 20.2405C44.3006 17.5697 44.4052 13.3057 41.9165 10.5491L41.6675 10.2874C39.0109 7.63649 34.7236 7.56258 31.9351 10.0676L31.6704 10.3186H31.6694C28.8892 13.0755 28.8677 17.5289 31.6089 20.2708ZM41.0142 17.9788C39.5463 20.2989 36.5072 21.1168 34.0923 19.7942C31.6751 18.47 30.7723 15.4886 31.9937 13.0334L32.1187 12.7971C33.5268 10.3024 36.6852 9.38679 39.1782 10.7522C41.5955 12.0764 42.4983 15.0578 41.2769 17.5129L41.1519 17.7483V17.7493L41.0142 17.9788Z" fill="#8A3B8E" stroke="#8A3B8E" stroke-width="0.516938"/>
<path d="M38.2835 90.8054C35.6593 87.6797 33.5429 84.1502 32.0381 80.3455Z" fill="#8A3B8E"/>
<path d="M38.2835 90.8054C35.6593 87.6797 33.5429 84.1502 32.0381 80.3455" stroke="#8A3B8E" stroke-width="0.516938" stroke-miterlimit="10"/>
<path d="M54.0721 101.938C50.2612 100.525 46.7868 98.5375 43.7222 96.0968Z" fill="#8A3B8E"/>
<path d="M54.0721 101.938C50.2612 100.525 46.7868 98.5375 43.7222 96.0968" stroke="#8A3B8E" stroke-width="0.516938" stroke-miterlimit="10"/>
<path d="M73.1438 103.877C69.2412 104.483 65.1857 104.489 61.0996 103.804Z" fill="#8A3B8E"/>
<path d="M73.1438 103.877C69.2412 104.483 65.1857 104.489 61.0996 103.804" stroke="#8A3B8E" stroke-width="0.516938" stroke-miterlimit="10"/>
<path d="M91.0368 95.9864C87.8009 98.5739 84.1553 100.629 80.2466 102.048Z" fill="#8A3B8E"/>
<path d="M91.0368 95.9864C87.8009 98.5739 84.1553 100.629 80.2466 102.048" stroke="#8A3B8E" stroke-width="0.516938" stroke-miterlimit="10"/>
<path d="M102.432 80.7491C100.891 84.5232 98.7803 87.9548 96.2234 90.9583Z" fill="#8A3B8E"/>
<path d="M102.432 80.7491C100.891 84.5232 98.7803 87.9548 96.2234 90.9583" stroke="#8A3B8E" stroke-width="0.516938" stroke-miterlimit="10"/>
<path d="M104.922 61.3033C105.454 65.2243 105.369 69.292 104.598 73.3843Z" fill="#8A3B8E"/>
<path d="M104.922 61.3033C105.454 65.2243 105.369 69.292 104.598 73.3843" stroke="#8A3B8E" stroke-width="0.516938" stroke-miterlimit="10"/>
<path d="M97.3062 43.1422C99.759 46.3108 101.704 49.8586 103.056 53.645Z" fill="#8A3B8E"/>
<path d="M97.3062 43.1422C99.759 46.3108 101.704 49.8586 103.056 53.645" stroke="#8A3B8E" stroke-width="0.516938" stroke-miterlimit="10"/>
<path d="M81.3047 31.1039C85.1889 32.6392 88.7184 34.7802 91.8013 37.386Z" fill="#8A3B8E"/>
<path d="M81.3047 31.1039C85.1889 32.6392 88.7184 34.7802 91.8013 37.386" stroke="#8A3B8E" stroke-width="0.516938" stroke-miterlimit="10"/>
<path d="M60.6909 29.012C64.8933 28.2657 69.2914 28.2229 73.72 28.9814Z" fill="#8A3B8E"/>
<path d="M60.6909 29.012C64.8933 28.2657 69.2914 28.2229 73.72 28.9814" stroke="#8A3B8E" stroke-width="0.516938" stroke-miterlimit="10"/>
<path d="M42.8052 37.4229C45.9004 34.8048 49.3993 32.6945 53.1673 31.1775Z" fill="#8A3B8E"/>
<path d="M42.8052 37.4229C45.9004 34.8048 49.3993 32.6945 53.1673 31.1775" stroke="#8A3B8E" stroke-width="0.516938" stroke-miterlimit="10"/>
<path d="M31.5737 53.6389C32.9317 49.8158 34.8647 46.3169 37.2564 43.2218Z" fill="#8A3B8E"/>
<path d="M31.5737 53.6389C32.9317 49.8158 34.8647 46.3169 37.2564 43.2218" stroke="#8A3B8E" stroke-width="0.516938" stroke-miterlimit="10"/>
<path d="M29.934 72.9192C29.2672 69.1267 29.1754 65.1812 29.7321 61.193Z" fill="#8A3B8E"/>
<path d="M29.934 72.9192C29.2672 69.1267 29.1754 65.1812 29.7321 61.193" stroke="#8A3B8E" stroke-width="0.516938" stroke-miterlimit="10"/>
<path d="M39.9268 44.5718C42.2998 44.5493 44.2312 42.6556 44.3389 40.2847L44.3438 40.0542C44.3322 37.5832 42.3367 35.5965 39.8887 35.6196C37.5156 35.642 35.5844 37.5359 35.4766 39.9067L35.4717 40.1372C35.4833 42.6083 37.4787 44.5949 39.9268 44.5718ZM40.8604 43.395C39.1065 43.9281 37.2815 42.9666 36.6885 41.2476L36.6348 41.0796V41.0786C36.1132 39.2563 37.142 37.3458 38.9482 36.7964C40.702 36.2632 42.528 37.2249 43.1211 38.9438L43.1748 39.1128V39.1138C43.6962 40.936 42.6667 42.8459 40.8604 43.395Z" fill="#8A3B8E" stroke="#8A3B8E" stroke-width="0.516938"/>
<path d="M26.2251 59.5518C27.4694 61.6874 30.1922 62.413 32.2993 61.1719C34.4075 59.9298 35.1148 57.1894 33.8706 55.0537C32.6651 52.9848 30.0776 52.2388 27.9956 53.3232L27.7964 53.4336C25.688 54.6756 24.9808 57.416 26.2251 59.5518ZM32.4028 59.8076C31.0943 61.062 29.032 61.0572 27.7065 59.7832C26.382 58.5099 26.2826 56.423 27.4517 55.0479L27.5688 54.917C28.868 53.5386 31.0211 53.5012 32.3892 54.8164C33.7137 56.0897 33.8131 58.1766 32.644 59.5518L32.5269 59.6816V59.6826L32.4028 59.8076Z" fill="#8A3B8E" stroke="#8A3B8E" stroke-width="0.516938"/>
<path d="M27.8979 80.9897C30.0445 82.2221 32.7611 81.4865 33.9741 79.3608C35.1866 77.2358 34.4317 74.5111 32.2837 73.2778C30.1372 72.0455 27.4205 72.7812 26.2075 74.9067C24.9949 77.0317 25.75 79.7564 27.8979 80.9897ZM33.4282 77.9644C33.0102 79.7442 31.2555 80.8413 29.4761 80.4937L29.3042 80.4556H29.3032C27.5254 80.0079 26.3945 78.2523 26.7231 76.4751L26.7593 76.3032C27.1774 74.5237 28.9322 73.4265 30.7114 73.7739L30.8843 73.812L30.8853 73.813C32.6628 74.2608 33.7928 76.0155 33.4644 77.7925L33.4282 77.9644Z" fill="#8A3B8E" stroke="#8A3B8E" stroke-width="0.516938"/>
<path d="M40.0513 98.7312C42.5281 98.7252 44.515 96.7354 44.5034 94.2869C44.4916 91.838 42.4807 89.8534 40.0034 89.8591C37.5264 89.8649 35.5397 91.8548 35.5513 94.3035C35.5626 96.6754 37.4495 98.607 39.8208 98.7253L40.0513 98.7312ZM40.8198 97.613C39.0506 98.0188 37.2341 96.9918 36.7144 95.24C36.1945 93.4869 37.1626 91.6619 38.8823 91.075L39.0503 91.0222L39.0513 91.0212C40.8729 90.5064 42.7911 91.5421 43.3276 93.3503C43.8476 95.1035 42.8794 96.9284 41.1597 97.5154L40.9917 97.5681L40.9907 97.5691L40.8198 97.613Z" fill="#8A3B8E" stroke="#8A3B8E" stroke-width="0.516938"/>
<path d="M53.3223 106.451C54.5202 108.499 57.1242 109.237 59.2324 108.156L59.4346 108.045L59.4355 108.044C61.5818 106.812 62.3136 104.09 61.0781 101.977C59.8417 99.8624 57.1125 99.1435 54.9648 100.382C52.8178 101.621 52.0868 104.338 53.3223 106.451ZM59.6699 106.565C58.3903 107.883 56.31 107.975 54.9355 106.8L54.8047 106.683V106.682C53.4395 105.383 53.4011 103.224 54.7236 101.862C56.0031 100.544 58.0836 100.452 59.458 101.626L59.5889 101.745H59.5898C60.9549 103.044 60.9925 105.203 59.6699 106.565Z" fill="#8A3B8E" stroke="#8A3B8E" stroke-width="0.516938"/>
<path d="M74.79 108.106C76.9095 109.325 79.6391 108.581 80.8779 106.439C82.0777 104.364 81.4405 101.746 79.4678 100.477L79.2734 100.358H79.2725C77.1531 99.1396 74.4234 99.8832 73.1846 102.025C71.9847 104.099 72.6218 106.719 74.5947 107.988L74.79 108.106ZM80.3018 105.212C79.7652 106.947 77.9678 108.003 76.1904 107.573C74.4116 107.142 73.3195 105.387 73.6738 103.607L73.7129 103.435V103.434C74.1815 101.599 76.0374 100.46 77.8721 100.904C79.651 101.334 80.743 103.09 80.3887 104.87L80.3496 105.042V105.042L80.3018 105.212Z" fill="#8A3B8E" stroke="#8A3B8E" stroke-width="0.516938"/>
<path d="M95.1582 97.666C93.3425 98.1962 91.462 97.1411 90.9463 95.3164C90.4473 93.5506 91.4159 91.6966 93.1201 91.1006L93.2881 91.0469C95.1037 90.5168 96.9842 91.571 97.5 93.3955C97.9991 95.1616 97.0299 97.0166 95.3252 97.6123L95.1582 97.666ZM89.79 94.3662C89.7844 96.8422 91.7672 98.8344 94.2158 98.835C96.6655 98.8292 98.6621 96.8236 98.6621 94.3467L98.6572 94.1152C98.5436 91.7471 96.6078 89.878 94.2354 89.8779C91.7859 89.884 89.7901 91.8885 89.79 94.3652V94.3662Z" fill="#8A3B8E" stroke="#8A3B8E" stroke-width="0.516938"/>
<path d="M100.363 79.4399C101.59 81.5861 104.306 82.3246 106.426 81.1001C108.545 79.876 109.265 77.1412 108.037 74.9927C106.811 72.8466 104.094 72.1083 101.975 73.3325C99.9212 74.5187 99.1763 77.1226 100.253 79.2368L100.362 79.4399H100.363ZM106.662 79.6187C105.357 80.9828 103.199 81.0154 101.843 79.687C100.482 78.3657 100.434 76.1846 101.738 74.8208C103.043 73.456 105.202 73.4238 106.559 74.7534L106.558 74.7544C107.918 76.0758 107.966 78.2552 106.662 79.6187Z" fill="#8A3B8E" stroke="#8A3B8E" stroke-width="0.516938"/>
<path d="M102.066 61.2263C104.208 62.4708 106.93 61.7575 108.154 59.6384C109.34 57.5849 108.685 54.9583 106.7 53.6648L106.505 53.5447C104.363 52.3002 101.641 53.0135 100.417 55.1326C99.1931 57.2519 99.9302 59.9825 102.065 61.2273L102.066 61.2263ZM107.62 58.239C107.169 60.0749 105.313 61.1731 103.476 60.7039C101.64 60.235 100.508 58.372 100.958 56.5378C101.409 54.7019 103.265 53.6036 105.103 54.073C106.938 54.542 108.07 56.4051 107.62 58.239Z" fill="#8A3B8E" stroke="#8A3B8E" stroke-width="0.516938"/>
<path d="M94.4629 44.5962C96.9342 44.6078 98.9443 42.6289 98.9443 40.1812L98.9385 39.9536C98.8243 37.6151 96.873 35.7353 94.4727 35.7241L94.2422 35.729C91.8788 35.8374 89.9979 37.7728 89.9922 40.1392C89.9866 42.5057 91.8625 44.4591 94.2324 44.5894L94.4629 44.5962ZM95.418 43.4341C93.5898 43.9422 91.6788 42.894 91.1553 41.0796C90.6479 39.3262 91.6281 37.507 93.3486 36.9321L93.5176 36.8804C95.3465 36.372 97.2581 37.4269 97.7812 39.2349C98.3049 41.0444 97.2495 42.925 95.418 43.4341Z" fill="#8A3B8E" stroke="#8A3B8E" stroke-width="0.516938"/>
<path d="M73.4668 32.3394C74.6852 34.4643 77.4135 35.1969 79.5674 33.9761V33.9751C81.7205 32.748 82.4694 30.0367 81.251 27.9116C80.0324 25.7863 77.3035 25.0551 75.1494 26.2769H75.1484C72.9966 27.5043 72.2488 30.2148 73.4668 32.3394ZM79.8242 32.4966C78.5383 33.8016 76.4521 33.882 75.0889 32.6997L74.959 32.5815C73.6361 31.3159 73.579 29.2496 74.7842 27.8901L74.9053 27.7612V27.7603C76.2325 26.4132 78.4121 26.3723 79.7695 27.6763L79.7705 27.6753C81.094 28.9409 81.1507 31.0071 79.9453 32.3667L79.8252 32.4966H79.8242Z" fill="#8A3B8E" stroke="#8A3B8E" stroke-width="0.516938"/>
<path d="M52.9751 32.0037C54.1936 34.1282 56.922 34.8602 59.0757 33.6394V33.6384C61.2288 32.4114 61.9777 29.7001 60.7593 27.575C59.5407 25.4496 56.8118 24.7184 54.6577 25.9402H54.6567C52.5049 27.1677 51.7569 29.8791 52.9751 32.0037ZM59.3267 32.1599C58.0408 33.465 55.9546 33.5452 54.5913 32.363L54.4614 32.2449C53.1384 30.9792 53.0813 28.9129 54.2866 27.5535L54.4067 27.4246L54.4077 27.4236C55.735 26.0766 57.9145 26.0355 59.272 27.3396L59.2729 27.3386C60.5963 28.6042 60.653 30.6704 59.4478 32.03L59.3276 32.1599H59.3267Z" fill="#8A3B8E" stroke="#8A3B8E" stroke-width="0.516938"/>
</svg>
