<?xml version="1.0" encoding="UTF-8"?>
<svg id="Camada_2" data-name="Camada 2" xmlns="http://www.w3.org/2000/svg" xmlns:xlink="http://www.w3.org/1999/xlink" viewBox="0 0 374.16 374.16">
  <defs>
    <style>
      .cls-1 {
        stroke-width: 1.42px;
      }

      .cls-1, .cls-2, .cls-3, .cls-4, .cls-5 {
        stroke: #010101;
      }

      .cls-1, .cls-2, .cls-3, .cls-6, .cls-5 {
        fill: none;
      }

      .cls-1, .cls-4, .cls-5 {
        stroke-miterlimit: 10;
      }

      .cls-2 {
        stroke-linecap: round;
        stroke-linejoin: round;
        stroke-width: 2.13px;
      }

      .cls-3 {
        stroke-linejoin: bevel;
      }

      .cls-3, .cls-5 {
        stroke-width: 2.83px;
      }

      .cls-4 {
        stroke-width: .71px;
      }

      .cls-4, .cls-7 {
        fill: #010101;
      }

      .cls-8 {
        clip-path: url(#clippath-1);
      }

      .cls-9 {
        clip-path: url(#clippath-2);
      }

      .cls-10 {
        clip-path: url(#clippath);
      }
    </style>
    <clipPath id="clippath">
      <circle class="cls-6" cx="187.08" cy="187.08" r="187.08"/>
    </clipPath>
    <clipPath id="clippath-1">
      <path class="cls-6" d="M184.96,3.54C119.67,12.51,54.39,21.49-10.89,30.46,54.39,140.77,119.67,251.09,184.96,361.41V3.54Z"/>
    </clipPath>
    <clipPath id="clippath-2">
      <path class="cls-6" d="M355.74,72.28c20.87,107.75,41.74,215.49,62.62,323.24-78.74-9.01-157.49-18.02-236.23-27.03,57.87-98.74,115.75-197.48,173.62-296.21Z"/>
    </clipPath>
  </defs>
  <g id="Camada_1-2" data-name="Camada 1">
    <g>
      <g class="cls-10">
        <path class="cls-1" d="M53.84,174.74c.23-2.65.54-5.27.93-7.87.94-6.31,2.32-12.48,4.12-18.47"/>
        <path class="cls-1" d="M66.18,243.27c-5.88-12.29-9.91-25.63-11.74-39.66"/>
        <path class="cls-1" d="M108.98,294.06c-10.44-7.41-19.76-16.31-27.64-26.37"/>
        <path class="cls-1" d="M158.77,315.68c-8.36-1.7-16.43-4.2-24.13-7.4"/>
        <path class="cls-3" d="M214.42,313.05c-10.05,2.85-19.93,4.4-29.15,4.58-11.04.22-20.74-1.53-28.67-3.76"/>
        <path class="cls-3" d="M58.88,148.4c16.32-54.34,66.72-93.93,126.38-93.93s110.28,39.77,126.49,94.29"/>
        <g class="cls-8">
          <path class="cls-7" d="M185.99,69.95c.63,11,1.29,20.34,2.07,27.92,1.78,17.27,3.95,23.39,8.31,23.39,2.33,0,4.74-1.88,8.15-9.07-.64,6.84.16,9.35,1.27,10.73.76.95,1.85,1.48,3.05,1.48,3.05,0,7.32-3.08,18.27-18.09,4.05-5.55,8.67-12.24,13.91-20-4.27,7.85-7.91,14.72-10.84,20.63-8.29,16.69-8.96,21.74-7.35,24.48.74,1.26,2.04,1.96,3.65,1.96,1.76,0,4.39-.71,9.96-4.34-4.34,5.7-4.97,8.49-4.15,10.44.47,1.11,1.63,2.44,4.55,2.44,6.62,0,23.07-7.18,47.7-18.85-31.2,18.75-42.31,26.78-40.75,32.49,1.02,3.73,6.41,4.24,11.55,4.24.89,0,1.85-.02,2.87-.06-8.1,3.15-10.03,5.57-9.83,8.12.31,4.02,6.28,6.34,22.83,8.85,9.65,1.47,22.43,2.88,37.22,4.39-41.68.27-56.81,1.33-58.12,7.85-.59,2.93,1.45,6.16,11.15,11.47-3.11-.57-5.61-.85-7.52-.85h-.02c-1.34,0-5.32.01-6.31,3.06-.99,3.07,1.37,7.36,16.21,19.24,7.6,6.09,17.71,13.56,29.42,22.07-26.13-14.93-43.57-24.39-50.81-24.39-2.81,0-4.05,1.33-4.59,2.44-1.13,2.31-.49,6.05,4.89,14.5-6.29-5.16-9.12-6.13-10.98-6.13-1.42,0-2.61.63-3.33,1.77-1.6,2.54-1.22,7.69,5.87,24.56,3.88,9.24,9.29,20.89,15.61,34.23-20.84-33.56-30.94-48.55-37.3-48.56h0c-1.27,0-2.38.53-3.23,1.53-1.43,1.71-2.51,4.95-1.75,14.7-3.96-9.57-6.72-11.98-9.43-11.98-7.12,0-9.03,16.99-12.39,65.25-.91-17.36-1.77-32.34-3.01-43.27-1.79-15.82-4.09-21.71-8.51-21.71-2.72,0-5.67,2.47-10.07,12.18,1.08-9.65.11-12.87-1.26-14.56-.8-.99-1.93-1.53-3.17-1.53-6.32,0-16.84,15.18-38.7,49.16,18.03-36.83,25.7-53.87,22.44-59.11-.74-1.2-1.98-1.85-3.49-1.85h0c-1.94,0-4.91.96-11.52,6.12,5.63-8.35,6.35-12.05,5.26-14.36-.53-1.12-1.75-2.45-4.58-2.45-7.43,0-25.58,9.65-52.82,24.81,37.01-26.52,49.07-36.27,47.23-42.02-1.02-3.19-5.33-3.19-6.74-3.19-1.98,0-4.53.27-7.68.8,10.02-5.32,12.14-8.57,11.57-11.53-.8-4.13-6.9-6.06-22.5-7.1-9.75-.65-22.72-.88-37.74-1.01,15.78-1.62,29.4-3.12,39.61-4.69,16.43-2.53,22.36-4.85,22.65-8.87.19-2.6-1.81-5.05-10.26-8.24.96.03,1.86.05,2.71.05,5.51,0,11.29-.52,12.34-4.4,1.6-5.92-9.97-14.03-42.63-33.31,25.94,11.99,43.24,19.42,50.07,19.42,2.93,0,4.08-1.33,4.53-2.44.68-1.69.67-4-4.53-10.4,5.91,3.65,8.7,4.36,10.55,4.36,2.31,0,3.4-1.29,3.85-2.05,1.56-2.7.92-7.8-7.33-23.9-3.19-6.23-7.21-13.52-11.96-21.94,5.59,8,10.59,15,14.86,20.67,11.53,15.32,15.75,18.4,18.83,18.4,1.19,0,2.24-.52,2.97-1.47,1.16-1.51,1.7-4.24.85-10.48,3.8,7.23,6.36,9.12,8.76,9.12,6.38,0,8.17-12.93,9.64-51.12M185.51,19.5c-2.01,60.96-2.21,99.44-9.16,99.44-3.36,0-8.3-9.01-15.78-28.84,5.88,22.05,6.75,31.68,3.19,31.68-6.52,0-27.94-32.35-60.8-79.94,31.52,55.06,52.23,88.77,42.56,88.77-3.92,0-12.83-5.54-28.02-17.43,19.17,18.42,23.84,25.92,17.48,25.92-9.49,0-43.53-16.65-90.68-38.58,62.65,36.75,100.77,56.87,70.9,56.87-5.7,0-13.89-.73-24.85-2.23,66.1,16.63,15.26,19.13-68.38,27.9,83.64.96,131.55-1.85,66.29,25.02,14.29-3.99,23.53-5.86,28.59-5.86,18.77,0-19.98,25.63-72.55,63.38,42.79-23.65,75.32-42.98,84.89-42.98,6.45,0,2.46,8.79-15.84,30.96,14.72-14.05,23.09-20.27,26.69-20.27,8.97,0-11.6,38.6-37.06,90.96,28.65-44.29,49.59-79.16,56.81-79.15,3.93,0,3.8,10.32-1.35,35.05,7.41-21.77,12.38-31.14,15.86-31.14,7.37,0,8.06,42.07,11.23,97.57,4.04-55.52,5.59-97.84,12.67-97.84,3.34,0,7.9,9.42,14.54,31.31-4.37-25.06-4.17-35.57-.13-35.57,7.34,0,27.33,34.71,55.47,79.76-25.04-53.12-44.77-91.78-36.31-91.77,3.44,0,11.57,6.42,25.9,20.89-17.79-22.65-21.7-31.7-15.23-31.69,9.48,0,41.24,19.41,84.31,43.91-52.92-38.49-90.37-63.89-72.79-63.89,4.93,0,14.18,2,28.64,6.26-64.11-27.16-18.8-24.35,66.48-24.91-85.28-8.76-133.33-11.14-68.57-27.82-11.22,1.63-19.5,2.44-25.15,2.44-28.06,0,8.59-19.87,71.39-57.16-47.32,22.61-80.47,39.27-89.88,39.27-6.4,0-1.84-7.69,16.65-26.44-14.7,12.2-23.3,17.89-27.02,17.89-9.05,0,10.75-33.71,41.58-89.4-32.12,48.26-52.52,80.44-59.22,80.44-3.69,0-3.22-9.8,1.75-32.09-6.58,19.91-11.04,28.94-14.22,28.94-6.58,0-7.7-38.66-10.86-99.63h0Z"/>
        </g>
        <path class="cls-5" d="M185.26,229.92c24.03,0,43.51-19.48,43.51-43.51s-19.48-43.51-43.51-43.51"/>
        <g class="cls-9">
          <path class="cls-4" d="M352.13,238.76c-.33-44.86-12.32-89.73-43.92-124.11-34.03-36.02-84.46-53.39-130.16-38.14-31.83,10.43-57.23,38.81-63.92,73.81-2.51,13.84-.14,26.88,4.68,39.94,6.45,13.88,18.57,32.68,35.68,31.96-.79-4.89-6.49-5.74-9.73-9.01-25.12-27.01-22.46-69.36,2.12-96.12,44.23-46.21,119.93-32.79,157.96,17.92,40.45,54.79,35.2,125.64,3.15,180.88,32.06-56.86,38.97-132.6-7.2-185.79-23.49-27-56.79-45.91-91.84-43.65-24.45,1.5-48.14,15.23-64.54,35.52-18.04,22.72-24.75,60.98.4,80.66-10.47-23.68-6.25-52.17,10.15-72.46,23.77-28.39,63.71-31.45,95.41-18.25,25.2,10.72,43.84,30.37,55.93,54.87,33.04,70.23-4.85,151.51-66.96,190.3,33.51-21.83,60.56-53.46,72.98-92.5,16.57-53.69,3.03-114.86-44.87-146.87-38.16-25.45-91.14-21.65-119.84,16.5-9.03,12.99-12.39,33.34-2.69,47.24,1.78-30.13,26.36-56.08,56.52-60.81,49.74-7.89,90.26,33.05,98.98,80.35,15.84,88.88-66,160.97-148.28,161.37,47.27-3.02,93.8-22.33,124.15-62.1,34.45-45.45,38.84-107.34,2.4-151.52-19.43-23.73-52.79-32.04-83.79-24.87-18.76,4.79-37.57,18.55-39.3,38.9,18.89-29.23,60.48-37.98,90.52-18.28,45.47,30.38,51.67,91.51,23.75,136.17-43.54,70.66-136.45,77.51-202.25,39.7,53.62,28.79,122.85,33.22,174.39-8.07,39.27-31.57,55.83-84.44,35.7-130.17-10.47-24.49-32.37-43.34-59.24-45.93-15.47-.89-32.6,1.46-44.06,13.62-1.64,1.62,1.62,1.64,1.62,2.45,24.5-12.1,54.62-6.24,74.06,14.23,23.5,23.75,25.77,58.79,15.03,88.88-17.35,47.16-68,74.6-116.87,71.91-55.39-2.73-103.26-40.45-129.9-87.84,21.8,38.4,55.86,69.53,99.78,82.79,54.5,16.57,116.52-4.29,143.66-53.04,15.63-29.25,14.19-65.92-6.85-94.54-12.13-17.17-34.86-34.4-56.91-23.1,37.47,1.82,61.71,40.24,58.27,76.88-2.56,23.61-14.89,43.92-33.71,59.3-39.27,32.39-92.22,30.49-134.44,3.39-50.35-32.03-71.24-89.17-70.95-144.56.62,37.48,7.77,73.36,30.42,106.07,33.16,48.24,90.87,72.97,143.92,55.32,31.83-10.43,57.23-38.81,63.92-73.81,2.51-13.84.14-26.88-4.68-39.94-6.45-13.88-18.57-32.68-35.68-31.96.79,4.89,6.49,5.74,9.73,9.01,25.12,27.01,22.46,69.36-2.12,96.12-44.23,46.21-119.93,32.79-157.96-17.92-40.45-54.79-35.2-125.64-3.15-180.88-32.06,56.86-38.97,132.6,7.2,185.79,23.49,27,56.79,45.91,91.84,43.65,24.45-1.5,48.14-15.23,64.54-35.52,18.04-22.72,24.75-60.98-.4-80.66,10.47,23.68,6.25,52.17-10.15,72.46-23.77,28.39-63.71,31.45-95.41,18.25-25.2-10.72-43.84-30.37-55.93-54.87-33.04-70.23,4.85-151.51,66.96-190.3-33.51,21.83-60.56,53.46-72.98,92.5-16.57,53.69-3.03,114.86,44.87,146.87,38.16,25.45,91.14,21.65,119.84-16.5,9.03-12.99,12.39-33.34,2.69-47.24-1.78,30.13-26.36,56.08-56.52,60.81-49.74,7.89-90.26-33.05-98.98-80.35C53.31,94.62,135.15,22.53,217.44,22.13c-47.27,3.02-93.8,22.33-124.15,62.1-34.45,45.45-38.84,107.34-2.4,151.52,19.43,23.73,52.79,32.04,83.79,24.87,18.76-4.79,37.57-18.55,39.3-38.9-18.89,29.23-60.48,37.98-90.52,18.28-45.47-30.38-51.67-91.51-23.75-136.17,43.54-70.66,136.45-77.51,202.25-39.7-53.62-28.79-122.85-33.22-174.39,8.07-39.27,31.57-55.83,84.44-35.7,130.17,10.47,24.49,32.37,43.34,59.24,45.93,15.47.89,32.6-1.46,44.06-13.62,1.64-1.62-1.62-1.64-1.62-2.45-24.5,12.1-54.62,6.24-74.06-14.23-23.5-23.75-25.77-58.79-15.03-88.88,17.35-47.16,68-74.6,116.87-71.91,55.39,2.73,103.26,40.45,129.9,87.84-21.8-38.4-55.86-69.53-99.78-82.79-54.5-16.57-116.52,4.29-143.66,53.04-15.63,29.25-14.19,65.92,6.85,94.54,12.13,17.17,34.86,34.4,56.91,23.1-39.91-1.83-64.14-42.69-57.43-81.76,10.91-61.86,77.86-91.66,132.37-75.91,47.18,13.28,82.01,53.37,96.17,99.24,6.06,18.93,9.19,40.79,9.47,64.29Z"/>
        </g>
        <path class="cls-2" d="M-10.79,30.51s190.37,322.12,196.03,331.7c0-2.89.76-377.87.76-377.87"/>
        <path class="cls-2" d="M-7.61,35.89c.15.25,3.59,6.1,3.74,6.35,20,33.99,40.03,67.97,60.07,101.94,42.76,72.46,85.62,144.85,128.57,217.19"/>
        <line class="cls-2" x1="185.15" y1="362.57" x2="381.31" y2="30.66"/>
        <path class="cls-7" d="M209.09,151.01c1.65,1.95,2.53,4.43,2.33,6.99-.14,1.83-.6,4.37-2.4,5.3-1.34.69-2.9.44-4.16,1.39-.99.75-1.63,1.83-2.15,2.94-1.06,2.24-1.81,5-4.63,5.34-1.86.23-3.84.12-5.7.04-1.97-.08-3.91-.36-5.83-.81-1-.23-1.42,1.3-.42,1.54,3.7.86,7.59,1.1,11.38.87,1.23-.08,2.45-.27,3.44-1.05,1.13-.88,1.82-2.2,2.4-3.47s1.12-2.94,2.25-3.95c1.34-1.19,3.35-.73,4.78-1.82,1.83-1.4,2.42-3.89,2.62-6.07.27-3.08-.8-6.02-2.78-8.35-.67-.78-1.79.35-1.13,1.13h0Z"/>
        <path class="cls-7" d="M219.84,161.61c.96,3.1,2.05,6.8,1.2,10.06-.2.77-.54,1.5-1.09,2.09-1.3,1.38-3.24,1.47-4.97,1.87-1.85.42-3.74,1.26-5.02,2.71-1.17,1.33-1.74,3.02-2.45,4.61-.84,1.88-1.99,3.47-3.89,4.38s-3.84.73-5.83.36c-4.28-.79-7.98.28-11.44,2.9-.81.61-.01,2,.8,1.38,1.77-1.34,3.73-2.46,5.94-2.86,1.82-.33,3.56.03,5.36.32,3.85.63,7.72-.78,9.72-4.26.99-1.71,1.44-3.72,2.61-5.33,1.41-1.95,3.78-2.51,6-2.95,2.61-.51,4.78-1.73,5.65-4.34,1.2-3.61,0-7.89-1.07-11.36-.3-.98-1.84-.56-1.54.42h0Z"/>
        <path class="cls-7" d="M226.43,177.5c.11,3.87-1.96,7.48-5.39,9.29-1.5.79-2.83,1.49-3.9,2.84-.96,1.22-1.61,2.64-2.26,4.04s-1.35,2.99-2.47,4.17c-1.29,1.35-3.04,1.86-4.82,2.2s-3.51.52-5.16,1.19-2.77,1.82-3.88,3.18c-2.84,3.51-7.03,5.29-11.49,3.87-.98-.31-1.4,1.23-.42,1.54,3.56,1.13,7.58.48,10.58-1.78,1.69-1.28,2.68-3.23,4.34-4.51,1.57-1.21,3.64-1.47,5.54-1.79s3.75-.7,5.31-1.8c1.31-.93,2.24-2.26,2.98-3.66.82-1.56,1.44-3.24,2.37-4.75,1.12-1.83,2.64-2.53,4.44-3.55,3.71-2.1,5.95-6.24,5.82-10.47-.03-1.02-1.62-1.03-1.59,0h0Z"/>
        <path class="cls-7" d="M185.97,144.24c2.36-.74,4.92-.52,7.03.81,2,1.26,3.41,3.52,3.71,5.86s-.83,4.8-2.93,6.1-4.4,1.36-6.59.59c-.97-.34-1.39,1.2-.42,1.54,4.14,1.46,9.18-.17,10.97-4.37s-.63-9.46-4.61-11.48c-2.35-1.19-5.07-1.37-7.58-.58-.98.3-.56,1.84.42,1.54h0Z"/>
        <path class="cls-7" d="M225.25,198.83c-1.36,1.32-1.5,3.13-2.34,4.73-.68,1.3-1.92,1.89-3.21,2.46-2.7,1.2-5.44,2.27-8.19,3.35-2.39.94-4.25,2.56-5.67,4.68-1.77,2.62-3.95,4.59-6.84,5.89-4.29,1.94-9.09,1.51-12.74-1.55-.78-.65-1.92.47-1.13,1.13,3.13,2.62,7.06,3.76,11.1,2.98,3.09-.6,6.19-2.25,8.47-4.43,1.21-1.16,2.02-2.58,3-3.91s2.34-2.39,3.87-3.09c2.37-1.1,4.95-1.95,7.38-2.99,1.55-.66,3.35-1.26,4.52-2.54,1.48-1.6,1.36-4.09,2.91-5.58.74-.71-.39-1.84-1.13-1.13h0Z"/>
        <path class="cls-7" d="M150.69,156.38c1.8-.85,3.78-1.37,5.9-1.37,7.65,0,13.86,6.2,13.86,13.86s-6.2,13.86-13.86,13.86-13.86-6.2-13.86-13.86c0-.03,0-.06,0-.1-.15.34-.31.67-.45,1.01-2.14,5.29-3.32,11.08-3.32,17.13,0,25.28,20.49,45.77,45.77,45.77v-91.53c-13.53,0-25.67,5.89-34.05,15.22Z"/>
      </g>
      <path class="cls-7" d="M210.05,123.55c4.1,0,4.11-6.38,0-6.38s-4.11,6.38,0,6.38h0Z"/>
      <path class="cls-7" d="M247.66,161.57c4.1,0,4.11-6.38,0-6.38s-4.11,6.38,0,6.38h0Z"/>
      <path class="cls-7" d="M247.66,209.87c4.1,0,4.11-6.38,0-6.38s-4.11,6.38,0,6.38h0Z"/>
      <path class="cls-7" d="M209.65,248.67c4.1,0,4.11-6.38,0-6.38s-4.11,6.38,0,6.38h0Z"/>
      <path class="cls-7" d="M58,172.29c-9.07-1.98-18.01,3.83-19.97,12.99-1.96,9.15,3.8,18.18,12.87,20.16,9.07,1.98,18.01-3.83,19.97-12.99,1.96-9.15-3.8-18.18-12.87-20.16ZM64.36,194.27c-2.94,5.55-9.77,7.63-15.25,4.65-5.48-2.99-7.53-9.91-4.58-15.46,2.94-5.55,9.77-7.63,15.25-4.65,5.48,2.99,7.53,9.91,4.58,15.46Z"/>
      <path class="cls-7" d="M77.4,238.81c-9.07-1.98-18.01,3.83-19.97,12.99-1.96,9.15,3.8,18.18,12.87,20.16,9.07,1.98,18.01-3.83,19.97-12.99,1.96-9.15-3.8-18.18-12.87-20.16ZM83.76,260.79c-2.94,5.55-9.77,7.63-15.25,4.65-5.48-2.99-7.53-9.91-4.58-15.46,2.94-5.55,9.77-7.63,15.25-4.65,5.48,2.99,7.53,9.91,4.58,15.46Z"/>
      <path class="cls-7" d="M124.51,285.93c-9.07-1.98-18.01,3.83-19.97,12.99-1.96,9.15,3.8,18.18,12.87,20.16,9.07,1.98,18.01-3.83,19.97-12.99,1.96-9.15-3.8-18.18-12.87-20.16ZM130.87,307.91c-2.94,5.55-9.77,7.63-15.25,4.65-5.48-2.99-7.53-9.91-4.58-15.46,2.94-5.55,9.77-7.63,15.25-4.65,5.48,2.99,7.53,9.91,4.58,15.46Z"/>
    </g>
  </g>
</svg>